# MagicaVoxel @ Ephtracy

# group
g humanoid-7

# material
mtllib humanoid-7.mtl
usemtl palette

# normals
vn -1 0 0
vn 1 0 0
vn 0 0 1
vn 0 0 -1
vn 0 -1 0
vn 0 1 0

# texcoords
vt 0.935547 0.5

# verts
v -14 92 13
v -14 92 12
v -14 99 13
v -14 99 12
v -10 88 13
v -10 88 12
v -10 92 13
v -10 92 12
v -10 95 14
v -10 95 13
v -10 96 14
v -10 96 13
v -9 93 14
v -9 93 13
v -9 94 14
v -9 94 13
v -8 91 14
v -8 91 13
v -8 93 14
v -8 93 13
v -8 94 14
v -8 94 13
v -8 96 14
v -8 96 13
v -5 89 14
v -5 89 13
v -5 90 14
v -5 90 13
v -3 90 14
v -3 90 13
v -3 91 14
v -3 91 13
v -2 88 14
v -2 88 13
v -2 89 14
v -2 89 13
v 2 90 14
v 2 90 13
v 2 91 14
v 2 91 13
v 6 91 14
v 6 91 13
v 6 92 14
v 6 92 13
v 6 92 12
v 6 93 14
v 6 93 13
v 6 94 14
v 6 94 13
v 6 97 13
v 6 97 12
v 7 92 14
v 7 92 13
v 7 93 14
v 7 93 13
v 7 94 14
v 7 94 13
v 7 96 14
v 7 96 13
v 9 95 14
v 9 95 13
v 9 96 14
v 9 96 13
v 10 97 13
v 10 97 12
v 10 98 13
v 10 98 12
v 13 98 13
v 13 98 12
v 13 99 13
v 13 99 12
v -13 98 13
v -13 98 12
v -13 99 13
v -13 99 12
v -10 97 13
v -10 97 12
v -10 98 13
v -10 98 12
v -9 95 14
v -9 95 13
v -9 96 14
v -9 96 13
v -7 92 14
v -7 92 13
v -7 93 14
v -7 93 13
v -7 94 14
v -7 94 13
v -7 96 14
v -7 96 13
v -6 91 14
v -6 91 13
v -6 92 14
v -6 92 13
v -6 92 12
v -6 93 14
v -6 93 13
v -6 94 14
v -6 94 13
v -6 97 13
v -6 97 12
v -2 90 14
v -2 90 13
v -2 91 14
v -2 91 13
v 2 88 14
v 2 88 13
v 2 89 14
v 2 89 13
v 3 90 14
v 3 90 13
v 3 91 14
v 3 91 13
v 5 89 14
v 5 89 13
v 5 90 14
v 5 90 13
v 8 91 14
v 8 91 13
v 8 93 14
v 8 93 13
v 8 94 14
v 8 94 13
v 8 96 14
v 8 96 13
v 9 93 14
v 9 93 13
v 9 94 14
v 9 94 13
v 10 88 13
v 10 88 12
v 10 92 13
v 10 92 12
v 10 95 14
v 10 95 13
v 10 96 14
v 10 96 13
v 14 92 13
v 14 92 12
v 14 99 13
v 14 99 12
v -10 95 14
v -10 96 14
v -9 93 14
v -9 94 14
v -9 95 14
v -9 96 14
v -8 91 14
v -8 93 14
v -8 94 14
v -8 96 14
v -7 92 14
v -7 93 14
v -7 94 14
v -7 96 14
v -6 91 14
v -6 92 14
v -6 93 14
v -6 94 14
v -5 89 14
v -5 90 14
v -3 90 14
v -3 91 14
v -2 88 14
v -2 89 14
v -2 90 14
v -2 91 14
v 2 88 14
v 2 89 14
v 2 90 14
v 2 91 14
v 3 90 14
v 3 91 14
v 5 89 14
v 5 90 14
v 6 91 14
v 6 92 14
v 6 93 14
v 6 94 14
v 7 92 14
v 7 93 14
v 7 94 14
v 7 96 14
v 8 91 14
v 8 93 14
v 8 94 14
v 8 96 14
v 9 93 14
v 9 94 14
v 9 95 14
v 9 96 14
v 10 95 14
v 10 96 14
v -14 92 13
v -14 99 13
v -13 98 13
v -13 99 13
v -10 88 13
v -10 92 13
v -10 95 13
v -10 96 13
v -10 97 13
v -10 98 13
v -9 93 13
v -9 94 13
v -9 95 13
v -9 96 13
v -8 91 13
v -8 93 13
v -8 94 13
v -8 96 13
v -7 92 13
v -7 93 13
v -7 94 13
v -7 96 13
v -6 91 13
v -6 92 13
v -6 93 13
v -6 94 13
v -6 97 13
v -5 89 13
v -5 90 13
v -3 90 13
v -3 91 13
v -2 88 13
v -2 89 13
v -2 90 13
v -2 91 13
v 2 88 13
v 2 89 13
v 2 90 13
v 2 91 13
v 3 90 13
v 3 91 13
v 5 89 13
v 5 90 13
v 6 91 13
v 6 92 13
v 6 93 13
v 6 94 13
v 6 97 13
v 7 92 13
v 7 93 13
v 7 94 13
v 7 96 13
v 8 91 13
v 8 93 13
v 8 94 13
v 8 96 13
v 9 93 13
v 9 94 13
v 9 95 13
v 9 96 13
v 10 88 13
v 10 92 13
v 10 95 13
v 10 96 13
v 10 97 13
v 10 98 13
v 13 98 13
v 13 99 13
v 14 92 13
v 14 99 13
v -14 92 12
v -14 99 12
v -13 98 12
v -13 99 12
v -10 88 12
v -10 92 12
v -10 97 12
v -10 98 12
v -6 92 12
v -6 97 12
v 6 92 12
v 6 97 12
v 10 88 12
v 10 92 12
v 10 97 12
v 10 98 12
v 13 98 12
v 13 99 12
v 14 92 12
v 14 99 12
v -2 88 14
v 2 88 14
v -10 88 13
v -2 88 13
v 2 88 13
v 10 88 13
v -10 88 12
v 10 88 12
v -5 89 14
v -2 89 14
v 2 89 14
v 5 89 14
v -5 89 13
v -2 89 13
v 2 89 13
v 5 89 13
v -8 91 14
v -6 91 14
v 6 91 14
v 8 91 14
v -8 91 13
v -6 91 13
v 6 91 13
v 8 91 13
v -14 92 13
v -10 92 13
v 10 92 13
v 14 92 13
v -14 92 12
v -10 92 12
v 10 92 12
v 14 92 12
v -9 93 14
v -8 93 14
v -7 93 14
v -6 93 14
v 6 93 14
v 7 93 14
v 8 93 14
v 9 93 14
v -9 93 13
v -8 93 13
v -7 93 13
v -6 93 13
v 6 93 13
v 7 93 13
v 8 93 13
v 9 93 13
v -10 95 14
v -9 95 14
v 9 95 14
v 10 95 14
v -10 95 13
v -9 95 13
v 9 95 13
v 10 95 13
v -5 90 14
v -3 90 14
v -2 90 14
v 2 90 14
v 3 90 14
v 5 90 14
v -5 90 13
v -3 90 13
v -2 90 13
v 2 90 13
v 3 90 13
v 5 90 13
v -3 91 14
v -2 91 14
v 2 91 14
v 3 91 14
v -3 91 13
v -2 91 13
v 2 91 13
v 3 91 13
v -7 92 14
v -6 92 14
v 6 92 14
v 7 92 14
v -7 92 13
v -6 92 13
v 6 92 13
v 7 92 13
v -6 92 12
v 6 92 12
v -9 94 14
v -8 94 14
v -7 94 14
v -6 94 14
v 6 94 14
v 7 94 14
v 8 94 14
v 9 94 14
v -9 94 13
v -8 94 13
v -7 94 13
v -6 94 13
v 6 94 13
v 7 94 13
v 8 94 13
v 9 94 13
v -10 96 14
v -9 96 14
v -8 96 14
v -7 96 14
v 7 96 14
v 8 96 14
v 9 96 14
v 10 96 14
v -10 96 13
v -9 96 13
v -8 96 13
v -7 96 13
v 7 96 13
v 8 96 13
v 9 96 13
v 10 96 13
v -10 97 13
v -6 97 13
v 6 97 13
v 10 97 13
v -10 97 12
v -6 97 12
v 6 97 12
v 10 97 12
v -13 98 13
v -10 98 13
v 10 98 13
v 13 98 13
v -13 98 12
v -10 98 12
v 10 98 12
v 13 98 12
v -14 99 13
v -13 99 13
v 13 99 13
v 14 99 13
v -14 99 12
v -13 99 12
v 13 99 12
v 14 99 12

# faces
f 3/1/1 2/1/1 1/1/1
f 4/1/1 2/1/1 3/1/1
f 7/1/1 6/1/1 5/1/1
f 8/1/1 6/1/1 7/1/1
f 11/1/1 10/1/1 9/1/1
f 12/1/1 10/1/1 11/1/1
f 15/1/1 14/1/1 13/1/1
f 16/1/1 14/1/1 15/1/1
f 19/1/1 18/1/1 17/1/1
f 20/1/1 18/1/1 19/1/1
f 23/1/1 22/1/1 21/1/1
f 24/1/1 22/1/1 23/1/1
f 27/1/1 26/1/1 25/1/1
f 28/1/1 26/1/1 27/1/1
f 31/1/1 30/1/1 29/1/1
f 32/1/1 30/1/1 31/1/1
f 35/1/1 34/1/1 33/1/1
f 36/1/1 34/1/1 35/1/1
f 39/1/1 38/1/1 37/1/1
f 40/1/1 38/1/1 39/1/1
f 43/1/1 42/1/1 41/1/1
f 44/1/1 42/1/1 43/1/1
f 47/1/1 45/1/1 44/1/1
f 48/1/1 47/1/1 46/1/1
f 49/1/1 45/1/1 47/1/1
f 49/1/1 47/1/1 48/1/1
f 50/1/1 45/1/1 49/1/1
f 51/1/1 45/1/1 50/1/1
f 54/1/1 53/1/1 52/1/1
f 55/1/1 53/1/1 54/1/1
f 58/1/1 57/1/1 56/1/1
f 59/1/1 57/1/1 58/1/1
f 62/1/1 61/1/1 60/1/1
f 63/1/1 61/1/1 62/1/1
f 66/1/1 65/1/1 64/1/1
f 67/1/1 65/1/1 66/1/1
f 70/1/1 69/1/1 68/1/1
f 71/1/1 69/1/1 70/1/1
f 72/1/2 73/1/2 74/1/2
f 74/1/2 73/1/2 75/1/2
f 76/1/2 77/1/2 78/1/2
f 78/1/2 77/1/2 79/1/2
f 80/1/2 81/1/2 82/1/2
f 82/1/2 81/1/2 83/1/2
f 84/1/2 85/1/2 86/1/2
f 86/1/2 85/1/2 87/1/2
f 88/1/2 89/1/2 90/1/2
f 90/1/2 89/1/2 91/1/2
f 92/1/2 93/1/2 94/1/2
f 94/1/2 93/1/2 95/1/2
f 95/1/2 96/1/2 98/1/2
f 97/1/2 98/1/2 99/1/2
f 98/1/2 96/1/2 100/1/2
f 99/1/2 98/1/2 100/1/2
f 100/1/2 96/1/2 101/1/2
f 101/1/2 96/1/2 102/1/2
f 103/1/2 104/1/2 105/1/2
f 105/1/2 104/1/2 106/1/2
f 107/1/2 108/1/2 109/1/2
f 109/1/2 108/1/2 110/1/2
f 111/1/2 112/1/2 113/1/2
f 113/1/2 112/1/2 114/1/2
f 115/1/2 116/1/2 117/1/2
f 117/1/2 116/1/2 118/1/2
f 119/1/2 120/1/2 121/1/2
f 121/1/2 120/1/2 122/1/2
f 123/1/2 124/1/2 125/1/2
f 125/1/2 124/1/2 126/1/2
f 127/1/2 128/1/2 129/1/2
f 129/1/2 128/1/2 130/1/2
f 131/1/2 132/1/2 133/1/2
f 133/1/2 132/1/2 134/1/2
f 135/1/2 136/1/2 137/1/2
f 137/1/2 136/1/2 138/1/2
f 139/1/2 140/1/2 141/1/2
f 141/1/2 140/1/2 142/1/2
f 147/1/3 144/1/3 143/1/3
f 148/1/3 144/1/3 147/1/3
f 150/1/3 146/1/3 145/1/3
f 151/1/3 146/1/3 150/1/3
f 153/1/3 150/1/3 149/1/3
f 153/1/3 152/1/3 151/1/3
f 153/1/3 151/1/3 150/1/3
f 154/1/3 152/1/3 153/1/3
f 155/1/3 152/1/3 154/1/3
f 156/1/3 152/1/3 155/1/3
f 157/1/3 153/1/3 149/1/3
f 158/1/3 153/1/3 157/1/3
f 159/1/3 155/1/3 154/1/3
f 160/1/3 155/1/3 159/1/3
f 163/1/3 162/1/3 161/1/3
f 166/1/3 163/1/3 161/1/3
f 166/1/3 164/1/3 163/1/3
f 167/1/3 164/1/3 166/1/3
f 168/1/3 164/1/3 167/1/3
f 169/1/3 166/1/3 165/1/3
f 169/1/3 167/1/3 166/1/3
f 170/1/3 167/1/3 169/1/3
f 171/1/3 167/1/3 170/1/3
f 173/1/3 172/1/3 171/1/3
f 173/1/3 171/1/3 170/1/3
f 174/1/3 172/1/3 173/1/3
f 175/1/3 173/1/3 170/1/3
f 176/1/3 173/1/3 175/1/3
f 181/1/3 178/1/3 177/1/3
f 182/1/3 180/1/3 179/1/3
f 183/1/3 180/1/3 182/1/3
f 185/1/3 183/1/3 182/1/3
f 185/1/3 184/1/3 183/1/3
f 185/1/3 182/1/3 181/1/3
f 185/1/3 181/1/3 177/1/3
f 186/1/3 184/1/3 185/1/3
f 187/1/3 184/1/3 186/1/3
f 188/1/3 184/1/3 187/1/3
f 189/1/3 187/1/3 186/1/3
f 190/1/3 187/1/3 189/1/3
f 193/1/3 192/1/3 191/1/3
f 194/1/3 192/1/3 193/1/3
f 197/1/3 196/1/3 195/1/3
f 198/1/3 196/1/3 197/1/3
f 200/1/3 197/1/3 195/1/3
f 201/1/3 197/1/3 200/1/3
f 202/1/3 197/1/3 201/1/3
f 203/1/3 197/1/3 202/1/3
f 204/1/3 197/1/3 203/1/3
f 205/1/3 200/1/3 199/1/3
f 205/1/3 201/1/3 200/1/3
f 206/1/3 201/1/3 205/1/3
f 207/1/3 201/1/3 206/1/3
f 208/1/3 203/1/3 202/1/3
f 209/1/3 205/1/3 199/1/3
f 210/1/3 205/1/3 209/1/3
f 211/1/3 207/1/3 206/1/3
f 211/1/3 208/1/3 207/1/3
f 212/1/3 203/1/3 208/1/3
f 212/1/3 208/1/3 211/1/3
f 216/1/3 203/1/3 212/1/3
f 217/1/3 209/1/3 199/1/3
f 218/1/3 214/1/3 213/1/3
f 219/1/3 214/1/3 218/1/3
f 220/1/3 216/1/3 215/1/3
f 221/1/3 203/1/3 216/1/3
f 221/1/3 216/1/3 220/1/3
f 222/1/3 217/1/3 199/1/3
f 222/1/3 218/1/3 217/1/3
f 223/1/3 218/1/3 222/1/3
f 224/1/3 218/1/3 223/1/3
f 225/1/3 218/1/3 224/1/3
f 226/1/3 222/1/3 199/1/3
f 227/1/3 222/1/3 226/1/3
f 229/1/3 218/1/3 225/1/3
f 232/1/3 229/1/3 228/1/3
f 233/1/3 218/1/3 229/1/3
f 233/1/3 229/1/3 232/1/3
f 235/1/3 218/1/3 233/1/3
f 236/1/3 231/1/3 230/1/3
f 237/1/3 235/1/3 234/1/3
f 238/1/3 218/1/3 235/1/3
f 238/1/3 237/1/3 236/1/3
f 238/1/3 235/1/3 237/1/3
f 239/1/3 218/1/3 238/1/3
f 243/1/3 240/1/3 239/1/3
f 244/1/3 240/1/3 243/1/3
f 245/1/3 242/1/3 241/1/3
f 246/1/3 242/1/3 245/1/3
f 247/1/3 238/1/3 236/1/3
f 250/1/3 242/1/3 246/1/3
f 251/1/3 248/1/3 247/1/3
f 252/1/3 250/1/3 249/1/3
f 253/1/3 250/1/3 252/1/3
f 254/1/3 242/1/3 250/1/3
f 254/1/3 250/1/3 253/1/3
f 255/1/3 236/1/3 230/1/3
f 255/1/3 251/1/3 247/1/3
f 255/1/3 252/1/3 251/1/3
f 255/1/3 247/1/3 236/1/3
f 255/1/3 253/1/3 252/1/3
f 256/1/3 253/1/3 255/1/3
f 257/1/3 253/1/3 256/1/3
f 258/1/3 242/1/3 254/1/3
f 259/1/3 242/1/3 258/1/3
f 261/1/3 259/1/3 258/1/3
f 261/1/3 260/1/3 259/1/3
f 261/1/3 258/1/3 257/1/3
f 261/1/3 257/1/3 256/1/3
f 263/1/3 261/1/3 256/1/3
f 263/1/3 262/1/3 261/1/3
f 264/1/3 262/1/3 263/1/3
f 265/1/4 266/1/4 267/1/4
f 267/1/4 266/1/4 268/1/4
f 265/1/4 267/1/4 270/1/4
f 270/1/4 267/1/4 271/1/4
f 271/1/4 267/1/4 272/1/4
f 269/1/4 270/1/4 273/1/4
f 270/1/4 271/1/4 273/1/4
f 273/1/4 271/1/4 274/1/4
f 269/1/4 273/1/4 275/1/4
f 269/1/4 275/1/4 277/1/4
f 275/1/4 276/1/4 277/1/4
f 277/1/4 276/1/4 278/1/4
f 278/1/4 276/1/4 279/1/4
f 278/1/4 279/1/4 281/1/4
f 279/1/4 280/1/4 281/1/4
f 278/1/4 281/1/4 283/1/4
f 281/1/4 282/1/4 283/1/4
f 283/1/4 282/1/4 284/1/4
f 288/1/5 286/1/5 285/1/5
f 289/1/5 286/1/5 288/1/5
f 291/1/5 288/1/5 287/1/5
f 291/1/5 290/1/5 289/1/5
f 291/1/5 289/1/5 288/1/5
f 292/1/5 290/1/5 291/1/5
f 297/1/5 294/1/5 293/1/5
f 298/1/5 294/1/5 297/1/5
f 299/1/5 296/1/5 295/1/5
f 300/1/5 296/1/5 299/1/5
f 305/1/5 302/1/5 301/1/5
f 306/1/5 302/1/5 305/1/5
f 307/1/5 304/1/5 303/1/5
f 308/1/5 304/1/5 307/1/5
f 313/1/5 310/1/5 309/1/5
f 314/1/5 310/1/5 313/1/5
f 315/1/5 312/1/5 311/1/5
f 316/1/5 312/1/5 315/1/5
f 325/1/5 318/1/5 317/1/5
f 326/1/5 318/1/5 325/1/5
f 327/1/5 320/1/5 319/1/5
f 328/1/5 320/1/5 327/1/5
f 329/1/5 322/1/5 321/1/5
f 330/1/5 322/1/5 329/1/5
f 331/1/5 324/1/5 323/1/5
f 332/1/5 324/1/5 331/1/5
f 337/1/5 334/1/5 333/1/5
f 338/1/5 334/1/5 337/1/5
f 339/1/5 336/1/5 335/1/5
f 340/1/5 336/1/5 339/1/5
f 341/1/6 342/1/6 347/1/6
f 347/1/6 342/1/6 348/1/6
f 343/1/6 344/1/6 349/1/6
f 349/1/6 344/1/6 350/1/6
f 345/1/6 346/1/6 351/1/6
f 351/1/6 346/1/6 352/1/6
f 353/1/6 354/1/6 357/1/6
f 357/1/6 354/1/6 358/1/6
f 355/1/6 356/1/6 359/1/6
f 359/1/6 356/1/6 360/1/6
f 361/1/6 362/1/6 365/1/6
f 365/1/6 362/1/6 366/1/6
f 363/1/6 364/1/6 367/1/6
f 367/1/6 364/1/6 368/1/6
f 366/1/6 367/1/6 369/1/6
f 369/1/6 367/1/6 370/1/6
f 371/1/6 372/1/6 379/1/6
f 379/1/6 372/1/6 380/1/6
f 373/1/6 374/1/6 381/1/6
f 381/1/6 374/1/6 382/1/6
f 375/1/6 376/1/6 383/1/6
f 383/1/6 376/1/6 384/1/6
f 377/1/6 378/1/6 385/1/6
f 385/1/6 378/1/6 386/1/6
f 387/1/6 388/1/6 395/1/6
f 395/1/6 388/1/6 396/1/6
f 389/1/6 390/1/6 397/1/6
f 397/1/6 390/1/6 398/1/6
f 391/1/6 392/1/6 399/1/6
f 399/1/6 392/1/6 400/1/6
f 393/1/6 394/1/6 401/1/6
f 401/1/6 394/1/6 402/1/6
f 403/1/6 404/1/6 407/1/6
f 407/1/6 404/1/6 408/1/6
f 405/1/6 406/1/6 409/1/6
f 409/1/6 406/1/6 410/1/6
f 411/1/6 412/1/6 415/1/6
f 415/1/6 412/1/6 416/1/6
f 413/1/6 414/1/6 417/1/6
f 417/1/6 414/1/6 418/1/6
f 419/1/6 420/1/6 423/1/6
f 423/1/6 420/1/6 424/1/6
f 421/1/6 422/1/6 425/1/6
f 425/1/6 422/1/6 426/1/6
