# MagicaVoxel @ Ephtracy

# group
g humanoid-42

# material
mtllib humanoid-42.mtl
usemtl palette

# normals
vn -1 0 0
vn 1 0 0
vn 0 0 1
vn 0 0 -1
vn 0 -1 0
vn 0 1 0

# texcoords
vt 0.603516 0.5
vt 0.939453 0.5
vt 0.943359 0.5

# verts
v 7 0 8
v 7 0 -2
v 7 0 -3
v 7 1 8
v 7 1 7
v 7 3 8
v 7 3 7
v 7 4 8
v 7 4 3
v 7 10 3
v 7 10 2
v 7 11 3
v 7 11 2
v 7 13 -2
v 7 13 -3
v 7 17 -2
v 7 17 -3
v 7 18 -2
v 7 18 -3
v 7 21 -2
v 7 21 -3
v 7 22 -2
v 7 22 -3
v 7 23 3
v 7 23 2
v 7 24 3
v 7 24 2
v 7 24 -2
v 7 24 -3
v 7 25 3
v 7 25 2
v 7 25 -2
v 7 25 -3
v 7 29 3
v 7 29 2
v 7 32 3
v 7 32 2
v 7 32 -2
v 7 32 -3
v 7 33 3
v 7 33 2
v 7 33 -2
v 7 33 -3
v 7 36 -2
v 7 36 -3
v 7 38 -2
v 7 38 -3
v 7 47 3
v 7 47 -3
v 13 0 8
v 13 0 4
v 13 0 -3
v 13 1 4
v 13 1 3
v 13 2 6
v 13 2 5
v 13 3 6
v 13 3 5
v 13 4 8
v 13 4 3
v 13 14 -2
v 13 14 -3
v 13 15 -2
v 13 15 -3
v 13 16 3
v 13 16 2
v 13 17 2
v 13 17 1
v 13 18 3
v 13 18 2
v 13 19 2
v 13 19 1
v 13 19 -0
v 13 20 3
v 13 20 2
v 13 20 1
v 13 20 -0
v 13 20 -1
v 13 21 -0
v 13 21 -1
v 13 21 -2
v 13 22 2
v 13 22 1
v 13 22 -2
v 13 22 -3
v 13 23 -1
v 13 23 -2
v 13 24 3
v 13 24 2
v 13 25 1
v 13 25 -0
v 13 26 3
v 13 26 2
v 13 26 -0
v 13 26 -1
v 13 26 -2
v 13 26 -3
v 13 27 1
v 13 27 -1
v 13 27 -2
v 13 28 -2
v 13 28 -3
v 13 29 -1
v 13 29 -2
v 13 30 3
v 13 30 2
v 13 31 3
v 13 31 2
v 13 31 -2
v 13 31 -3
v 13 32 2
v 13 32 1
v 13 33 3
v 13 33 2
v 13 47 3
v 13 47 -3
v 7 0 8
v 7 1 8
v 7 3 8
v 7 4 8
v 8 0 8
v 8 1 8
v 8 2 8
v 8 3 8
v 9 2 8
v 9 4 8
v 10 1 8
v 10 4 8
v 12 1 8
v 12 4 8
v 13 0 8
v 13 4 8
v 7 4 3
v 7 10 3
v 7 11 3
v 7 23 3
v 7 24 3
v 7 25 3
v 7 29 3
v 7 32 3
v 7 33 3
v 7 47 3
v 8 9 3
v 8 10 3
v 8 25 3
v 8 26 3
v 8 27 3
v 8 29 3
v 8 30 3
v 9 26 3
v 9 27 3
v 9 28 3
v 9 29 3
v 9 30 3
v 9 31 3
v 10 4 3
v 10 7 3
v 10 9 3
v 10 10 3
v 10 11 3
v 10 20 3
v 10 21 3
v 10 25 3
v 10 26 3
v 10 27 3
v 10 28 3
v 10 29 3
v 11 4 3
v 11 5 3
v 11 7 3
v 11 10 3
v 11 21 3
v 11 22 3
v 11 27 3
v 11 28 3
v 11 30 3
v 11 31 3
v 12 4 3
v 12 5 3
v 12 16 3
v 12 18 3
v 12 22 3
v 12 23 3
v 12 25 3
v 12 26 3
v 12 27 3
v 12 28 3
v 12 31 3
v 12 32 3
v 13 4 3
v 13 16 3
v 13 18 3
v 13 20 3
v 13 24 3
v 13 26 3
v 13 30 3
v 13 31 3
v 13 33 3
v 13 47 3
v 7 0 -3
v 7 13 -3
v 7 17 -3
v 7 18 -3
v 7 21 -3
v 7 22 -3
v 7 24 -3
v 7 25 -3
v 7 32 -3
v 7 33 -3
v 7 36 -3
v 7 38 -3
v 7 47 -3
v 8 0 -3
v 8 5 -3
v 8 6 -3
v 8 9 -3
v 8 10 -3
v 8 12 -3
v 8 13 -3
v 8 14 -3
v 8 15 -3
v 8 17 -3
v 8 18 -3
v 8 21 -3
v 8 23 -3
v 8 24 -3
v 8 25 -3
v 8 26 -3
v 8 33 -3
v 8 36 -3
v 9 6 -3
v 9 9 -3
v 9 10 -3
v 9 12 -3
v 9 13 -3
v 9 14 -3
v 9 15 -3
v 9 17 -3
v 9 18 -3
v 9 22 -3
v 9 26 -3
v 9 27 -3
v 9 33 -3
v 9 34 -3
v 10 5 -3
v 10 9 -3
v 10 12 -3
v 10 15 -3
v 10 24 -3
v 10 25 -3
v 10 33 -3
v 10 34 -3
v 10 35 -3
v 10 38 -3
v 11 24 -3
v 11 25 -3
v 11 32 -3
v 11 35 -3
v 12 14 -3
v 12 15 -3
v 12 22 -3
v 12 23 -3
v 12 26 -3
v 12 27 -3
v 12 28 -3
v 12 31 -3
v 13 0 -3
v 13 14 -3
v 13 15 -3
v 13 22 -3
v 13 26 -3
v 13 28 -3
v 13 31 -3
v 13 47 -3
v 7 0 8
v 8 0 8
v 13 0 8
v 8 0 7
v 11 0 7
v 9 0 6
v 11 0 6
v 8 0 5
v 9 0 5
v 8 0 4
v 13 0 4
v 7 0 -2
v 8 0 -2
v 7 0 -3
v 8 0 -3
v 13 0 -3
v 7 4 8
v 9 4 8
v 10 4 8
v 12 4 8
v 13 4 8
v 9 4 7
v 10 4 7
v 12 4 7
v 9 4 6
v 10 4 6
v 11 4 6
v 12 4 6
v 9 4 5
v 10 4 5
v 11 4 5
v 12 4 5
v 11 4 4
v 12 4 4
v 7 4 3
v 10 4 3
v 11 4 3
v 12 4 3
v 13 4 3
v 7 47 3
v 13 47 3
v 7 47 -3
v 13 47 -3

# faces
f 4/2/1 2/2/1 1/2/1
f 5/2/1 2/2/1 4/2/1
f 6/3/1 5/3/1 4/3/1
f 7/2/1 2/2/1 5/2/1
f 7/3/1 5/3/1 6/3/1
f 8/2/1 7/2/1 6/2/1
f 9/2/1 2/2/1 7/2/1
f 9/2/1 7/2/1 8/2/1
f 10/2/1 2/2/1 9/2/1
f 11/2/1 2/2/1 10/2/1
f 12/3/1 11/3/1 10/3/1
f 13/2/1 2/2/1 11/2/1
f 13/3/1 11/3/1 12/3/1
f 14/3/1 3/3/1 2/3/1
f 14/2/1 2/2/1 13/2/1
f 14/2/1 13/2/1 12/2/1
f 15/3/1 3/3/1 14/3/1
f 16/2/1 14/2/1 12/2/1
f 16/2/1 15/2/1 14/2/1
f 17/2/1 15/2/1 16/2/1
f 18/2/1 16/2/1 12/2/1
f 18/1/1 17/1/1 16/1/1
f 19/1/1 17/1/1 18/1/1
f 20/2/1 18/2/1 12/2/1
f 20/2/1 19/2/1 18/2/1
f 21/2/1 19/2/1 20/2/1
f 22/2/1 20/2/1 12/2/1
f 22/3/1 21/3/1 20/3/1
f 23/3/1 21/3/1 22/3/1
f 24/2/1 22/2/1 12/2/1
f 24/2/1 23/2/1 22/2/1
f 25/2/1 23/2/1 24/2/1
f 26/3/1 25/3/1 24/3/1
f 27/2/1 23/2/1 25/2/1
f 27/3/1 25/3/1 26/3/1
f 28/2/1 23/2/1 27/2/1
f 29/2/1 23/2/1 28/2/1
f 30/2/1 27/2/1 26/2/1
f 30/2/1 28/2/1 27/2/1
f 31/2/1 28/2/1 30/2/1
f 32/3/1 29/3/1 28/3/1
f 32/2/1 28/2/1 31/2/1
f 33/3/1 29/3/1 32/3/1
f 34/3/1 31/3/1 30/3/1
f 35/2/1 32/2/1 31/2/1
f 35/3/1 31/3/1 34/3/1
f 35/2/1 33/2/1 32/2/1
f 36/2/1 35/2/1 34/2/1
f 37/2/1 33/2/1 35/2/1
f 37/2/1 35/2/1 36/2/1
f 38/2/1 33/2/1 37/2/1
f 39/2/1 33/2/1 38/2/1
f 40/3/1 37/3/1 36/3/1
f 41/2/1 38/2/1 37/2/1
f 41/3/1 37/3/1 40/3/1
f 42/3/1 39/3/1 38/3/1
f 42/2/1 38/2/1 41/2/1
f 43/3/1 39/3/1 42/3/1
f 44/2/1 41/2/1 40/2/1
f 44/2/1 42/2/1 41/2/1
f 44/1/1 43/1/1 42/1/1
f 45/1/1 43/1/1 44/1/1
f 46/2/1 44/2/1 40/2/1
f 46/3/1 45/3/1 44/3/1
f 47/3/1 45/3/1 46/3/1
f 48/2/1 46/2/1 40/2/1
f 48/2/1 47/2/1 46/2/1
f 49/2/1 47/2/1 48/2/1
f 50/3/2 51/3/2 53/3/2
f 51/2/2 52/2/2 53/2/2
f 53/2/2 52/2/2 54/2/2
f 50/3/2 53/3/2 55/3/2
f 53/3/2 54/3/2 55/3/2
f 55/3/2 54/3/2 56/3/2
f 50/3/2 55/3/2 57/3/2
f 55/2/2 56/2/2 57/2/2
f 56/3/2 54/3/2 58/3/2
f 57/2/2 56/2/2 58/2/2
f 50/3/2 57/3/2 59/3/2
f 57/3/2 58/3/2 59/3/2
f 54/2/2 52/2/2 60/2/2
f 59/3/2 58/3/2 60/3/2
f 58/3/2 54/3/2 60/3/2
f 60/2/2 52/2/2 61/2/2
f 61/2/2 52/2/2 62/2/2
f 60/2/2 61/2/2 63/2/2
f 61/1/2 62/1/2 63/1/2
f 63/1/2 62/1/2 64/1/2
f 60/2/2 63/2/2 65/2/2
f 63/2/2 64/2/2 65/2/2
f 65/2/2 64/2/2 66/2/2
f 65/3/2 66/3/2 67/3/2
f 66/2/2 64/2/2 67/2/2
f 67/2/2 64/2/2 68/2/2
f 65/3/2 67/3/2 69/3/2
f 67/3/2 68/3/2 69/3/2
f 69/3/2 68/3/2 70/3/2
f 69/2/2 70/2/2 71/2/2
f 70/3/2 68/3/2 71/3/2
f 68/2/2 64/2/2 72/2/2
f 71/3/2 68/3/2 72/3/2
f 72/2/2 64/2/2 73/2/2
f 69/2/2 71/2/2 74/2/2
f 71/2/2 72/2/2 74/2/2
f 74/2/2 72/2/2 75/2/2
f 72/3/2 73/3/2 76/3/2
f 75/2/2 72/2/2 76/2/2
f 73/2/2 64/2/2 77/2/2
f 76/3/2 73/3/2 77/3/2
f 77/2/2 64/2/2 78/2/2
f 75/2/2 76/2/2 79/2/2
f 76/2/2 77/2/2 79/2/2
f 77/3/2 78/3/2 79/3/2
f 78/2/2 64/2/2 80/2/2
f 79/3/2 78/3/2 80/3/2
f 80/2/2 64/2/2 81/2/2
f 75/2/2 79/2/2 82/2/2
f 74/3/2 75/3/2 82/3/2
f 79/2/2 80/2/2 82/2/2
f 82/2/2 80/2/2 83/2/2
f 81/2/2 64/2/2 84/2/2
f 80/3/2 81/3/2 84/3/2
f 84/2/2 64/2/2 85/2/2
f 83/2/2 80/2/2 86/2/2
f 80/3/2 84/3/2 86/3/2
f 84/3/2 85/3/2 86/3/2
f 86/3/2 85/3/2 87/3/2
f 82/3/2 83/3/2 88/3/2
f 74/3/2 82/3/2 88/3/2
f 88/3/2 83/3/2 89/3/2
f 86/2/2 87/2/2 90/2/2
f 89/3/2 83/3/2 90/3/2
f 83/2/2 86/2/2 90/2/2
f 90/2/2 87/2/2 91/2/2
f 88/2/2 89/2/2 92/2/2
f 89/3/2 90/3/2 93/3/2
f 92/2/2 89/2/2 93/2/2
f 90/3/2 91/3/2 93/3/2
f 91/2/2 87/2/2 94/2/2
f 93/3/2 91/3/2 94/3/2
f 94/2/2 87/2/2 95/2/2
f 87/3/2 85/3/2 96/3/2
f 95/2/2 87/2/2 96/2/2
f 96/3/2 85/3/2 97/3/2
f 94/3/2 95/3/2 98/3/2
f 92/3/2 93/3/2 98/3/2
f 93/3/2 94/3/2 98/3/2
f 96/2/2 97/2/2 99/2/2
f 98/3/2 95/3/2 99/3/2
f 95/2/2 96/2/2 99/2/2
f 99/2/2 97/2/2 100/2/2
f 99/3/2 100/3/2 101/3/2
f 100/2/2 97/2/2 101/2/2
f 101/2/2 97/2/2 102/2/2
f 98/2/2 99/2/2 103/2/2
f 99/3/2 101/3/2 103/3/2
f 101/3/2 102/3/2 103/3/2
f 103/3/2 102/3/2 104/3/2
f 92/3/2 98/3/2 105/3/2
f 105/3/2 98/3/2 106/3/2
f 105/1/2 106/1/2 107/1/2
f 106/3/2 98/3/2 108/3/2
f 107/1/2 106/1/2 108/1/2
f 104/3/2 102/3/2 109/3/2
f 103/2/2 104/2/2 109/2/2
f 109/3/2 102/3/2 110/3/2
f 108/3/2 98/3/2 111/3/2
f 107/3/2 108/3/2 111/3/2
f 98/2/2 103/2/2 112/2/2
f 111/3/2 98/3/2 112/3/2
f 109/2/2 110/2/2 112/2/2
f 103/2/2 109/2/2 112/2/2
f 107/3/2 111/3/2 113/3/2
f 111/2/2 112/2/2 114/2/2
f 113/3/2 111/3/2 114/3/2
f 113/2/2 114/2/2 115/2/2
f 112/2/2 110/2/2 116/2/2
f 115/2/2 114/2/2 116/2/2
f 114/2/2 112/2/2 116/2/2
f 121/2/3 118/2/3 117/2/3
f 122/3/3 119/3/3 118/3/3
f 122/2/3 118/2/3 121/2/3
f 123/3/3 119/3/3 122/3/3
f 124/2/3 120/2/3 119/2/3
f 124/3/3 119/3/3 123/3/3
f 125/3/3 123/3/3 122/3/3
f 125/3/3 122/3/3 121/3/3
f 125/2/3 124/2/3 123/2/3
f 126/2/3 120/2/3 124/2/3
f 126/2/3 124/2/3 125/2/3
f 127/3/3 125/3/3 121/3/3
f 127/3/3 126/3/3 125/3/3
f 128/3/3 126/3/3 127/3/3
f 129/3/3 127/3/3 121/3/3
f 129/2/3 128/2/3 127/2/3
f 130/2/3 128/2/3 129/2/3
f 131/3/3 129/3/3 121/3/3
f 131/3/3 130/3/3 129/3/3
f 132/3/3 130/3/3 131/3/3
f 143/2/3 134/2/3 133/2/3
f 144/3/3 135/3/3 134/3/3
f 144/2/3 134/2/3 143/2/3
f 145/2/3 138/2/3 137/2/3
f 145/3/3 139/3/3 138/3/3
f 146/3/3 139/3/3 145/3/3
f 147/3/3 139/3/3 146/3/3
f 148/2/3 140/2/3 139/2/3
f 148/3/3 139/3/3 147/3/3
f 149/2/3 140/2/3 148/2/3
f 150/2/3 147/2/3 146/2/3
f 150/1/3 146/1/3 145/1/3
f 151/3/3 149/3/3 148/3/3
f 151/2/3 147/2/3 150/2/3
f 151/3/3 148/3/3 147/3/3
f 152/3/3 149/3/3 151/3/3
f 153/3/3 149/3/3 152/3/3
f 154/2/3 140/2/3 149/2/3
f 154/3/3 149/3/3 153/3/3
f 155/2/3 140/2/3 154/2/3
f 156/2/3 143/2/3 133/2/3
f 157/2/3 143/2/3 156/2/3
f 158/1/3 144/1/3 143/1/3
f 158/2/3 143/2/3 157/2/3
f 159/3/3 135/3/3 144/3/3
f 159/1/3 144/1/3 158/1/3
f 160/2/3 136/2/3 135/2/3
f 160/3/3 135/3/3 159/3/3
f 161/2/3 136/2/3 160/2/3
f 162/2/3 136/2/3 161/2/3
f 163/2/3 145/2/3 137/2/3
f 163/1/3 150/1/3 145/1/3
f 163/1/3 151/1/3 150/1/3
f 164/1/3 151/1/3 163/1/3
f 165/3/3 152/3/3 151/3/3
f 165/1/3 151/1/3 164/1/3
f 166/2/3 153/2/3 152/2/3
f 166/3/3 152/3/3 165/3/3
f 167/3/3 154/3/3 153/3/3
f 167/2/3 153/2/3 166/2/3
f 167/3/3 155/3/3 154/3/3
f 168/2/3 157/2/3 156/2/3
f 169/2/3 157/2/3 168/2/3
f 170/3/3 159/3/3 158/3/3
f 170/2/3 157/2/3 169/2/3
f 170/3/3 158/3/3 157/3/3
f 171/2/3 161/2/3 160/2/3
f 171/3/3 159/3/3 170/3/3
f 171/2/3 160/2/3 159/2/3
f 172/2/3 136/2/3 162/2/3
f 172/3/3 162/3/3 161/3/3
f 173/2/3 136/2/3 172/2/3
f 174/1/3 165/1/3 164/1/3
f 174/1/3 166/1/3 165/1/3
f 175/3/3 167/3/3 166/3/3
f 175/1/3 166/1/3 174/1/3
f 176/3/3 155/3/3 167/3/3
f 176/3/3 167/3/3 175/3/3
f 177/2/3 140/2/3 155/2/3
f 177/3/3 155/3/3 176/3/3
f 178/3/3 169/3/3 168/3/3
f 179/2/3 171/2/3 170/2/3
f 179/3/3 169/3/3 178/3/3
f 179/2/3 170/2/3 169/2/3
f 180/2/3 161/2/3 171/2/3
f 180/2/3 171/2/3 179/2/3
f 181/2/3 161/2/3 180/2/3
f 182/2/3 136/2/3 173/2/3
f 182/3/3 173/3/3 172/3/3
f 183/3/3 137/3/3 136/3/3
f 183/2/3 136/2/3 182/2/3
f 184/3/3 164/3/3 163/3/3
f 184/2/3 163/2/3 137/2/3
f 185/1/3 174/1/3 164/1/3
f 185/3/3 164/3/3 184/3/3
f 186/2/3 175/2/3 174/2/3
f 186/1/3 174/1/3 185/1/3
f 187/3/3 176/3/3 175/3/3
f 187/2/3 175/2/3 186/2/3
f 188/2/3 140/2/3 177/2/3
f 188/1/3 177/1/3 176/1/3
f 189/3/3 141/3/3 140/3/3
f 189/2/3 140/2/3 188/2/3
f 190/2/3 179/2/3 178/2/3
f 190/2/3 180/2/3 179/2/3
f 191/3/3 181/3/3 180/3/3
f 191/2/3 180/2/3 190/2/3
f 192/2/3 161/2/3 181/2/3
f 192/3/3 181/3/3 191/3/3
f 193/3/3 182/3/3 172/3/3
f 193/2/3 161/2/3 192/2/3
f 193/3/3 183/3/3 182/3/3
f 193/3/3 172/3/3 161/3/3
f 194/2/3 185/2/3 184/2/3
f 194/3/3 183/3/3 193/3/3
f 194/3/3 137/3/3 183/3/3
f 194/2/3 184/2/3 137/2/3
f 195/3/3 186/3/3 185/3/3
f 195/2/3 185/2/3 194/2/3
f 195/3/3 187/3/3 186/3/3
f 196/3/3 176/3/3 187/3/3
f 196/3/3 187/3/3 195/3/3
f 196/1/3 188/1/3 176/1/3
f 197/3/3 189/3/3 188/3/3
f 197/1/3 188/1/3 196/1/3
f 198/2/3 142/2/3 141/2/3
f 198/3/3 189/3/3 197/3/3
f 198/3/3 141/3/3 189/3/3
f 199/2/3 142/2/3 198/2/3
f 200/3/4 201/3/4 213/3/4
f 213/3/4 201/3/4 214/3/4
f 214/3/4 201/3/4 215/3/4
f 215/3/4 201/3/4 216/3/4
f 216/3/4 201/3/4 217/3/4
f 217/3/4 201/3/4 218/3/4
f 201/2/4 202/2/4 219/2/4
f 218/3/4 201/3/4 219/3/4
f 219/2/4 202/2/4 220/2/4
f 220/2/4 202/2/4 221/2/4
f 202/1/4 203/1/4 222/1/4
f 221/2/4 202/2/4 222/2/4
f 203/2/4 204/2/4 223/2/4
f 222/1/4 203/1/4 223/1/4
f 204/3/4 205/3/4 224/3/4
f 223/2/4 204/2/4 224/2/4
f 205/2/4 206/2/4 225/2/4
f 206/3/4 207/3/4 226/3/4
f 225/2/4 206/2/4 226/2/4
f 207/2/4 208/2/4 227/2/4
f 226/3/4 207/3/4 227/3/4
f 227/2/4 208/2/4 228/2/4
f 208/3/4 209/3/4 229/3/4
f 209/1/4 210/1/4 229/1/4
f 210/3/4 211/3/4 230/3/4
f 229/1/4 210/1/4 230/1/4
f 214/3/4 215/3/4 231/3/4
f 215/2/4 216/2/4 231/2/4
f 216/1/4 217/1/4 232/1/4
f 231/2/4 216/2/4 232/2/4
f 217/3/4 218/3/4 233/3/4
f 232/1/4 217/1/4 233/1/4
f 218/2/4 219/2/4 234/2/4
f 233/3/4 218/3/4 234/3/4
f 219/3/4 220/3/4 235/3/4
f 234/2/4 219/2/4 235/2/4
f 220/2/4 221/2/4 236/2/4
f 235/3/4 220/3/4 236/3/4
f 221/3/4 222/3/4 237/3/4
f 236/2/4 221/2/4 237/2/4
f 222/1/4 223/1/4 238/1/4
f 237/3/4 222/3/4 238/3/4
f 223/3/4 224/3/4 239/3/4
f 238/1/4 223/1/4 239/1/4
f 224/3/4 205/3/4 240/3/4
f 239/3/4 224/3/4 240/3/4
f 205/2/4 225/2/4 240/2/4
f 228/2/4 208/2/4 241/2/4
f 227/3/4 228/3/4 241/3/4
f 241/2/4 208/2/4 242/2/4
f 208/3/4 229/3/4 243/3/4
f 229/3/4 230/3/4 243/3/4
f 243/3/4 230/3/4 244/3/4
f 231/3/4 232/3/4 245/3/4
f 213/2/4 214/2/4 245/2/4
f 214/3/4 231/3/4 245/3/4
f 232/2/4 233/2/4 246/2/4
f 245/3/4 232/3/4 246/3/4
f 233/2/4 234/2/4 246/2/4
f 234/3/4 235/3/4 247/3/4
f 246/2/4 234/2/4 247/2/4
f 235/3/4 236/3/4 247/3/4
f 236/3/4 237/3/4 247/3/4
f 237/2/4 238/2/4 248/2/4
f 247/3/4 237/3/4 248/3/4
f 238/2/4 239/2/4 248/2/4
f 239/2/4 240/2/4 248/2/4
f 226/2/4 227/2/4 249/2/4
f 225/3/4 226/3/4 249/3/4
f 227/3/4 241/3/4 250/3/4
f 249/2/4 227/2/4 250/2/4
f 241/3/4 242/3/4 250/3/4
f 208/3/4 243/3/4 251/3/4
f 243/2/4 244/2/4 251/2/4
f 244/3/4 230/3/4 252/3/4
f 251/2/4 244/2/4 252/2/4
f 252/3/4 230/3/4 253/3/4
f 211/2/4 212/2/4 254/2/4
f 253/3/4 230/3/4 254/3/4
f 230/3/4 211/3/4 254/3/4
f 225/3/4 249/3/4 255/3/4
f 249/1/4 250/1/4 255/1/4
f 250/3/4 242/3/4 256/3/4
f 255/1/4 250/1/4 256/1/4
f 252/3/4 253/3/4 257/3/4
f 208/3/4 251/3/4 257/3/4
f 242/2/4 208/2/4 257/2/4
f 251/3/4 252/3/4 257/3/4
f 253/2/4 254/2/4 258/2/4
f 257/3/4 253/3/4 258/3/4
f 245/2/4 246/2/4 259/2/4
f 246/2/4 247/2/4 259/2/4
f 247/2/4 248/2/4 259/2/4
f 248/2/4 240/2/4 260/2/4
f 259/2/4 248/2/4 260/2/4
f 240/2/4 225/2/4 261/2/4
f 260/2/4 240/2/4 261/2/4
f 255/3/4 256/3/4 262/3/4
f 261/2/4 225/2/4 262/2/4
f 225/3/4 255/3/4 262/3/4
f 256/3/4 242/3/4 263/3/4
f 262/3/4 256/3/4 263/3/4
f 257/2/4 258/2/4 264/2/4
f 263/3/4 242/3/4 264/3/4
f 242/2/4 257/2/4 264/2/4
f 264/2/4 258/2/4 265/2/4
f 265/2/4 258/2/4 266/2/4
f 213/2/4 245/2/4 267/2/4
f 245/2/4 259/2/4 267/2/4
f 259/1/4 260/1/4 268/1/4
f 267/2/4 259/2/4 268/2/4
f 260/2/4 261/2/4 269/2/4
f 268/1/4 260/1/4 269/1/4
f 261/3/4 262/3/4 270/3/4
f 269/2/4 261/2/4 270/2/4
f 262/3/4 263/3/4 270/3/4
f 264/2/4 265/2/4 271/2/4
f 270/3/4 263/3/4 271/3/4
f 263/2/4 264/2/4 271/2/4
f 265/3/4 266/3/4 272/3/4
f 271/2/4 265/2/4 272/2/4
f 266/2/4 258/2/4 273/2/4
f 272/3/4 266/3/4 273/3/4
f 258/2/4 254/2/4 274/2/4
f 273/2/4 258/2/4 274/2/4
f 254/2/4 212/2/4 274/2/4
f 278/2/5 276/2/5 275/2/5
f 278/3/5 277/3/5 276/3/5
f 279/3/5 277/3/5 278/3/5
f 280/2/5 279/2/5 278/2/5
f 281/3/5 277/3/5 279/3/5
f 281/2/5 279/2/5 280/2/5
f 282/2/5 278/2/5 275/2/5
f 282/2/5 280/2/5 278/2/5
f 283/3/5 281/3/5 280/3/5
f 283/2/5 280/2/5 282/2/5
f 284/2/5 282/2/5 275/2/5
f 284/3/5 283/3/5 282/3/5
f 285/3/5 277/3/5 281/3/5
f 285/3/5 283/3/5 284/3/5
f 285/3/5 281/3/5 283/3/5
f 286/2/5 284/2/5 275/2/5
f 286/2/5 285/2/5 284/2/5
f 287/2/5 285/2/5 286/2/5
f 288/3/5 287/3/5 286/3/5
f 289/2/5 285/2/5 287/2/5
f 289/3/5 287/3/5 288/3/5
f 290/2/5 285/2/5 289/2/5
f 291/2/6 292/2/6 296/2/6
f 292/3/6 293/3/6 296/3/6
f 293/2/6 294/2/6 297/2/6
f 296/3/6 293/3/6 297/3/6
f 294/3/6 295/3/6 298/3/6
f 297/2/6 294/2/6 298/2/6
f 296/2/6 297/2/6 299/2/6
f 291/2/6 296/2/6 299/2/6
f 297/3/6 298/3/6 300/3/6
f 299/2/6 297/2/6 300/2/6
f 300/3/6 298/3/6 301/3/6
f 298/3/6 295/3/6 302/3/6
f 301/3/6 298/3/6 302/3/6
f 300/3/6 301/3/6 303/3/6
f 291/2/6 299/2/6 303/2/6
f 299/3/6 300/3/6 303/3/6
f 303/3/6 301/3/6 304/3/6
f 301/2/6 302/2/6 305/2/6
f 304/3/6 301/3/6 305/3/6
f 302/3/6 295/3/6 306/3/6
f 305/2/6 302/2/6 306/2/6
f 304/3/6 305/3/6 307/3/6
f 305/3/6 306/3/6 307/3/6
f 306/3/6 295/3/6 308/3/6
f 307/3/6 306/3/6 308/3/6
f 303/2/6 304/2/6 309/2/6
f 291/2/6 303/2/6 309/2/6
f 304/3/6 307/3/6 310/3/6
f 309/2/6 304/2/6 310/2/6
f 307/2/6 308/2/6 311/2/6
f 310/3/6 307/3/6 311/3/6
f 308/3/6 295/3/6 312/3/6
f 311/2/6 308/2/6 312/2/6
f 312/3/6 295/3/6 313/3/6
f 314/2/6 315/2/6 316/2/6
f 316/2/6 315/2/6 317/2/6
