# MagicaVoxel @ Ephtracy

# group
g humanoid-81

# material
mtllib humanoid-81.mtl
usemtl palette

# normals
vn -1 0 0
vn 1 0 0
vn 0 0 1
vn 0 0 -1
vn 0 -1 0
vn 0 1 0

# texcoords
vt 0.0566406 0.5
vt 0.0605469 0.5
vt 0.0917969 0.5

# verts
v 6 12 4
v 6 12 -1
v 6 12 -2
v 6 12 -4
v 6 13 -0
v 6 13 -1
v 6 13 -2
v 6 15 1
v 6 15 -0
v 6 15 -1
v 6 17 2
v 6 17 1
v 6 17 -0
v 6 18 3
v 6 18 2
v 6 18 1
v 6 19 4
v 6 19 3
v 6 20 3
v 6 20 2
v 6 21 4
v 6 21 3
v 6 23 4
v 6 23 -4
v 6 24 4
v 6 24 -4
v 6 25 3
v 6 25 -4
v 6 30 4
v 6 30 3
v 6 30 -4
v 6 31 4
v 6 31 -4
v 6 32 4
v 6 32 -4
v 6 36 4
v 6 36 1
v 6 37 4
v 6 37 1
v 6 37 -3
v 6 38 1
v 6 38 -3
v 6 38 -4
v 6 41 -3
v 6 41 -4
v 6 47 4
v 6 47 -4
v 13 12 3
v 13 12 -3
v 13 23 3
v 13 23 -3
v 13 24 3
v 13 24 -3
v 13 25 3
v 13 25 -3
v 13 30 3
v 13 30 -3
v 13 31 3
v 13 31 -3
v 13 32 3
v 13 32 -3
v 13 47 3
v 13 47 -3
v 7 12 3
v 7 12 -1
v 7 12 -2
v 7 12 -3
v 7 13 -0
v 7 13 -1
v 7 13 -2
v 7 15 1
v 7 15 -0
v 7 15 -1
v 7 17 3
v 7 17 2
v 7 17 1
v 7 17 -0
v 7 18 3
v 7 18 2
v 7 18 1
v 7 19 3
v 7 20 3
v 7 20 2
v 7 23 3
v 7 23 -3
v 7 24 3
v 7 24 -3
v 7 25 3
v 7 25 -3
v 7 30 3
v 7 30 -3
v 7 31 3
v 7 31 -3
v 7 32 3
v 7 32 -3
v 7 36 3
v 7 36 1
v 7 37 3
v 7 37 1
v 7 37 -3
v 7 38 1
v 7 38 -3
v 7 39 3
v 7 41 -3
v 7 43 -3
v 7 47 3
v 7 47 -3
v 14 12 4
v 14 12 -4
v 14 23 4
v 14 23 -4
v 14 24 4
v 14 24 -4
v 14 25 3
v 14 25 -4
v 14 30 4
v 14 30 3
v 14 30 -4
v 14 31 4
v 14 31 -4
v 14 32 4
v 14 32 -4
v 14 47 4
v 14 47 -4
v 6 12 4
v 6 19 4
v 6 21 4
v 6 23 4
v 6 24 4
v 6 30 4
v 6 31 4
v 6 32 4
v 6 36 4
v 6 37 4
v 6 47 4
v 7 17 4
v 7 19 4
v 7 21 4
v 7 25 4
v 7 30 4
v 7 36 4
v 7 37 4
v 7 39 4
v 8 14 4
v 8 17 4
v 8 19 4
v 8 37 4
v 8 39 4
v 8 41 4
v 9 12 4
v 9 14 4
v 9 17 4
v 9 39 4
v 9 41 4
v 9 43 4
v 10 12 4
v 10 14 4
v 10 41 4
v 10 43 4
v 13 25 4
v 13 30 4
v 14 12 4
v 14 23 4
v 14 24 4
v 14 30 4
v 14 31 4
v 14 32 4
v 14 47 4
v 7 12 -3
v 7 23 -3
v 7 24 -3
v 7 25 -3
v 7 30 -3
v 7 31 -3
v 7 32 -3
v 7 37 -3
v 7 38 -3
v 7 41 -3
v 7 43 -3
v 7 47 -3
v 8 41 -3
v 8 43 -3
v 13 12 -3
v 13 23 -3
v 13 24 -3
v 13 25 -3
v 13 30 -3
v 13 31 -3
v 13 32 -3
v 13 47 -3
v 7 12 3
v 7 17 3
v 7 18 3
v 7 19 3
v 7 20 3
v 7 23 3
v 7 24 3
v 7 25 3
v 7 30 3
v 7 31 3
v 7 32 3
v 7 36 3
v 7 37 3
v 7 39 3
v 7 47 3
v 8 14 3
v 8 17 3
v 8 19 3
v 8 37 3
v 8 39 3
v 8 41 3
v 9 12 3
v 9 14 3
v 9 17 3
v 9 39 3
v 9 41 3
v 9 43 3
v 10 12 3
v 10 14 3
v 10 41 3
v 10 43 3
v 13 12 3
v 13 23 3
v 13 24 3
v 13 25 3
v 13 30 3
v 13 31 3
v 13 32 3
v 13 47 3
v 6 12 -4
v 6 23 -4
v 6 24 -4
v 6 25 -4
v 6 30 -4
v 6 31 -4
v 6 32 -4
v 6 38 -4
v 6 41 -4
v 6 47 -4
v 7 23 -4
v 7 24 -4
v 7 25 -4
v 7 30 -4
v 7 31 -4
v 7 32 -4
v 7 38 -4
v 7 41 -4
v 7 43 -4
v 8 41 -4
v 8 43 -4
v 13 23 -4
v 13 24 -4
v 13 25 -4
v 13 30 -4
v 13 31 -4
v 13 32 -4
v 14 12 -4
v 14 23 -4
v 14 24 -4
v 14 25 -4
v 14 30 -4
v 14 31 -4
v 14 32 -4
v 14 47 -4
v 6 12 4
v 9 12 4
v 10 12 4
v 14 12 4
v 7 12 3
v 9 12 3
v 10 12 3
v 13 12 3
v 6 12 -1
v 7 12 -1
v 6 12 -2
v 7 12 -2
v 7 12 -3
v 13 12 -3
v 6 12 -4
v 14 12 -4
v 6 47 4
v 14 47 4
v 7 47 3
v 13 47 3
v 7 47 -3
v 13 47 -3
v 6 47 -4
v 14 47 -4

# faces
f 5/3/1 2/3/1 1/3/1
f 6/1/1 3/1/1 2/1/1
f 6/3/1 2/3/1 5/3/1
f 7/3/1 4/3/1 3/3/1
f 7/1/1 3/1/1 6/1/1
f 8/3/1 5/3/1 1/3/1
f 9/1/1 6/1/1 5/1/1
f 9/3/1 5/3/1 8/3/1
f 10/3/1 7/3/1 6/3/1
f 10/1/1 6/1/1 9/1/1
f 11/3/1 8/3/1 1/3/1
f 12/1/1 9/1/1 8/1/1
f 12/3/1 8/3/1 11/3/1
f 13/3/1 10/3/1 9/3/1
f 13/1/1 9/1/1 12/1/1
f 14/3/1 11/3/1 1/3/1
f 15/1/1 12/1/1 11/1/1
f 15/3/1 11/3/1 14/3/1
f 16/3/1 13/3/1 12/3/1
f 16/1/1 12/1/1 15/1/1
f 17/3/1 14/3/1 1/3/1
f 18/1/1 15/1/1 14/1/1
f 18/3/1 14/3/1 17/3/1
f 19/1/1 18/1/1 17/1/1
f 19/1/1 15/1/1 18/1/1
f 20/3/1 16/3/1 15/3/1
f 20/1/1 15/1/1 19/1/1
f 21/1/1 19/1/1 17/1/1
f 22/3/1 20/3/1 19/3/1
f 22/1/1 19/1/1 21/1/1
f 23/3/1 22/3/1 21/3/1
f 24/3/1 7/3/1 10/3/1
f 24/3/1 22/3/1 23/3/1
f 24/3/1 4/3/1 7/3/1
f 24/3/1 20/3/1 22/3/1
f 24/3/1 10/3/1 13/3/1
f 24/3/1 16/3/1 20/3/1
f 24/3/1 13/3/1 16/3/1
f 25/2/1 24/2/1 23/2/1
f 26/2/1 24/2/1 25/2/1
f 27/1/1 26/1/1 25/1/1
f 28/1/1 26/1/1 27/1/1
f 29/1/1 27/1/1 25/1/1
f 30/3/1 28/3/1 27/3/1
f 30/1/1 27/1/1 29/1/1
f 31/3/1 28/3/1 30/3/1
f 32/2/1 30/2/1 29/2/1
f 32/2/1 31/2/1 30/2/1
f 33/2/1 31/2/1 32/2/1
f 34/1/1 33/1/1 32/1/1
f 35/1/1 33/1/1 34/1/1
f 36/3/1 35/3/1 34/3/1
f 37/3/1 35/3/1 36/3/1
f 38/1/1 37/1/1 36/1/1
f 39/3/1 35/3/1 37/3/1
f 39/1/1 37/1/1 38/1/1
f 40/3/1 35/3/1 39/3/1
f 41/3/1 39/3/1 38/3/1
f 41/1/1 40/1/1 39/1/1
f 42/3/1 35/3/1 40/3/1
f 42/1/1 40/1/1 41/1/1
f 43/3/1 35/3/1 42/3/1
f 44/3/1 42/3/1 41/3/1
f 44/1/1 43/1/1 42/1/1
f 45/1/1 43/1/1 44/1/1
f 46/3/1 41/3/1 38/3/1
f 46/3/1 44/3/1 41/3/1
f 46/3/1 45/3/1 44/3/1
f 47/3/1 45/3/1 46/3/1
f 50/3/1 49/3/1 48/3/1
f 51/3/1 49/3/1 50/3/1
f 52/2/1 51/2/1 50/2/1
f 53/2/1 51/2/1 52/2/1
f 54/1/1 53/1/1 52/1/1
f 55/1/1 53/1/1 54/1/1
f 56/3/1 55/3/1 54/3/1
f 57/3/1 55/3/1 56/3/1
f 58/2/1 57/2/1 56/2/1
f 59/2/1 57/2/1 58/2/1
f 60/1/1 59/1/1 58/1/1
f 61/1/1 59/1/1 60/1/1
f 62/3/1 61/3/1 60/3/1
f 63/3/1 61/3/1 62/3/1
f 64/3/2 65/3/2 68/3/2
f 65/1/2 66/1/2 69/1/2
f 68/3/2 65/3/2 69/3/2
f 66/3/2 67/3/2 70/3/2
f 69/1/2 66/1/2 70/1/2
f 64/3/2 68/3/2 71/3/2
f 68/1/2 69/1/2 72/1/2
f 71/3/2 68/3/2 72/3/2
f 69/3/2 70/3/2 73/3/2
f 72/1/2 69/1/2 73/1/2
f 64/3/2 71/3/2 74/3/2
f 74/3/2 71/3/2 75/3/2
f 71/1/2 72/1/2 76/1/2
f 75/3/2 71/3/2 76/3/2
f 72/3/2 73/3/2 77/3/2
f 76/1/2 72/1/2 77/1/2
f 74/3/2 75/3/2 78/3/2
f 75/1/2 76/1/2 79/1/2
f 78/3/2 75/3/2 79/3/2
f 76/3/2 77/3/2 80/3/2
f 79/1/2 76/1/2 80/1/2
f 78/1/2 79/1/2 81/1/2
f 81/1/2 79/1/2 82/1/2
f 79/3/2 80/3/2 83/3/2
f 82/1/2 79/1/2 83/1/2
f 82/3/2 83/3/2 84/3/2
f 73/3/2 70/3/2 85/3/2
f 84/3/2 83/3/2 85/3/2
f 70/3/2 67/3/2 85/3/2
f 83/3/2 80/3/2 85/3/2
f 77/3/2 73/3/2 85/3/2
f 80/3/2 77/3/2 85/3/2
f 84/2/2 85/2/2 86/2/2
f 86/2/2 85/2/2 87/2/2
f 86/1/2 87/1/2 88/1/2
f 88/1/2 87/1/2 89/1/2
f 88/3/2 89/3/2 90/3/2
f 90/3/2 89/3/2 91/3/2
f 90/2/2 91/2/2 92/2/2
f 92/2/2 91/2/2 93/2/2
f 92/1/2 93/1/2 94/1/2
f 94/1/2 93/1/2 95/1/2
f 94/3/2 95/3/2 96/3/2
f 96/3/2 95/3/2 97/3/2
f 96/1/2 97/1/2 98/1/2
f 97/3/2 95/3/2 99/3/2
f 98/1/2 97/1/2 99/1/2
f 99/3/2 95/3/2 100/3/2
f 98/3/2 99/3/2 101/3/2
f 99/1/2 100/1/2 101/1/2
f 101/1/2 100/1/2 102/1/2
f 98/3/2 101/3/2 103/3/2
f 101/3/2 102/3/2 103/3/2
f 103/3/2 102/3/2 104/3/2
f 103/3/2 104/3/2 105/3/2
f 103/3/2 105/3/2 106/3/2
f 106/3/2 105/3/2 107/3/2
f 108/3/2 109/3/2 110/3/2
f 110/3/2 109/3/2 111/3/2
f 110/2/2 111/2/2 112/2/2
f 112/2/2 111/2/2 113/2/2
f 112/1/2 113/1/2 114/1/2
f 114/1/2 113/1/2 115/1/2
f 112/1/2 114/1/2 116/1/2
f 114/3/2 115/3/2 117/3/2
f 116/1/2 114/1/2 117/1/2
f 117/3/2 115/3/2 118/3/2
f 116/2/2 117/2/2 119/2/2
f 117/2/2 118/2/2 119/2/2
f 119/2/2 118/2/2 120/2/2
f 119/1/2 120/1/2 121/1/2
f 121/1/2 120/1/2 122/1/2
f 121/3/2 122/3/2 123/3/2
f 123/3/2 122/3/2 124/3/2
f 136/3/3 126/3/3 125/3/3
f 137/1/3 127/1/3 126/1/3
f 137/3/3 126/3/3 136/3/3
f 138/3/3 128/3/3 127/3/3
f 138/1/3 127/1/3 137/1/3
f 139/1/3 130/1/3 129/1/3
f 140/2/3 131/2/3 130/2/3
f 140/1/3 130/1/3 139/1/3
f 141/3/3 133/3/3 132/3/3
f 141/1/3 134/1/3 133/1/3
f 142/3/3 135/3/3 134/3/3
f 142/1/3 134/1/3 141/1/3
f 143/3/3 135/3/3 142/3/3
f 144/3/3 136/3/3 125/3/3
f 145/1/3 137/1/3 136/1/3
f 145/3/3 136/3/3 144/3/3
f 146/3/3 138/3/3 137/3/3
f 146/1/3 137/1/3 145/1/3
f 147/3/3 142/3/3 141/3/3
f 147/1/3 143/1/3 142/1/3
f 148/3/3 135/3/3 143/3/3
f 148/1/3 143/1/3 147/1/3
f 149/3/3 135/3/3 148/3/3
f 150/3/3 144/3/3 125/3/3
f 151/1/3 145/1/3 144/1/3
f 151/3/3 144/3/3 150/3/3
f 152/3/3 146/3/3 145/3/3
f 152/1/3 145/1/3 151/1/3
f 153/3/3 148/3/3 147/3/3
f 153/1/3 149/1/3 148/1/3
f 154/3/3 135/3/3 149/3/3
f 154/1/3 149/1/3 153/1/3
f 155/3/3 135/3/3 154/3/3
f 156/1/3 151/1/3 150/1/3
f 157/3/3 152/3/3 151/3/3
f 157/1/3 151/1/3 156/1/3
f 158/3/3 154/3/3 153/3/3
f 158/1/3 155/1/3 154/1/3
f 159/3/3 135/3/3 155/3/3
f 159/1/3 155/1/3 158/1/3
f 160/1/3 139/1/3 129/1/3
f 160/3/3 140/3/3 139/3/3
f 161/2/3 131/2/3 140/2/3
f 161/3/3 140/3/3 160/3/3
f 162/3/3 157/3/3 156/3/3
f 163/2/3 129/2/3 128/2/3
f 163/3/3 157/3/3 162/3/3
f 163/3/3 128/3/3 138/3/3
f 163/3/3 138/3/3 146/3/3
f 163/3/3 146/3/3 152/3/3
f 163/3/3 152/3/3 157/3/3
f 164/1/3 161/1/3 160/1/3
f 164/2/3 129/2/3 163/2/3
f 164/1/3 160/1/3 129/1/3
f 165/2/3 131/2/3 161/2/3
f 165/1/3 161/1/3 164/1/3
f 166/1/3 132/1/3 131/1/3
f 166/2/3 131/2/3 165/2/3
f 167/3/3 141/3/3 132/3/3
f 167/1/3 132/1/3 166/1/3
f 167/3/3 147/3/3 141/3/3
f 167/3/3 158/3/3 153/3/3
f 167/3/3 153/3/3 147/3/3
f 167/3/3 159/3/3 158/3/3
f 168/3/3 135/3/3 159/3/3
f 168/3/3 159/3/3 167/3/3
f 181/3/3 170/3/3 169/3/3
f 181/3/3 171/3/3 170/3/3
f 181/1/3 179/1/3 178/1/3
f 181/3/3 178/3/3 177/3/3
f 181/3/3 177/3/3 176/3/3
f 181/3/3 176/3/3 175/3/3
f 181/3/3 175/3/3 174/3/3
f 181/3/3 174/3/3 173/3/3
f 181/3/3 173/3/3 172/3/3
f 181/3/3 172/3/3 171/3/3
f 182/3/3 180/3/3 179/3/3
f 182/1/3 179/1/3 181/1/3
f 183/3/3 181/3/3 169/3/3
f 183/3/3 182/3/3 181/3/3
f 184/3/3 182/3/3 183/3/3
f 185/3/3 182/3/3 184/3/3
f 186/3/3 182/3/3 185/3/3
f 187/3/3 182/3/3 186/3/3
f 188/3/3 182/3/3 187/3/3
f 189/3/3 182/3/3 188/3/3
f 190/3/3 180/3/3 182/3/3
f 190/3/3 182/3/3 189/3/3
f 191/3/4 192/3/4 206/3/4
f 192/1/4 193/1/4 207/1/4
f 206/3/4 192/3/4 207/3/4
f 193/1/4 194/1/4 207/1/4
f 194/3/4 195/3/4 208/3/4
f 207/1/4 194/1/4 208/1/4
f 195/3/4 196/3/4 208/3/4
f 203/1/4 204/1/4 209/1/4
f 202/3/4 203/3/4 209/3/4
f 201/3/4 202/3/4 209/3/4
f 204/3/4 205/3/4 210/3/4
f 209/1/4 204/1/4 210/1/4
f 210/3/4 205/3/4 211/3/4
f 191/3/4 206/3/4 212/3/4
f 206/1/4 207/1/4 213/1/4
f 212/3/4 206/3/4 213/3/4
f 207/3/4 208/3/4 214/3/4
f 213/1/4 207/1/4 214/1/4
f 209/3/4 210/3/4 215/3/4
f 210/1/4 211/1/4 215/1/4
f 211/3/4 205/3/4 216/3/4
f 215/1/4 211/1/4 216/1/4
f 216/3/4 205/3/4 217/3/4
f 212/1/4 213/1/4 218/1/4
f 213/3/4 214/3/4 219/3/4
f 218/1/4 213/1/4 219/1/4
f 215/3/4 216/3/4 220/3/4
f 216/1/4 217/1/4 220/1/4
f 217/3/4 205/3/4 221/3/4
f 220/1/4 217/1/4 221/1/4
f 218/3/4 219/3/4 222/3/4
f 208/3/4 196/3/4 223/3/4
f 222/3/4 219/3/4 223/3/4
f 196/2/4 197/2/4 223/2/4
f 214/3/4 208/3/4 223/3/4
f 219/3/4 214/3/4 223/3/4
f 197/1/4 198/1/4 224/1/4
f 223/2/4 197/2/4 224/2/4
f 198/3/4 199/3/4 225/3/4
f 224/1/4 198/1/4 225/1/4
f 199/2/4 200/2/4 226/2/4
f 225/3/4 199/3/4 226/3/4
f 200/1/4 201/1/4 227/1/4
f 226/2/4 200/2/4 227/2/4
f 201/3/4 209/3/4 228/3/4
f 227/1/4 201/1/4 228/1/4
f 209/3/4 215/3/4 228/3/4
f 215/3/4 220/3/4 228/3/4
f 220/3/4 221/3/4 228/3/4
f 221/3/4 205/3/4 229/3/4
f 228/3/4 221/3/4 229/3/4
f 230/3/4 231/3/4 240/3/4
f 231/2/4 232/2/4 240/2/4
f 232/1/4 233/1/4 241/1/4
f 240/2/4 232/2/4 241/2/4
f 233/3/4 234/3/4 242/3/4
f 241/1/4 233/1/4 242/1/4
f 234/2/4 235/2/4 243/2/4
f 242/3/4 234/3/4 243/3/4
f 235/1/4 236/1/4 244/1/4
f 243/2/4 235/2/4 244/2/4
f 236/3/4 237/3/4 245/3/4
f 244/1/4 236/1/4 245/1/4
f 237/1/4 238/1/4 246/1/4
f 245/3/4 237/3/4 246/3/4
f 238/3/4 239/3/4 247/3/4
f 246/1/4 238/1/4 247/1/4
f 247/3/4 239/3/4 248/3/4
f 245/3/4 246/3/4 249/3/4
f 244/3/4 245/3/4 249/3/4
f 247/1/4 248/1/4 249/1/4
f 246/3/4 247/3/4 249/3/4
f 243/3/4 244/3/4 249/3/4
f 242/3/4 243/3/4 249/3/4
f 241/3/4 242/3/4 249/3/4
f 240/3/4 241/3/4 249/3/4
f 248/3/4 239/3/4 250/3/4
f 249/1/4 248/1/4 250/1/4
f 240/3/4 249/3/4 251/3/4
f 230/3/4 240/3/4 251/3/4
f 249/3/4 250/3/4 251/3/4
f 251/3/4 250/3/4 252/3/4
f 252/3/4 250/3/4 253/3/4
f 253/3/4 250/3/4 254/3/4
f 254/3/4 250/3/4 255/3/4
f 255/3/4 250/3/4 256/3/4
f 230/3/4 251/3/4 257/3/4
f 251/2/4 252/2/4 258/2/4
f 257/3/4 251/3/4 258/3/4
f 252/1/4 253/1/4 259/1/4
f 258/2/4 252/2/4 259/2/4
f 253/3/4 254/3/4 260/3/4
f 259/1/4 253/1/4 260/1/4
f 254/2/4 255/2/4 261/2/4
f 260/3/4 254/3/4 261/3/4
f 255/1/4 256/1/4 262/1/4
f 261/2/4 255/2/4 262/2/4
f 256/3/4 250/3/4 263/3/4
f 262/1/4 256/1/4 263/1/4
f 250/3/4 239/3/4 264/3/4
f 263/3/4 250/3/4 264/3/4
f 269/3/5 266/3/5 265/3/5
f 270/1/5 267/1/5 266/1/5
f 270/3/5 266/3/5 269/3/5
f 271/3/5 268/3/5 267/3/5
f 271/1/5 267/1/5 270/1/5
f 272/3/5 268/3/5 271/3/5
f 273/3/5 269/3/5 265/3/5
f 274/3/5 269/3/5 273/3/5
f 275/1/5 274/1/5 273/1/5
f 276/1/5 274/1/5 275/1/5
f 277/3/5 276/3/5 275/3/5
f 278/3/5 268/3/5 272/3/5
f 279/3/5 277/3/5 275/3/5
f 279/3/5 278/3/5 277/3/5
f 280/3/5 268/3/5 278/3/5
f 280/3/5 278/3/5 279/3/5
f 281/3/6 282/3/6 283/3/6
f 283/3/6 282/3/6 284/3/6
f 281/3/6 283/3/6 285/3/6
f 284/3/6 282/3/6 286/3/6
f 281/3/6 285/3/6 287/3/6
f 285/3/6 286/3/6 287/3/6
f 286/3/6 282/3/6 288/3/6
f 287/3/6 286/3/6 288/3/6
