# MagicaVoxel @ Ephtracy

# group
g humanoid-25

# material
mtllib humanoid-25.mtl
usemtl palette

# normals
vn -1 0 0
vn 1 0 0
vn 0 0 1
vn 0 0 -1
vn 0 -1 0
vn 0 1 0

# texcoords
vt 0.818359 0.5

# verts
v -33 72 24
v -33 72 -4
v -33 80 24
v -33 80 -4
v -26 73 24
v -26 73 3
v -26 79 24
v -26 79 3
v -32 73 24
v -32 73 -3
v -32 79 24
v -32 79 -3
v -25 72 24
v -25 72 4
v -25 80 24
v -25 80 4
v -13 72 4
v -13 72 -4
v -13 73 3
v -13 73 -3
v -13 79 3
v -13 79 -3
v -13 80 4
v -13 80 -4
v -33 72 24
v -33 80 24
v -32 73 24
v -32 79 24
v -26 73 24
v -26 79 24
v -25 72 24
v -25 80 24
v -25 72 4
v -25 80 4
v -13 72 4
v -13 80 4
v -32 73 -3
v -32 79 -3
v -13 73 -3
v -13 79 -3
v -26 73 3
v -26 79 3
v -13 73 3
v -13 79 3
v -33 72 -4
v -33 80 -4
v -13 72 -4
v -13 80 -4
v -33 72 24
v -25 72 24
v -25 72 4
v -13 72 4
v -33 72 -4
v -13 72 -4
v -32 79 24
v -26 79 24
v -26 79 3
v -13 79 3
v -32 79 -3
v -13 79 -3
v -32 73 24
v -26 73 24
v -26 73 3
v -13 73 3
v -32 73 -3
v -13 73 -3
v -33 80 24
v -25 80 24
v -25 80 4
v -13 80 4
v -33 80 -4
v -13 80 -4

# faces
f 3/1/1 2/1/1 1/1/1
f 4/1/1 2/1/1 3/1/1
f 7/1/1 6/1/1 5/1/1
f 8/1/1 6/1/1 7/1/1
f 9/1/2 10/1/2 11/1/2
f 11/1/2 10/1/2 12/1/2
f 13/1/2 14/1/2 15/1/2
f 15/1/2 14/1/2 16/1/2
f 17/1/2 18/1/2 19/1/2
f 19/1/2 18/1/2 20/1/2
f 17/1/2 19/1/2 21/1/2
f 20/1/2 18/1/2 22/1/2
f 17/1/2 21/1/2 23/1/2
f 21/1/2 22/1/2 23/1/2
f 22/1/2 18/1/2 24/1/2
f 23/1/2 22/1/2 24/1/2
f 27/1/3 26/1/3 25/1/3
f 28/1/3 26/1/3 27/1/3
f 29/1/3 27/1/3 25/1/3
f 30/1/3 26/1/3 28/1/3
f 31/1/3 29/1/3 25/1/3
f 31/1/3 30/1/3 29/1/3
f 32/1/3 26/1/3 30/1/3
f 32/1/3 30/1/3 31/1/3
f 35/1/3 34/1/3 33/1/3
f 36/1/3 34/1/3 35/1/3
f 39/1/3 38/1/3 37/1/3
f 40/1/3 38/1/3 39/1/3
f 41/1/4 42/1/4 43/1/4
f 43/1/4 42/1/4 44/1/4
f 45/1/4 46/1/4 47/1/4
f 47/1/4 46/1/4 48/1/4
f 51/1/5 50/1/5 49/1/5
f 53/1/5 51/1/5 49/1/5
f 53/1/5 52/1/5 51/1/5
f 54/1/5 52/1/5 53/1/5
f 57/1/5 56/1/5 55/1/5
f 59/1/5 57/1/5 55/1/5
f 59/1/5 58/1/5 57/1/5
f 60/1/5 58/1/5 59/1/5
f 61/1/6 62/1/6 63/1/6
f 61/1/6 63/1/6 65/1/6
f 63/1/6 64/1/6 65/1/6
f 65/1/6 64/1/6 66/1/6
f 67/1/6 68/1/6 69/1/6
f 67/1/6 69/1/6 71/1/6
f 69/1/6 70/1/6 71/1/6
f 71/1/6 70/1/6 72/1/6
