# MagicaVoxel @ Ephtracy

# group
g humanoid-38

# material
mtllib humanoid-38.mtl
usemtl palette

# normals
vn -1 0 0
vn 1 0 0
vn 0 0 1
vn 0 0 -1
vn 0 -1 0
vn 0 1 0

# texcoords
vt 0.603516 0.5
vt 0.939453 0.5
vt 0.943359 0.5

# verts
v -13 0 8
v -13 0 -3
v -13 3 -1
v -13 3 -2
v -13 4 8
v -13 4 3
v -13 4 -2
v -13 4 -3
v -13 5 1
v -13 5 -1
v -13 6 2
v -13 6 1
v -13 7 -2
v -13 7 -3
v -13 9 2
v -13 9 -1
v -13 11 -1
v -13 11 -2
v -13 18 -1
v -13 18 -3
v -13 19 1
v -13 19 -1
v -13 19 -2
v -13 20 3
v -13 20 2
v -13 20 1
v -13 20 -1
v -13 20 -2
v -13 22 3
v -13 22 2
v -13 22 -2
v -13 22 -3
v -13 23 1
v -13 23 -2
v -13 24 3
v -13 24 2
v -13 24 1
v -13 25 3
v -13 25 2
v -13 39 3
v -13 39 -2
v -13 40 3
v -13 40 -2
v -13 47 3
v -13 47 -3
v -7 0 8
v -7 0 -1
v -7 0 -3
v -7 1 8
v -7 1 4
v -7 1 1
v -7 1 -1
v -7 1 -3
v -7 2 7
v -7 2 4
v -7 2 1
v -7 2 -1
v -7 3 8
v -7 3 7
v -7 3 1
v -7 3 -3
v -7 4 8
v -7 4 3
v -7 4 1
v -7 4 -3
v -7 6 3
v -7 6 -0
v -7 7 -0
v -7 7 -3
v -7 8 3
v -7 8 2
v -7 9 3
v -7 9 2
v -7 9 -3
v -7 10 2
v -7 10 -3
v -7 18 -2
v -7 18 -3
v -7 20 -2
v -7 20 -3
v -7 21 -2
v -7 21 -3
v -7 22 -2
v -7 22 -3
v -7 28 3
v -7 28 2
v -7 30 3
v -7 30 2
v -7 38 3
v -7 38 2
v -7 39 3
v -7 39 2
v -7 40 3
v -7 40 2
v -7 44 3
v -7 44 2
v -7 47 3
v -7 47 -3
v -13 0 8
v -13 4 8
v -11 0 8
v -11 2 8
v -10 1 8
v -10 2 8
v -10 3 8
v -9 0 8
v -9 1 8
v -9 2 8
v -9 3 8
v -9 4 8
v -8 0 8
v -8 1 8
v -8 2 8
v -8 3 8
v -8 4 8
v -7 0 8
v -7 1 8
v -7 3 8
v -7 4 8
v -13 4 3
v -13 20 3
v -13 22 3
v -13 24 3
v -13 25 3
v -13 39 3
v -13 40 3
v -13 47 3
v -12 22 3
v -12 24 3
v -12 38 3
v -12 39 3
v -11 4 3
v -11 7 3
v -11 17 3
v -11 20 3
v -11 21 3
v -11 22 3
v -11 23 3
v -11 24 3
v -11 25 3
v -11 39 3
v -11 40 3
v -10 5 3
v -10 7 3
v -10 8 3
v -10 17 3
v -10 18 3
v -10 20 3
v -10 21 3
v -10 22 3
v -10 23 3
v -10 24 3
v -10 26 3
v -10 44 3
v -10 45 3
v -9 5 3
v -9 6 3
v -9 7 3
v -9 8 3
v -9 9 3
v -9 18 3
v -9 26 3
v -9 28 3
v -9 41 3
v -9 42 3
v -9 43 3
v -9 44 3
v -8 4 3
v -8 26 3
v -8 28 3
v -8 30 3
v -8 40 3
v -8 41 3
v -8 42 3
v -8 43 3
v -8 44 3
v -8 45 3
v -7 4 3
v -7 6 3
v -7 8 3
v -7 9 3
v -7 28 3
v -7 30 3
v -7 38 3
v -7 39 3
v -7 40 3
v -7 44 3
v -7 47 3
v -13 0 -3
v -13 4 -3
v -13 7 -3
v -13 18 -3
v -13 22 -3
v -13 47 -3
v -12 6 -3
v -12 7 -3
v -12 18 -3
v -12 19 -3
v -11 19 -3
v -11 20 -3
v -10 5 -3
v -10 6 -3
v -10 20 -3
v -10 21 -3
v -9 4 -3
v -9 5 -3
v -9 19 -3
v -9 20 -3
v -8 1 -3
v -8 3 -3
v -8 4 -3
v -8 7 -3
v -8 9 -3
v -8 10 -3
v -8 18 -3
v -8 19 -3
v -7 0 -3
v -7 1 -3
v -7 3 -3
v -7 4 -3
v -7 7 -3
v -7 9 -3
v -7 10 -3
v -7 18 -3
v -7 20 -3
v -7 21 -3
v -7 22 -3
v -7 47 -3
v -13 0 8
v -11 0 8
v -9 0 8
v -8 0 8
v -7 0 8
v -11 0 7
v -9 0 7
v -8 0 -1
v -7 0 -1
v -13 0 -3
v -7 0 -3
v -13 4 8
v -9 4 8
v -8 4 8
v -7 4 8
v -9 4 7
v -8 4 7
v -10 4 6
v -8 4 6
v -10 4 5
v -8 4 5
v -13 4 3
v -11 4 3
v -8 4 3
v -7 4 3
v -13 47 3
v -7 47 3
v -13 47 -3
v -7 47 -3

# faces
f 3/2/1 2/2/1 1/2/1
f 4/2/1 2/2/1 3/2/1
f 5/2/1 3/2/1 1/2/1
f 6/2/1 3/2/1 5/2/1
f 7/2/1 2/2/1 4/2/1
f 7/3/1 4/3/1 3/3/1
f 8/2/1 2/2/1 7/2/1
f 9/2/1 3/2/1 6/2/1
f 10/3/1 8/3/1 7/3/1
f 10/2/1 3/2/1 9/2/1
f 10/3/1 7/3/1 3/3/1
f 11/2/1 9/2/1 6/2/1
f 12/3/1 10/3/1 9/3/1
f 12/2/1 9/2/1 11/2/1
f 13/3/1 8/3/1 10/3/1
f 13/3/1 10/3/1 12/3/1
f 13/3/1 12/3/1 11/3/1
f 14/3/1 8/3/1 13/3/1
f 15/2/1 11/2/1 6/2/1
f 15/3/1 13/3/1 11/3/1
f 16/3/1 13/3/1 15/3/1
f 17/2/1 16/2/1 15/2/1
f 17/3/1 13/3/1 16/3/1
f 18/2/1 14/2/1 13/2/1
f 18/3/1 13/3/1 17/3/1
f 19/2/1 17/2/1 15/2/1
f 19/2/1 18/2/1 17/2/1
f 20/2/1 14/2/1 18/2/1
f 20/2/1 18/2/1 19/2/1
f 21/2/1 19/2/1 15/2/1
f 22/3/1 20/3/1 19/3/1
f 22/2/1 19/2/1 21/2/1
f 23/3/1 20/3/1 22/3/1
f 24/2/1 15/2/1 6/2/1
f 24/2/1 21/2/1 15/2/1
f 25/2/1 21/2/1 24/2/1
f 26/3/1 22/3/1 21/3/1
f 26/2/1 21/2/1 25/2/1
f 27/2/1 23/2/1 22/2/1
f 27/3/1 22/3/1 26/3/1
f 28/3/1 20/3/1 23/3/1
f 28/2/1 23/2/1 27/2/1
f 29/1/1 25/1/1 24/1/1
f 30/3/1 27/3/1 26/3/1
f 30/1/1 25/1/1 29/1/1
f 30/3/1 26/3/1 25/3/1
f 30/3/1 28/3/1 27/3/1
f 31/3/1 20/3/1 28/3/1
f 31/3/1 28/3/1 30/3/1
f 32/3/1 20/3/1 31/3/1
f 33/3/1 31/3/1 30/3/1
f 34/2/1 32/2/1 31/2/1
f 34/3/1 31/3/1 33/3/1
f 35/2/1 30/2/1 29/2/1
f 36/3/1 33/3/1 30/3/1
f 36/2/1 30/2/1 35/2/1
f 37/2/1 34/2/1 33/2/1
f 37/3/1 33/3/1 36/3/1
f 38/3/1 36/3/1 35/3/1
f 39/2/1 37/2/1 36/2/1
f 39/3/1 36/3/1 38/3/1
f 40/2/1 39/2/1 38/2/1
f 41/2/1 32/2/1 34/2/1
f 41/2/1 39/2/1 40/2/1
f 41/2/1 34/2/1 37/2/1
f 41/2/1 37/2/1 39/2/1
f 42/3/1 41/3/1 40/3/1
f 43/2/1 32/2/1 41/2/1
f 43/3/1 41/3/1 42/3/1
f 44/2/1 43/2/1 42/2/1
f 45/2/1 32/2/1 43/2/1
f 45/2/1 43/2/1 44/2/1
f 46/3/2 47/3/2 49/3/2
f 49/3/2 47/3/2 50/3/2
f 50/3/2 47/3/2 51/3/2
f 47/2/2 48/2/2 52/2/2
f 51/3/2 47/3/2 52/3/2
f 52/2/2 48/2/2 53/2/2
f 49/1/2 50/1/2 54/1/2
f 50/3/2 51/3/2 55/3/2
f 54/1/2 50/1/2 55/1/2
f 51/2/2 52/2/2 56/2/2
f 55/3/2 51/3/2 56/3/2
f 52/3/2 53/3/2 57/3/2
f 56/2/2 52/2/2 57/2/2
f 49/1/2 54/1/2 58/1/2
f 54/3/2 55/3/2 59/3/2
f 58/1/2 54/1/2 59/1/2
f 55/3/2 56/3/2 59/3/2
f 56/3/2 57/3/2 59/3/2
f 59/3/2 57/3/2 60/3/2
f 57/3/2 53/3/2 61/3/2
f 60/3/2 57/3/2 61/3/2
f 59/3/2 60/3/2 62/3/2
f 58/3/2 59/3/2 62/3/2
f 62/3/2 60/3/2 63/3/2
f 60/2/2 61/2/2 64/2/2
f 63/3/2 60/3/2 64/3/2
f 64/2/2 61/2/2 65/2/2
f 63/3/2 64/3/2 66/3/2
f 64/3/2 65/3/2 66/3/2
f 66/3/2 65/3/2 67/3/2
f 66/2/2 67/2/2 68/2/2
f 67/3/2 65/3/2 68/3/2
f 68/3/2 65/3/2 69/3/2
f 66/2/2 68/2/2 70/2/2
f 68/2/2 69/2/2 70/2/2
f 70/2/2 69/2/2 71/2/2
f 70/3/2 71/3/2 72/3/2
f 71/2/2 69/2/2 73/2/2
f 72/3/2 71/3/2 73/3/2
f 73/2/2 69/2/2 74/2/2
f 72/2/2 73/2/2 75/2/2
f 73/3/2 74/3/2 75/3/2
f 75/3/2 74/3/2 76/3/2
f 75/2/2 76/2/2 77/2/2
f 77/2/2 76/2/2 78/2/2
f 75/2/2 77/2/2 79/2/2
f 77/3/2 78/3/2 79/3/2
f 79/3/2 78/3/2 80/3/2
f 75/2/2 79/2/2 81/2/2
f 79/1/2 80/1/2 81/1/2
f 81/1/2 80/1/2 82/1/2
f 75/2/2 81/2/2 83/2/2
f 81/3/2 82/3/2 83/3/2
f 83/3/2 82/3/2 84/3/2
f 72/2/2 75/2/2 85/2/2
f 75/2/2 83/2/2 85/2/2
f 83/2/2 84/2/2 85/2/2
f 85/2/2 84/2/2 86/2/2
f 85/3/2 86/3/2 87/3/2
f 86/2/2 84/2/2 88/2/2
f 87/3/2 86/3/2 88/3/2
f 87/2/2 88/2/2 89/2/2
f 88/2/2 84/2/2 90/2/2
f 89/2/2 88/2/2 90/2/2
f 89/3/2 90/3/2 91/3/2
f 90/2/2 84/2/2 92/2/2
f 91/3/2 90/3/2 92/3/2
f 91/2/2 92/2/2 93/2/2
f 92/2/2 84/2/2 94/2/2
f 93/2/2 92/2/2 94/2/2
f 93/3/2 94/3/2 95/3/2
f 94/2/2 84/2/2 96/2/2
f 95/3/2 94/3/2 96/3/2
f 95/2/2 96/2/2 97/2/2
f 96/2/2 84/2/2 98/2/2
f 97/2/2 96/2/2 98/2/2
f 101/2/3 100/2/3 99/2/3
f 102/2/3 100/2/3 101/2/3
f 103/3/3 102/3/3 101/3/3
f 104/2/3 100/2/3 102/2/3
f 104/3/3 102/3/3 103/3/3
f 105/2/3 100/2/3 104/2/3
f 106/3/3 103/3/3 101/3/3
f 107/2/3 104/2/3 103/2/3
f 107/3/3 103/3/3 106/3/3
f 108/3/3 105/3/3 104/3/3
f 108/2/3 104/2/3 107/2/3
f 109/2/3 100/2/3 105/2/3
f 109/3/3 105/3/3 108/3/3
f 110/2/3 100/2/3 109/2/3
f 111/2/3 107/2/3 106/2/3
f 112/1/3 108/1/3 107/1/3
f 112/2/3 107/2/3 111/2/3
f 113/3/3 109/3/3 108/3/3
f 113/1/3 108/1/3 112/1/3
f 114/1/3 110/1/3 109/1/3
f 114/3/3 109/3/3 113/3/3
f 115/1/3 110/1/3 114/1/3
f 116/3/3 112/3/3 111/3/3
f 117/1/3 113/1/3 112/1/3
f 117/3/3 112/3/3 116/3/3
f 117/1/3 114/1/3 113/1/3
f 118/3/3 115/3/3 114/3/3
f 118/1/3 114/1/3 117/1/3
f 119/3/3 115/3/3 118/3/3
f 128/1/3 122/1/3 121/1/3
f 128/2/3 123/2/3 122/2/3
f 129/3/3 124/3/3 123/3/3
f 129/2/3 123/2/3 128/2/3
f 130/2/3 125/2/3 124/2/3
f 131/3/3 126/3/3 125/3/3
f 131/2/3 125/2/3 130/2/3
f 132/2/3 121/2/3 120/2/3
f 133/2/3 121/2/3 132/2/3
f 134/2/3 121/2/3 133/2/3
f 135/1/3 128/1/3 121/1/3
f 135/2/3 121/2/3 134/2/3
f 135/1/3 129/1/3 128/1/3
f 136/1/3 129/1/3 135/1/3
f 137/1/3 129/1/3 136/1/3
f 138/1/3 129/1/3 137/1/3
f 139/3/3 124/3/3 129/3/3
f 139/1/3 129/1/3 138/1/3
f 140/2/3 130/2/3 124/2/3
f 140/3/3 124/3/3 139/3/3
f 141/3/3 126/3/3 131/3/3
f 141/3/3 131/3/3 130/3/3
f 142/2/3 127/2/3 126/2/3
f 142/3/3 126/3/3 141/3/3
f 143/3/3 133/3/3 132/3/3
f 144/2/3 134/2/3 133/2/3
f 144/3/3 133/3/3 143/3/3
f 145/2/3 134/2/3 144/2/3
f 146/3/3 135/3/3 134/3/3
f 146/2/3 134/2/3 145/2/3
f 147/3/3 135/3/3 146/3/3
f 148/2/3 136/2/3 135/2/3
f 148/3/3 135/3/3 147/3/3
f 149/1/3 137/1/3 136/1/3
f 149/2/3 136/2/3 148/2/3
f 150/3/3 138/3/3 137/3/3
f 150/1/3 137/1/3 149/1/3
f 151/1/3 139/1/3 138/1/3
f 151/3/3 138/3/3 150/3/3
f 152/2/3 140/2/3 139/2/3
f 152/1/3 139/1/3 151/1/3
f 153/2/3 130/2/3 140/2/3
f 153/2/3 140/2/3 152/2/3
f 154/2/3 127/2/3 142/2/3
f 154/2/3 142/2/3 141/2/3
f 155/2/3 127/2/3 154/2/3
f 156/3/3 143/3/3 132/3/3
f 156/2/3 144/2/3 143/2/3
f 157/2/3 144/2/3 156/2/3
f 158/3/3 145/3/3 144/3/3
f 158/2/3 144/2/3 157/2/3
f 159/2/3 147/2/3 146/2/3
f 159/3/3 145/3/3 158/3/3
f 159/2/3 146/2/3 145/2/3
f 160/2/3 147/2/3 159/2/3
f 161/3/3 152/3/3 151/3/3
f 161/2/3 147/2/3 160/2/3
f 161/3/3 150/3/3 149/3/3
f 161/3/3 149/3/3 148/3/3
f 161/3/3 151/3/3 150/3/3
f 161/3/3 148/3/3 147/3/3
f 161/3/3 153/3/3 152/3/3
f 162/2/3 130/2/3 153/2/3
f 162/3/3 153/3/3 161/3/3
f 163/2/3 130/2/3 162/2/3
f 164/2/3 154/2/3 141/2/3
f 165/2/3 154/2/3 164/2/3
f 166/2/3 154/2/3 165/2/3
f 167/3/3 155/3/3 154/3/3
f 167/2/3 154/2/3 166/2/3
f 168/3/3 156/3/3 132/3/3
f 168/3/3 157/3/3 156/3/3
f 169/2/3 161/2/3 160/2/3
f 169/2/3 162/2/3 161/2/3
f 169/3/3 163/3/3 162/3/3
f 170/2/3 130/2/3 163/2/3
f 170/3/3 163/3/3 169/3/3
f 171/2/3 130/2/3 170/2/3
f 172/2/3 164/2/3 141/2/3
f 173/3/3 165/3/3 164/3/3
f 173/2/3 164/2/3 172/2/3
f 174/2/3 166/2/3 165/2/3
f 174/3/3 165/3/3 173/3/3
f 175/3/3 167/3/3 166/3/3
f 175/2/3 166/2/3 174/2/3
f 176/3/3 155/3/3 167/3/3
f 176/3/3 167/3/3 175/3/3
f 177/2/3 127/2/3 155/2/3
f 177/3/3 155/3/3 176/3/3
f 178/3/3 157/3/3 168/3/3
f 179/2/3 159/2/3 158/2/3
f 179/3/3 157/3/3 178/3/3
f 179/2/3 158/2/3 157/2/3
f 180/3/3 160/3/3 159/3/3
f 180/2/3 159/2/3 179/2/3
f 181/2/3 169/2/3 160/2/3
f 181/3/3 160/3/3 180/3/3
f 181/2/3 170/2/3 169/2/3
f 182/3/3 171/3/3 170/3/3
f 182/2/3 170/2/3 181/2/3
f 183/2/3 130/2/3 171/2/3
f 183/3/3 171/3/3 182/3/3
f 184/3/3 141/3/3 130/3/3
f 184/2/3 130/2/3 183/2/3
f 185/2/3 172/2/3 141/2/3
f 185/3/3 141/3/3 184/3/3
f 186/3/3 176/3/3 175/3/3
f 186/2/3 172/2/3 185/2/3
f 186/3/3 175/3/3 174/3/3
f 186/3/3 174/3/3 173/3/3
f 186/3/3 173/3/3 172/3/3
f 187/2/3 177/2/3 176/2/3
f 187/3/3 176/3/3 186/3/3
f 188/2/3 127/2/3 177/2/3
f 188/2/3 177/2/3 187/2/3
f 190/3/4 191/3/4 195/3/4
f 191/2/4 192/2/4 196/2/4
f 195/3/4 191/3/4 196/3/4
f 192/3/4 193/3/4 197/3/4
f 196/2/4 192/2/4 197/2/4
f 197/3/4 193/3/4 198/3/4
f 195/2/4 196/2/4 199/2/4
f 198/3/4 193/3/4 199/3/4
f 197/2/4 198/2/4 199/2/4
f 196/2/4 197/2/4 199/2/4
f 199/3/4 193/3/4 200/3/4
f 190/3/4 195/3/4 201/3/4
f 195/2/4 199/2/4 202/2/4
f 201/3/4 195/3/4 202/3/4
f 200/3/4 193/3/4 203/3/4
f 199/1/4 200/1/4 203/1/4
f 203/3/4 193/3/4 204/3/4
f 189/2/4 190/2/4 205/2/4
f 190/3/4 201/3/4 205/3/4
f 201/2/4 202/2/4 206/2/4
f 205/3/4 201/3/4 206/3/4
f 202/2/4 199/2/4 207/2/4
f 206/2/4 202/2/4 207/2/4
f 203/1/4 204/1/4 207/1/4
f 199/1/4 203/1/4 207/1/4
f 207/1/4 204/1/4 208/1/4
f 205/2/4 206/2/4 209/2/4
f 189/2/4 205/2/4 209/2/4
f 206/2/4 207/2/4 209/2/4
f 209/2/4 207/2/4 210/2/4
f 210/2/4 207/2/4 211/2/4
f 211/2/4 207/2/4 212/2/4
f 212/2/4 207/2/4 213/2/4
f 213/2/4 207/2/4 214/2/4
f 214/2/4 207/2/4 215/2/4
f 207/3/4 208/3/4 216/3/4
f 215/2/4 207/2/4 216/2/4
f 189/2/4 209/2/4 217/2/4
f 209/3/4 210/3/4 218/3/4
f 217/2/4 209/2/4 218/2/4
f 210/2/4 211/2/4 219/2/4
f 218/3/4 210/3/4 219/3/4
f 211/3/4 212/3/4 220/3/4
f 219/2/4 211/2/4 220/2/4
f 212/2/4 213/2/4 221/2/4
f 220/3/4 212/3/4 221/3/4
f 213/3/4 214/3/4 222/3/4
f 221/2/4 213/2/4 222/2/4
f 214/2/4 215/2/4 223/2/4
f 222/3/4 214/3/4 223/3/4
f 215/3/4 216/3/4 224/3/4
f 223/2/4 215/2/4 224/2/4
f 208/1/4 204/1/4 225/1/4
f 224/3/4 216/3/4 225/3/4
f 216/3/4 208/3/4 225/3/4
f 204/3/4 193/3/4 226/3/4
f 225/1/4 204/1/4 226/1/4
f 193/2/4 194/2/4 227/2/4
f 226/3/4 193/3/4 227/3/4
f 227/2/4 194/2/4 228/2/4
f 234/2/5 230/2/5 229/2/5
f 234/3/5 231/3/5 230/3/5
f 235/2/5 232/2/5 231/2/5
f 235/3/5 231/3/5 234/3/5
f 236/3/5 233/3/5 232/3/5
f 236/2/5 232/2/5 235/2/5
f 236/2/5 235/2/5 234/2/5
f 237/3/5 233/3/5 236/3/5
f 238/2/5 234/2/5 229/2/5
f 238/2/5 236/2/5 234/2/5
f 238/2/5 237/2/5 236/2/5
f 239/2/5 237/2/5 238/2/5
f 240/2/6 241/2/6 244/2/6
f 241/1/6 242/1/6 244/1/6
f 242/3/6 243/3/6 245/3/6
f 244/1/6 242/1/6 245/1/6
f 240/2/6 244/2/6 246/2/6
f 244/2/6 245/2/6 246/2/6
f 245/3/6 243/3/6 247/3/6
f 246/2/6 245/2/6 247/2/6
f 240/2/6 246/2/6 248/2/6
f 246/3/6 247/3/6 248/3/6
f 247/3/6 243/3/6 249/3/6
f 248/3/6 247/3/6 249/3/6
f 240/2/6 248/2/6 250/2/6
f 248/2/6 249/2/6 250/2/6
f 250/2/6 249/2/6 251/2/6
f 249/3/6 243/3/6 252/3/6
f 251/2/6 249/2/6 252/2/6
f 252/3/6 243/3/6 253/3/6
f 254/2/6 255/2/6 256/2/6
f 256/2/6 255/2/6 257/2/6
