# MagicaVoxel @ Ephtracy

# group
g humanoid-72

# material
mtllib humanoid-72.mtl
usemtl palette

# normals
vn -1 0 0
vn 1 0 0
vn 0 0 1
vn 0 0 -1
vn 0 -1 0
vn 0 1 0

# texcoords
vt 0.0566406 0.5
vt 0.0605469 0.5
vt 0.0917969 0.5

# verts
v 25 71 35
v 25 71 25
v 25 71 24
v 25 72 35
v 25 72 28
v 25 73 35
v 25 73 28
v 25 74 35
v 25 74 28
v 25 75 35
v 25 75 28
v 25 76 35
v 25 76 28
v 25 77 35
v 25 77 28
v 25 78 35
v 25 78 28
v 25 79 35
v 25 79 28
v 25 80 35
v 25 80 25
v 25 80 24
v 32 73 34
v 32 73 25
v 32 73 24
v 32 74 34
v 32 75 34
v 32 76 34
v 32 77 34
v 32 78 34
v 32 79 34
v 32 79 30
v 32 79 25
v 32 79 24
v 26 73 34
v 26 73 25
v 26 73 24
v 26 74 34
v 26 74 28
v 26 75 34
v 26 75 28
v 26 76 34
v 26 76 28
v 26 77 34
v 26 77 28
v 26 78 34
v 26 78 28
v 26 79 34
v 26 79 33
v 26 79 32
v 26 79 28
v 26 79 25
v 26 79 24
v 32 71 35
v 32 71 33
v 32 72 35
v 32 72 33
v 32 79 35
v 32 79 34
v 32 79 33
v 32 80 35
v 32 80 34
v 32 80 33
v 33 72 35
v 33 72 34
v 33 73 35
v 33 73 34
v 33 78 35
v 33 78 34
v 33 79 35
v 33 79 34
v 34 71 33
v 34 71 30
v 34 71 29
v 34 71 24
v 34 72 34
v 34 72 33
v 34 72 32
v 34 72 30
v 34 72 28
v 34 72 25
v 34 73 35
v 34 73 34
v 34 73 33
v 34 74 34
v 34 74 33
v 34 74 32
v 34 74 30
v 34 74 28
v 34 74 25
v 34 75 35
v 34 75 34
v 34 75 33
v 34 75 32
v 34 75 30
v 34 75 29
v 34 76 33
v 34 76 32
v 34 76 28
v 34 76 25
v 34 78 35
v 34 78 34
v 34 78 28
v 34 78 25
v 34 79 34
v 34 79 33
v 34 79 31
v 34 79 30
v 34 80 33
v 34 80 31
v 34 80 30
v 34 80 24
v 25 71 35
v 25 72 35
v 25 73 35
v 25 74 35
v 25 75 35
v 25 76 35
v 25 77 35
v 25 78 35
v 25 79 35
v 25 80 35
v 32 71 35
v 32 72 35
v 32 73 35
v 32 74 35
v 32 75 35
v 32 76 35
v 32 77 35
v 32 78 35
v 32 79 35
v 32 80 35
v 33 72 35
v 33 73 35
v 33 75 35
v 33 78 35
v 33 79 35
v 34 73 35
v 34 75 35
v 34 78 35
v 33 72 34
v 33 73 34
v 33 78 34
v 33 79 34
v 34 72 34
v 34 73 34
v 34 78 34
v 34 79 34
v 32 71 33
v 32 72 33
v 32 79 33
v 32 80 33
v 33 72 33
v 33 79 33
v 34 71 33
v 34 72 33
v 34 79 33
v 34 80 33
v 26 73 34
v 26 74 34
v 26 75 34
v 26 76 34
v 26 77 34
v 26 78 34
v 26 79 34
v 27 79 34
v 28 79 34
v 29 79 34
v 32 73 34
v 32 74 34
v 32 75 34
v 32 76 34
v 32 77 34
v 32 78 34
v 32 79 34
v 25 71 24
v 25 80 24
v 26 73 24
v 26 79 24
v 32 73 24
v 32 79 24
v 34 71 24
v 34 80 24
v 25 71 35
v 32 71 35
v 28 71 34
v 29 71 34
v 27 71 33
v 28 71 33
v 29 71 33
v 31 71 33
v 32 71 33
v 34 71 33
v 26 71 32
v 27 71 32
v 31 71 32
v 32 71 32
v 26 71 31
v 28 71 31
v 29 71 31
v 31 71 31
v 32 71 31
v 33 71 31
v 28 71 30
v 29 71 30
v 31 71 30
v 32 71 30
v 33 71 30
v 34 71 30
v 29 71 29
v 34 71 29
v 29 71 28
v 33 71 28
v 25 71 25
v 33 71 25
v 25 71 24
v 34 71 24
v 32 72 35
v 33 72 35
v 33 72 34
v 34 72 34
v 32 72 33
v 33 72 33
v 34 72 33
v 33 73 35
v 34 73 35
v 33 73 34
v 34 73 34
v 26 79 34
v 27 79 34
v 28 79 34
v 29 79 34
v 32 79 34
v 26 79 33
v 27 79 33
v 28 79 33
v 29 79 33
v 26 79 32
v 28 79 32
v 27 79 31
v 28 79 31
v 27 79 30
v 28 79 30
v 30 79 30
v 32 79 30
v 28 79 29
v 30 79 29
v 26 79 28
v 26 79 25
v 32 79 25
v 26 79 24
v 32 79 24
v 26 73 34
v 32 73 34
v 26 73 25
v 32 73 25
v 26 73 24
v 32 73 24
v 33 78 35
v 34 78 35
v 33 78 34
v 34 78 34
v 32 79 35
v 33 79 35
v 32 79 34
v 33 79 34
v 34 79 34
v 32 79 33
v 33 79 33
v 34 79 33
v 25 80 35
v 32 80 35
v 27 80 34
v 28 80 34
v 29 80 34
v 32 80 34
v 26 80 33
v 27 80 33
v 28 80 33
v 29 80 33
v 32 80 33
v 34 80 33
v 26 80 32
v 28 80 32
v 27 80 31
v 28 80 31
v 32 80 31
v 34 80 31
v 27 80 30
v 28 80 30
v 30 80 30
v 32 80 30
v 33 80 30
v 34 80 30
v 28 80 29
v 30 80 29
v 25 80 25
v 33 80 25
v 25 80 24
v 34 80 24

# faces
f 4/3/1 2/3/1 1/3/1
f 5/3/1 2/3/1 4/3/1
f 6/2/1 5/2/1 4/2/1
f 7/3/1 2/3/1 5/3/1
f 7/2/1 5/2/1 6/2/1
f 8/3/1 7/3/1 6/3/1
f 9/3/1 2/3/1 7/3/1
f 9/3/1 7/3/1 8/3/1
f 10/2/1 9/2/1 8/2/1
f 11/3/1 2/3/1 9/3/1
f 11/2/1 9/2/1 10/2/1
f 12/3/1 11/3/1 10/3/1
f 13/3/1 2/3/1 11/3/1
f 13/3/1 11/3/1 12/3/1
f 14/2/1 13/2/1 12/2/1
f 15/3/1 2/3/1 13/3/1
f 15/2/1 13/2/1 14/2/1
f 16/3/1 15/3/1 14/3/1
f 17/3/1 2/3/1 15/3/1
f 17/3/1 15/3/1 16/3/1
f 18/2/1 17/2/1 16/2/1
f 19/3/1 2/3/1 17/3/1
f 19/2/1 17/2/1 18/2/1
f 20/3/1 19/3/1 18/3/1
f 21/1/1 3/1/1 2/1/1
f 21/3/1 19/3/1 20/3/1
f 21/3/1 2/3/1 19/3/1
f 22/1/1 3/1/1 21/1/1
f 26/3/1 24/3/1 23/3/1
f 27/3/1 24/3/1 26/3/1
f 28/3/1 24/3/1 27/3/1
f 29/3/1 24/3/1 28/3/1
f 30/3/1 24/3/1 29/3/1
f 31/3/1 24/3/1 30/3/1
f 32/3/1 24/3/1 31/3/1
f 33/1/1 25/1/1 24/1/1
f 33/3/1 24/3/1 32/3/1
f 34/1/1 25/1/1 33/1/1
f 35/3/2 36/3/2 38/3/2
f 38/3/2 36/3/2 39/3/2
f 38/2/2 39/2/2 40/2/2
f 39/3/2 36/3/2 41/3/2
f 40/2/2 39/2/2 41/2/2
f 40/3/2 41/3/2 42/3/2
f 41/3/2 36/3/2 43/3/2
f 42/3/2 41/3/2 43/3/2
f 42/2/2 43/2/2 44/2/2
f 43/3/2 36/3/2 45/3/2
f 44/2/2 43/2/2 45/2/2
f 44/3/2 45/3/2 46/3/2
f 45/3/2 36/3/2 47/3/2
f 46/3/2 45/3/2 47/3/2
f 46/2/2 47/2/2 48/2/2
f 48/2/2 47/2/2 49/2/2
f 49/2/2 47/2/2 50/2/2
f 47/3/2 36/3/2 51/3/2
f 50/2/2 47/2/2 51/2/2
f 36/1/2 37/1/2 52/1/2
f 51/3/2 36/3/2 52/3/2
f 52/1/2 37/1/2 53/1/2
f 54/3/2 55/3/2 56/3/2
f 56/3/2 55/3/2 57/3/2
f 58/3/2 59/3/2 61/3/2
f 59/1/2 60/1/2 62/1/2
f 61/3/2 59/3/2 62/3/2
f 62/1/2 60/1/2 63/1/2
f 64/3/2 65/3/2 66/3/2
f 66/3/2 65/3/2 67/3/2
f 68/3/2 69/3/2 70/3/2
f 70/3/2 69/3/2 71/3/2
f 72/1/2 73/1/2 77/1/2
f 77/1/2 73/1/2 78/1/2
f 73/3/2 74/3/2 79/3/2
f 78/1/2 73/1/2 79/1/2
f 74/1/2 75/1/2 80/1/2
f 80/1/2 75/1/2 81/1/2
f 77/1/2 78/1/2 83/1/2
f 76/1/2 77/1/2 83/1/2
f 83/1/2 78/1/2 84/1/2
f 82/1/2 83/1/2 85/1/2
f 83/3/2 84/3/2 85/3/2
f 84/1/2 78/1/2 86/1/2
f 85/3/2 84/3/2 86/3/2
f 78/3/2 79/3/2 87/3/2
f 86/1/2 78/1/2 87/1/2
f 79/3/2 74/3/2 88/3/2
f 87/3/2 79/3/2 88/3/2
f 80/3/2 81/3/2 89/3/2
f 74/1/2 80/1/2 89/1/2
f 81/1/2 75/1/2 90/1/2
f 89/3/2 81/3/2 90/3/2
f 86/1/2 87/1/2 91/1/2
f 85/1/2 86/1/2 91/1/2
f 87/1/2 88/1/2 91/1/2
f 82/1/2 85/1/2 91/1/2
f 91/1/2 88/1/2 92/1/2
f 92/1/2 88/1/2 93/1/2
f 93/1/2 88/1/2 94/1/2
f 88/3/2 74/3/2 95/3/2
f 94/1/2 88/1/2 95/1/2
f 74/1/2 89/1/2 96/1/2
f 95/3/2 74/3/2 96/3/2
f 89/1/2 90/1/2 96/1/2
f 93/3/2 94/3/2 97/3/2
f 92/1/2 93/1/2 97/1/2
f 94/1/2 95/1/2 98/1/2
f 97/3/2 94/3/2 98/3/2
f 95/1/2 96/1/2 98/1/2
f 96/1/2 90/1/2 99/1/2
f 98/1/2 96/1/2 99/1/2
f 90/1/2 75/1/2 100/1/2
f 99/1/2 90/1/2 100/1/2
f 91/3/2 92/3/2 101/3/2
f 98/1/2 99/1/2 102/1/2
f 101/3/2 92/3/2 102/3/2
f 92/1/2 97/1/2 102/1/2
f 97/1/2 98/1/2 102/1/2
f 99/3/2 100/3/2 103/3/2
f 102/1/2 99/1/2 103/1/2
f 100/1/2 75/1/2 104/1/2
f 103/3/2 100/3/2 104/3/2
f 102/1/2 103/1/2 105/1/2
f 103/1/2 104/1/2 105/1/2
f 105/1/2 104/1/2 106/1/2
f 106/1/2 104/1/2 107/1/2
f 107/1/2 104/1/2 108/1/2
f 106/1/2 107/1/2 109/1/2
f 107/3/2 108/3/2 110/3/2
f 109/1/2 107/1/2 110/1/2
f 108/1/2 104/1/2 111/1/2
f 110/3/2 108/3/2 111/3/2
f 104/1/2 75/1/2 112/1/2
f 111/1/2 104/1/2 112/1/2
f 123/3/3 114/3/3 113/3/3
f 124/2/3 115/2/3 114/2/3
f 124/3/3 114/3/3 123/3/3
f 125/3/3 116/3/3 115/3/3
f 125/2/3 115/2/3 124/2/3
f 126/2/3 117/2/3 116/2/3
f 126/3/3 116/3/3 125/3/3
f 127/3/3 118/3/3 117/3/3
f 127/2/3 117/2/3 126/2/3
f 128/2/3 119/2/3 118/2/3
f 128/3/3 118/3/3 127/3/3
f 129/3/3 120/3/3 119/3/3
f 129/2/3 119/2/3 128/2/3
f 130/2/3 121/2/3 120/2/3
f 130/3/3 120/3/3 129/3/3
f 131/3/3 122/3/3 121/3/3
f 131/2/3 121/2/3 130/2/3
f 132/3/3 122/3/3 131/3/3
f 133/3/3 130/3/3 129/3/3
f 133/3/3 131/3/3 130/3/3
f 133/3/3 129/3/3 128/3/3
f 133/3/3 128/3/3 127/3/3
f 133/3/3 127/3/3 126/3/3
f 133/3/3 126/3/3 125/3/3
f 133/3/3 125/3/3 124/3/3
f 134/3/3 131/3/3 133/3/3
f 135/3/3 131/3/3 134/3/3
f 136/3/3 131/3/3 135/3/3
f 137/3/3 131/3/3 136/3/3
f 138/1/3 135/1/3 134/1/3
f 139/3/3 136/3/3 135/3/3
f 139/1/3 135/1/3 138/1/3
f 140/3/3 136/3/3 139/3/3
f 145/1/3 142/1/3 141/1/3
f 146/1/3 142/1/3 145/1/3
f 147/1/3 144/1/3 143/1/3
f 148/1/3 144/1/3 147/1/3
f 153/1/3 150/1/3 149/1/3
f 154/1/3 152/1/3 151/1/3
f 155/1/3 153/1/3 149/1/3
f 156/1/3 153/1/3 155/1/3
f 157/1/3 152/1/3 154/1/3
f 158/1/3 152/1/3 157/1/3
f 164/2/4 165/2/4 166/2/4
f 164/2/4 166/2/4 167/2/4
f 164/2/4 167/2/4 168/2/4
f 159/3/4 160/3/4 169/3/4
f 160/2/4 161/2/4 170/2/4
f 169/3/4 160/3/4 170/3/4
f 161/3/4 162/3/4 171/3/4
f 170/2/4 161/2/4 171/2/4
f 162/2/4 163/2/4 172/2/4
f 171/3/4 162/3/4 172/3/4
f 163/3/4 164/3/4 173/3/4
f 172/2/4 163/2/4 173/2/4
f 164/2/4 168/2/4 174/2/4
f 173/3/4 164/3/4 174/3/4
f 174/2/4 168/2/4 175/2/4
f 176/1/4 177/1/4 178/1/4
f 178/1/4 177/1/4 179/1/4
f 176/1/4 178/1/4 180/1/4
f 179/1/4 177/1/4 181/1/4
f 176/1/4 180/1/4 182/1/4
f 180/1/4 181/1/4 182/1/4
f 181/1/4 177/1/4 183/1/4
f 182/1/4 181/1/4 183/1/4
f 186/3/5 185/3/5 184/3/5
f 187/3/5 185/3/5 186/3/5
f 188/3/5 186/3/5 184/3/5
f 189/1/5 187/1/5 186/1/5
f 189/3/5 186/3/5 188/3/5
f 190/3/5 185/3/5 187/3/5
f 190/1/5 187/1/5 189/1/5
f 191/3/5 185/3/5 190/3/5
f 192/3/5 185/3/5 191/3/5
f 194/3/5 188/3/5 184/3/5
f 195/1/5 189/1/5 188/1/5
f 195/3/5 188/3/5 194/3/5
f 195/1/5 190/1/5 189/1/5
f 195/1/5 191/1/5 190/1/5
f 196/3/5 192/3/5 191/3/5
f 196/1/5 191/1/5 195/1/5
f 197/1/5 193/1/5 192/1/5
f 197/3/5 192/3/5 196/3/5
f 198/3/5 194/3/5 184/3/5
f 198/1/5 196/1/5 195/1/5
f 198/1/5 197/1/5 196/1/5
f 198/1/5 195/1/5 194/1/5
f 199/1/5 197/1/5 198/1/5
f 200/1/5 197/1/5 199/1/5
f 201/1/5 197/1/5 200/1/5
f 202/1/5 193/1/5 197/1/5
f 202/1/5 197/1/5 201/1/5
f 203/1/5 193/1/5 202/1/5
f 204/3/5 199/3/5 198/3/5
f 204/1/5 200/1/5 199/1/5
f 205/3/5 201/3/5 200/3/5
f 205/1/5 200/1/5 204/1/5
f 206/1/5 202/1/5 201/1/5
f 206/3/5 201/3/5 205/3/5
f 207/3/5 203/3/5 202/3/5
f 207/1/5 202/1/5 206/1/5
f 208/1/5 193/1/5 203/1/5
f 208/3/5 203/3/5 207/3/5
f 209/1/5 193/1/5 208/1/5
f 210/3/5 207/3/5 206/3/5
f 210/3/5 206/3/5 205/3/5
f 210/3/5 209/3/5 208/3/5
f 210/3/5 208/3/5 207/3/5
f 210/3/5 205/3/5 204/3/5
f 211/3/5 209/3/5 210/3/5
f 212/3/5 210/3/5 204/3/5
f 212/1/5 211/1/5 210/1/5
f 213/1/5 211/1/5 212/1/5
f 214/3/5 204/3/5 198/3/5
f 214/3/5 198/3/5 184/3/5
f 214/3/5 213/3/5 212/3/5
f 214/3/5 212/3/5 204/3/5
f 215/1/5 211/1/5 213/1/5
f 215/3/5 213/3/5 214/3/5
f 216/1/5 215/1/5 214/1/5
f 217/1/5 211/1/5 215/1/5
f 217/1/5 215/1/5 216/1/5
f 220/3/5 219/3/5 218/3/5
f 222/3/5 220/3/5 218/3/5
f 223/1/5 221/1/5 220/1/5
f 223/3/5 220/3/5 222/3/5
f 224/1/5 221/1/5 223/1/5
f 227/1/5 226/1/5 225/1/5
f 228/1/5 226/1/5 227/1/5
f 234/3/5 230/3/5 229/3/5
f 235/1/5 231/1/5 230/1/5
f 235/3/5 230/3/5 234/3/5
f 236/3/5 232/3/5 231/3/5
f 236/1/5 231/1/5 235/1/5
f 237/1/5 233/1/5 232/1/5
f 237/3/5 232/3/5 236/3/5
f 238/1/5 236/1/5 235/1/5
f 238/1/5 235/1/5 234/1/5
f 238/1/5 237/1/5 236/1/5
f 239/1/5 237/1/5 238/1/5
f 240/3/5 239/3/5 238/3/5
f 241/1/5 237/1/5 239/1/5
f 241/3/5 239/3/5 240/3/5
f 242/3/5 240/3/5 238/3/5
f 242/1/5 241/1/5 240/1/5
f 243/1/5 237/1/5 241/1/5
f 243/1/5 241/1/5 242/1/5
f 244/1/5 233/1/5 237/1/5
f 244/1/5 237/1/5 243/1/5
f 245/1/5 233/1/5 244/1/5
f 246/3/5 243/3/5 242/3/5
f 246/1/5 244/1/5 243/1/5
f 247/3/5 245/3/5 244/3/5
f 247/1/5 244/1/5 246/1/5
f 248/3/5 242/3/5 238/3/5
f 248/3/5 246/3/5 242/3/5
f 248/3/5 247/3/5 246/3/5
f 249/3/5 247/3/5 248/3/5
f 250/3/5 245/3/5 247/3/5
f 250/3/5 247/3/5 249/3/5
f 251/1/5 250/1/5 249/1/5
f 252/1/5 250/1/5 251/1/5
f 253/3/6 254/3/6 255/3/6
f 255/3/6 254/3/6 256/3/6
f 255/1/6 256/1/6 257/1/6
f 257/1/6 256/1/6 258/1/6
f 259/3/6 260/3/6 261/3/6
f 261/3/6 260/3/6 262/3/6
f 263/3/6 264/3/6 265/3/6
f 265/3/6 264/3/6 266/3/6
f 265/3/6 266/3/6 268/3/6
f 266/1/6 267/1/6 269/1/6
f 268/3/6 266/3/6 269/3/6
f 269/1/6 267/1/6 270/1/6
f 271/3/6 272/3/6 273/3/6
f 273/3/6 272/3/6 274/3/6
f 274/3/6 272/3/6 275/3/6
f 275/3/6 272/3/6 276/3/6
f 271/3/6 273/3/6 277/3/6
f 273/1/6 274/1/6 278/1/6
f 277/3/6 273/3/6 278/3/6
f 274/3/6 275/3/6 279/3/6
f 278/1/6 274/1/6 279/1/6
f 275/1/6 276/1/6 280/1/6
f 279/3/6 275/3/6 280/3/6
f 280/1/6 276/1/6 281/1/6
f 280/1/6 281/1/6 283/1/6
f 281/1/6 282/1/6 283/1/6
f 279/1/6 280/1/6 283/1/6
f 278/1/6 279/1/6 283/1/6
f 277/1/6 278/1/6 283/1/6
f 271/3/6 277/3/6 283/3/6
f 283/1/6 282/1/6 284/1/6
f 283/3/6 284/3/6 285/3/6
f 284/1/6 282/1/6 286/1/6
f 285/3/6 284/3/6 286/3/6
f 286/1/6 282/1/6 287/1/6
f 287/1/6 282/1/6 288/1/6
f 283/3/6 285/3/6 289/3/6
f 285/1/6 286/1/6 289/1/6
f 286/1/6 287/1/6 289/1/6
f 289/1/6 287/1/6 290/1/6
f 290/1/6 287/1/6 291/1/6
f 287/3/6 288/3/6 292/3/6
f 291/1/6 287/1/6 292/1/6
f 292/3/6 288/3/6 293/3/6
f 293/3/6 288/3/6 294/3/6
f 290/1/6 291/1/6 295/1/6
f 289/3/6 290/3/6 295/3/6
f 291/3/6 292/3/6 296/3/6
f 295/1/6 291/1/6 296/1/6
f 292/3/6 293/3/6 296/3/6
f 271/3/6 283/3/6 297/3/6
f 283/3/6 289/3/6 297/3/6
f 295/3/6 296/3/6 297/3/6
f 289/3/6 295/3/6 297/3/6
f 296/3/6 293/3/6 298/3/6
f 297/3/6 296/3/6 298/3/6
f 293/1/6 294/1/6 298/1/6
f 297/1/6 298/1/6 299/1/6
f 298/1/6 294/1/6 300/1/6
f 299/1/6 298/1/6 300/1/6
