# MagicaVoxel @ Ephtracy

# group
g humanoid-74

# material
mtllib humanoid-74.mtl
usemtl palette

# normals
vn -1 0 0
vn 1 0 0
vn 0 0 1
vn 0 0 -1
vn 0 -1 0
vn 0 1 0

# texcoords
vt 0.0566406 0.5
vt 0.0605469 0.5
vt 0.0917969 0.5

# verts
v -18 44 11
v -18 44 -11
v -18 51 11
v -18 51 -11
v -18 52 11
v -18 52 -11
v -17 43 11
v -17 43 -11
v -17 44 12
v -17 44 11
v -17 44 -11
v -17 44 -12
v -17 51 12
v -17 51 11
v -17 51 -11
v -17 51 -12
v -17 52 12
v -17 52 11
v -17 52 -11
v -17 52 -12
v 17 44 11
v 17 44 -11
v 17 51 11
v 17 51 -11
v 17 52 11
v 17 52 -11
v -17 44 11
v -17 44 -11
v -17 51 11
v -17 51 -11
v -17 52 11
v -17 52 -11
v 17 43 11
v 17 43 -11
v 17 44 12
v 17 44 11
v 17 44 -11
v 17 44 -12
v 17 51 12
v 17 51 11
v 17 51 -11
v 17 51 -12
v 17 52 12
v 17 52 11
v 17 52 -11
v 17 52 -12
v 18 44 11
v 18 44 -11
v 18 51 11
v 18 51 -11
v 18 52 11
v 18 52 -11
v -17 44 12
v -17 51 12
v -17 52 12
v -8 50 12
v -8 51 12
v -5 44 12
v -5 50 12
v -4 44 12
v -4 51 12
v -3 44 12
v -3 51 12
v 3 44 12
v 3 51 12
v 4 44 12
v 4 51 12
v 5 44 12
v 5 50 12
v 8 50 12
v 8 51 12
v 17 44 12
v 17 51 12
v 17 52 12
v -18 44 11
v -18 51 11
v -18 52 11
v -17 43 11
v -17 44 11
v -17 51 11
v -17 52 11
v -5 44 11
v -4 44 11
v -3 44 11
v 3 44 11
v 4 44 11
v 5 44 11
v 17 43 11
v 17 44 11
v 17 51 11
v 17 52 11
v 18 44 11
v 18 51 11
v 18 52 11
v -17 44 -11
v -17 51 -11
v -17 52 -11
v -10 50 -11
v -10 51 -11
v -9 49 -11
v -9 50 -11
v -8 48 -11
v -8 49 -11
v -8 50 -11
v -8 51 -11
v -7 46 -11
v -7 48 -11
v -7 49 -11
v -7 50 -11
v -6 44 -11
v -6 46 -11
v -6 47 -11
v -6 49 -11
v -5 45 -11
v -5 47 -11
v -4 44 -11
v -4 45 -11
v 4 44 -11
v 4 45 -11
v 5 45 -11
v 5 47 -11
v 6 44 -11
v 6 46 -11
v 6 47 -11
v 6 49 -11
v 7 46 -11
v 7 48 -11
v 7 49 -11
v 7 50 -11
v 8 48 -11
v 8 49 -11
v 8 50 -11
v 8 51 -11
v 9 49 -11
v 9 50 -11
v 10 50 -11
v 10 51 -11
v 17 44 -11
v 17 51 -11
v 17 52 -11
v -17 44 11
v -17 51 11
v -17 52 11
v -8 50 11
v -8 51 11
v -5 44 11
v -5 50 11
v -4 44 11
v -4 51 11
v -3 44 11
v -3 51 11
v 3 44 11
v 3 51 11
v 4 44 11
v 4 51 11
v 5 44 11
v 5 50 11
v 8 50 11
v 8 51 11
v 17 44 11
v 17 51 11
v 17 52 11
v -18 44 -11
v -18 51 -11
v -18 52 -11
v -17 43 -11
v -17 44 -11
v -17 51 -11
v -17 52 -11
v -6 44 -11
v -4 44 -11
v 4 44 -11
v 6 44 -11
v 17 43 -11
v 17 44 -11
v 17 51 -11
v 17 52 -11
v 18 44 -11
v 18 51 -11
v 18 52 -11
v -17 44 -12
v -17 51 -12
v -17 52 -12
v -10 50 -12
v -10 51 -12
v -9 49 -12
v -9 50 -12
v -8 48 -12
v -8 49 -12
v -8 50 -12
v -8 51 -12
v -7 46 -12
v -7 48 -12
v -7 49 -12
v -7 50 -12
v -6 44 -12
v -6 46 -12
v -6 47 -12
v -6 49 -12
v -5 45 -12
v -5 47 -12
v -4 44 -12
v -4 45 -12
v 4 44 -12
v 4 45 -12
v 5 45 -12
v 5 47 -12
v 6 44 -12
v 6 46 -12
v 6 47 -12
v 6 49 -12
v 7 46 -12
v 7 48 -12
v 7 49 -12
v 7 50 -12
v 8 48 -12
v 8 49 -12
v 8 50 -12
v 8 51 -12
v 9 49 -12
v 9 50 -12
v 10 50 -12
v 10 51 -12
v 17 44 -12
v 17 51 -12
v 17 52 -12
v -17 43 11
v 17 43 11
v -16 43 10
v -5 43 10
v -4 43 10
v -3 43 10
v 3 43 10
v 4 43 10
v 5 43 10
v 16 43 10
v -4 43 -0
v -3 43 -0
v 3 43 -0
v 4 43 -0
v -4 43 -1
v 4 43 -1
v -16 43 -10
v -5 43 -10
v -4 43 -10
v 4 43 -10
v 5 43 -10
v 16 43 -10
v -17 43 -11
v 17 43 -11
v -17 44 12
v -5 44 12
v -4 44 12
v -3 44 12
v 3 44 12
v 4 44 12
v 5 44 12
v 17 44 12
v -18 44 11
v -17 44 11
v -5 44 11
v -4 44 11
v -3 44 11
v 3 44 11
v 4 44 11
v 5 44 11
v 17 44 11
v 18 44 11
v -18 44 -11
v -17 44 -11
v -6 44 -11
v -4 44 -11
v 4 44 -11
v 6 44 -11
v 17 44 -11
v 18 44 -11
v -17 44 -12
v -6 44 -12
v -4 44 -12
v 4 44 -12
v 6 44 -12
v 17 44 -12
v -17 44 11
v -5 44 11
v -4 44 11
v -3 44 11
v 3 44 11
v 4 44 11
v 5 44 11
v 17 44 11
v -16 44 10
v -5 44 10
v -4 44 10
v -3 44 10
v 3 44 10
v 4 44 10
v 5 44 10
v 16 44 10
v -4 44 -0
v -3 44 -0
v 3 44 -0
v 4 44 -0
v -4 44 -1
v 4 44 -1
v -16 44 -10
v -5 44 -10
v -4 44 -10
v 4 44 -10
v 5 44 -10
v 16 44 -10
v -17 44 -11
v -6 44 -11
v -4 44 -11
v 4 44 -11
v 6 44 -11
v 17 44 -11
v -17 52 12
v 17 52 12
v -18 52 11
v -17 52 11
v 17 52 11
v 18 52 11
v -18 52 -11
v -17 52 -11
v 17 52 -11
v 18 52 -11
v -17 52 -12
v 17 52 -12

# faces
f 3/3/1 2/3/1 1/3/1
f 4/3/1 2/3/1 3/3/1
f 5/1/1 4/1/1 3/1/1
f 6/1/1 4/1/1 5/1/1
f 10/2/1 8/2/1 7/2/1
f 11/2/1 8/2/1 10/2/1
f 13/3/1 10/3/1 9/3/1
f 14/3/1 10/3/1 13/3/1
f 15/3/1 12/3/1 11/3/1
f 16/3/1 12/3/1 15/3/1
f 17/1/1 14/1/1 13/1/1
f 18/1/1 14/1/1 17/1/1
f 19/1/1 16/1/1 15/1/1
f 20/1/1 16/1/1 19/1/1
f 23/3/1 22/3/1 21/3/1
f 24/3/1 22/3/1 23/3/1
f 25/1/1 24/1/1 23/1/1
f 26/1/1 24/1/1 25/1/1
f 27/3/2 28/3/2 29/3/2
f 29/3/2 28/3/2 30/3/2
f 29/1/2 30/1/2 31/1/2
f 31/1/2 30/1/2 32/1/2
f 33/2/2 34/2/2 36/2/2
f 36/2/2 34/2/2 37/2/2
f 35/3/2 36/3/2 39/3/2
f 39/3/2 36/3/2 40/3/2
f 37/3/2 38/3/2 41/3/2
f 41/3/2 38/3/2 42/3/2
f 39/1/2 40/1/2 43/1/2
f 43/1/2 40/1/2 44/1/2
f 41/1/2 42/1/2 45/1/2
f 45/1/2 42/1/2 46/1/2
f 47/3/2 48/3/2 49/3/2
f 49/3/2 48/3/2 50/3/2
f 49/1/2 50/1/2 51/1/2
f 51/1/2 50/1/2 52/1/2
f 56/3/3 54/3/3 53/3/3
f 57/1/3 55/1/3 54/1/3
f 57/3/3 54/3/3 56/3/3
f 58/3/3 56/3/3 53/3/3
f 59/1/3 57/1/3 56/1/3
f 59/3/3 56/3/3 58/3/3
f 60/1/3 59/1/3 58/1/3
f 61/1/3 55/1/3 57/1/3
f 61/1/3 59/1/3 60/1/3
f 61/1/3 57/1/3 59/1/3
f 62/2/3 61/2/3 60/2/3
f 63/1/3 55/1/3 61/1/3
f 63/2/3 61/2/3 62/2/3
f 64/3/3 63/3/3 62/3/3
f 65/1/3 55/1/3 63/1/3
f 65/3/3 63/3/3 64/3/3
f 66/2/3 65/2/3 64/2/3
f 67/1/3 55/1/3 65/1/3
f 67/2/3 65/2/3 66/2/3
f 68/1/3 67/1/3 66/1/3
f 69/1/3 67/1/3 68/1/3
f 70/3/3 69/3/3 68/3/3
f 70/1/3 67/1/3 69/1/3
f 71/1/3 55/1/3 67/1/3
f 71/1/3 67/1/3 70/1/3
f 72/3/3 70/3/3 68/3/3
f 72/3/3 71/3/3 70/3/3
f 73/1/3 55/1/3 71/1/3
f 73/3/3 71/3/3 72/3/3
f 74/1/3 55/1/3 73/1/3
f 79/3/3 76/3/3 75/3/3
f 80/1/3 77/1/3 76/1/3
f 80/3/3 76/3/3 79/3/3
f 81/1/3 77/1/3 80/1/3
f 82/2/3 79/2/3 78/2/3
f 83/2/3 82/2/3 78/2/3
f 84/2/3 83/2/3 78/2/3
f 85/2/3 84/2/3 78/2/3
f 86/2/3 85/2/3 78/2/3
f 87/2/3 86/2/3 78/2/3
f 88/2/3 87/2/3 78/2/3
f 89/2/3 87/2/3 88/2/3
f 92/3/3 90/3/3 89/3/3
f 93/1/3 91/1/3 90/1/3
f 93/3/3 90/3/3 92/3/3
f 94/1/3 91/1/3 93/1/3
f 98/3/3 96/3/3 95/3/3
f 99/1/3 97/1/3 96/1/3
f 99/3/3 96/3/3 98/3/3
f 100/3/3 98/3/3 95/3/3
f 101/1/3 99/1/3 98/1/3
f 101/3/3 98/3/3 100/3/3
f 102/3/3 100/3/3 95/3/3
f 103/1/3 101/1/3 100/1/3
f 103/3/3 100/3/3 102/3/3
f 104/1/3 99/1/3 101/1/3
f 104/1/3 101/1/3 103/1/3
f 105/1/3 97/1/3 99/1/3
f 105/1/3 99/1/3 104/1/3
f 106/3/3 102/3/3 95/3/3
f 107/1/3 104/1/3 103/1/3
f 107/3/3 102/3/3 106/3/3
f 107/1/3 103/1/3 102/1/3
f 108/1/3 104/1/3 107/1/3
f 109/3/3 105/3/3 104/3/3
f 109/1/3 104/1/3 108/1/3
f 110/3/3 106/3/3 95/3/3
f 111/1/3 108/1/3 107/1/3
f 111/3/3 106/3/3 110/3/3
f 111/1/3 107/1/3 106/1/3
f 112/1/3 108/1/3 111/1/3
f 113/3/3 109/3/3 108/3/3
f 113/1/3 108/1/3 112/1/3
f 114/1/3 112/1/3 111/1/3
f 114/1/3 111/1/3 110/1/3
f 115/3/3 113/3/3 112/3/3
f 115/1/3 112/1/3 114/1/3
f 116/1/3 114/1/3 110/1/3
f 117/3/3 115/3/3 114/3/3
f 117/1/3 114/1/3 116/1/3
f 118/3/3 117/3/3 116/3/3
f 119/3/3 115/3/3 117/3/3
f 119/3/3 117/3/3 118/3/3
f 120/1/3 119/1/3 118/1/3
f 120/3/3 115/3/3 119/3/3
f 121/3/3 113/3/3 115/3/3
f 121/3/3 115/3/3 120/3/3
f 122/1/3 120/1/3 118/1/3
f 122/1/3 121/1/3 120/1/3
f 123/1/3 121/1/3 122/1/3
f 124/3/3 113/3/3 121/3/3
f 124/1/3 121/1/3 123/1/3
f 125/3/3 109/3/3 113/3/3
f 125/3/3 113/3/3 124/3/3
f 126/1/3 124/1/3 123/1/3
f 126/3/3 123/3/3 122/3/3
f 126/1/3 125/1/3 124/1/3
f 127/1/3 125/1/3 126/1/3
f 128/3/3 109/3/3 125/3/3
f 128/1/3 125/1/3 127/1/3
f 129/3/3 105/3/3 109/3/3
f 129/3/3 109/3/3 128/3/3
f 130/1/3 128/1/3 127/1/3
f 130/3/3 127/3/3 126/3/3
f 130/1/3 129/1/3 128/1/3
f 131/1/3 129/1/3 130/1/3
f 132/3/3 105/3/3 129/3/3
f 132/1/3 129/1/3 131/1/3
f 133/1/3 97/1/3 105/1/3
f 133/3/3 105/3/3 132/3/3
f 134/3/3 131/3/3 130/3/3
f 134/1/3 132/1/3 131/1/3
f 134/1/3 133/1/3 132/1/3
f 135/1/3 133/1/3 134/1/3
f 136/3/3 135/3/3 134/3/3
f 136/1/3 133/1/3 135/1/3
f 137/1/3 97/1/3 133/1/3
f 137/1/3 133/1/3 136/1/3
f 138/3/3 136/3/3 134/3/3
f 138/3/3 130/3/3 126/3/3
f 138/3/3 137/3/3 136/3/3
f 138/3/3 134/3/3 130/3/3
f 138/3/3 126/3/3 122/3/3
f 139/1/3 97/1/3 137/1/3
f 139/3/3 137/3/3 138/3/3
f 140/1/3 97/1/3 139/1/3
f 141/3/4 142/3/4 144/3/4
f 142/1/4 143/1/4 145/1/4
f 144/3/4 142/3/4 145/3/4
f 141/3/4 144/3/4 146/3/4
f 144/1/4 145/1/4 147/1/4
f 146/3/4 144/3/4 147/3/4
f 146/1/4 147/1/4 148/1/4
f 145/1/4 143/1/4 149/1/4
f 148/1/4 147/1/4 149/1/4
f 147/1/4 145/1/4 149/1/4
f 148/2/4 149/2/4 150/2/4
f 149/1/4 143/1/4 151/1/4
f 150/2/4 149/2/4 151/2/4
f 150/3/4 151/3/4 152/3/4
f 151/1/4 143/1/4 153/1/4
f 152/3/4 151/3/4 153/3/4
f 152/2/4 153/2/4 154/2/4
f 153/1/4 143/1/4 155/1/4
f 154/2/4 153/2/4 155/2/4
f 154/1/4 155/1/4 156/1/4
f 156/1/4 155/1/4 157/1/4
f 156/3/4 157/3/4 158/3/4
f 157/1/4 155/1/4 158/1/4
f 155/1/4 143/1/4 159/1/4
f 158/1/4 155/1/4 159/1/4
f 156/3/4 158/3/4 160/3/4
f 158/3/4 159/3/4 160/3/4
f 159/1/4 143/1/4 161/1/4
f 160/3/4 159/3/4 161/3/4
f 161/1/4 143/1/4 162/1/4
f 163/3/4 164/3/4 167/3/4
f 164/1/4 165/1/4 168/1/4
f 167/3/4 164/3/4 168/3/4
f 168/1/4 165/1/4 169/1/4
f 166/2/4 167/2/4 170/2/4
f 166/2/4 170/2/4 171/2/4
f 166/2/4 171/2/4 172/2/4
f 166/2/4 172/2/4 173/2/4
f 166/2/4 173/2/4 174/2/4
f 174/2/4 173/2/4 175/2/4
f 175/3/4 176/3/4 178/3/4
f 176/1/4 177/1/4 179/1/4
f 178/3/4 176/3/4 179/3/4
f 179/1/4 177/1/4 180/1/4
f 181/3/4 182/3/4 184/3/4
f 182/1/4 183/1/4 185/1/4
f 184/3/4 182/3/4 185/3/4
f 181/3/4 184/3/4 186/3/4
f 184/1/4 185/1/4 187/1/4
f 186/3/4 184/3/4 187/3/4
f 181/3/4 186/3/4 188/3/4
f 186/1/4 187/1/4 189/1/4
f 188/3/4 186/3/4 189/3/4
f 187/1/4 185/1/4 190/1/4
f 189/1/4 187/1/4 190/1/4
f 185/1/4 183/1/4 191/1/4
f 190/1/4 185/1/4 191/1/4
f 181/3/4 188/3/4 192/3/4
f 189/1/4 190/1/4 193/1/4
f 192/3/4 188/3/4 193/3/4
f 188/1/4 189/1/4 193/1/4
f 193/1/4 190/1/4 194/1/4
f 190/3/4 191/3/4 195/3/4
f 194/1/4 190/1/4 195/1/4
f 181/3/4 192/3/4 196/3/4
f 193/1/4 194/1/4 197/1/4
f 196/3/4 192/3/4 197/3/4
f 192/1/4 193/1/4 197/1/4
f 197/1/4 194/1/4 198/1/4
f 194/3/4 195/3/4 199/3/4
f 198/1/4 194/1/4 199/1/4
f 197/1/4 198/1/4 200/1/4
f 196/1/4 197/1/4 200/1/4
f 198/3/4 199/3/4 201/3/4
f 200/1/4 198/1/4 201/1/4
f 196/1/4 200/1/4 202/1/4
f 200/3/4 201/3/4 203/3/4
f 202/1/4 200/1/4 203/1/4
f 202/3/4 203/3/4 204/3/4
f 203/3/4 201/3/4 205/3/4
f 204/3/4 203/3/4 205/3/4
f 204/1/4 205/1/4 206/1/4
f 205/3/4 201/3/4 206/3/4
f 201/3/4 199/3/4 207/3/4
f 206/3/4 201/3/4 207/3/4
f 204/1/4 206/1/4 208/1/4
f 206/1/4 207/1/4 208/1/4
f 208/1/4 207/1/4 209/1/4
f 207/3/4 199/3/4 210/3/4
f 209/1/4 207/1/4 210/1/4
f 199/3/4 195/3/4 211/3/4
f 210/3/4 199/3/4 211/3/4
f 209/1/4 210/1/4 212/1/4
f 208/3/4 209/3/4 212/3/4
f 210/1/4 211/1/4 212/1/4
f 212/1/4 211/1/4 213/1/4
f 211/3/4 195/3/4 214/3/4
f 213/1/4 211/1/4 214/1/4
f 195/3/4 191/3/4 215/3/4
f 214/3/4 195/3/4 215/3/4
f 213/1/4 214/1/4 216/1/4
f 212/3/4 213/3/4 216/3/4
f 214/1/4 215/1/4 216/1/4
f 216/1/4 215/1/4 217/1/4
f 215/3/4 191/3/4 218/3/4
f 217/1/4 215/1/4 218/1/4
f 191/1/4 183/1/4 219/1/4
f 218/3/4 191/3/4 219/3/4
f 216/3/4 217/3/4 220/3/4
f 217/1/4 218/1/4 220/1/4
f 218/1/4 219/1/4 220/1/4
f 220/1/4 219/1/4 221/1/4
f 220/3/4 221/3/4 222/3/4
f 221/1/4 219/1/4 222/1/4
f 219/1/4 183/1/4 223/1/4
f 222/1/4 219/1/4 223/1/4
f 220/3/4 222/3/4 224/3/4
f 212/3/4 216/3/4 224/3/4
f 222/3/4 223/3/4 224/3/4
f 216/3/4 220/3/4 224/3/4
f 208/3/4 212/3/4 224/3/4
f 223/1/4 183/1/4 225/1/4
f 224/3/4 223/3/4 225/3/4
f 225/1/4 183/1/4 226/1/4
f 229/2/5 228/2/5 227/2/5
f 230/2/5 228/2/5 229/2/5
f 231/2/5 228/2/5 230/2/5
f 232/2/5 228/2/5 231/2/5
f 233/2/5 228/2/5 232/2/5
f 234/2/5 228/2/5 233/2/5
f 235/2/5 228/2/5 234/2/5
f 236/2/5 228/2/5 235/2/5
f 237/1/5 231/1/5 230/1/5
f 237/2/5 232/2/5 231/2/5
f 238/3/5 233/3/5 232/3/5
f 238/2/5 232/2/5 237/2/5
f 239/2/5 234/2/5 233/2/5
f 239/3/5 233/3/5 238/3/5
f 240/1/5 235/1/5 234/1/5
f 240/2/5 234/2/5 239/2/5
f 241/1/5 237/1/5 230/1/5
f 241/1/5 238/1/5 237/1/5
f 241/1/5 240/1/5 239/1/5
f 241/1/5 239/1/5 238/1/5
f 242/1/5 235/1/5 240/1/5
f 242/1/5 240/1/5 241/1/5
f 243/2/5 229/2/5 227/2/5
f 243/3/5 230/3/5 229/3/5
f 244/1/5 241/1/5 230/1/5
f 244/3/5 230/3/5 243/3/5
f 245/3/5 242/3/5 241/3/5
f 245/1/5 241/1/5 244/1/5
f 246/1/5 235/1/5 242/1/5
f 246/3/5 242/3/5 245/3/5
f 247/3/5 236/3/5 235/3/5
f 247/1/5 235/1/5 246/1/5
f 248/2/5 228/2/5 236/2/5
f 248/3/5 236/3/5 247/3/5
f 249/2/5 245/2/5 244/2/5
f 249/2/5 244/2/5 243/2/5
f 249/2/5 248/2/5 247/2/5
f 249/2/5 243/2/5 227/2/5
f 249/2/5 246/2/5 245/2/5
f 249/2/5 247/2/5 246/2/5
f 250/2/5 228/2/5 248/2/5
f 250/2/5 248/2/5 249/2/5
f 260/3/5 252/3/5 251/3/5
f 261/1/5 253/1/5 252/1/5
f 261/3/5 252/3/5 260/3/5
f 262/2/5 254/2/5 253/2/5
f 262/1/5 253/1/5 261/1/5
f 263/3/5 255/3/5 254/3/5
f 263/2/5 254/2/5 262/2/5
f 264/2/5 256/2/5 255/2/5
f 264/3/5 255/3/5 263/3/5
f 265/1/5 257/1/5 256/1/5
f 265/2/5 256/2/5 264/2/5
f 266/3/5 258/3/5 257/3/5
f 266/1/5 257/1/5 265/1/5
f 267/3/5 258/3/5 266/3/5
f 269/3/5 260/3/5 259/3/5
f 270/3/5 260/3/5 269/3/5
f 275/3/5 268/3/5 267/3/5
f 276/3/5 268/3/5 275/3/5
f 277/3/5 271/3/5 270/3/5
f 278/1/5 272/1/5 271/1/5
f 278/3/5 271/3/5 277/3/5
f 279/3/5 273/3/5 272/3/5
f 279/1/5 272/1/5 278/1/5
f 280/1/5 274/1/5 273/1/5
f 280/3/5 273/3/5 279/3/5
f 281/3/5 275/3/5 274/3/5
f 281/1/5 274/1/5 280/1/5
f 282/3/5 275/3/5 281/3/5
f 283/2/6 284/2/6 291/2/6
f 289/2/6 290/2/6 291/2/6
f 288/2/6 289/2/6 291/2/6
f 287/2/6 288/2/6 291/2/6
f 286/2/6 287/2/6 291/2/6
f 285/2/6 286/2/6 291/2/6
f 284/2/6 285/2/6 291/2/6
f 291/2/6 290/2/6 292/2/6
f 292/2/6 290/2/6 293/2/6
f 293/2/6 290/2/6 294/2/6
f 294/2/6 290/2/6 295/2/6
f 295/2/6 290/2/6 296/2/6
f 296/2/6 290/2/6 297/2/6
f 297/2/6 290/2/6 298/2/6
f 292/1/6 293/1/6 299/1/6
f 293/2/6 294/2/6 299/2/6
f 294/3/6 295/3/6 300/3/6
f 299/2/6 294/2/6 300/2/6
f 295/2/6 296/2/6 301/2/6
f 300/3/6 295/3/6 301/3/6
f 296/1/6 297/1/6 302/1/6
f 301/2/6 296/2/6 302/2/6
f 292/1/6 299/1/6 303/1/6
f 299/1/6 300/1/6 303/1/6
f 301/1/6 302/1/6 303/1/6
f 300/1/6 301/1/6 303/1/6
f 302/1/6 297/1/6 304/1/6
f 303/1/6 302/1/6 304/1/6
f 283/2/6 291/2/6 305/2/6
f 291/3/6 292/3/6 305/3/6
f 292/1/6 303/1/6 306/1/6
f 305/3/6 292/3/6 306/3/6
f 303/3/6 304/3/6 307/3/6
f 306/1/6 303/1/6 307/1/6
f 304/1/6 297/1/6 308/1/6
f 307/3/6 304/3/6 308/3/6
f 297/3/6 298/3/6 309/3/6
f 308/1/6 297/1/6 309/1/6
f 298/2/6 290/2/6 310/2/6
f 309/3/6 298/3/6 310/3/6
f 306/2/6 307/2/6 311/2/6
f 305/2/6 306/2/6 311/2/6
f 309/2/6 310/2/6 311/2/6
f 283/2/6 305/2/6 311/2/6
f 307/2/6 308/2/6 311/2/6
f 308/2/6 309/2/6 311/2/6
f 311/2/6 310/2/6 312/2/6
f 312/2/6 310/2/6 313/2/6
f 313/2/6 310/2/6 314/2/6
f 314/2/6 310/2/6 315/2/6
f 310/2/6 290/2/6 316/2/6
f 315/2/6 310/2/6 316/2/6
f 317/1/6 318/1/6 320/1/6
f 320/1/6 318/1/6 321/1/6
f 319/1/6 320/1/6 323/1/6
f 323/1/6 320/1/6 324/1/6
f 321/1/6 322/1/6 325/1/6
f 325/1/6 322/1/6 326/1/6
f 324/1/6 325/1/6 327/1/6
f 327/1/6 325/1/6 328/1/6
