# MagicaVoxel @ Ephtracy

# group
g humanoid-15

# material
mtllib humanoid-15.mtl
usemtl palette

# normals
vn -1 0 0
vn 1 0 0
vn 0 0 1
vn 0 0 -1
vn 0 -1 0
vn 0 1 0

# texcoords
vt 0.720703 0.5
vt 0.724609 0.5

# verts
v -12 0 7
v -12 0 -0
v -12 1 7
v -12 1 1
v -12 1 -0
v -12 2 1
v -12 2 -0
v -12 2 -1
v -12 3 1
v -12 3 -0
v -12 6 1
v -12 6 -0
v -12 6 -1
v -12 24 1
v -12 24 -0
v -12 24 -1
v -12 24 -2
v -12 25 -0
v -12 25 -2
v -12 26 1
v -12 26 -0
v -12 49 1
v -12 49 -1
v -12 50 1
v -12 50 -1
v -11 1 5
v -11 1 1
v -11 1 -0
v -11 1 -2
v -11 2 5
v -11 2 1
v -11 2 -0
v -11 2 -1
v -11 2 -2
v -11 6 1
v -11 6 -0
v -11 6 -1
v -11 23 1
v -11 23 -0
v -11 24 1
v -11 24 -0
v -11 24 -1
v -11 24 -2
v -11 25 -0
v -11 25 -1
v -11 26 1
v -11 26 -0
v -11 27 1
v -11 27 -0
v -11 47 1
v -11 47 -1
v -11 48 1
v -11 48 -1
v -11 49 1
v -11 49 -1
v -10 0 7
v -10 0 6
v -10 0 -0
v -10 0 -2
v -10 1 7
v -10 1 6
v -10 1 -0
v -10 1 -2
v -10 47 1
v -10 47 -1
v -10 48 1
v -10 48 -1
v -9 50 1
v -9 50 -1
v -9 51 1
v -9 51 -1
v -11 0 7
v -11 0 6
v -11 1 7
v -11 1 6
v -9 0 -0
v -9 0 -2
v -9 1 5
v -9 1 1
v -9 1 -0
v -9 2 5
v -9 2 1
v -9 2 -0
v -9 2 -1
v -9 2 -2
v -9 3 1
v -9 3 -0
v -9 23 1
v -9 23 -0
v -9 24 1
v -9 24 -0
v -9 24 -1
v -9 24 -2
v -9 25 -0
v -9 25 -1
v -9 26 1
v -9 26 -0
v -9 27 1
v -9 27 -0
v -9 47 1
v -9 47 -1
v -9 48 1
v -9 48 -1
v -9 49 1
v -9 49 -1
v -8 0 7
v -8 0 -0
v -8 1 7
v -8 1 1
v -8 1 -0
v -8 2 1
v -8 2 -0
v -8 2 -1
v -8 24 1
v -8 24 -0
v -8 24 -1
v -8 24 -2
v -8 25 -0
v -8 25 -2
v -8 26 1
v -8 26 -0
v -8 47 1
v -8 47 -1
v -8 48 1
v -8 48 -1
v -7 49 -0
v -7 49 -1
v -7 50 1
v -7 50 -0
v -7 50 -1
v -7 51 1
v -7 51 -0
v -7 51 -1
v -6 49 1
v -6 49 -0
v -6 50 1
v -6 50 -0
v -12 0 7
v -12 1 7
v -11 0 7
v -11 1 7
v -10 0 7
v -10 1 7
v -8 0 7
v -8 1 7
v -11 0 6
v -11 1 6
v -10 0 6
v -10 1 6
v -11 1 5
v -11 2 5
v -9 1 5
v -9 2 5
v -12 1 1
v -12 2 1
v -12 3 1
v -12 6 1
v -12 24 1
v -12 26 1
v -12 49 1
v -12 50 1
v -11 1 1
v -11 2 1
v -11 3 1
v -11 6 1
v -11 23 1
v -11 24 1
v -11 25 1
v -11 26 1
v -11 27 1
v -11 47 1
v -11 48 1
v -11 49 1
v -10 47 1
v -10 48 1
v -9 1 1
v -9 2 1
v -9 3 1
v -9 23 1
v -9 24 1
v -9 25 1
v -9 26 1
v -9 27 1
v -9 47 1
v -9 48 1
v -9 49 1
v -9 50 1
v -9 51 1
v -8 1 1
v -8 2 1
v -8 24 1
v -8 26 1
v -8 47 1
v -8 48 1
v -7 50 1
v -7 51 1
v -6 49 1
v -6 50 1
v -12 6 -0
v -12 24 -0
v -11 6 -0
v -11 23 -0
v -11 24 -0
v -9 2 -0
v -9 3 -0
v -9 23 -0
v -9 24 -0
v -8 2 -0
v -8 24 -0
v -12 0 -0
v -12 1 -0
v -12 2 -0
v -12 25 -0
v -12 26 -0
v -11 1 -0
v -11 2 -0
v -11 25 -0
v -11 26 -0
v -10 0 -0
v -10 1 -0
v -9 0 -0
v -9 1 -0
v -9 2 -0
v -9 25 -0
v -9 26 -0
v -8 0 -0
v -8 1 -0
v -8 2 -0
v -8 25 -0
v -8 26 -0
v -7 49 -0
v -7 50 -0
v -6 49 -0
v -6 50 -0
v -12 2 -1
v -12 6 -1
v -12 24 -1
v -12 49 -1
v -12 50 -1
v -11 2 -1
v -11 6 -1
v -11 24 -1
v -11 25 -1
v -11 47 -1
v -11 48 -1
v -11 49 -1
v -10 47 -1
v -10 48 -1
v -9 2 -1
v -9 24 -1
v -9 25 -1
v -9 47 -1
v -9 48 -1
v -9 49 -1
v -9 50 -1
v -9 51 -1
v -8 2 -1
v -8 24 -1
v -8 47 -1
v -8 48 -1
v -8 50 -1
v -8 51 -1
v -7 49 -1
v -7 50 -1
v -7 51 -1
v -12 24 -2
v -12 25 -2
v -11 1 -2
v -11 2 -2
v -11 24 -2
v -10 0 -2
v -10 1 -2
v -9 0 -2
v -9 2 -2
v -9 24 -2
v -8 24 -2
v -8 25 -2
v -12 0 7
v -11 0 7
v -10 0 7
v -8 0 7
v -11 0 6
v -10 0 6
v -12 0 -0
v -10 0 -0
v -9 0 -0
v -8 0 -0
v -10 0 -2
v -9 0 -2
v -11 1 -0
v -10 1 -0
v -11 1 -2
v -10 1 -2
v -12 2 -0
v -11 2 -0
v -9 2 -0
v -8 2 -0
v -12 2 -1
v -11 2 -1
v -9 2 -1
v -8 2 -1
v -12 24 1
v -11 24 1
v -9 24 1
v -8 24 1
v -12 24 -0
v -11 24 -0
v -9 24 -0
v -8 24 -0
v -12 24 -1
v -11 24 -1
v -9 24 -1
v -8 24 -1
v -12 24 -2
v -11 24 -2
v -9 24 -2
v -8 24 -2
v -9 47 1
v -8 47 1
v -9 47 -1
v -8 47 -1
v -11 48 1
v -10 48 1
v -11 48 -1
v -10 48 -1
v -12 49 1
v -11 49 1
v -9 49 1
v -6 49 1
v -7 49 -0
v -6 49 -0
v -12 49 -1
v -11 49 -1
v -9 49 -1
v -7 49 -1
v -12 1 7
v -11 1 7
v -10 1 7
v -8 1 7
v -11 1 6
v -10 1 6
v -11 1 5
v -9 1 5
v -12 1 1
v -11 1 1
v -9 1 1
v -8 1 1
v -11 2 5
v -9 2 5
v -11 2 1
v -9 2 1
v -8 2 1
v -9 2 -0
v -8 2 -0
v -12 6 1
v -11 6 1
v -12 6 -0
v -11 6 -0
v -12 25 -0
v -11 25 -0
v -9 25 -0
v -8 25 -0
v -11 25 -1
v -9 25 -1
v -12 25 -2
v -8 25 -2
v -12 26 1
v -11 26 1
v -9 26 1
v -8 26 1
v -12 26 -0
v -11 26 -0
v -9 26 -0
v -8 26 -0
v -11 47 1
v -10 47 1
v -11 47 -1
v -10 47 -1
v -9 48 1
v -8 48 1
v -9 48 -1
v -8 48 -1
v -12 50 1
v -9 50 1
v -7 50 1
v -6 50 1
v -7 50 -0
v -6 50 -0
v -12 50 -1
v -9 50 -1
v -9 51 1
v -7 51 1
v -8 51 -0
v -7 51 -0
v -9 51 -1
v -8 51 -1
v -7 51 -1

# faces
f 3/1/1 2/1/1 1/1/1
f 4/1/1 2/1/1 3/1/1
f 5/1/1 2/1/1 4/1/1
f 6/2/1 5/2/1 4/2/1
f 7/2/1 5/2/1 6/2/1
f 9/1/1 7/1/1 6/1/1
f 9/1/1 8/1/1 7/1/1
f 10/1/1 8/1/1 9/1/1
f 11/2/1 10/2/1 9/2/1
f 12/1/1 8/1/1 10/1/1
f 12/2/1 10/2/1 11/2/1
f 13/1/1 8/1/1 12/1/1
f 15/2/1 13/2/1 12/2/1
f 16/2/1 13/2/1 15/2/1
f 18/2/1 16/2/1 15/2/1
f 18/2/1 17/2/1 16/2/1
f 18/2/1 15/2/1 14/2/1
f 19/2/1 17/2/1 18/2/1
f 20/2/1 18/2/1 14/2/1
f 21/2/1 18/2/1 20/2/1
f 24/1/1 23/1/1 22/1/1
f 25/1/1 23/1/1 24/1/1
f 30/1/1 27/1/1 26/1/1
f 31/1/1 27/1/1 30/1/1
f 32/2/1 29/2/1 28/2/1
f 33/2/1 29/2/1 32/2/1
f 34/2/1 29/2/1 33/2/1
f 37/1/1 34/1/1 33/1/1
f 38/1/1 36/1/1 35/1/1
f 39/1/1 36/1/1 38/1/1
f 40/2/1 39/2/1 38/2/1
f 41/2/1 39/2/1 40/2/1
f 42/1/1 34/1/1 37/1/1
f 43/1/1 34/1/1 42/1/1
f 47/1/1 45/1/1 44/1/1
f 48/2/1 47/2/1 46/2/1
f 49/1/1 45/1/1 47/1/1
f 49/2/1 47/2/1 48/2/1
f 50/1/1 49/1/1 48/1/1
f 51/1/1 45/1/1 49/1/1
f 51/1/1 49/1/1 50/1/1
f 54/1/1 53/1/1 52/1/1
f 55/1/1 53/1/1 54/1/1
f 60/1/1 57/1/1 56/1/1
f 61/1/1 57/1/1 60/1/1
f 62/2/1 59/2/1 58/2/1
f 63/2/1 59/2/1 62/2/1
f 66/2/1 65/2/1 64/2/1
f 67/2/1 65/2/1 66/2/1
f 70/2/1 69/2/1 68/2/1
f 71/2/1 69/2/1 70/2/1
f 72/1/2 73/1/2 74/1/2
f 74/1/2 73/1/2 75/1/2
f 76/2/2 77/2/2 80/2/2
f 78/1/2 79/1/2 81/1/2
f 81/1/2 79/1/2 82/1/2
f 80/2/2 77/2/2 83/2/2
f 83/2/2 77/2/2 84/2/2
f 84/2/2 77/2/2 85/2/2
f 82/2/2 83/2/2 86/2/2
f 86/2/2 83/2/2 87/2/2
f 86/1/2 87/1/2 88/1/2
f 88/1/2 87/1/2 89/1/2
f 88/2/2 89/2/2 90/2/2
f 90/2/2 89/2/2 91/2/2
f 84/1/2 85/1/2 92/1/2
f 92/1/2 85/1/2 93/1/2
f 94/1/2 95/1/2 97/1/2
f 96/2/2 97/2/2 98/2/2
f 97/1/2 95/1/2 99/1/2
f 98/2/2 97/2/2 99/2/2
f 98/1/2 99/1/2 100/1/2
f 99/1/2 95/1/2 101/1/2
f 100/1/2 99/1/2 101/1/2
f 102/1/2 103/1/2 104/1/2
f 104/1/2 103/1/2 105/1/2
f 106/1/2 107/1/2 108/1/2
f 108/1/2 107/1/2 109/1/2
f 109/1/2 107/1/2 110/1/2
f 109/2/2 110/2/2 111/2/2
f 111/2/2 110/2/2 112/2/2
f 112/2/2 113/2/2 115/2/2
f 115/2/2 113/2/2 116/2/2
f 114/2/2 115/2/2 118/2/2
f 116/2/2 117/2/2 118/2/2
f 115/2/2 116/2/2 118/2/2
f 118/2/2 117/2/2 119/2/2
f 114/2/2 118/2/2 120/2/2
f 120/2/2 118/2/2 121/2/2
f 122/2/2 123/2/2 124/2/2
f 124/2/2 123/2/2 125/2/2
f 126/2/2 127/2/2 129/2/2
f 129/2/2 127/2/2 130/2/2
f 128/2/2 129/2/2 131/2/2
f 129/1/2 130/1/2 132/1/2
f 131/2/2 129/2/2 132/2/2
f 132/1/2 130/1/2 133/1/2
f 134/2/2 135/2/2 136/2/2
f 136/2/2 135/2/2 137/2/2
f 140/1/3 139/1/3 138/1/3
f 141/1/3 139/1/3 140/1/3
f 144/1/3 143/1/3 142/1/3
f 145/1/3 143/1/3 144/1/3
f 148/1/3 147/1/3 146/1/3
f 149/1/3 147/1/3 148/1/3
f 152/1/3 151/1/3 150/1/3
f 153/1/3 151/1/3 152/1/3
f 162/2/3 155/2/3 154/2/3
f 163/1/3 156/1/3 155/1/3
f 163/2/3 155/2/3 162/2/3
f 164/2/3 157/2/3 156/2/3
f 164/1/3 156/1/3 163/1/3
f 165/2/3 157/2/3 164/2/3
f 167/2/3 159/2/3 158/2/3
f 168/2/3 159/2/3 167/2/3
f 169/2/3 159/2/3 168/2/3
f 173/1/3 161/1/3 160/1/3
f 174/1/3 171/1/3 170/1/3
f 175/1/3 173/1/3 172/1/3
f 177/2/3 164/2/3 163/2/3
f 178/1/3 166/1/3 165/1/3
f 178/1/3 165/1/3 164/1/3
f 178/2/3 164/2/3 177/2/3
f 179/2/3 167/2/3 166/2/3
f 179/1/3 166/1/3 178/1/3
f 179/2/3 168/2/3 167/2/3
f 180/2/3 168/2/3 179/2/3
f 181/1/3 169/1/3 168/1/3
f 181/2/3 168/2/3 180/2/3
f 182/2/3 170/2/3 169/2/3
f 182/1/3 169/1/3 181/1/3
f 183/1/3 174/1/3 170/1/3
f 183/2/3 170/2/3 182/2/3
f 184/2/3 175/2/3 174/2/3
f 184/1/3 174/1/3 183/1/3
f 185/1/3 173/1/3 175/1/3
f 185/2/3 175/2/3 184/2/3
f 186/1/3 161/1/3 173/1/3
f 186/1/3 173/1/3 185/1/3
f 187/1/3 161/1/3 186/1/3
f 189/2/3 177/2/3 176/2/3
f 190/2/3 177/2/3 189/2/3
f 191/2/3 182/2/3 181/2/3
f 191/2/3 181/2/3 180/2/3
f 192/2/3 182/2/3 191/2/3
f 193/2/3 185/2/3 184/2/3
f 194/2/3 185/2/3 193/2/3
f 195/2/3 188/2/3 187/2/3
f 195/2/3 187/2/3 186/2/3
f 196/2/3 188/2/3 195/2/3
f 197/2/3 195/2/3 186/2/3
f 198/2/3 195/2/3 197/2/3
f 201/2/3 200/2/3 199/2/3
f 202/2/3 200/2/3 201/2/3
f 203/2/3 200/2/3 202/2/3
f 208/2/3 205/2/3 204/2/3
f 208/2/3 207/2/3 206/2/3
f 208/2/3 206/2/3 205/2/3
f 209/2/3 207/2/3 208/2/3
f 210/1/4 211/1/4 215/1/4
f 211/2/4 212/2/4 215/2/4
f 215/2/4 212/2/4 216/2/4
f 213/2/4 214/2/4 217/2/4
f 217/2/4 214/2/4 218/2/4
f 210/1/4 215/1/4 219/1/4
f 219/1/4 215/1/4 220/1/4
f 221/1/4 222/1/4 226/1/4
f 222/2/4 223/2/4 227/2/4
f 226/1/4 222/1/4 227/1/4
f 227/2/4 223/2/4 228/2/4
f 224/2/4 225/2/4 229/2/4
f 229/2/4 225/2/4 230/2/4
f 231/2/4 232/2/4 233/2/4
f 233/2/4 232/2/4 234/2/4
f 235/1/4 236/1/4 240/1/4
f 236/2/4 237/2/4 241/2/4
f 240/1/4 236/1/4 241/1/4
f 241/2/4 237/2/4 242/2/4
f 238/1/4 239/1/4 246/1/4
f 243/1/4 244/1/4 247/1/4
f 245/1/4 246/1/4 248/1/4
f 243/1/4 247/1/4 251/1/4
f 247/2/4 248/2/4 252/2/4
f 251/1/4 247/1/4 252/1/4
f 248/1/4 246/1/4 253/1/4
f 252/2/4 248/2/4 253/2/4
f 246/1/4 239/1/4 254/1/4
f 253/1/4 246/1/4 254/1/4
f 254/1/4 239/1/4 255/1/4
f 249/2/4 250/2/4 257/2/4
f 257/2/4 250/2/4 258/2/4
f 252/2/4 253/2/4 259/2/4
f 259/2/4 253/2/4 260/2/4
f 255/2/4 256/2/4 261/2/4
f 254/2/4 255/2/4 261/2/4
f 261/2/4 256/2/4 262/2/4
f 254/2/4 261/2/4 263/2/4
f 261/1/4 262/1/4 264/1/4
f 263/2/4 261/2/4 264/2/4
f 264/1/4 262/1/4 265/1/4
f 266/2/4 267/2/4 270/2/4
f 268/2/4 269/2/4 272/2/4
f 271/2/4 272/2/4 273/2/4
f 269/1/4 270/1/4 274/1/4
f 273/2/4 272/2/4 274/2/4
f 272/2/4 269/2/4 274/2/4
f 270/2/4 267/2/4 275/2/4
f 274/1/4 270/1/4 275/1/4
f 275/2/4 267/2/4 276/2/4
f 276/2/4 267/2/4 277/2/4
f 282/1/5 279/1/5 278/1/5
f 283/1/5 281/1/5 280/1/5
f 284/1/5 282/1/5 278/1/5
f 284/1/5 283/1/5 282/1/5
f 285/1/5 281/1/5 283/1/5
f 285/1/5 283/1/5 284/1/5
f 286/1/5 281/1/5 285/1/5
f 287/1/5 281/1/5 286/1/5
f 288/2/5 286/2/5 285/2/5
f 289/2/5 286/2/5 288/2/5
f 292/2/5 291/2/5 290/2/5
f 293/2/5 291/2/5 292/2/5
f 298/1/5 295/1/5 294/1/5
f 299/1/5 295/1/5 298/1/5
f 300/2/5 297/2/5 296/2/5
f 301/2/5 297/2/5 300/2/5
f 306/2/5 303/2/5 302/2/5
f 307/2/5 303/2/5 306/2/5
f 308/2/5 305/2/5 304/2/5
f 309/2/5 305/2/5 308/2/5
f 314/2/5 311/2/5 310/2/5
f 315/2/5 311/2/5 314/2/5
f 316/2/5 313/2/5 312/2/5
f 317/2/5 313/2/5 316/2/5
f 320/2/5 319/2/5 318/2/5
f 321/2/5 319/2/5 320/2/5
f 324/1/5 323/1/5 322/1/5
f 325/1/5 323/1/5 324/1/5
f 330/2/5 329/2/5 328/2/5
f 331/2/5 329/2/5 330/2/5
f 332/1/5 327/1/5 326/1/5
f 333/1/5 327/1/5 332/1/5
f 334/2/5 330/2/5 328/2/5
f 335/2/5 330/2/5 334/2/5
f 336/1/6 337/1/6 340/1/6
f 338/1/6 339/1/6 341/1/6
f 336/1/6 340/1/6 342/1/6
f 340/1/6 341/1/6 342/1/6
f 341/1/6 339/1/6 343/1/6
f 342/1/6 341/1/6 343/1/6
f 336/1/6 342/1/6 344/1/6
f 344/1/6 342/1/6 345/1/6
f 343/1/6 339/1/6 346/1/6
f 346/1/6 339/1/6 347/1/6
f 348/1/6 349/1/6 350/1/6
f 350/1/6 349/1/6 351/1/6
f 351/2/6 352/2/6 353/2/6
f 353/2/6 352/2/6 354/2/6
f 355/2/6 356/2/6 357/2/6
f 357/2/6 356/2/6 358/2/6
f 359/2/6 360/2/6 363/2/6
f 361/2/6 362/2/6 364/2/6
f 359/2/6 363/2/6 365/2/6
f 363/2/6 364/2/6 365/2/6
f 364/2/6 362/2/6 366/2/6
f 365/2/6 364/2/6 366/2/6
f 367/2/6 368/2/6 371/2/6
f 371/2/6 368/2/6 372/2/6
f 369/2/6 370/2/6 373/2/6
f 373/2/6 370/2/6 374/2/6
f 375/1/6 376/1/6 377/1/6
f 377/1/6 376/1/6 378/1/6
f 379/2/6 380/2/6 381/2/6
f 381/2/6 380/2/6 382/2/6
f 385/2/6 386/2/6 387/2/6
f 387/2/6 386/2/6 388/2/6
f 383/1/6 384/1/6 389/1/6
f 389/1/6 384/1/6 390/1/6
f 391/2/6 392/2/6 393/2/6
f 393/2/6 392/2/6 394/2/6
f 391/2/6 393/2/6 395/2/6
f 393/1/6 394/1/6 396/1/6
f 395/2/6 393/2/6 396/2/6
f 396/1/6 394/1/6 397/1/6
