# MagicaVoxel @ Ephtracy

# group
g humanoid-55

# material
mtllib humanoid-55.mtl
usemtl palette

# normals
vn -1 0 0
vn 1 0 0
vn 0 0 1
vn 0 0 -1
vn 0 -1 0
vn 0 1 0

# texcoords
vt 0.912109 0.5
vt 0.970703 0.5
vt 0.990234 0.5

# verts
v -10 104 12
v -10 104 11
v -10 108 12
v -10 108 11
v -6 92 10
v -6 92 8
v -6 96 12
v -6 96 10
v -6 96 8
v -6 100 12
v -6 100 8
v 6 104 12
v 6 104 11
v 6 108 12
v 6 108 11
v -6 104 12
v -6 104 11
v -6 108 12
v -6 108 11
v 6 92 10
v 6 92 8
v 6 96 12
v 6 96 10
v 6 96 8
v 6 100 12
v 6 100 8
v 10 104 12
v 10 104 11
v 10 108 12
v 10 108 11
v -10 104 12
v -10 108 12
v -6 96 12
v -6 100 12
v -6 104 12
v -6 108 12
v 6 96 12
v 6 100 12
v 6 104 12
v 6 108 12
v 10 104 12
v 10 108 12
v -6 92 10
v -6 96 10
v 6 92 10
v 6 96 10
v -10 104 11
v -10 108 11
v -6 104 11
v -6 108 11
v 6 104 11
v 6 108 11
v 10 104 11
v 10 108 11
v -6 92 8
v -6 96 8
v -6 100 8
v 6 92 8
v 6 96 8
v 6 100 8
v -6 92 10
v 6 92 10
v -6 92 8
v 6 92 8
v -6 96 12
v 6 96 12
v -6 96 10
v 6 96 10
v -10 104 12
v -6 104 12
v 6 104 12
v 10 104 12
v -10 104 11
v -6 104 11
v 6 104 11
v 10 104 11
v -6 100 12
v 6 100 12
v -6 100 8
v 6 100 8
v -10 108 12
v -6 108 12
v 6 108 12
v 10 108 12
v -10 108 11
v -6 108 11
v 6 108 11
v 10 108 11

# faces
f 3/3/1 2/3/1 1/3/1
f 4/3/1 2/3/1 3/3/1
f 8/1/1 6/1/1 5/1/1
f 9/1/1 6/1/1 8/1/1
f 10/2/1 8/2/1 7/2/1
f 10/2/1 9/2/1 8/2/1
f 11/2/1 9/2/1 10/2/1
f 14/3/1 13/3/1 12/3/1
f 15/3/1 13/3/1 14/3/1
f 16/3/2 17/3/2 18/3/2
f 18/3/2 17/3/2 19/3/2
f 20/1/2 21/1/2 23/1/2
f 23/1/2 21/1/2 24/1/2
f 22/2/2 23/2/2 25/2/2
f 23/2/2 24/2/2 25/2/2
f 25/2/2 24/2/2 26/2/2
f 27/3/2 28/3/2 29/3/2
f 29/3/2 28/3/2 30/3/2
f 35/3/3 32/3/3 31/3/3
f 36/3/3 32/3/3 35/3/3
f 37/2/3 34/2/3 33/2/3
f 38/2/3 34/2/3 37/2/3
f 41/3/3 40/3/3 39/3/3
f 42/3/3 40/3/3 41/3/3
f 45/1/3 44/1/3 43/1/3
f 46/1/3 44/1/3 45/1/3
f 47/3/4 48/3/4 49/3/4
f 49/3/4 48/3/4 50/3/4
f 51/3/4 52/3/4 53/3/4
f 53/3/4 52/3/4 54/3/4
f 55/1/4 56/1/4 58/1/4
f 56/2/4 57/2/4 59/2/4
f 58/1/4 56/1/4 59/1/4
f 59/2/4 57/2/4 60/2/4
f 63/1/5 62/1/5 61/1/5
f 64/1/5 62/1/5 63/1/5
f 67/2/5 66/2/5 65/2/5
f 68/2/5 66/2/5 67/2/5
f 73/3/5 70/3/5 69/3/5
f 74/3/5 70/3/5 73/3/5
f 75/3/5 72/3/5 71/3/5
f 76/3/5 72/3/5 75/3/5
f 77/2/6 78/2/6 79/2/6
f 79/2/6 78/2/6 80/2/6
f 81/3/6 82/3/6 85/3/6
f 85/3/6 82/3/6 86/3/6
f 83/3/6 84/3/6 87/3/6
f 87/3/6 84/3/6 88/3/6
