# MagicaVoxel @ Ephtracy

# group
g humanoid-62

# material
mtllib humanoid-62.mtl
usemtl palette

# normals
vn -1 0 0
vn 1 0 0
vn 0 0 1
vn 0 0 -1
vn 0 -1 0
vn 0 1 0

# texcoords
vt 0.861328 0.5
vt 0.865234 0.5
vt 0.869141 0.5

# verts
v -15 0 10
v -15 0 -4
v -15 1 11
v -15 1 10
v -15 1 -4
v -15 1 -5
v -15 3 2
v -15 3 -2
v -15 4 11
v -15 4 10
v -15 4 9
v -15 4 6
v -15 4 2
v -15 4 -2
v -15 4 -5
v -15 5 10
v -15 5 9
v -15 5 6
v -15 5 5
v -15 5 2
v -15 5 -2
v -15 5 -5
v -15 6 5
v -15 6 2
v -15 6 -2
v -15 6 -5
v -15 7 2
v -15 7 -1
v -15 7 -2
v -15 7 -5
v -15 8 -1
v -15 8 -4
v -15 9 -4
v -15 9 -5
v -15 16 5
v -15 16 -5
v -15 17 5
v -15 17 -5
v -15 18 5
v -15 18 4
v -15 18 -4
v -15 18 -5
v -15 19 4
v -15 19 -4
v -14 0 11
v -14 0 10
v -14 0 -4
v -14 0 -5
v -14 1 11
v -14 1 10
v -14 1 -4
v -14 1 -5
v -14 4 11
v -14 4 10
v -14 5 11
v -14 5 10
v -14 18 5
v -14 18 4
v -14 18 -4
v -14 18 -5
v -14 19 5
v -14 19 4
v -14 19 -4
v -14 19 -5
v -7 1 8
v -7 1 -3
v -7 4 8
v -7 4 6
v -7 4 5
v -7 4 4
v -7 5 4
v -7 5 3
v -7 19 3
v -7 19 -3
v -13 1 8
v -13 1 -3
v -13 4 8
v -13 4 6
v -13 4 5
v -13 4 4
v -13 5 4
v -13 5 3
v -13 19 3
v -13 19 -3
v -6 0 11
v -6 0 10
v -6 0 -4
v -6 0 -5
v -6 1 11
v -6 1 10
v -6 1 -4
v -6 1 -5
v -6 4 11
v -6 4 10
v -6 5 11
v -6 5 10
v -6 18 5
v -6 18 4
v -6 18 -4
v -6 18 -5
v -6 19 5
v -6 19 4
v -6 19 -4
v -6 19 -5
v -5 0 10
v -5 0 -4
v -5 1 11
v -5 1 10
v -5 1 -4
v -5 1 -5
v -5 3 1
v -5 3 -3
v -5 4 11
v -5 4 10
v -5 4 9
v -5 4 6
v -5 4 1
v -5 4 -3
v -5 4 -5
v -5 5 10
v -5 5 9
v -5 5 6
v -5 5 5
v -5 5 1
v -5 5 -3
v -5 5 -5
v -5 6 5
v -5 6 2
v -5 6 1
v -5 6 -3
v -5 6 -5
v -5 7 2
v -5 7 -2
v -5 7 -3
v -5 7 -5
v -5 8 -2
v -5 8 -4
v -5 9 -4
v -5 9 -5
v -5 16 5
v -5 16 -5
v -5 17 5
v -5 17 -5
v -5 18 5
v -5 18 4
v -5 18 -4
v -5 18 -5
v -5 19 4
v -5 19 -4
v -15 1 11
v -15 4 11
v -14 0 11
v -14 1 11
v -14 4 11
v -14 5 11
v -6 0 11
v -6 1 11
v -6 4 11
v -6 5 11
v -5 1 11
v -5 4 11
v -15 0 10
v -15 1 10
v -15 4 10
v -15 5 10
v -14 0 10
v -14 1 10
v -14 4 10
v -14 5 10
v -6 0 10
v -6 1 10
v -6 4 10
v -6 5 10
v -5 0 10
v -5 1 10
v -5 4 10
v -5 5 10
v -15 5 5
v -15 6 5
v -15 16 5
v -15 17 5
v -15 18 5
v -14 18 5
v -14 19 5
v -12 6 5
v -12 8 5
v -12 13 5
v -12 16 5
v -11 6 5
v -11 7 5
v -11 8 5
v -11 13 5
v -11 14 5
v -11 16 5
v -10 7 5
v -10 14 5
v -9 7 5
v -9 14 5
v -8 6 5
v -8 7 5
v -8 8 5
v -8 13 5
v -8 14 5
v -8 16 5
v -7 6 5
v -7 8 5
v -7 13 5
v -7 16 5
v -6 18 5
v -6 19 5
v -5 5 5
v -5 6 5
v -5 16 5
v -5 17 5
v -5 18 5
v -15 18 4
v -15 19 4
v -14 18 4
v -14 19 4
v -6 18 4
v -6 19 4
v -5 18 4
v -5 19 4
v -13 1 -3
v -13 19 -3
v -7 1 -3
v -7 19 -3
v -13 1 8
v -13 4 8
v -7 1 8
v -7 4 8
v -13 4 4
v -13 5 4
v -7 4 4
v -7 5 4
v -13 5 3
v -13 19 3
v -7 5 3
v -7 19 3
v -15 0 -4
v -15 1 -4
v -15 18 -4
v -15 19 -4
v -14 0 -4
v -14 1 -4
v -14 18 -4
v -14 19 -4
v -6 0 -4
v -6 1 -4
v -6 18 -4
v -6 19 -4
v -5 0 -4
v -5 1 -4
v -5 18 -4
v -5 19 -4
v -15 1 -5
v -15 4 -5
v -15 5 -5
v -15 6 -5
v -15 7 -5
v -15 9 -5
v -15 16 -5
v -15 17 -5
v -15 18 -5
v -14 0 -5
v -14 1 -5
v -14 7 -5
v -14 8 -5
v -14 18 -5
v -14 19 -5
v -13 7 -5
v -13 8 -5
v -6 0 -5
v -6 1 -5
v -6 18 -5
v -6 19 -5
v -5 1 -5
v -5 4 -5
v -5 5 -5
v -5 6 -5
v -5 7 -5
v -5 9 -5
v -5 16 -5
v -5 17 -5
v -5 18 -5
v -14 0 11
v -6 0 11
v -15 0 10
v -14 0 10
v -6 0 10
v -5 0 10
v -15 0 -4
v -14 0 -4
v -6 0 -4
v -5 0 -4
v -14 0 -5
v -6 0 -5
v -15 1 11
v -14 1 11
v -6 1 11
v -5 1 11
v -15 1 10
v -14 1 10
v -6 1 10
v -5 1 10
v -15 1 -4
v -14 1 -4
v -6 1 -4
v -5 1 -4
v -15 1 -5
v -14 1 -5
v -6 1 -5
v -5 1 -5
v -13 4 8
v -7 4 8
v -13 4 6
v -7 4 6
v -13 4 5
v -7 4 5
v -13 4 4
v -7 4 4
v -13 5 4
v -7 5 4
v -13 5 3
v -7 5 3
v -13 1 8
v -7 1 8
v -13 1 -3
v -7 1 -3
v -15 4 11
v -14 4 11
v -6 4 11
v -5 4 11
v -15 4 10
v -14 4 10
v -6 4 10
v -5 4 10
v -14 5 11
v -6 5 11
v -15 5 10
v -14 5 10
v -6 5 10
v -5 5 10
v -15 5 9
v -14 5 9
v -6 5 9
v -5 5 9
v -15 5 6
v -5 5 6
v -15 5 5
v -5 5 5
v -15 18 5
v -14 18 5
v -6 18 5
v -5 18 5
v -15 18 4
v -14 18 4
v -6 18 4
v -5 18 4
v -15 18 -4
v -14 18 -4
v -6 18 -4
v -5 18 -4
v -15 18 -5
v -14 18 -5
v -6 18 -5
v -5 18 -5
v -14 19 5
v -6 19 5
v -15 19 4
v -14 19 4
v -6 19 4
v -5 19 4
v -13 19 3
v -7 19 3
v -13 19 -3
v -7 19 -3
v -15 19 -4
v -14 19 -4
v -6 19 -4
v -5 19 -4
v -14 19 -5
v -6 19 -5

# faces
f 4/2/1 2/2/1 1/2/1
f 5/2/1 2/2/1 4/2/1
f 7/3/1 5/3/1 4/3/1
f 7/3/1 6/3/1 5/3/1
f 8/3/1 6/3/1 7/3/1
f 9/1/1 4/1/1 3/1/1
f 10/3/1 7/3/1 4/3/1
f 10/1/1 4/1/1 9/1/1
f 11/3/1 7/3/1 10/3/1
f 12/3/1 7/3/1 11/3/1
f 13/2/1 8/2/1 7/2/1
f 13/3/1 7/3/1 12/3/1
f 14/3/1 6/3/1 8/3/1
f 14/2/1 8/2/1 13/2/1
f 15/3/1 6/3/1 14/3/1
f 16/1/1 11/1/1 10/1/1
f 17/3/1 12/3/1 11/3/1
f 17/1/1 11/1/1 16/1/1
f 18/2/1 13/2/1 12/2/1
f 18/3/1 12/3/1 17/3/1
f 19/2/1 13/2/1 18/2/1
f 20/1/1 14/1/1 13/1/1
f 20/2/1 13/2/1 19/2/1
f 21/2/1 15/2/1 14/2/1
f 21/1/1 14/1/1 20/1/1
f 22/2/1 15/2/1 21/2/1
f 23/1/1 20/1/1 19/1/1
f 24/3/1 21/3/1 20/3/1
f 24/1/1 20/1/1 23/1/1
f 25/1/1 22/1/1 21/1/1
f 25/3/1 21/3/1 24/3/1
f 26/1/1 22/1/1 25/1/1
f 27/3/1 24/3/1 23/3/1
f 27/1/1 25/1/1 24/1/1
f 28/1/1 25/1/1 27/1/1
f 29/3/1 26/3/1 25/3/1
f 29/1/1 25/1/1 28/1/1
f 30/3/1 26/3/1 29/3/1
f 31/3/1 28/3/1 27/3/1
f 31/1/1 29/1/1 28/1/1
f 31/1/1 30/1/1 29/1/1
f 32/1/1 30/1/1 31/1/1
f 33/3/1 32/3/1 31/3/1
f 33/1/1 30/1/1 32/1/1
f 34/1/1 30/1/1 33/1/1
f 35/3/1 27/3/1 23/3/1
f 35/3/1 31/3/1 27/3/1
f 35/3/1 34/3/1 33/3/1
f 35/3/1 33/3/1 31/3/1
f 36/3/1 34/3/1 35/3/1
f 37/1/1 36/1/1 35/1/1
f 38/1/1 36/1/1 37/1/1
f 39/3/1 38/3/1 37/3/1
f 40/3/1 38/3/1 39/3/1
f 41/3/1 38/3/1 40/3/1
f 42/3/1 38/3/1 41/3/1
f 43/3/1 41/3/1 40/3/1
f 44/3/1 41/3/1 43/3/1
f 49/2/1 46/2/1 45/2/1
f 50/2/1 46/2/1 49/2/1
f 51/2/1 48/2/1 47/2/1
f 52/2/1 48/2/1 51/2/1
f 55/1/1 54/1/1 53/1/1
f 56/1/1 54/1/1 55/1/1
f 61/3/1 58/3/1 57/3/1
f 62/3/1 58/3/1 61/3/1
f 63/3/1 60/3/1 59/3/1
f 64/3/1 60/3/1 63/3/1
f 67/3/1 66/3/1 65/3/1
f 68/3/1 66/3/1 67/3/1
f 69/3/1 66/3/1 68/3/1
f 70/3/1 66/3/1 69/3/1
f 71/3/1 66/3/1 70/3/1
f 72/3/1 66/3/1 71/3/1
f 73/3/1 66/3/1 72/3/1
f 74/3/1 66/3/1 73/3/1
f 75/3/2 76/3/2 77/3/2
f 77/3/2 76/3/2 78/3/2
f 78/3/2 76/3/2 79/3/2
f 79/3/2 76/3/2 80/3/2
f 80/3/2 76/3/2 81/3/2
f 81/3/2 76/3/2 82/3/2
f 82/3/2 76/3/2 83/3/2
f 83/3/2 76/3/2 84/3/2
f 85/2/2 86/2/2 89/2/2
f 89/2/2 86/2/2 90/2/2
f 87/2/2 88/2/2 91/2/2
f 91/2/2 88/2/2 92/2/2
f 93/1/2 94/1/2 95/1/2
f 95/1/2 94/1/2 96/1/2
f 97/3/2 98/3/2 101/3/2
f 101/3/2 98/3/2 102/3/2
f 99/3/2 100/3/2 103/3/2
f 103/3/2 100/3/2 104/3/2
f 105/2/2 106/2/2 108/2/2
f 108/2/2 106/2/2 109/2/2
f 108/3/2 109/3/2 111/3/2
f 109/3/2 110/3/2 111/3/2
f 111/3/2 110/3/2 112/3/2
f 107/1/2 108/1/2 113/1/2
f 108/3/2 111/3/2 114/3/2
f 113/1/2 108/1/2 114/1/2
f 114/3/2 111/3/2 115/3/2
f 115/3/2 111/3/2 116/3/2
f 111/2/2 112/2/2 117/2/2
f 116/3/2 111/3/2 117/3/2
f 112/3/2 110/3/2 118/3/2
f 117/2/2 112/2/2 118/2/2
f 118/3/2 110/3/2 119/3/2
f 114/1/2 115/1/2 120/1/2
f 115/3/2 116/3/2 121/3/2
f 120/1/2 115/1/2 121/1/2
f 116/2/2 117/2/2 122/2/2
f 121/3/2 116/3/2 122/3/2
f 122/2/2 117/2/2 123/2/2
f 117/1/2 118/1/2 124/1/2
f 123/2/2 117/2/2 124/2/2
f 118/2/2 119/2/2 125/2/2
f 124/1/2 118/1/2 125/1/2
f 125/2/2 119/2/2 126/2/2
f 123/1/2 124/1/2 127/1/2
f 127/1/2 124/1/2 128/1/2
f 124/3/2 125/3/2 129/3/2
f 128/1/2 124/1/2 129/1/2
f 125/1/2 126/1/2 130/1/2
f 129/3/2 125/3/2 130/3/2
f 130/1/2 126/1/2 131/1/2
f 128/1/2 129/1/2 132/1/2
f 127/3/2 128/3/2 132/3/2
f 129/1/2 130/1/2 132/1/2
f 132/1/2 130/1/2 133/1/2
f 130/3/2 131/3/2 134/3/2
f 133/1/2 130/1/2 134/1/2
f 134/3/2 131/3/2 135/3/2
f 132/3/2 133/3/2 136/3/2
f 133/1/2 134/1/2 136/1/2
f 134/1/2 135/1/2 136/1/2
f 136/1/2 135/1/2 137/1/2
f 136/3/2 137/3/2 138/3/2
f 137/1/2 135/1/2 138/1/2
f 138/1/2 135/1/2 139/1/2
f 127/3/2 132/3/2 140/3/2
f 132/3/2 136/3/2 140/3/2
f 138/3/2 139/3/2 140/3/2
f 136/3/2 138/3/2 140/3/2
f 140/3/2 139/3/2 141/3/2
f 140/1/2 141/1/2 142/1/2
f 142/1/2 141/1/2 143/1/2
f 142/3/2 143/3/2 144/3/2
f 144/3/2 143/3/2 145/3/2
f 145/3/2 143/3/2 146/3/2
f 146/3/2 143/3/2 147/3/2
f 145/3/2 146/3/2 148/3/2
f 148/3/2 146/3/2 149/3/2
f 153/1/3 151/1/3 150/1/3
f 154/1/3 151/1/3 153/1/3
f 156/2/3 153/2/3 152/2/3
f 157/3/3 154/3/3 153/3/3
f 157/2/3 153/2/3 156/2/3
f 158/1/3 155/1/3 154/1/3
f 158/3/3 154/3/3 157/3/3
f 159/1/3 155/1/3 158/1/3
f 160/1/3 158/1/3 157/1/3
f 161/1/3 158/1/3 160/1/3
f 166/2/3 163/2/3 162/2/3
f 167/2/3 163/2/3 166/2/3
f 168/1/3 165/1/3 164/1/3
f 169/1/3 165/1/3 168/1/3
f 174/2/3 171/2/3 170/2/3
f 175/2/3 171/2/3 174/2/3
f 176/1/3 173/1/3 172/1/3
f 177/1/3 173/1/3 176/1/3
f 183/3/3 182/3/3 181/3/3
f 185/1/3 179/1/3 178/1/3
f 185/3/3 180/3/3 179/3/3
f 186/3/3 180/3/3 185/3/3
f 187/3/3 180/3/3 186/3/3
f 188/1/3 181/1/3 180/1/3
f 188/3/3 180/3/3 187/3/3
f 189/1/3 185/1/3 178/1/3
f 189/1/3 186/1/3 185/1/3
f 190/1/3 186/1/3 189/1/3
f 191/3/3 187/3/3 186/3/3
f 191/1/3 186/1/3 190/1/3
f 192/1/3 188/1/3 187/1/3
f 192/3/3 187/3/3 191/3/3
f 193/1/3 188/1/3 192/1/3
f 194/1/3 181/1/3 188/1/3
f 194/1/3 188/1/3 193/1/3
f 195/3/3 190/3/3 189/3/3
f 195/1/3 193/1/3 192/1/3
f 195/1/3 191/1/3 190/1/3
f 195/1/3 192/1/3 191/1/3
f 196/3/3 194/3/3 193/3/3
f 196/1/3 193/1/3 195/1/3
f 197/3/3 195/3/3 189/3/3
f 197/3/3 196/3/3 195/3/3
f 198/3/3 194/3/3 196/3/3
f 198/3/3 196/3/3 197/3/3
f 199/3/3 197/3/3 189/3/3
f 199/1/3 189/1/3 178/1/3
f 200/1/3 198/1/3 197/1/3
f 200/3/3 197/3/3 199/3/3
f 201/1/3 198/1/3 200/1/3
f 202/1/3 198/1/3 201/1/3
f 203/3/3 194/3/3 198/3/3
f 203/1/3 198/1/3 202/1/3
f 204/1/3 181/1/3 194/1/3
f 204/3/3 194/3/3 203/3/3
f 205/1/3 199/1/3 178/1/3
f 205/1/3 200/1/3 199/1/3
f 205/1/3 201/1/3 200/1/3
f 206/3/3 202/3/3 201/3/3
f 206/1/3 201/1/3 205/1/3
f 207/1/3 203/1/3 202/1/3
f 207/3/3 202/3/3 206/3/3
f 207/1/3 204/1/3 203/1/3
f 208/1/3 181/1/3 204/1/3
f 208/1/3 204/1/3 207/1/3
f 209/3/3 184/3/3 183/3/3
f 209/3/3 183/3/3 181/3/3
f 210/3/3 184/3/3 209/3/3
f 211/1/3 205/1/3 178/1/3
f 212/3/3 208/3/3 207/3/3
f 212/1/3 205/1/3 211/1/3
f 212/3/3 206/3/3 205/3/3
f 212/3/3 207/3/3 206/3/3
f 213/1/3 181/1/3 208/1/3
f 213/3/3 208/3/3 212/3/3
f 214/3/3 209/3/3 181/3/3
f 214/1/3 181/1/3 213/1/3
f 215/3/3 209/3/3 214/3/3
f 218/3/3 217/3/3 216/3/3
f 219/3/3 217/3/3 218/3/3
f 222/3/3 221/3/3 220/3/3
f 223/3/3 221/3/3 222/3/3
f 226/3/3 225/3/3 224/3/3
f 227/3/3 225/3/3 226/3/3
f 228/3/4 229/3/4 230/3/4
f 230/3/4 229/3/4 231/3/4
f 232/3/4 233/3/4 234/3/4
f 234/3/4 233/3/4 235/3/4
f 236/3/4 237/3/4 238/3/4
f 238/3/4 237/3/4 239/3/4
f 240/2/4 241/2/4 244/2/4
f 244/2/4 241/2/4 245/2/4
f 242/3/4 243/3/4 246/3/4
f 246/3/4 243/3/4 247/3/4
f 248/2/4 249/2/4 252/2/4
f 252/2/4 249/2/4 253/2/4
f 250/3/4 251/3/4 254/3/4
f 254/3/4 251/3/4 255/3/4
f 256/3/4 257/3/4 266/3/4
f 259/3/4 260/3/4 267/3/4
f 260/1/4 261/1/4 267/1/4
f 267/1/4 261/1/4 268/1/4
f 263/3/4 264/3/4 269/3/4
f 259/3/4 267/3/4 271/3/4
f 267/3/4 268/3/4 271/3/4
f 268/1/4 261/1/4 272/1/4
f 271/3/4 268/3/4 272/3/4
f 265/2/4 266/2/4 273/2/4
f 266/3/4 257/3/4 274/3/4
f 273/2/4 266/2/4 274/2/4
f 269/3/4 270/3/4 275/3/4
f 263/3/4 269/3/4 275/3/4
f 275/3/4 270/3/4 276/3/4
f 274/3/4 257/3/4 277/3/4
f 257/2/4 258/2/4 278/2/4
f 277/3/4 257/3/4 278/3/4
f 258/1/4 259/1/4 279/1/4
f 278/2/4 258/2/4 279/2/4
f 259/3/4 271/3/4 280/3/4
f 279/1/4 259/1/4 280/1/4
f 271/1/4 272/1/4 281/1/4
f 280/3/4 271/3/4 281/3/4
f 272/1/4 261/1/4 282/1/4
f 281/1/4 272/1/4 282/1/4
f 261/3/4 262/3/4 282/3/4
f 262/1/4 263/1/4 283/1/4
f 282/3/4 262/3/4 283/3/4
f 263/3/4 275/3/4 284/3/4
f 283/1/4 263/1/4 284/1/4
f 284/3/4 275/3/4 285/3/4
f 289/2/5 287/2/5 286/2/5
f 290/2/5 287/2/5 289/2/5
f 292/2/5 289/2/5 288/2/5
f 292/2/5 291/2/5 290/2/5
f 292/2/5 290/2/5 289/2/5
f 293/2/5 291/2/5 292/2/5
f 294/2/5 291/2/5 293/2/5
f 295/2/5 291/2/5 294/2/5
f 296/2/5 294/2/5 293/2/5
f 297/2/5 294/2/5 296/2/5
f 302/1/5 299/1/5 298/1/5
f 303/1/5 299/1/5 302/1/5
f 304/1/5 301/1/5 300/1/5
f 305/1/5 301/1/5 304/1/5
f 310/3/5 307/3/5 306/3/5
f 311/3/5 307/3/5 310/3/5
f 312/3/5 309/3/5 308/3/5
f 313/3/5 309/3/5 312/3/5
f 316/3/5 315/3/5 314/3/5
f 317/3/5 315/3/5 316/3/5
f 318/2/5 317/2/5 316/2/5
f 319/2/5 317/2/5 318/2/5
f 320/3/5 319/3/5 318/3/5
f 321/3/5 319/3/5 320/3/5
f 324/3/5 323/3/5 322/3/5
f 325/3/5 323/3/5 324/3/5
f 326/2/6 327/2/6 328/2/6
f 328/2/6 327/2/6 329/2/6
f 330/1/6 331/1/6 334/1/6
f 334/1/6 331/1/6 335/1/6
f 332/1/6 333/1/6 336/1/6
f 336/1/6 333/1/6 337/1/6
f 338/1/6 339/1/6 341/1/6
f 341/1/6 339/1/6 342/1/6
f 340/1/6 341/1/6 344/1/6
f 341/3/6 342/3/6 345/3/6
f 344/1/6 341/1/6 345/1/6
f 342/1/6 343/1/6 346/1/6
f 345/3/6 342/3/6 346/3/6
f 346/1/6 343/1/6 347/1/6
f 344/3/6 345/3/6 348/3/6
f 345/3/6 346/3/6 348/3/6
f 346/3/6 347/3/6 348/3/6
f 348/3/6 347/3/6 349/3/6
f 348/2/6 349/2/6 350/2/6
f 350/2/6 349/2/6 351/2/6
f 352/3/6 353/3/6 356/3/6
f 356/3/6 353/3/6 357/3/6
f 354/3/6 355/3/6 358/3/6
f 358/3/6 355/3/6 359/3/6
f 360/3/6 361/3/6 364/3/6
f 364/3/6 361/3/6 365/3/6
f 362/3/6 363/3/6 366/3/6
f 366/3/6 363/3/6 367/3/6
f 368/3/6 369/3/6 371/3/6
f 371/3/6 369/3/6 372/3/6
f 370/3/6 371/3/6 374/3/6
f 372/3/6 373/3/6 374/3/6
f 371/3/6 372/3/6 374/3/6
f 374/3/6 373/3/6 375/3/6
f 370/3/6 374/3/6 376/3/6
f 375/3/6 373/3/6 377/3/6
f 370/3/6 376/3/6 378/3/6
f 376/3/6 377/3/6 378/3/6
f 378/3/6 377/3/6 379/3/6
f 377/3/6 373/3/6 380/3/6
f 379/3/6 377/3/6 380/3/6
f 380/3/6 373/3/6 381/3/6
f 379/3/6 380/3/6 382/3/6
f 382/3/6 380/3/6 383/3/6
