# MagicaVoxel @ Ephtracy

# group
g humanoid-22

# material
mtllib humanoid-22.mtl
usemtl palette

# normals
vn -1 0 0
vn 1 0 0
vn 0 0 1
vn 0 0 -1
vn 0 -1 0
vn 0 1 0

# texcoords
vt 0.822266 0.5
vt 0.826172 0.5

# verts
v -18 43 12
v -18 43 -12
v -18 52 12
v -18 52 -12
v 17 44 11
v 17 44 -11
v 17 52 11
v 17 52 -11
v -17 44 11
v -17 44 -11
v -17 52 11
v -17 52 -11
v 18 43 12
v 18 43 -12
v 18 52 12
v 18 52 -12
v -18 43 12
v -18 52 12
v -1 48 12
v -1 51 12
v 0 45 12
v 0 48 12
v 0 51 12
v 0 52 12
v 1 45 12
v 1 52 12
v 18 43 12
v 18 52 12
v -17 44 -11
v -17 52 -11
v 17 44 -11
v 17 52 -11
v -17 44 11
v -17 52 11
v -1 48 11
v -1 51 11
v 0 45 11
v 0 48 11
v 0 51 11
v 0 52 11
v 1 45 11
v 1 52 11
v 17 44 11
v 17 52 11
v -18 43 -12
v -18 52 -12
v 18 43 -12
v 18 52 -12
v -18 43 12
v 18 43 12
v -18 43 -12
v 18 43 -12
v -17 44 11
v 17 44 11
v -17 44 -11
v 17 44 -11
v -18 52 12
v 0 52 12
v 1 52 12
v 18 52 12
v -17 52 11
v 0 52 11
v 1 52 11
v 17 52 11
v -17 52 -11
v 17 52 -11
v -18 52 -12
v 18 52 -12

# faces
f 3/1/1 2/1/1 1/1/1
f 4/1/1 2/1/1 3/1/1
f 7/1/1 6/1/1 5/1/1
f 8/1/1 6/1/1 7/1/1
f 9/1/2 10/1/2 11/1/2
f 11/1/2 10/1/2 12/1/2
f 13/1/2 14/1/2 15/1/2
f 15/1/2 14/1/2 16/1/2
f 19/1/3 18/1/3 17/1/3
f 20/1/3 18/1/3 19/1/3
f 21/1/3 19/1/3 17/1/3
f 22/2/3 20/2/3 19/2/3
f 22/1/3 19/1/3 21/1/3
f 23/1/3 18/1/3 20/1/3
f 23/2/3 20/2/3 22/2/3
f 24/1/3 18/1/3 23/1/3
f 25/2/3 22/2/3 21/2/3
f 25/1/3 21/1/3 17/1/3
f 25/2/3 24/2/3 23/2/3
f 25/2/3 23/2/3 22/2/3
f 26/2/3 24/2/3 25/2/3
f 27/1/3 25/1/3 17/1/3
f 27/1/3 26/1/3 25/1/3
f 28/1/3 26/1/3 27/1/3
f 31/1/3 30/1/3 29/1/3
f 32/1/3 30/1/3 31/1/3
f 33/1/4 34/1/4 35/1/4
f 35/1/4 34/1/4 36/1/4
f 33/1/4 35/1/4 37/1/4
f 35/2/4 36/2/4 38/2/4
f 37/1/4 35/1/4 38/1/4
f 36/1/4 34/1/4 39/1/4
f 38/2/4 36/2/4 39/2/4
f 39/1/4 34/1/4 40/1/4
f 37/2/4 38/2/4 41/2/4
f 33/1/4 37/1/4 41/1/4
f 39/2/4 40/2/4 41/2/4
f 38/2/4 39/2/4 41/2/4
f 41/2/4 40/2/4 42/2/4
f 33/1/4 41/1/4 43/1/4
f 41/1/4 42/1/4 43/1/4
f 43/1/4 42/1/4 44/1/4
f 45/1/4 46/1/4 47/1/4
f 47/1/4 46/1/4 48/1/4
f 51/1/5 50/1/5 49/1/5
f 52/1/5 50/1/5 51/1/5
f 53/1/6 54/1/6 55/1/6
f 55/1/6 54/1/6 56/1/6
f 57/1/6 58/1/6 61/1/6
f 58/2/6 59/2/6 62/2/6
f 61/1/6 58/1/6 62/1/6
f 59/1/6 60/1/6 63/1/6
f 62/2/6 59/2/6 63/2/6
f 63/1/6 60/1/6 64/1/6
f 57/1/6 61/1/6 65/1/6
f 64/1/6 60/1/6 66/1/6
f 57/1/6 65/1/6 67/1/6
f 65/1/6 66/1/6 67/1/6
f 66/1/6 60/1/6 68/1/6
f 67/1/6 66/1/6 68/1/6
