# MagicaVoxel @ Ephtracy

# group
g humanoid-19

# material
mtllib humanoid-19.mtl
usemtl palette

# normals
vn -1 0 0
vn 1 0 0
vn 0 0 1
vn 0 0 -1
vn 0 -1 0
vn 0 1 0

# texcoords
vt 0.720703 0.5
vt 0.724609 0.5

# verts
v 6 49 1
v 6 49 -0
v 6 50 1
v 6 50 -0
v 7 49 -0
v 7 49 -1
v 7 50 1
v 7 50 -0
v 7 50 -1
v 7 51 1
v 7 51 -0
v 7 51 -1
v 8 0 7
v 8 0 -0
v 8 1 7
v 8 1 1
v 8 1 -0
v 8 2 1
v 8 2 -0
v 8 2 -1
v 8 24 1
v 8 24 -0
v 8 24 -1
v 8 24 -2
v 8 25 -0
v 8 25 -2
v 8 26 1
v 8 26 -0
v 8 47 1
v 8 47 -1
v 8 48 1
v 8 48 -1
v 9 0 -0
v 9 0 -2
v 9 1 5
v 9 1 1
v 9 1 -0
v 9 2 5
v 9 2 1
v 9 2 -0
v 9 2 -1
v 9 2 -2
v 9 3 1
v 9 3 -0
v 9 23 1
v 9 23 -0
v 9 24 1
v 9 24 -0
v 9 24 -1
v 9 24 -2
v 9 25 -0
v 9 25 -1
v 9 26 1
v 9 26 -0
v 9 27 1
v 9 27 -0
v 9 47 1
v 9 47 -1
v 9 48 1
v 9 48 -1
v 9 49 1
v 9 49 -1
v 11 0 7
v 11 0 6
v 11 1 7
v 11 1 6
v 9 50 1
v 9 50 -1
v 9 51 1
v 9 51 -1
v 10 0 7
v 10 0 6
v 10 0 -0
v 10 0 -2
v 10 1 7
v 10 1 6
v 10 1 -0
v 10 1 -2
v 10 47 1
v 10 47 -1
v 10 48 1
v 10 48 -1
v 11 1 5
v 11 1 1
v 11 1 -0
v 11 1 -2
v 11 2 5
v 11 2 1
v 11 2 -0
v 11 2 -1
v 11 2 -2
v 11 6 1
v 11 6 -0
v 11 6 -1
v 11 23 1
v 11 23 -0
v 11 24 1
v 11 24 -0
v 11 24 -1
v 11 24 -2
v 11 25 -0
v 11 25 -1
v 11 26 1
v 11 26 -0
v 11 27 1
v 11 27 -0
v 11 47 1
v 11 47 -1
v 11 48 1
v 11 48 -1
v 11 49 1
v 11 49 -1
v 12 0 7
v 12 0 -0
v 12 1 7
v 12 1 1
v 12 1 -0
v 12 2 1
v 12 2 -0
v 12 2 -1
v 12 3 1
v 12 3 -0
v 12 6 1
v 12 6 -0
v 12 6 -1
v 12 24 1
v 12 24 -0
v 12 24 -1
v 12 24 -2
v 12 25 -0
v 12 25 -2
v 12 26 1
v 12 26 -0
v 12 49 1
v 12 49 -1
v 12 50 1
v 12 50 -1
v 8 0 7
v 8 1 7
v 10 0 7
v 10 1 7
v 11 0 7
v 11 1 7
v 12 0 7
v 12 1 7
v 10 0 6
v 10 1 6
v 11 0 6
v 11 1 6
v 9 1 5
v 9 2 5
v 11 1 5
v 11 2 5
v 6 49 1
v 6 50 1
v 7 50 1
v 7 51 1
v 8 1 1
v 8 2 1
v 8 24 1
v 8 26 1
v 8 47 1
v 8 48 1
v 9 1 1
v 9 2 1
v 9 3 1
v 9 23 1
v 9 24 1
v 9 25 1
v 9 26 1
v 9 27 1
v 9 47 1
v 9 48 1
v 9 49 1
v 9 50 1
v 9 51 1
v 10 47 1
v 10 48 1
v 11 1 1
v 11 2 1
v 11 3 1
v 11 6 1
v 11 23 1
v 11 24 1
v 11 25 1
v 11 26 1
v 11 27 1
v 11 47 1
v 11 48 1
v 11 49 1
v 12 1 1
v 12 2 1
v 12 3 1
v 12 6 1
v 12 24 1
v 12 26 1
v 12 49 1
v 12 50 1
v 8 2 -0
v 8 24 -0
v 9 2 -0
v 9 3 -0
v 9 23 -0
v 9 24 -0
v 11 6 -0
v 11 23 -0
v 11 24 -0
v 12 6 -0
v 12 24 -0
v 6 49 -0
v 6 50 -0
v 7 49 -0
v 7 50 -0
v 8 0 -0
v 8 1 -0
v 8 2 -0
v 8 25 -0
v 8 26 -0
v 9 0 -0
v 9 1 -0
v 9 2 -0
v 9 25 -0
v 9 26 -0
v 10 0 -0
v 10 1 -0
v 11 1 -0
v 11 2 -0
v 11 25 -0
v 11 26 -0
v 12 0 -0
v 12 1 -0
v 12 2 -0
v 12 25 -0
v 12 26 -0
v 7 49 -1
v 7 50 -1
v 7 51 -1
v 8 2 -1
v 8 24 -1
v 8 47 -1
v 8 48 -1
v 8 50 -1
v 8 51 -1
v 9 2 -1
v 9 24 -1
v 9 25 -1
v 9 47 -1
v 9 48 -1
v 9 49 -1
v 9 50 -1
v 9 51 -1
v 10 47 -1
v 10 48 -1
v 11 2 -1
v 11 6 -1
v 11 24 -1
v 11 25 -1
v 11 47 -1
v 11 48 -1
v 11 49 -1
v 12 2 -1
v 12 6 -1
v 12 24 -1
v 12 49 -1
v 12 50 -1
v 8 24 -2
v 8 25 -2
v 9 0 -2
v 9 2 -2
v 9 24 -2
v 10 0 -2
v 10 1 -2
v 11 1 -2
v 11 2 -2
v 11 24 -2
v 12 24 -2
v 12 25 -2
v 8 0 7
v 10 0 7
v 11 0 7
v 12 0 7
v 10 0 6
v 11 0 6
v 8 0 -0
v 9 0 -0
v 10 0 -0
v 12 0 -0
v 9 0 -2
v 10 0 -2
v 10 1 -0
v 11 1 -0
v 10 1 -2
v 11 1 -2
v 8 2 -0
v 9 2 -0
v 11 2 -0
v 12 2 -0
v 8 2 -1
v 9 2 -1
v 11 2 -1
v 12 2 -1
v 8 24 1
v 9 24 1
v 11 24 1
v 12 24 1
v 8 24 -0
v 9 24 -0
v 11 24 -0
v 12 24 -0
v 8 24 -1
v 9 24 -1
v 11 24 -1
v 12 24 -1
v 8 24 -2
v 9 24 -2
v 11 24 -2
v 12 24 -2
v 8 47 1
v 9 47 1
v 8 47 -1
v 9 47 -1
v 10 48 1
v 11 48 1
v 10 48 -1
v 11 48 -1
v 6 49 1
v 9 49 1
v 11 49 1
v 12 49 1
v 6 49 -0
v 7 49 -0
v 7 49 -1
v 9 49 -1
v 11 49 -1
v 12 49 -1
v 8 1 7
v 10 1 7
v 11 1 7
v 12 1 7
v 10 1 6
v 11 1 6
v 9 1 5
v 11 1 5
v 8 1 1
v 9 1 1
v 11 1 1
v 12 1 1
v 9 2 5
v 11 2 5
v 8 2 1
v 9 2 1
v 11 2 1
v 8 2 -0
v 9 2 -0
v 11 6 1
v 12 6 1
v 11 6 -0
v 12 6 -0
v 8 25 -0
v 9 25 -0
v 11 25 -0
v 12 25 -0
v 9 25 -1
v 11 25 -1
v 8 25 -2
v 12 25 -2
v 8 26 1
v 9 26 1
v 11 26 1
v 12 26 1
v 8 26 -0
v 9 26 -0
v 11 26 -0
v 12 26 -0
v 10 47 1
v 11 47 1
v 10 47 -1
v 11 47 -1
v 8 48 1
v 9 48 1
v 8 48 -1
v 9 48 -1
v 6 50 1
v 7 50 1
v 9 50 1
v 12 50 1
v 6 50 -0
v 7 50 -0
v 9 50 -1
v 12 50 -1
v 7 51 1
v 9 51 1
v 7 51 -0
v 8 51 -0
v 7 51 -1
v 8 51 -1
v 9 51 -1

# faces
f 3/2/1 2/2/1 1/2/1
f 4/2/1 2/2/1 3/2/1
f 8/2/1 6/2/1 5/2/1
f 9/2/1 6/2/1 8/2/1
f 10/2/1 8/2/1 7/2/1
f 11/1/1 9/1/1 8/1/1
f 11/2/1 8/2/1 10/2/1
f 12/1/1 9/1/1 11/1/1
f 15/1/1 14/1/1 13/1/1
f 16/1/1 14/1/1 15/1/1
f 17/1/1 14/1/1 16/1/1
f 18/2/1 17/2/1 16/2/1
f 19/2/1 17/2/1 18/2/1
f 22/2/1 20/2/1 19/2/1
f 23/2/1 20/2/1 22/2/1
f 25/2/1 22/2/1 21/2/1
f 25/2/1 24/2/1 23/2/1
f 25/2/1 23/2/1 22/2/1
f 26/2/1 24/2/1 25/2/1
f 27/2/1 25/2/1 21/2/1
f 28/2/1 25/2/1 27/2/1
f 31/2/1 30/2/1 29/2/1
f 32/2/1 30/2/1 31/2/1
f 37/2/1 34/2/1 33/2/1
f 38/1/1 36/1/1 35/1/1
f 39/1/1 36/1/1 38/1/1
f 40/2/1 34/2/1 37/2/1
f 41/2/1 34/2/1 40/2/1
f 42/2/1 34/2/1 41/2/1
f 43/2/1 40/2/1 39/2/1
f 44/2/1 40/2/1 43/2/1
f 45/1/1 44/1/1 43/1/1
f 46/1/1 44/1/1 45/1/1
f 47/2/1 46/2/1 45/2/1
f 48/2/1 46/2/1 47/2/1
f 49/1/1 42/1/1 41/1/1
f 50/1/1 42/1/1 49/1/1
f 54/1/1 52/1/1 51/1/1
f 55/2/1 54/2/1 53/2/1
f 56/1/1 52/1/1 54/1/1
f 56/2/1 54/2/1 55/2/1
f 57/1/1 56/1/1 55/1/1
f 58/1/1 52/1/1 56/1/1
f 58/1/1 56/1/1 57/1/1
f 61/1/1 60/1/1 59/1/1
f 62/1/1 60/1/1 61/1/1
f 65/1/1 64/1/1 63/1/1
f 66/1/1 64/1/1 65/1/1
f 67/2/2 68/2/2 69/2/2
f 69/2/2 68/2/2 70/2/2
f 71/1/2 72/1/2 75/1/2
f 75/1/2 72/1/2 76/1/2
f 73/2/2 74/2/2 77/2/2
f 77/2/2 74/2/2 78/2/2
f 79/2/2 80/2/2 81/2/2
f 81/2/2 80/2/2 82/2/2
f 83/1/2 84/1/2 87/1/2
f 87/1/2 84/1/2 88/1/2
f 85/2/2 86/2/2 89/2/2
f 89/2/2 86/2/2 90/2/2
f 90/2/2 86/2/2 91/2/2
f 90/1/2 91/1/2 94/1/2
f 92/1/2 93/1/2 95/1/2
f 95/1/2 93/1/2 96/1/2
f 95/2/2 96/2/2 97/2/2
f 97/2/2 96/2/2 98/2/2
f 94/1/2 91/1/2 99/1/2
f 99/1/2 91/1/2 100/1/2
f 101/1/2 102/1/2 104/1/2
f 103/2/2 104/2/2 105/2/2
f 104/1/2 102/1/2 106/1/2
f 105/2/2 104/2/2 106/2/2
f 105/1/2 106/1/2 107/1/2
f 106/1/2 102/1/2 108/1/2
f 107/1/2 106/1/2 108/1/2
f 109/1/2 110/1/2 111/1/2
f 111/1/2 110/1/2 112/1/2
f 113/1/2 114/1/2 115/1/2
f 115/1/2 114/1/2 116/1/2
f 116/1/2 114/1/2 117/1/2
f 116/2/2 117/2/2 118/2/2
f 118/2/2 117/2/2 119/2/2
f 118/1/2 119/1/2 121/1/2
f 119/1/2 120/1/2 121/1/2
f 121/1/2 120/1/2 122/1/2
f 121/2/2 122/2/2 123/2/2
f 122/1/2 120/1/2 124/1/2
f 123/2/2 122/2/2 124/2/2
f 124/1/2 120/1/2 125/1/2
f 124/2/2 125/2/2 127/2/2
f 127/2/2 125/2/2 128/2/2
f 127/2/2 128/2/2 130/2/2
f 128/2/2 129/2/2 130/2/2
f 126/2/2 127/2/2 130/2/2
f 130/2/2 129/2/2 131/2/2
f 126/2/2 130/2/2 132/2/2
f 132/2/2 130/2/2 133/2/2
f 134/1/2 135/1/2 136/1/2
f 136/1/2 135/1/2 137/1/2
f 140/1/3 139/1/3 138/1/3
f 141/1/3 139/1/3 140/1/3
f 144/1/3 143/1/3 142/1/3
f 145/1/3 143/1/3 144/1/3
f 148/1/3 147/1/3 146/1/3
f 149/1/3 147/1/3 148/1/3
f 152/1/3 151/1/3 150/1/3
f 153/1/3 151/1/3 152/1/3
f 156/2/3 155/2/3 154/2/3
f 164/2/3 159/2/3 158/2/3
f 165/2/3 159/2/3 164/2/3
f 168/2/3 161/2/3 160/2/3
f 169/2/3 161/2/3 168/2/3
f 170/2/3 161/2/3 169/2/3
f 172/2/3 163/2/3 162/2/3
f 173/2/3 163/2/3 172/2/3
f 174/2/3 156/2/3 154/2/3
f 174/2/3 157/2/3 156/2/3
f 175/2/3 157/2/3 174/2/3
f 176/2/3 157/2/3 175/2/3
f 177/2/3 173/2/3 172/2/3
f 177/1/3 172/1/3 171/1/3
f 178/1/3 175/1/3 174/1/3
f 178/2/3 173/2/3 177/2/3
f 178/1/3 174/1/3 173/1/3
f 180/2/3 166/2/3 165/2/3
f 181/1/3 167/1/3 166/1/3
f 181/2/3 166/2/3 180/2/3
f 182/1/3 167/1/3 181/1/3
f 183/2/3 168/2/3 167/2/3
f 183/1/3 167/1/3 182/1/3
f 183/2/3 169/2/3 168/2/3
f 184/2/3 169/2/3 183/2/3
f 185/1/3 170/1/3 169/1/3
f 185/2/3 169/2/3 184/2/3
f 186/2/3 171/2/3 170/2/3
f 186/1/3 170/1/3 185/1/3
f 187/1/3 177/1/3 171/1/3
f 187/2/3 171/2/3 186/2/3
f 188/1/3 177/1/3 187/1/3
f 189/1/3 175/1/3 178/1/3
f 190/1/3 175/1/3 189/1/3
f 191/2/3 180/2/3 179/2/3
f 192/1/3 181/1/3 180/1/3
f 192/2/3 180/2/3 191/2/3
f 193/2/3 182/2/3 181/2/3
f 193/1/3 181/1/3 192/1/3
f 194/2/3 182/2/3 193/2/3
f 195/2/3 186/2/3 185/2/3
f 195/2/3 185/2/3 184/2/3
f 196/2/3 186/2/3 195/2/3
f 197/1/3 175/1/3 190/1/3
f 198/1/3 175/1/3 197/1/3
f 201/2/3 200/2/3 199/2/3
f 202/2/3 200/2/3 201/2/3
f 203/2/3 200/2/3 202/2/3
f 204/2/3 200/2/3 203/2/3
f 208/2/3 206/2/3 205/2/3
f 208/2/3 207/2/3 206/2/3
f 209/2/3 207/2/3 208/2/3
f 210/2/4 211/2/4 212/2/4
f 212/2/4 211/2/4 213/2/4
f 214/1/4 215/1/4 219/1/4
f 215/2/4 216/2/4 220/2/4
f 219/1/4 215/1/4 220/1/4
f 220/2/4 216/2/4 221/2/4
f 217/2/4 218/2/4 222/2/4
f 222/2/4 218/2/4 223/2/4
f 224/1/4 225/1/4 226/1/4
f 224/1/4 226/1/4 230/1/4
f 226/2/4 227/2/4 231/2/4
f 230/1/4 226/1/4 231/1/4
f 231/2/4 227/2/4 232/2/4
f 228/2/4 229/2/4 233/2/4
f 233/2/4 229/2/4 234/2/4
f 235/2/4 236/2/4 242/2/4
f 236/1/4 237/1/4 242/1/4
f 242/1/4 237/1/4 243/1/4
f 238/2/4 239/2/4 244/2/4
f 244/2/4 239/2/4 245/2/4
f 240/2/4 241/2/4 247/2/4
f 247/2/4 241/2/4 248/2/4
f 235/2/4 242/2/4 249/2/4
f 242/2/4 243/2/4 249/2/4
f 249/2/4 243/2/4 250/2/4
f 250/2/4 243/2/4 251/2/4
f 247/2/4 248/2/4 252/2/4
f 246/1/4 247/1/4 252/1/4
f 249/1/4 250/1/4 253/1/4
f 252/2/4 248/2/4 253/2/4
f 248/1/4 249/1/4 253/1/4
f 246/1/4 252/1/4 257/1/4
f 257/1/4 252/1/4 258/1/4
f 253/1/4 250/1/4 259/1/4
f 259/1/4 250/1/4 260/1/4
f 254/1/4 255/1/4 261/1/4
f 255/2/4 256/2/4 262/2/4
f 261/1/4 255/1/4 262/1/4
f 262/2/4 256/2/4 263/2/4
f 260/1/4 250/1/4 264/1/4
f 264/1/4 250/1/4 265/1/4
f 266/2/4 267/2/4 270/2/4
f 268/2/4 269/2/4 271/2/4
f 271/2/4 269/2/4 272/2/4
f 272/2/4 269/2/4 273/2/4
f 269/1/4 270/1/4 274/1/4
f 273/2/4 269/2/4 274/2/4
f 270/2/4 267/2/4 275/2/4
f 274/1/4 270/1/4 275/1/4
f 275/2/4 267/2/4 276/2/4
f 276/2/4 267/2/4 277/2/4
f 282/1/5 279/1/5 278/1/5
f 283/1/5 281/1/5 280/1/5
f 284/1/5 282/1/5 278/1/5
f 284/1/5 283/1/5 282/1/5
f 285/1/5 283/1/5 284/1/5
f 286/1/5 283/1/5 285/1/5
f 287/1/5 281/1/5 283/1/5
f 287/1/5 283/1/5 286/1/5
f 288/2/5 286/2/5 285/2/5
f 289/2/5 286/2/5 288/2/5
f 292/2/5 291/2/5 290/2/5
f 293/2/5 291/2/5 292/2/5
f 298/2/5 295/2/5 294/2/5
f 299/2/5 295/2/5 298/2/5
f 300/1/5 297/1/5 296/1/5
f 301/1/5 297/1/5 300/1/5
f 306/2/5 303/2/5 302/2/5
f 307/2/5 303/2/5 306/2/5
f 308/2/5 305/2/5 304/2/5
f 309/2/5 305/2/5 308/2/5
f 314/2/5 311/2/5 310/2/5
f 315/2/5 311/2/5 314/2/5
f 316/2/5 313/2/5 312/2/5
f 317/2/5 313/2/5 316/2/5
f 320/2/5 319/2/5 318/2/5
f 321/2/5 319/2/5 320/2/5
f 324/1/5 323/1/5 322/1/5
f 325/1/5 323/1/5 324/1/5
f 330/2/5 327/2/5 326/2/5
f 331/2/5 327/2/5 330/2/5
f 332/2/5 327/2/5 331/2/5
f 333/2/5 327/2/5 332/2/5
f 334/1/5 329/1/5 328/1/5
f 335/1/5 329/1/5 334/1/5
f 336/1/6 337/1/6 340/1/6
f 338/1/6 339/1/6 341/1/6
f 336/1/6 340/1/6 342/1/6
f 340/1/6 341/1/6 342/1/6
f 341/1/6 339/1/6 343/1/6
f 342/1/6 341/1/6 343/1/6
f 336/1/6 342/1/6 344/1/6
f 344/1/6 342/1/6 345/1/6
f 343/1/6 339/1/6 346/1/6
f 346/1/6 339/1/6 347/1/6
f 348/1/6 349/1/6 351/1/6
f 351/1/6 349/1/6 352/1/6
f 350/2/6 351/2/6 353/2/6
f 353/2/6 351/2/6 354/2/6
f 355/2/6 356/2/6 357/2/6
f 357/2/6 356/2/6 358/2/6
f 359/2/6 360/2/6 363/2/6
f 361/2/6 362/2/6 364/2/6
f 359/2/6 363/2/6 365/2/6
f 363/2/6 364/2/6 365/2/6
f 364/2/6 362/2/6 366/2/6
f 365/2/6 364/2/6 366/2/6
f 367/2/6 368/2/6 371/2/6
f 371/2/6 368/2/6 372/2/6
f 369/2/6 370/2/6 373/2/6
f 373/2/6 370/2/6 374/2/6
f 375/1/6 376/1/6 377/1/6
f 377/1/6 376/1/6 378/1/6
f 379/2/6 380/2/6 381/2/6
f 381/2/6 380/2/6 382/2/6
f 383/2/6 384/2/6 387/2/6
f 387/2/6 384/2/6 388/2/6
f 385/1/6 386/1/6 389/1/6
f 389/1/6 386/1/6 390/1/6
f 391/2/6 392/2/6 393/2/6
f 393/2/6 392/2/6 394/2/6
f 393/1/6 394/1/6 395/1/6
f 394/2/6 392/2/6 396/2/6
f 395/1/6 394/1/6 396/1/6
f 396/2/6 392/2/6 397/2/6
