# MagicaVoxel @ Ephtracy

# group
g humanoid-2

# material
mtllib humanoid-2.mtl
usemtl palette

# normals
vn -1 0 0
vn 1 0 0
vn 0 0 1
vn 0 0 -1
vn 0 -1 0
vn 0 1 0

# texcoords
vt 0.119141 0.5
vt 0.123047 0.5
vt 0.279297 0.5

# verts
v -13 84 7
v -13 84 -6
v -13 85 7
v -13 85 -6
v -12 83 9
v -12 83 8
v -12 84 9
v -12 84 8
v -12 84 7
v -12 85 8
v -12 85 7
v -11 82 9
v -11 82 8
v -11 83 9
v -11 83 8
v -10 81 9
v -10 81 8
v -10 82 9
v -10 82 8
v -9 80 9
v -9 80 8
v -9 81 9
v -9 81 8
v -8 79 9
v -8 79 8
v -8 80 9
v -8 80 8
v -7 78 9
v -7 78 8
v -7 79 9
v -7 79 8
v -6 77 9
v -6 77 8
v -6 78 9
v -6 78 8
v -5 76 9
v -5 76 8
v -5 77 9
v -5 77 8
v -4 68 9
v -4 68 8
v -4 72 9
v -4 72 8
v -4 75 9
v -4 75 8
v -4 76 9
v -4 76 8
v -3 67 9
v -3 67 8
v -3 68 9
v -3 68 8
v -3 72 9
v -3 72 8
v -3 73 9
v -3 73 8
v -3 74 9
v -3 74 8
v -3 75 9
v -3 75 8
v -2 66 9
v -2 66 8
v -2 67 9
v -2 67 8
v -2 73 9
v -2 73 8
v -2 74 9
v -2 74 8
v 2 74 9
v 2 74 8
v 2 76 9
v 2 76 8
v 3 76 9
v 3 76 8
v 3 77 9
v 3 77 8
v 4 77 9
v 4 77 8
v 4 78 9
v 4 78 8
v 5 78 9
v 5 78 8
v 5 79 9
v 5 79 8
v 6 79 9
v 6 79 8
v 6 80 9
v 6 80 8
v 7 80 9
v 7 80 8
v 7 81 9
v 7 81 8
v 8 81 9
v 8 81 8
v 8 82 9
v 8 82 8
v 9 82 9
v 9 82 8
v 9 83 9
v 9 83 8
v 10 83 9
v 10 83 8
v 10 84 9
v 10 84 8
v 11 84 8
v 11 84 6
v 11 85 8
v 11 85 6
v 12 84 6
v 12 84 -5
v 12 85 6
v 12 85 -5
v -12 84 6
v -12 84 -5
v -12 85 6
v -12 85 -5
v -11 84 8
v -11 84 6
v -11 85 8
v -11 85 6
v -10 83 9
v -10 83 8
v -10 84 9
v -10 84 8
v -9 82 9
v -9 82 8
v -9 83 9
v -9 83 8
v -8 81 9
v -8 81 8
v -8 82 9
v -8 82 8
v -7 80 9
v -7 80 8
v -7 81 9
v -7 81 8
v -6 79 9
v -6 79 8
v -6 80 9
v -6 80 8
v -5 78 9
v -5 78 8
v -5 79 9
v -5 79 8
v -4 77 9
v -4 77 8
v -4 78 9
v -4 78 8
v -3 76 9
v -3 76 8
v -3 77 9
v -3 77 8
v -2 74 9
v -2 74 8
v -2 76 9
v -2 76 8
v 2 66 9
v 2 66 8
v 2 67 9
v 2 67 8
v 2 73 9
v 2 73 8
v 2 74 9
v 2 74 8
v 3 67 9
v 3 67 8
v 3 68 9
v 3 68 8
v 3 72 9
v 3 72 8
v 3 73 9
v 3 73 8
v 3 74 9
v 3 74 8
v 3 75 9
v 3 75 8
v 4 68 9
v 4 68 8
v 4 72 9
v 4 72 8
v 4 75 9
v 4 75 8
v 4 76 9
v 4 76 8
v 5 76 9
v 5 76 8
v 5 77 9
v 5 77 8
v 6 77 9
v 6 77 8
v 6 78 9
v 6 78 8
v 7 78 9
v 7 78 8
v 7 79 9
v 7 79 8
v 8 79 9
v 8 79 8
v 8 80 9
v 8 80 8
v 9 80 9
v 9 80 8
v 9 81 9
v 9 81 8
v 10 81 9
v 10 81 8
v 10 82 9
v 10 82 8
v 11 82 9
v 11 82 8
v 11 83 9
v 11 83 8
v 12 83 9
v 12 83 8
v 12 84 9
v 12 84 8
v 12 84 7
v 12 85 8
v 12 85 7
v 13 84 7
v 13 84 -6
v 13 85 7
v 13 85 -6
v -12 83 9
v -12 84 9
v -11 82 9
v -11 83 9
v -10 81 9
v -10 82 9
v -10 83 9
v -10 84 9
v -9 80 9
v -9 81 9
v -9 82 9
v -9 83 9
v -8 79 9
v -8 80 9
v -8 81 9
v -8 82 9
v -7 78 9
v -7 79 9
v -7 80 9
v -7 81 9
v -6 77 9
v -6 78 9
v -6 79 9
v -6 80 9
v -5 76 9
v -5 77 9
v -5 78 9
v -5 79 9
v -4 68 9
v -4 72 9
v -4 75 9
v -4 76 9
v -4 77 9
v -4 78 9
v -3 67 9
v -3 68 9
v -3 69 9
v -3 72 9
v -3 73 9
v -3 74 9
v -3 75 9
v -3 76 9
v -3 77 9
v -2 66 9
v -2 67 9
v -2 68 9
v -2 69 9
v -2 72 9
v -2 73 9
v -2 74 9
v -2 76 9
v -1 67 9
v -1 68 9
v 1 67 9
v 1 68 9
v 2 66 9
v 2 67 9
v 2 68 9
v 2 69 9
v 2 72 9
v 2 73 9
v 2 74 9
v 2 76 9
v 3 67 9
v 3 68 9
v 3 69 9
v 3 72 9
v 3 73 9
v 3 74 9
v 3 75 9
v 3 76 9
v 3 77 9
v 4 68 9
v 4 72 9
v 4 75 9
v 4 76 9
v 4 77 9
v 4 78 9
v 5 76 9
v 5 77 9
v 5 78 9
v 5 79 9
v 6 77 9
v 6 78 9
v 6 79 9
v 6 80 9
v 7 78 9
v 7 79 9
v 7 80 9
v 7 81 9
v 8 79 9
v 8 80 9
v 8 81 9
v 8 82 9
v 9 80 9
v 9 81 9
v 9 82 9
v 9 83 9
v 10 81 9
v 10 82 9
v 10 83 9
v 10 84 9
v 11 82 9
v 11 83 9
v 12 83 9
v 12 84 9
v -12 84 8
v -12 85 8
v -11 84 8
v -11 85 8
v 11 84 8
v 11 85 8
v 12 84 8
v 12 85 8
v -13 84 7
v -13 85 7
v -12 84 7
v -12 85 7
v 12 84 7
v 12 85 7
v 13 84 7
v 13 85 7
v -12 84 -5
v -12 85 -5
v 12 84 -5
v 12 85 -5
v -12 83 8
v -12 84 8
v -11 82 8
v -11 83 8
v -11 84 8
v -10 81 8
v -10 82 8
v -10 83 8
v -10 84 8
v -9 80 8
v -9 81 8
v -9 82 8
v -9 83 8
v -8 79 8
v -8 80 8
v -8 81 8
v -8 82 8
v -7 78 8
v -7 79 8
v -7 80 8
v -7 81 8
v -6 77 8
v -6 78 8
v -6 79 8
v -6 80 8
v -5 76 8
v -5 77 8
v -5 78 8
v -5 79 8
v -4 68 8
v -4 72 8
v -4 75 8
v -4 76 8
v -4 77 8
v -4 78 8
v -3 67 8
v -3 68 8
v -3 69 8
v -3 72 8
v -3 73 8
v -3 74 8
v -3 75 8
v -3 76 8
v -3 77 8
v -2 66 8
v -2 67 8
v -2 68 8
v -2 69 8
v -2 72 8
v -2 73 8
v -2 74 8
v -2 76 8
v -1 67 8
v -1 68 8
v 1 67 8
v 1 68 8
v 2 66 8
v 2 67 8
v 2 68 8
v 2 69 8
v 2 72 8
v 2 73 8
v 2 74 8
v 2 76 8
v 3 67 8
v 3 68 8
v 3 69 8
v 3 72 8
v 3 73 8
v 3 74 8
v 3 75 8
v 3 76 8
v 3 77 8
v 4 68 8
v 4 72 8
v 4 75 8
v 4 76 8
v 4 77 8
v 4 78 8
v 5 76 8
v 5 77 8
v 5 78 8
v 5 79 8
v 6 77 8
v 6 78 8
v 6 79 8
v 6 80 8
v 7 78 8
v 7 79 8
v 7 80 8
v 7 81 8
v 8 79 8
v 8 80 8
v 8 81 8
v 8 82 8
v 9 80 8
v 9 81 8
v 9 82 8
v 9 83 8
v 10 81 8
v 10 82 8
v 10 83 8
v 10 84 8
v 11 82 8
v 11 83 8
v 11 84 8
v 12 83 8
v 12 84 8
v -12 84 6
v -12 85 6
v -11 84 6
v -11 85 6
v 11 84 6
v 11 85 6
v 12 84 6
v 12 85 6
v -13 84 -6
v -13 85 -6
v 13 84 -6
v 13 85 -6
v -2 66 9
v 2 66 9
v -2 66 8
v 2 66 8
v -3 67 9
v -2 67 9
v 2 67 9
v 3 67 9
v -3 67 8
v -2 67 8
v 2 67 8
v 3 67 8
v -4 68 9
v -3 68 9
v 3 68 9
v 4 68 9
v -4 68 8
v -3 68 8
v 3 68 8
v 4 68 8
v -3 74 9
v -2 74 9
v 2 74 9
v 3 74 9
v -3 74 8
v -2 74 8
v 2 74 8
v 3 74 8
v -4 75 9
v -3 75 9
v 3 75 9
v 4 75 9
v -4 75 8
v -3 75 8
v 3 75 8
v 4 75 8
v -5 76 9
v -4 76 9
v 4 76 9
v 5 76 9
v -5 76 8
v -4 76 8
v 4 76 8
v 5 76 8
v -6 77 9
v -5 77 9
v 5 77 9
v 6 77 9
v -6 77 8
v -5 77 8
v 5 77 8
v 6 77 8
v -7 78 9
v -6 78 9
v 6 78 9
v 7 78 9
v -7 78 8
v -6 78 8
v 6 78 8
v 7 78 8
v -8 79 9
v -7 79 9
v 7 79 9
v 8 79 9
v -8 79 8
v -7 79 8
v 7 79 8
v 8 79 8
v -9 80 9
v -8 80 9
v 8 80 9
v 9 80 9
v -9 80 8
v -8 80 8
v 8 80 8
v 9 80 8
v -10 81 9
v -9 81 9
v 9 81 9
v 10 81 9
v -10 81 8
v -9 81 8
v 9 81 8
v 10 81 8
v -11 82 9
v -10 82 9
v 10 82 9
v 11 82 9
v -11 82 8
v -10 82 8
v 10 82 8
v 11 82 8
v -12 83 9
v -11 83 9
v 11 83 9
v 12 83 9
v -12 83 8
v -11 83 8
v 11 83 8
v 12 83 8
v -12 84 8
v -11 84 8
v 11 84 8
v 12 84 8
v -13 84 7
v -12 84 7
v 12 84 7
v 13 84 7
v -12 84 6
v -11 84 6
v 11 84 6
v 12 84 6
v -12 84 -5
v 12 84 -5
v -13 84 -6
v 13 84 -6
v -4 72 9
v -3 72 9
v 3 72 9
v 4 72 9
v -4 72 8
v -3 72 8
v 3 72 8
v 4 72 8
v -3 73 9
v -2 73 9
v 2 73 9
v 3 73 9
v -3 73 8
v -2 73 8
v 2 73 8
v 3 73 8
v -2 74 9
v 2 74 9
v -2 74 8
v 2 74 8
v -3 76 9
v -2 76 9
v 2 76 9
v 3 76 9
v -3 76 8
v -2 76 8
v 2 76 8
v 3 76 8
v -4 77 9
v -3 77 9
v 3 77 9
v 4 77 9
v -4 77 8
v -3 77 8
v 3 77 8
v 4 77 8
v -5 78 9
v -4 78 9
v 4 78 9
v 5 78 9
v -5 78 8
v -4 78 8
v 4 78 8
v 5 78 8
v -6 79 9
v -5 79 9
v 5 79 9
v 6 79 9
v -6 79 8
v -5 79 8
v 5 79 8
v 6 79 8
v -7 80 9
v -6 80 9
v 6 80 9
v 7 80 9
v -7 80 8
v -6 80 8
v 6 80 8
v 7 80 8
v -8 81 9
v -7 81 9
v 7 81 9
v 8 81 9
v -8 81 8
v -7 81 8
v 7 81 8
v 8 81 8
v -9 82 9
v -8 82 9
v 8 82 9
v 9 82 9
v -9 82 8
v -8 82 8
v 8 82 8
v 9 82 8
v -10 83 9
v -9 83 9
v 9 83 9
v 10 83 9
v -10 83 8
v -9 83 8
v 9 83 8
v 10 83 8
v -12 84 9
v -10 84 9
v 10 84 9
v 12 84 9
v -12 84 8
v -11 84 8
v -10 84 8
v 10 84 8
v 11 84 8
v 12 84 8
v -12 85 8
v -11 85 8
v 11 85 8
v 12 85 8
v -13 85 7
v -12 85 7
v 12 85 7
v 13 85 7
v -12 85 6
v -11 85 6
v 11 85 6
v 12 85 6
v -12 85 -5
v 12 85 -5
v -13 85 -6
v 13 85 -6

# faces
f 3/2/1 2/2/1 1/2/1
f 4/2/1 2/2/1 3/2/1
f 7/2/1 6/2/1 5/2/1
f 8/2/1 6/2/1 7/2/1
f 10/2/1 9/2/1 8/2/1
f 11/2/1 9/2/1 10/2/1
f 14/2/1 13/2/1 12/2/1
f 15/2/1 13/2/1 14/2/1
f 18/2/1 17/2/1 16/2/1
f 19/2/1 17/2/1 18/2/1
f 22/2/1 21/2/1 20/2/1
f 23/2/1 21/2/1 22/2/1
f 26/2/1 25/2/1 24/2/1
f 27/2/1 25/2/1 26/2/1
f 30/2/1 29/2/1 28/2/1
f 31/2/1 29/2/1 30/2/1
f 34/2/1 33/2/1 32/2/1
f 35/2/1 33/2/1 34/2/1
f 38/2/1 37/2/1 36/2/1
f 39/2/1 37/2/1 38/2/1
f 42/1/1 41/1/1 40/1/1
f 43/1/1 41/1/1 42/1/1
f 46/2/1 45/2/1 44/2/1
f 47/2/1 45/2/1 46/2/1
f 50/1/1 49/1/1 48/1/1
f 51/1/1 49/1/1 50/1/1
f 54/2/1 53/2/1 52/2/1
f 55/2/1 53/2/1 54/2/1
f 58/2/1 57/2/1 56/2/1
f 59/2/1 57/2/1 58/2/1
f 62/1/1 61/1/1 60/1/1
f 63/1/1 61/1/1 62/1/1
f 66/2/1 65/2/1 64/2/1
f 67/2/1 65/2/1 66/2/1
f 70/2/1 69/2/1 68/2/1
f 71/2/1 69/2/1 70/2/1
f 74/2/1 73/2/1 72/2/1
f 75/2/1 73/2/1 74/2/1
f 78/2/1 77/2/1 76/2/1
f 79/2/1 77/2/1 78/2/1
f 82/2/1 81/2/1 80/2/1
f 83/2/1 81/2/1 82/2/1
f 86/2/1 85/2/1 84/2/1
f 87/2/1 85/2/1 86/2/1
f 90/2/1 89/2/1 88/2/1
f 91/2/1 89/2/1 90/2/1
f 94/2/1 93/2/1 92/2/1
f 95/2/1 93/2/1 94/2/1
f 98/2/1 97/2/1 96/2/1
f 99/2/1 97/2/1 98/2/1
f 102/2/1 101/2/1 100/2/1
f 103/2/1 101/2/1 102/2/1
f 106/2/1 105/2/1 104/2/1
f 107/2/1 105/2/1 106/2/1
f 110/2/1 109/2/1 108/2/1
f 111/2/1 109/2/1 110/2/1
f 112/2/2 113/2/2 114/2/2
f 114/2/2 113/2/2 115/2/2
f 116/2/2 117/2/2 118/2/2
f 118/2/2 117/2/2 119/2/2
f 120/2/2 121/2/2 122/2/2
f 122/2/2 121/2/2 123/2/2
f 124/2/2 125/2/2 126/2/2
f 126/2/2 125/2/2 127/2/2
f 128/2/2 129/2/2 130/2/2
f 130/2/2 129/2/2 131/2/2
f 132/2/2 133/2/2 134/2/2
f 134/2/2 133/2/2 135/2/2
f 136/2/2 137/2/2 138/2/2
f 138/2/2 137/2/2 139/2/2
f 140/2/2 141/2/2 142/2/2
f 142/2/2 141/2/2 143/2/2
f 144/2/2 145/2/2 146/2/2
f 146/2/2 145/2/2 147/2/2
f 148/2/2 149/2/2 150/2/2
f 150/2/2 149/2/2 151/2/2
f 152/2/2 153/2/2 154/2/2
f 154/2/2 153/2/2 155/2/2
f 156/1/2 157/1/2 158/1/2
f 158/1/2 157/1/2 159/1/2
f 160/2/2 161/2/2 162/2/2
f 162/2/2 161/2/2 163/2/2
f 164/1/2 165/1/2 166/1/2
f 166/1/2 165/1/2 167/1/2
f 168/2/2 169/2/2 170/2/2
f 170/2/2 169/2/2 171/2/2
f 172/2/2 173/2/2 174/2/2
f 174/2/2 173/2/2 175/2/2
f 176/1/2 177/1/2 178/1/2
f 178/1/2 177/1/2 179/1/2
f 180/2/2 181/2/2 182/2/2
f 182/2/2 181/2/2 183/2/2
f 184/2/2 185/2/2 186/2/2
f 186/2/2 185/2/2 187/2/2
f 188/2/2 189/2/2 190/2/2
f 190/2/2 189/2/2 191/2/2
f 192/2/2 193/2/2 194/2/2
f 194/2/2 193/2/2 195/2/2
f 196/2/2 197/2/2 198/2/2
f 198/2/2 197/2/2 199/2/2
f 200/2/2 201/2/2 202/2/2
f 202/2/2 201/2/2 203/2/2
f 204/2/2 205/2/2 206/2/2
f 206/2/2 205/2/2 207/2/2
f 208/2/2 209/2/2 210/2/2
f 210/2/2 209/2/2 211/2/2
f 212/2/2 213/2/2 214/2/2
f 214/2/2 213/2/2 215/2/2
f 215/2/2 216/2/2 217/2/2
f 217/2/2 216/2/2 218/2/2
f 219/2/2 220/2/2 221/2/2
f 221/2/2 220/2/2 222/2/2
f 226/2/3 224/2/3 223/2/3
f 228/2/3 226/2/3 225/2/3
f 229/2/3 224/2/3 226/2/3
f 229/2/3 226/2/3 228/2/3
f 230/2/3 224/2/3 229/2/3
f 232/2/3 228/2/3 227/2/3
f 232/2/3 229/2/3 228/2/3
f 233/2/3 229/2/3 232/2/3
f 234/2/3 229/2/3 233/2/3
f 236/2/3 232/2/3 231/2/3
f 236/2/3 233/2/3 232/2/3
f 237/2/3 233/2/3 236/2/3
f 238/2/3 233/2/3 237/2/3
f 240/2/3 236/2/3 235/2/3
f 240/2/3 237/2/3 236/2/3
f 241/2/3 237/2/3 240/2/3
f 242/2/3 237/2/3 241/2/3
f 244/2/3 240/2/3 239/2/3
f 244/2/3 241/2/3 240/2/3
f 245/2/3 241/2/3 244/2/3
f 246/2/3 241/2/3 245/2/3
f 248/2/3 244/2/3 243/2/3
f 248/2/3 245/2/3 244/2/3
f 249/2/3 245/2/3 248/2/3
f 250/2/3 245/2/3 249/2/3
f 254/2/3 248/2/3 247/2/3
f 254/2/3 249/2/3 248/2/3
f 255/2/3 249/2/3 254/2/3
f 256/2/3 249/2/3 255/2/3
f 258/1/3 252/1/3 251/1/3
f 259/1/3 252/1/3 258/1/3
f 260/1/3 252/1/3 259/1/3
f 263/2/3 254/2/3 253/2/3
f 263/2/3 255/2/3 254/2/3
f 264/2/3 255/2/3 263/2/3
f 265/2/3 255/2/3 264/2/3
f 267/1/3 258/1/3 257/1/3
f 267/1/3 259/1/3 258/1/3
f 268/1/3 259/1/3 267/1/3
f 269/2/3 261/2/3 260/2/3
f 269/1/3 259/1/3 268/1/3
f 269/2/3 260/2/3 259/2/3
f 270/2/3 261/2/3 269/2/3
f 271/2/3 261/2/3 270/2/3
f 272/2/3 264/2/3 263/2/3
f 272/2/3 263/2/3 262/2/3
f 273/2/3 264/2/3 272/2/3
f 274/1/3 268/1/3 267/1/3
f 274/1/3 267/1/3 266/1/3
f 275/3/3 270/3/3 269/3/3
f 275/1/3 268/1/3 274/1/3
f 275/3/3 269/3/3 268/3/3
f 276/1/3 274/1/3 266/1/3
f 276/2/3 275/2/3 274/2/3
f 277/3/3 270/3/3 275/3/3
f 277/2/3 275/2/3 276/2/3
f 278/1/3 276/1/3 266/1/3
f 278/1/3 277/1/3 276/1/3
f 279/1/3 277/1/3 278/1/3
f 280/3/3 270/3/3 277/3/3
f 280/1/3 277/1/3 279/1/3
f 281/3/3 270/3/3 280/3/3
f 282/2/3 272/2/3 271/2/3
f 282/3/3 270/3/3 281/3/3
f 282/2/3 271/2/3 270/2/3
f 283/2/3 272/2/3 282/2/3
f 284/2/3 272/2/3 283/2/3
f 286/1/3 281/1/3 280/1/3
f 286/1/3 280/1/3 279/1/3
f 287/1/3 281/1/3 286/1/3
f 288/2/3 283/2/3 282/2/3
f 288/1/3 281/1/3 287/1/3
f 288/2/3 282/2/3 281/2/3
f 289/2/3 283/2/3 288/2/3
f 290/2/3 283/2/3 289/2/3
f 291/2/3 285/2/3 284/2/3
f 292/2/3 285/2/3 291/2/3
f 293/2/3 285/2/3 292/2/3
f 295/1/3 288/1/3 287/1/3
f 295/1/3 289/1/3 288/1/3
f 296/1/3 289/1/3 295/1/3
f 297/2/3 293/2/3 292/2/3
f 297/2/3 294/2/3 293/2/3
f 298/2/3 294/2/3 297/2/3
f 299/2/3 294/2/3 298/2/3
f 301/2/3 300/2/3 299/2/3
f 301/2/3 299/2/3 298/2/3
f 302/2/3 300/2/3 301/2/3
f 303/2/3 300/2/3 302/2/3
f 305/2/3 303/2/3 302/2/3
f 305/2/3 304/2/3 303/2/3
f 306/2/3 304/2/3 305/2/3
f 307/2/3 304/2/3 306/2/3
f 309/2/3 307/2/3 306/2/3
f 309/2/3 308/2/3 307/2/3
f 310/2/3 308/2/3 309/2/3
f 311/2/3 308/2/3 310/2/3
f 313/2/3 311/2/3 310/2/3
f 313/2/3 312/2/3 311/2/3
f 314/2/3 312/2/3 313/2/3
f 315/2/3 312/2/3 314/2/3
f 317/2/3 315/2/3 314/2/3
f 317/2/3 316/2/3 315/2/3
f 318/2/3 316/2/3 317/2/3
f 319/2/3 316/2/3 318/2/3
f 321/2/3 319/2/3 318/2/3
f 321/2/3 320/2/3 319/2/3
f 322/2/3 320/2/3 321/2/3
f 323/2/3 320/2/3 322/2/3
f 325/2/3 323/2/3 322/2/3
f 325/2/3 324/2/3 323/2/3
f 326/2/3 324/2/3 325/2/3
f 327/2/3 324/2/3 326/2/3
f 328/2/3 324/2/3 327/2/3
f 331/2/3 330/2/3 329/2/3
f 332/2/3 330/2/3 331/2/3
f 335/2/3 334/2/3 333/2/3
f 336/2/3 334/2/3 335/2/3
f 339/2/3 338/2/3 337/2/3
f 340/2/3 338/2/3 339/2/3
f 343/2/3 342/2/3 341/2/3
f 344/2/3 342/2/3 343/2/3
f 347/2/3 346/2/3 345/2/3
f 348/2/3 346/2/3 347/2/3
f 349/2/4 350/2/4 352/2/4
f 352/2/4 350/2/4 353/2/4
f 351/2/4 352/2/4 355/2/4
f 352/2/4 353/2/4 355/2/4
f 355/2/4 353/2/4 356/2/4
f 356/2/4 353/2/4 357/2/4
f 354/2/4 355/2/4 359/2/4
f 355/2/4 356/2/4 359/2/4
f 359/2/4 356/2/4 360/2/4
f 360/2/4 356/2/4 361/2/4
f 358/2/4 359/2/4 363/2/4
f 359/2/4 360/2/4 363/2/4
f 363/2/4 360/2/4 364/2/4
f 364/2/4 360/2/4 365/2/4
f 362/2/4 363/2/4 367/2/4
f 363/2/4 364/2/4 367/2/4
f 367/2/4 364/2/4 368/2/4
f 368/2/4 364/2/4 369/2/4
f 366/2/4 367/2/4 371/2/4
f 367/2/4 368/2/4 371/2/4
f 371/2/4 368/2/4 372/2/4
f 372/2/4 368/2/4 373/2/4
f 370/2/4 371/2/4 375/2/4
f 371/2/4 372/2/4 375/2/4
f 375/2/4 372/2/4 376/2/4
f 376/2/4 372/2/4 377/2/4
f 374/2/4 375/2/4 381/2/4
f 375/2/4 376/2/4 381/2/4
f 381/2/4 376/2/4 382/2/4
f 382/2/4 376/2/4 383/2/4
f 378/1/4 379/1/4 385/1/4
f 385/1/4 379/1/4 386/1/4
f 386/1/4 379/1/4 387/1/4
f 380/2/4 381/2/4 390/2/4
f 381/2/4 382/2/4 390/2/4
f 390/2/4 382/2/4 391/2/4
f 391/2/4 382/2/4 392/2/4
f 384/1/4 385/1/4 394/1/4
f 385/1/4 386/1/4 394/1/4
f 394/1/4 386/1/4 395/1/4
f 387/2/4 388/2/4 396/2/4
f 395/1/4 386/1/4 396/1/4
f 386/2/4 387/2/4 396/2/4
f 396/2/4 388/2/4 397/2/4
f 397/2/4 388/2/4 398/2/4
f 390/2/4 391/2/4 399/2/4
f 389/2/4 390/2/4 399/2/4
f 399/2/4 391/2/4 400/2/4
f 394/1/4 395/1/4 401/1/4
f 393/1/4 394/1/4 401/1/4
f 396/3/4 397/3/4 402/3/4
f 401/1/4 395/1/4 402/1/4
f 395/3/4 396/3/4 402/3/4
f 393/1/4 401/1/4 403/1/4
f 401/2/4 402/2/4 403/2/4
f 402/3/4 397/3/4 404/3/4
f 403/2/4 402/2/4 404/2/4
f 393/1/4 403/1/4 405/1/4
f 403/1/4 404/1/4 405/1/4
f 405/1/4 404/1/4 406/1/4
f 404/3/4 397/3/4 407/3/4
f 406/1/4 404/1/4 407/1/4
f 407/3/4 397/3/4 408/3/4
f 398/2/4 399/2/4 409/2/4
f 408/3/4 397/3/4 409/3/4
f 397/2/4 398/2/4 409/2/4
f 409/2/4 399/2/4 410/2/4
f 410/2/4 399/2/4 411/2/4
f 407/1/4 408/1/4 413/1/4
f 406/1/4 407/1/4 413/1/4
f 413/1/4 408/1/4 414/1/4
f 409/2/4 410/2/4 415/2/4
f 414/1/4 408/1/4 415/1/4
f 408/2/4 409/2/4 415/2/4
f 415/2/4 410/2/4 416/2/4
f 416/2/4 410/2/4 417/2/4
f 411/2/4 412/2/4 418/2/4
f 418/2/4 412/2/4 419/2/4
f 419/2/4 412/2/4 420/2/4
f 414/1/4 415/1/4 422/1/4
f 415/1/4 416/1/4 422/1/4
f 422/1/4 416/1/4 423/1/4
f 419/2/4 420/2/4 424/2/4
f 420/2/4 421/2/4 424/2/4
f 424/2/4 421/2/4 425/2/4
f 425/2/4 421/2/4 426/2/4
f 426/2/4 427/2/4 428/2/4
f 425/2/4 426/2/4 428/2/4
f 428/2/4 427/2/4 429/2/4
f 429/2/4 427/2/4 430/2/4
f 429/2/4 430/2/4 432/2/4
f 430/2/4 431/2/4 432/2/4
f 432/2/4 431/2/4 433/2/4
f 433/2/4 431/2/4 434/2/4
f 433/2/4 434/2/4 436/2/4
f 434/2/4 435/2/4 436/2/4
f 436/2/4 435/2/4 437/2/4
f 437/2/4 435/2/4 438/2/4
f 437/2/4 438/2/4 440/2/4
f 438/2/4 439/2/4 440/2/4
f 440/2/4 439/2/4 441/2/4
f 441/2/4 439/2/4 442/2/4
f 441/2/4 442/2/4 444/2/4
f 442/2/4 443/2/4 444/2/4
f 444/2/4 443/2/4 445/2/4
f 445/2/4 443/2/4 446/2/4
f 445/2/4 446/2/4 448/2/4
f 446/2/4 447/2/4 448/2/4
f 448/2/4 447/2/4 449/2/4
f 449/2/4 447/2/4 450/2/4
f 449/2/4 450/2/4 452/2/4
f 450/2/4 451/2/4 452/2/4
f 452/2/4 451/2/4 453/2/4
f 453/2/4 451/2/4 454/2/4
f 453/2/4 454/2/4 455/2/4
f 455/2/4 454/2/4 456/2/4
f 457/2/4 458/2/4 459/2/4
f 459/2/4 458/2/4 460/2/4
f 461/2/4 462/2/4 463/2/4
f 463/2/4 462/2/4 464/2/4
f 465/2/4 466/2/4 467/2/4
f 467/2/4 466/2/4 468/2/4
f 471/1/5 470/1/5 469/1/5
f 472/1/5 470/1/5 471/1/5
f 477/1/5 474/1/5 473/1/5
f 478/1/5 474/1/5 477/1/5
f 479/1/5 476/1/5 475/1/5
f 480/1/5 476/1/5 479/1/5
f 485/1/5 482/1/5 481/1/5
f 486/1/5 482/1/5 485/1/5
f 487/1/5 484/1/5 483/1/5
f 488/1/5 484/1/5 487/1/5
f 493/2/5 490/2/5 489/2/5
f 494/2/5 490/2/5 493/2/5
f 495/2/5 492/2/5 491/2/5
f 496/2/5 492/2/5 495/2/5
f 501/2/5 498/2/5 497/2/5
f 502/2/5 498/2/5 501/2/5
f 503/2/5 500/2/5 499/2/5
f 504/2/5 500/2/5 503/2/5
f 509/2/5 506/2/5 505/2/5
f 510/2/5 506/2/5 509/2/5
f 511/2/5 508/2/5 507/2/5
f 512/2/5 508/2/5 511/2/5
f 517/2/5 514/2/5 513/2/5
f 518/2/5 514/2/5 517/2/5
f 519/2/5 516/2/5 515/2/5
f 520/2/5 516/2/5 519/2/5
f 525/2/5 522/2/5 521/2/5
f 526/2/5 522/2/5 525/2/5
f 527/2/5 524/2/5 523/2/5
f 528/2/5 524/2/5 527/2/5
f 533/2/5 530/2/5 529/2/5
f 534/2/5 530/2/5 533/2/5
f 535/2/5 532/2/5 531/2/5
f 536/2/5 532/2/5 535/2/5
f 541/2/5 538/2/5 537/2/5
f 542/2/5 538/2/5 541/2/5
f 543/2/5 540/2/5 539/2/5
f 544/2/5 540/2/5 543/2/5
f 549/2/5 546/2/5 545/2/5
f 550/2/5 546/2/5 549/2/5
f 551/2/5 548/2/5 547/2/5
f 552/2/5 548/2/5 551/2/5
f 557/2/5 554/2/5 553/2/5
f 558/2/5 554/2/5 557/2/5
f 559/2/5 556/2/5 555/2/5
f 560/2/5 556/2/5 559/2/5
f 565/2/5 562/2/5 561/2/5
f 566/2/5 562/2/5 565/2/5
f 567/2/5 564/2/5 563/2/5
f 568/2/5 564/2/5 567/2/5
f 574/2/5 570/2/5 569/2/5
f 575/2/5 572/2/5 571/2/5
f 577/2/5 574/2/5 573/2/5
f 577/2/5 570/2/5 574/2/5
f 578/2/5 570/2/5 577/2/5
f 579/2/5 576/2/5 575/2/5
f 579/2/5 575/2/5 571/2/5
f 580/2/5 576/2/5 579/2/5
f 581/2/5 577/2/5 573/2/5
f 582/2/5 576/2/5 580/2/5
f 583/2/5 581/2/5 573/2/5
f 583/2/5 582/2/5 581/2/5
f 584/2/5 576/2/5 582/2/5
f 584/2/5 582/2/5 583/2/5
f 585/1/6 586/1/6 589/1/6
f 589/1/6 586/1/6 590/1/6
f 587/1/6 588/1/6 591/1/6
f 591/1/6 588/1/6 592/1/6
f 593/2/6 594/2/6 597/2/6
f 597/2/6 594/2/6 598/2/6
f 595/2/6 596/2/6 599/2/6
f 599/2/6 596/2/6 600/2/6
f 601/2/6 602/2/6 603/2/6
f 603/2/6 602/2/6 604/2/6
f 605/2/6 606/2/6 609/2/6
f 609/2/6 606/2/6 610/2/6
f 607/2/6 608/2/6 611/2/6
f 611/2/6 608/2/6 612/2/6
f 613/2/6 614/2/6 617/2/6
f 617/2/6 614/2/6 618/2/6
f 615/2/6 616/2/6 619/2/6
f 619/2/6 616/2/6 620/2/6
f 621/2/6 622/2/6 625/2/6
f 625/2/6 622/2/6 626/2/6
f 623/2/6 624/2/6 627/2/6
f 627/2/6 624/2/6 628/2/6
f 629/2/6 630/2/6 633/2/6
f 633/2/6 630/2/6 634/2/6
f 631/2/6 632/2/6 635/2/6
f 635/2/6 632/2/6 636/2/6
f 637/2/6 638/2/6 641/2/6
f 641/2/6 638/2/6 642/2/6
f 639/2/6 640/2/6 643/2/6
f 643/2/6 640/2/6 644/2/6
f 645/2/6 646/2/6 649/2/6
f 649/2/6 646/2/6 650/2/6
f 647/2/6 648/2/6 651/2/6
f 651/2/6 648/2/6 652/2/6
f 653/2/6 654/2/6 657/2/6
f 657/2/6 654/2/6 658/2/6
f 655/2/6 656/2/6 659/2/6
f 659/2/6 656/2/6 660/2/6
f 661/2/6 662/2/6 665/2/6
f 665/2/6 662/2/6 666/2/6
f 663/2/6 664/2/6 667/2/6
f 667/2/6 664/2/6 668/2/6
f 669/2/6 670/2/6 673/2/6
f 673/2/6 670/2/6 674/2/6
f 674/2/6 670/2/6 675/2/6
f 671/2/6 672/2/6 676/2/6
f 676/2/6 672/2/6 677/2/6
f 677/2/6 672/2/6 678/2/6
f 679/2/6 680/2/6 684/2/6
f 681/2/6 682/2/6 685/2/6
f 683/2/6 684/2/6 687/2/6
f 684/2/6 680/2/6 687/2/6
f 687/2/6 680/2/6 688/2/6
f 685/2/6 686/2/6 689/2/6
f 681/2/6 685/2/6 689/2/6
f 689/2/6 686/2/6 690/2/6
f 683/2/6 687/2/6 691/2/6
f 690/2/6 686/2/6 692/2/6
f 683/2/6 691/2/6 693/2/6
f 691/2/6 692/2/6 693/2/6
f 692/2/6 686/2/6 694/2/6
f 693/2/6 692/2/6 694/2/6
