# MagicaVoxel @ Ephtracy

# group
g humanoid-35

# material
mtllib humanoid-35.mtl
usemtl palette

# normals
vn -1 0 0
vn 1 0 0
vn 0 0 1
vn 0 0 -1
vn 0 -1 0
vn 0 1 0

# texcoords
vt 0.720703 0.5
vt 0.876953 0.5

# verts
v -10 91 13
v -10 91 11
v -10 94 13
v -10 94 11
v -9 93 14
v -9 93 13
v -9 94 13
v -9 95 14
v -9 95 13
v -8 94 15
v -8 94 14
v -8 95 14
v -8 96 15
v -8 96 14
v 5 91 13
v 5 91 11
v 5 92 12
v 5 92 11
v 5 94 13
v 5 94 12
v 6 92 12
v 6 92 11
v 6 93 14
v 6 93 13
v 6 94 13
v 6 94 12
v 6 94 11
v 6 95 14
v 6 95 13
v 7 94 15
v 7 94 14
v 7 95 14
v 7 96 15
v 7 96 14
v -7 94 15
v -7 94 14
v -7 95 14
v -7 96 15
v -7 96 14
v -6 92 12
v -6 92 11
v -6 93 14
v -6 93 13
v -6 94 13
v -6 94 12
v -6 94 11
v -6 95 14
v -6 95 13
v -5 91 13
v -5 91 11
v -5 92 12
v -5 92 11
v -5 94 13
v -5 94 12
v 8 94 15
v 8 94 14
v 8 95 14
v 8 96 15
v 8 96 14
v 9 93 14
v 9 93 13
v 9 94 13
v 9 95 14
v 9 95 13
v 10 91 13
v 10 91 11
v 10 94 13
v 10 94 11
v -8 94 15
v -8 96 15
v -7 94 15
v -7 96 15
v 7 94 15
v 7 96 15
v 8 94 15
v 8 96 15
v -9 93 14
v -9 95 14
v -8 94 14
v -8 95 14
v -7 94 14
v -7 95 14
v -6 93 14
v -6 95 14
v 6 93 14
v 6 95 14
v 7 94 14
v 7 95 14
v 8 94 14
v 8 95 14
v 9 93 14
v 9 95 14
v -10 91 13
v -10 94 13
v -9 92 13
v -9 93 13
v -9 94 13
v -6 92 13
v -6 93 13
v -6 94 13
v -5 91 13
v -5 94 13
v 5 91 13
v 5 94 13
v 6 92 13
v 6 93 13
v 6 94 13
v 9 92 13
v 9 93 13
v 9 94 13
v 10 91 13
v 10 94 13
v -8 95 14
v -8 96 14
v -7 95 14
v -7 96 14
v 7 95 14
v 7 96 14
v 8 95 14
v 8 96 14
v -9 94 13
v -9 95 13
v -6 94 13
v -6 95 13
v 6 94 13
v 6 95 13
v 9 94 13
v 9 95 13
v -6 92 12
v -6 94 12
v -5 92 12
v -5 94 12
v 5 92 12
v 5 94 12
v 6 92 12
v 6 94 12
v -10 91 11
v -10 94 11
v -6 92 11
v -6 94 11
v -5 91 11
v -5 92 11
v 5 91 11
v 5 92 11
v 6 92 11
v 6 94 11
v 10 91 11
v 10 94 11
v -10 91 13
v -5 91 13
v 5 91 13
v 10 91 13
v -10 91 11
v -5 91 11
v 5 91 11
v 10 91 11
v -9 93 14
v -6 93 14
v 6 93 14
v 9 93 14
v -9 93 13
v -6 93 13
v 6 93 13
v 9 93 13
v -8 94 15
v -7 94 15
v 7 94 15
v 8 94 15
v -8 94 14
v -7 94 14
v 7 94 14
v 8 94 14
v -6 92 12
v -5 92 12
v 5 92 12
v 6 92 12
v -6 92 11
v -5 92 11
v 5 92 11
v 6 92 11
v -10 94 13
v -9 94 13
v -6 94 13
v -5 94 13
v 5 94 13
v 6 94 13
v 9 94 13
v 10 94 13
v -9 94 12
v -6 94 12
v -5 94 12
v 5 94 12
v 6 94 12
v 9 94 12
v -10 94 11
v -6 94 11
v 6 94 11
v 10 94 11
v -9 95 14
v -8 95 14
v -7 95 14
v -6 95 14
v 6 95 14
v 7 95 14
v 8 95 14
v 9 95 14
v -9 95 13
v -6 95 13
v 6 95 13
v 9 95 13
v -8 96 15
v -7 96 15
v 7 96 15
v 8 96 15
v -8 96 14
v -7 96 14
v 7 96 14
v 8 96 14

# faces
f 3/2/1 2/2/1 1/2/1
f 4/2/1 2/2/1 3/2/1
f 7/1/1 6/1/1 5/1/1
f 8/1/1 7/1/1 5/1/1
f 9/1/1 7/1/1 8/1/1
f 12/1/1 11/1/1 10/1/1
f 13/1/1 12/1/1 10/1/1
f 14/1/1 12/1/1 13/1/1
f 17/2/1 16/2/1 15/2/1
f 18/2/1 16/2/1 17/2/1
f 19/2/1 17/2/1 15/2/1
f 20/2/1 17/2/1 19/2/1
f 25/1/1 24/1/1 23/1/1
f 26/2/1 22/2/1 21/2/1
f 27/2/1 22/2/1 26/2/1
f 28/1/1 25/1/1 23/1/1
f 29/1/1 25/1/1 28/1/1
f 32/1/1 31/1/1 30/1/1
f 33/1/1 32/1/1 30/1/1
f 34/1/1 32/1/1 33/1/1
f 35/1/2 36/1/2 37/1/2
f 35/1/2 37/1/2 38/1/2
f 38/1/2 37/1/2 39/1/2
f 42/1/2 43/1/2 44/1/2
f 40/2/2 41/2/2 45/2/2
f 45/2/2 41/2/2 46/2/2
f 42/1/2 44/1/2 47/1/2
f 47/1/2 44/1/2 48/1/2
f 49/2/2 50/2/2 51/2/2
f 51/2/2 50/2/2 52/2/2
f 49/2/2 51/2/2 53/2/2
f 53/2/2 51/2/2 54/2/2
f 55/1/2 56/1/2 57/1/2
f 55/1/2 57/1/2 58/1/2
f 58/1/2 57/1/2 59/1/2
f 60/1/2 61/1/2 62/1/2
f 60/1/2 62/1/2 63/1/2
f 63/1/2 62/1/2 64/1/2
f 65/2/2 66/2/2 67/2/2
f 67/2/2 66/2/2 68/2/2
f 71/1/3 70/1/3 69/1/3
f 72/1/3 70/1/3 71/1/3
f 75/1/3 74/1/3 73/1/3
f 76/1/3 74/1/3 75/1/3
f 79/1/3 78/1/3 77/1/3
f 80/1/3 78/1/3 79/1/3
f 81/1/3 79/1/3 77/1/3
f 83/1/3 81/1/3 77/1/3
f 83/1/3 82/1/3 81/1/3
f 84/1/3 82/1/3 83/1/3
f 87/1/3 86/1/3 85/1/3
f 88/1/3 86/1/3 87/1/3
f 89/1/3 87/1/3 85/1/3
f 91/1/3 89/1/3 85/1/3
f 91/1/3 90/1/3 89/1/3
f 92/1/3 90/1/3 91/1/3
f 95/2/3 94/2/3 93/2/3
f 96/2/3 94/2/3 95/2/3
f 97/2/3 94/2/3 96/2/3
f 98/2/3 95/2/3 93/2/3
f 98/1/3 96/1/3 95/1/3
f 99/1/3 96/1/3 98/1/3
f 101/2/3 98/2/3 93/2/3
f 101/2/3 100/2/3 99/2/3
f 101/2/3 99/2/3 98/2/3
f 102/2/3 100/2/3 101/2/3
f 105/2/3 104/2/3 103/2/3
f 106/2/3 104/2/3 105/2/3
f 107/2/3 104/2/3 106/2/3
f 108/2/3 105/2/3 103/2/3
f 108/1/3 106/1/3 105/1/3
f 109/1/3 106/1/3 108/1/3
f 111/2/3 108/2/3 103/2/3
f 111/2/3 110/2/3 109/2/3
f 111/2/3 109/2/3 108/2/3
f 112/2/3 110/2/3 111/2/3
f 113/1/4 114/1/4 115/1/4
f 115/1/4 114/1/4 116/1/4
f 117/1/4 118/1/4 119/1/4
f 119/1/4 118/1/4 120/1/4
f 121/1/4 122/1/4 123/1/4
f 123/1/4 122/1/4 124/1/4
f 125/1/4 126/1/4 127/1/4
f 127/1/4 126/1/4 128/1/4
f 129/2/4 130/2/4 131/2/4
f 131/2/4 130/2/4 132/2/4
f 133/2/4 134/2/4 135/2/4
f 135/2/4 134/2/4 136/2/4
f 137/2/4 138/2/4 139/2/4
f 139/2/4 138/2/4 140/2/4
f 137/2/4 139/2/4 141/2/4
f 141/2/4 139/2/4 142/2/4
f 143/2/4 144/2/4 145/2/4
f 143/2/4 145/2/4 147/2/4
f 145/2/4 146/2/4 147/2/4
f 147/2/4 146/2/4 148/2/4
f 153/2/5 150/2/5 149/2/5
f 154/2/5 150/2/5 153/2/5
f 155/2/5 152/2/5 151/2/5
f 156/2/5 152/2/5 155/2/5
f 161/1/5 158/1/5 157/1/5
f 162/1/5 158/1/5 161/1/5
f 163/1/5 160/1/5 159/1/5
f 164/1/5 160/1/5 163/1/5
f 169/1/5 166/1/5 165/1/5
f 170/1/5 166/1/5 169/1/5
f 171/1/5 168/1/5 167/1/5
f 172/1/5 168/1/5 171/1/5
f 173/2/6 174/2/6 177/2/6
f 177/2/6 174/2/6 178/2/6
f 175/2/6 176/2/6 179/2/6
f 179/2/6 176/2/6 180/2/6
f 181/2/6 182/2/6 189/2/6
f 182/1/6 183/1/6 189/1/6
f 183/2/6 184/2/6 190/2/6
f 189/1/6 183/1/6 190/1/6
f 190/2/6 184/2/6 191/2/6
f 185/2/6 186/2/6 192/2/6
f 186/1/6 187/1/6 193/1/6
f 192/2/6 186/2/6 193/2/6
f 187/2/6 188/2/6 194/2/6
f 193/1/6 187/1/6 194/1/6
f 181/2/6 189/2/6 195/2/6
f 189/2/6 190/2/6 195/2/6
f 195/2/6 190/2/6 196/2/6
f 193/2/6 194/2/6 197/2/6
f 194/2/6 188/2/6 198/2/6
f 197/2/6 194/2/6 198/2/6
f 199/1/6 200/1/6 207/1/6
f 200/1/6 201/1/6 207/1/6
f 201/1/6 202/1/6 207/1/6
f 207/1/6 202/1/6 208/1/6
f 205/1/6 206/1/6 209/1/6
f 204/1/6 205/1/6 209/1/6
f 203/1/6 204/1/6 209/1/6
f 209/1/6 206/1/6 210/1/6
f 211/1/6 212/1/6 215/1/6
f 215/1/6 212/1/6 216/1/6
f 213/1/6 214/1/6 217/1/6
f 217/1/6 214/1/6 218/1/6
