# MagicaVoxel @ Ephtracy

# group
g humanoid-41

# material
mtllib humanoid-41.mtl
usemtl palette

# normals
vn -1 0 0
vn 1 0 0
vn 0 0 1
vn 0 0 -1
vn 0 -1 0
vn 0 1 0

# texcoords
vt 0.603516 0.5
vt 0.939453 0.5
vt 0.943359 0.5

# verts
v 13 73 3
v 13 73 -3
v 13 79 3
v 13 79 -3
v 26 73 34
v 26 73 33
v 26 73 32
v 26 73 29
v 26 73 28
v 26 73 20
v 26 73 6
v 26 73 5
v 26 73 4
v 26 73 3
v 26 74 34
v 26 74 33
v 26 74 32
v 26 74 29
v 26 74 28
v 26 74 20
v 26 74 6
v 26 74 5
v 26 74 4
v 26 74 3
v 26 75 34
v 26 75 29
v 26 76 34
v 26 76 33
v 26 77 33
v 26 77 29
v 26 78 33
v 26 78 32
v 26 78 31
v 26 78 23
v 26 79 34
v 26 79 33
v 26 79 32
v 26 79 31
v 26 79 23
v 26 79 3
v 32 73 34
v 32 73 -3
v 32 75 14
v 32 75 12
v 32 76 12
v 32 76 9
v 32 77 12
v 32 77 11
v 32 77 9
v 32 77 6
v 32 78 16
v 32 78 14
v 32 78 11
v 32 78 10
v 32 78 6
v 32 78 5
v 32 79 34
v 32 79 16
v 32 79 12
v 32 79 10
v 32 79 5
v 32 79 -3
v 26 73 34
v 26 74 34
v 26 75 34
v 26 76 34
v 26 79 34
v 27 73 34
v 27 74 34
v 28 75 34
v 28 76 34
v 28 78 34
v 28 79 34
v 29 78 34
v 29 79 34
v 32 73 34
v 32 79 34
v 13 73 3
v 13 79 3
v 19 73 3
v 19 75 3
v 21 73 3
v 21 74 3
v 21 77 3
v 21 79 3
v 22 76 3
v 22 77 3
v 22 79 3
v 23 74 3
v 23 75 3
v 23 76 3
v 24 74 3
v 24 75 3
v 24 76 3
v 24 77 3
v 25 73 3
v 25 74 3
v 25 75 3
v 25 76 3
v 26 73 3
v 26 74 3
v 26 79 3
v 13 73 -3
v 13 79 -3
v 22 73 -3
v 22 75 -3
v 23 74 -3
v 23 75 -3
v 23 78 -3
v 23 79 -3
v 24 77 -3
v 24 78 -3
v 25 74 -3
v 25 77 -3
v 25 78 -3
v 26 74 -3
v 26 77 -3
v 26 78 -3
v 26 79 -3
v 27 74 -3
v 27 75 -3
v 27 77 -3
v 27 78 -3
v 27 79 -3
v 28 73 -3
v 28 75 -3
v 28 78 -3
v 29 75 -3
v 29 79 -3
v 32 73 -3
v 32 79 -3
v 26 73 34
v 27 73 34
v 32 73 34
v 26 73 33
v 27 73 33
v 26 73 32
v 27 73 32
v 27 73 31
v 28 73 31
v 28 73 30
v 29 73 30
v 26 73 29
v 28 73 29
v 26 73 28
v 28 73 28
v 29 73 28
v 31 73 28
v 29 73 27
v 30 73 27
v 29 73 26
v 30 73 26
v 30 73 23
v 31 73 23
v 30 73 22
v 31 73 22
v 27 73 21
v 31 73 21
v 26 73 20
v 27 73 20
v 26 73 6
v 27 73 6
v 26 73 5
v 27 73 5
v 26 73 4
v 27 73 4
v 13 73 3
v 19 73 3
v 21 73 3
v 25 73 3
v 26 73 3
v 19 73 2
v 20 73 2
v 21 73 2
v 23 73 2
v 25 73 2
v 27 73 2
v 29 73 2
v 20 73 1
v 21 73 1
v 22 73 1
v 25 73 1
v 27 73 1
v 21 73 -1
v 22 73 -1
v 23 73 -1
v 25 73 -1
v 27 73 -1
v 25 73 -2
v 27 73 -2
v 28 73 -2
v 29 73 -2
v 13 73 -3
v 22 73 -3
v 28 73 -3
v 32 73 -3
v 26 79 34
v 28 79 34
v 29 79 34
v 32 79 34
v 26 79 33
v 27 79 33
v 28 79 33
v 26 79 32
v 27 79 32
v 26 79 31
v 28 79 31
v 29 79 31
v 30 79 31
v 28 79 30
v 29 79 30
v 30 79 30
v 28 79 29
v 29 79 29
v 30 79 29
v 31 79 29
v 28 79 28
v 30 79 28
v 30 79 27
v 31 79 27
v 27 79 25
v 28 79 25
v 29 79 25
v 30 79 25
v 28 79 24
v 29 79 24
v 26 79 23
v 27 79 23
v 30 79 16
v 32 79 16
v 29 79 13
v 30 79 13
v 31 79 12
v 32 79 12
v 28 79 11
v 29 79 11
v 30 79 11
v 27 79 10
v 28 79 10
v 29 79 10
v 30 79 10
v 31 79 10
v 32 79 10
v 27 79 9
v 31 79 9
v 31 79 5
v 32 79 5
v 13 79 3
v 21 79 3
v 22 79 3
v 26 79 3
v 21 79 2
v 22 79 2
v 23 79 -1
v 27 79 -1
v 26 79 -2
v 27 79 -2
v 29 79 -2
v 13 79 -3
v 23 79 -3
v 26 79 -3
v 27 79 -3
v 29 79 -3
v 32 79 -3

# faces
f 3/2/1 2/2/1 1/2/1
f 4/2/1 2/2/1 3/2/1
f 15/1/1 6/1/1 5/1/1
f 16/2/1 7/2/1 6/2/1
f 16/1/1 6/1/1 15/1/1
f 17/3/1 8/3/1 7/3/1
f 17/2/1 7/2/1 16/2/1
f 18/2/1 9/2/1 8/2/1
f 18/3/1 8/3/1 17/3/1
f 19/3/1 10/3/1 9/3/1
f 19/2/1 9/2/1 18/2/1
f 20/2/1 11/2/1 10/2/1
f 20/3/1 10/3/1 19/3/1
f 21/3/1 12/3/1 11/3/1
f 21/2/1 11/2/1 20/2/1
f 22/2/1 13/2/1 12/2/1
f 22/3/1 12/3/1 21/3/1
f 23/3/1 14/3/1 13/3/1
f 23/2/1 13/2/1 22/2/1
f 24/3/1 14/3/1 23/3/1
f 25/2/1 22/2/1 21/2/1
f 25/2/1 16/2/1 15/2/1
f 25/2/1 24/2/1 23/2/1
f 25/2/1 23/2/1 22/2/1
f 25/2/1 21/2/1 20/2/1
f 25/2/1 20/2/1 19/2/1
f 25/2/1 19/2/1 18/2/1
f 25/2/1 18/2/1 17/2/1
f 25/2/1 17/2/1 16/2/1
f 26/2/1 24/2/1 25/2/1
f 27/1/1 26/1/1 25/1/1
f 28/1/1 26/1/1 27/1/1
f 29/2/1 28/2/1 27/2/1
f 29/1/1 26/1/1 28/1/1
f 30/2/1 24/2/1 26/2/1
f 30/1/1 26/1/1 29/1/1
f 31/2/1 29/2/1 27/2/1
f 31/2/1 30/2/1 29/2/1
f 32/2/1 30/2/1 31/2/1
f 33/2/1 30/2/1 32/2/1
f 34/2/1 24/2/1 30/2/1
f 34/2/1 30/2/1 33/2/1
f 35/2/1 31/2/1 27/2/1
f 36/3/1 32/3/1 31/3/1
f 36/2/1 31/2/1 35/2/1
f 37/1/1 33/1/1 32/1/1
f 37/3/1 32/3/1 36/3/1
f 38/3/1 34/3/1 33/3/1
f 38/1/1 33/1/1 37/1/1
f 39/2/1 24/2/1 34/2/1
f 39/3/1 34/3/1 38/3/1
f 40/2/1 24/2/1 39/2/1
f 41/2/2 42/2/2 43/2/2
f 43/2/2 42/2/2 44/2/2
f 43/3/2 44/3/2 45/3/2
f 44/2/2 42/2/2 45/2/2
f 45/2/2 42/2/2 46/2/2
f 43/3/2 45/3/2 47/3/2
f 45/3/2 46/3/2 47/3/2
f 47/3/2 46/3/2 48/3/2
f 46/2/2 42/2/2 49/2/2
f 48/3/2 46/3/2 49/3/2
f 49/2/2 42/2/2 50/2/2
f 41/2/2 43/2/2 51/2/2
f 43/3/2 47/3/2 52/3/2
f 51/2/2 43/2/2 52/2/2
f 47/1/2 48/1/2 53/1/2
f 48/3/2 49/3/2 53/3/2
f 49/3/2 50/3/2 53/3/2
f 53/3/2 50/3/2 54/3/2
f 50/2/2 42/2/2 55/2/2
f 54/3/2 50/3/2 55/3/2
f 55/2/2 42/2/2 56/2/2
f 41/2/2 51/2/2 57/2/2
f 51/3/2 52/3/2 58/3/2
f 57/2/2 51/2/2 58/2/2
f 53/1/2 54/1/2 59/1/2
f 58/3/2 52/3/2 59/3/2
f 52/3/2 47/3/2 59/3/2
f 47/1/2 53/1/2 59/1/2
f 55/3/2 56/3/2 60/3/2
f 59/1/2 54/1/2 60/1/2
f 54/3/2 55/3/2 60/3/2
f 56/2/2 42/2/2 61/2/2
f 60/3/2 56/3/2 61/3/2
f 61/2/2 42/2/2 62/2/2
f 68/1/3 64/1/3 63/1/3
f 69/2/3 65/2/3 64/2/3
f 69/1/3 64/1/3 68/1/3
f 70/1/3 66/1/3 65/1/3
f 70/2/3 65/2/3 69/2/3
f 70/2/3 69/2/3 68/2/3
f 71/2/3 67/2/3 66/2/3
f 71/1/3 66/1/3 70/1/3
f 72/2/3 67/2/3 71/2/3
f 73/2/3 67/2/3 72/2/3
f 74/2/3 71/2/3 70/2/3
f 74/2/3 72/2/3 71/2/3
f 74/1/3 73/1/3 72/1/3
f 75/1/3 73/1/3 74/1/3
f 76/2/3 70/2/3 68/2/3
f 76/2/3 74/2/3 70/2/3
f 76/2/3 75/2/3 74/2/3
f 77/2/3 75/2/3 76/2/3
f 80/2/3 79/2/3 78/2/3
f 81/2/3 79/2/3 80/2/3
f 82/3/3 81/3/3 80/3/3
f 83/3/3 81/3/3 82/3/3
f 84/2/3 79/2/3 81/2/3
f 85/2/3 79/2/3 84/2/3
f 86/2/3 84/2/3 81/2/3
f 87/3/3 85/3/3 84/3/3
f 87/2/3 84/2/3 86/2/3
f 88/3/3 85/3/3 87/3/3
f 89/3/3 81/3/3 83/3/3
f 89/1/3 83/1/3 82/1/3
f 90/2/3 86/2/3 81/2/3
f 90/3/3 81/3/3 89/3/3
f 91/3/3 87/3/3 86/3/3
f 91/2/3 86/2/3 90/2/3
f 92/1/3 89/1/3 82/1/3
f 92/2/3 90/2/3 89/2/3
f 93/3/3 91/3/3 90/3/3
f 93/2/3 90/2/3 92/2/3
f 94/3/3 87/3/3 91/3/3
f 94/3/3 91/3/3 93/3/3
f 95/2/3 88/2/3 87/2/3
f 95/3/3 87/3/3 94/3/3
f 96/1/3 93/1/3 92/1/3
f 96/1/3 92/1/3 82/1/3
f 97/1/3 93/1/3 96/1/3
f 98/3/3 94/3/3 93/3/3
f 98/1/3 93/1/3 97/1/3
f 99/2/3 95/2/3 94/2/3
f 99/3/3 94/3/3 98/3/3
f 100/3/3 97/3/3 96/3/3
f 101/2/3 98/2/3 97/2/3
f 101/3/3 97/3/3 100/3/3
f 101/2/3 99/2/3 98/2/3
f 102/2/3 95/2/3 99/2/3
f 102/2/3 99/2/3 101/2/3
f 102/2/3 88/2/3 95/2/3
f 103/2/4 104/2/4 105/2/4
f 105/2/4 104/2/4 106/2/4
f 105/3/4 106/3/4 107/3/4
f 106/2/4 104/2/4 108/2/4
f 107/3/4 106/3/4 108/3/4
f 108/2/4 104/2/4 109/2/4
f 109/2/4 104/2/4 110/2/4
f 107/2/4 108/2/4 111/2/4
f 108/2/4 109/2/4 111/2/4
f 109/3/4 110/3/4 112/3/4
f 111/2/4 109/2/4 112/2/4
f 105/3/4 107/3/4 113/3/4
f 107/2/4 111/2/4 113/2/4
f 111/3/4 112/3/4 114/3/4
f 113/2/4 111/2/4 114/2/4
f 112/3/4 110/3/4 115/3/4
f 114/3/4 112/3/4 115/3/4
f 113/3/4 114/3/4 116/3/4
f 105/3/4 113/3/4 116/3/4
f 114/1/4 115/1/4 117/1/4
f 116/3/4 114/3/4 117/3/4
f 115/3/4 110/3/4 118/3/4
f 117/1/4 115/1/4 118/1/4
f 118/3/4 110/3/4 119/3/4
f 116/2/4 117/2/4 120/2/4
f 105/3/4 116/3/4 120/3/4
f 120/2/4 117/2/4 121/2/4
f 118/1/4 119/1/4 122/1/4
f 121/2/4 117/2/4 122/2/4
f 117/1/4 118/1/4 122/1/4
f 122/1/4 119/1/4 123/1/4
f 123/1/4 119/1/4 124/1/4
f 120/3/4 121/3/4 125/3/4
f 105/3/4 120/3/4 125/3/4
f 121/2/4 122/2/4 126/2/4
f 125/3/4 121/3/4 126/3/4
f 122/2/4 123/2/4 126/2/4
f 123/3/4 124/3/4 127/3/4
f 126/2/4 123/2/4 127/2/4
f 125/2/4 126/2/4 128/2/4
f 126/3/4 127/3/4 128/3/4
f 127/3/4 124/3/4 129/3/4
f 128/3/4 127/3/4 129/3/4
f 125/2/4 128/2/4 130/2/4
f 128/2/4 129/2/4 130/2/4
f 130/2/4 129/2/4 131/2/4
f 135/1/5 133/1/5 132/1/5
f 136/2/5 134/2/5 133/2/5
f 136/1/5 133/1/5 135/1/5
f 137/2/5 136/2/5 135/2/5
f 138/2/5 134/2/5 136/2/5
f 138/2/5 136/2/5 137/2/5
f 139/3/5 138/3/5 137/3/5
f 139/2/5 134/2/5 138/2/5
f 140/2/5 134/2/5 139/2/5
f 141/3/5 140/3/5 139/3/5
f 141/2/5 134/2/5 140/2/5
f 142/2/5 134/2/5 141/2/5
f 143/3/5 139/3/5 137/3/5
f 143/3/5 141/3/5 139/3/5
f 143/3/5 142/3/5 141/3/5
f 144/3/5 142/3/5 143/3/5
f 145/2/5 144/2/5 143/2/5
f 146/3/5 142/3/5 144/3/5
f 146/2/5 144/2/5 145/2/5
f 147/2/5 134/2/5 142/2/5
f 147/3/5 142/3/5 146/3/5
f 148/2/5 134/2/5 147/2/5
f 149/3/5 146/3/5 145/3/5
f 149/3/5 147/3/5 146/3/5
f 149/3/5 148/3/5 147/3/5
f 150/3/5 148/3/5 149/3/5
f 151/3/5 149/3/5 145/3/5
f 151/2/5 150/2/5 149/2/5
f 152/3/5 148/3/5 150/3/5
f 152/2/5 150/2/5 151/2/5
f 153/3/5 152/3/5 151/3/5
f 153/3/5 148/3/5 152/3/5
f 154/2/5 134/2/5 148/2/5
f 154/3/5 148/3/5 153/3/5
f 155/3/5 153/3/5 151/3/5
f 155/2/5 154/2/5 153/2/5
f 156/2/5 134/2/5 154/2/5
f 156/2/5 154/2/5 155/2/5
f 157/3/5 155/3/5 151/3/5
f 157/3/5 151/3/5 145/3/5
f 157/3/5 156/3/5 155/3/5
f 158/2/5 134/2/5 156/2/5
f 158/3/5 156/3/5 157/3/5
f 159/3/5 157/3/5 145/3/5
f 160/2/5 158/2/5 157/2/5
f 160/3/5 157/3/5 159/3/5
f 161/2/5 160/2/5 159/2/5
f 162/2/5 158/2/5 160/2/5
f 162/2/5 160/2/5 161/2/5
f 163/3/5 162/3/5 161/3/5
f 164/2/5 158/2/5 162/2/5
f 164/3/5 162/3/5 163/3/5
f 165/2/5 164/2/5 163/2/5
f 166/2/5 158/2/5 164/2/5
f 166/2/5 164/2/5 165/2/5
f 171/3/5 166/3/5 165/3/5
f 172/2/5 168/2/5 167/2/5
f 172/3/5 169/3/5 168/3/5
f 173/3/5 169/3/5 172/3/5
f 174/1/5 170/1/5 169/1/5
f 174/3/5 169/3/5 173/3/5
f 175/1/5 170/1/5 174/1/5
f 176/3/5 171/3/5 170/3/5
f 176/1/5 170/1/5 175/1/5
f 177/2/5 158/2/5 166/2/5
f 177/3/5 171/3/5 176/3/5
f 177/3/5 166/3/5 171/3/5
f 178/2/5 158/2/5 177/2/5
f 179/2/5 173/2/5 172/2/5
f 179/3/5 174/3/5 173/3/5
f 180/2/5 175/2/5 174/2/5
f 180/3/5 174/3/5 179/3/5
f 181/2/5 175/2/5 180/2/5
f 182/3/5 176/3/5 175/3/5
f 182/2/5 177/2/5 176/2/5
f 183/3/5 178/3/5 177/3/5
f 183/2/5 177/2/5 182/2/5
f 184/3/5 181/3/5 180/3/5
f 184/2/5 180/2/5 179/2/5
f 185/2/5 175/2/5 181/2/5
f 185/3/5 181/3/5 184/3/5
f 186/3/5 182/3/5 175/3/5
f 186/2/5 175/2/5 185/2/5
f 186/3/5 183/3/5 182/3/5
f 187/3/5 183/3/5 186/3/5
f 188/3/5 178/3/5 183/3/5
f 188/3/5 183/3/5 187/3/5
f 189/3/5 187/3/5 186/3/5
f 189/3/5 186/3/5 185/3/5
f 189/2/5 188/2/5 187/2/5
f 190/3/5 178/3/5 188/3/5
f 190/2/5 188/2/5 189/2/5
f 191/3/5 178/3/5 190/3/5
f 192/2/5 158/2/5 178/2/5
f 192/3/5 178/3/5 191/3/5
f 193/2/5 184/2/5 179/2/5
f 193/2/5 179/2/5 172/2/5
f 193/2/5 185/2/5 184/2/5
f 193/2/5 172/2/5 167/2/5
f 194/3/5 191/3/5 190/3/5
f 194/2/5 185/2/5 193/2/5
f 194/3/5 190/3/5 189/3/5
f 194/3/5 189/3/5 185/3/5
f 195/2/5 192/2/5 191/2/5
f 195/3/5 191/3/5 194/3/5
f 196/2/5 134/2/5 158/2/5
f 196/2/5 192/2/5 195/2/5
f 196/2/5 158/2/5 192/2/5
f 197/2/6 198/2/6 201/2/6
f 201/2/6 198/2/6 202/2/6
f 198/1/6 199/1/6 203/1/6
f 202/2/6 198/2/6 203/2/6
f 201/3/6 202/3/6 204/3/6
f 202/1/6 203/1/6 205/1/6
f 204/3/6 202/3/6 205/3/6
f 204/1/6 205/1/6 206/1/6
f 203/1/6 199/1/6 207/1/6
f 206/1/6 205/1/6 207/1/6
f 205/1/6 203/1/6 207/1/6
f 199/2/6 200/2/6 208/2/6
f 207/1/6 199/1/6 208/1/6
f 208/2/6 200/2/6 209/2/6
f 206/3/6 207/3/6 210/3/6
f 207/1/6 208/1/6 210/1/6
f 208/1/6 209/1/6 210/1/6
f 210/1/6 209/1/6 211/1/6
f 209/2/6 200/2/6 212/2/6
f 211/1/6 209/1/6 212/1/6
f 210/2/6 211/2/6 213/2/6
f 206/3/6 210/3/6 213/3/6
f 211/3/6 212/3/6 214/3/6
f 213/2/6 211/2/6 214/2/6
f 212/2/6 200/2/6 215/2/6
f 214/3/6 212/3/6 215/3/6
f 215/2/6 200/2/6 216/2/6
f 213/1/6 214/1/6 217/1/6
f 206/3/6 213/3/6 217/3/6
f 214/1/6 215/1/6 217/1/6
f 215/3/6 216/3/6 218/3/6
f 217/1/6 215/1/6 218/1/6
f 217/3/6 218/3/6 219/3/6
f 218/3/6 216/3/6 219/3/6
f 216/2/6 200/2/6 220/2/6
f 219/3/6 216/3/6 220/3/6
f 217/3/6 219/3/6 221/3/6
f 206/3/6 217/3/6 221/3/6
f 221/3/6 219/3/6 222/3/6
f 222/3/6 219/3/6 223/3/6
f 219/2/6 220/2/6 224/2/6
f 223/3/6 219/3/6 224/3/6
f 222/3/6 223/3/6 225/3/6
f 221/2/6 222/2/6 225/2/6
f 223/2/6 224/2/6 226/2/6
f 225/3/6 223/3/6 226/3/6
f 206/3/6 221/3/6 227/3/6
f 221/2/6 225/2/6 228/2/6
f 227/3/6 221/3/6 228/3/6
f 225/2/6 226/2/6 228/2/6
f 224/2/6 220/2/6 229/2/6
f 228/2/6 226/2/6 229/2/6
f 227/2/6 228/2/6 229/2/6
f 226/2/6 224/2/6 229/2/6
f 220/2/6 200/2/6 230/2/6
f 229/2/6 220/2/6 230/2/6
f 227/2/6 229/2/6 231/2/6
f 229/3/6 230/3/6 232/3/6
f 231/2/6 229/2/6 232/2/6
f 231/3/6 232/3/6 233/3/6
f 232/3/6 230/3/6 233/3/6
f 233/3/6 230/3/6 234/3/6
f 227/2/6 231/2/6 235/2/6
f 231/3/6 233/3/6 236/3/6
f 235/2/6 231/2/6 236/2/6
f 236/3/6 233/3/6 237/3/6
f 227/2/6 235/2/6 238/2/6
f 235/3/6 236/3/6 239/3/6
f 238/2/6 235/2/6 239/2/6
f 236/2/6 237/2/6 240/2/6
f 239/3/6 236/3/6 240/3/6
f 237/3/6 233/3/6 241/3/6
f 240/2/6 237/2/6 241/2/6
f 233/1/6 234/1/6 242/1/6
f 241/3/6 233/3/6 242/3/6
f 242/1/6 234/1/6 243/1/6
f 239/3/6 240/3/6 244/3/6
f 240/3/6 241/3/6 244/3/6
f 242/3/6 243/3/6 244/3/6
f 241/3/6 242/3/6 244/3/6
f 238/3/6 239/3/6 244/3/6
f 227/2/6 238/2/6 244/2/6
f 244/3/6 243/3/6 245/3/6
f 244/2/6 245/2/6 246/2/6
f 245/3/6 243/3/6 246/3/6
f 246/3/6 243/3/6 247/3/6
f 227/2/6 244/2/6 251/2/6
f 244/2/6 246/2/6 251/2/6
f 246/2/6 247/2/6 251/2/6
f 249/3/6 250/3/6 252/3/6
f 248/2/6 249/2/6 252/2/6
f 250/2/6 251/2/6 253/2/6
f 252/3/6 250/3/6 253/3/6
f 252/2/6 253/2/6 254/2/6
f 253/2/6 251/2/6 254/2/6
f 251/2/6 247/2/6 255/2/6
f 254/2/6 251/2/6 255/2/6
f 254/3/6 255/3/6 256/3/6
f 255/2/6 247/2/6 257/2/6
f 256/3/6 255/3/6 257/3/6
f 257/2/6 247/2/6 258/2/6
f 248/2/6 252/2/6 259/2/6
f 252/2/6 254/2/6 259/2/6
f 254/3/6 256/3/6 260/3/6
f 259/2/6 254/2/6 260/2/6
f 256/1/6 257/1/6 261/1/6
f 260/3/6 256/3/6 261/3/6
f 257/3/6 258/3/6 262/3/6
f 261/1/6 257/1/6 262/1/6
f 258/2/6 247/2/6 263/2/6
f 262/3/6 258/3/6 263/3/6
f 263/2/6 247/2/6 264/2/6
