# MagicaVoxel @ Ephtracy

# group
g tiles-0

# material
mtllib tiles-0.mtl
usemtl palette

# normals
vn -1 0 0
vn 1 0 0
vn 0 0 1
vn 0 0 -1
vn 0 -1 0
vn 0 1 0

# texcoords
vt 0.755859 0.5
vt 0.763672 0.5
vt 0.771484 0.5
vt 0.779297 0.5
vt 0.787109 0.5
vt 0.794922 0.5
vt 0.802734 0.5
vt 0.810547 0.5
vt 0.818359 0.5
vt 0.826172 0.5
vt 0.833984 0.5
vt 0.841797 0.5
vt 0.849609 0.5
vt 0.857422 0.5
vt 0.865234 0.5
vt 0.873047 0.5
vt 0.880859 0.5
vt 0.888672 0.5
vt 0.896484 0.5
vt 0.904297 0.5
vt 0.912109 0.5
vt 0.919922 0.5
vt 0.927734 0.5
vt 0.935547 0.5
vt 0.943359 0.5
vt 0.951172 0.5
vt 0.958984 0.5
vt 0.966797 0.5
vt 0.974609 0.5
vt 0.982422 0.5
vt 0.994141 0.5

# verts
v -63 0 63
v -63 0 -63
v -63 2 63
v -63 2 -63
v -63 5 63
v -63 5 -63
v -63 7 63
v -63 7 -63
v -63 12 63
v -63 12 -63
v -63 14 63
v -63 14 -63
v -63 16 63
v -63 16 -63
v -63 19 63
v -63 19 -63
v -63 24 63
v -63 24 -63
v -63 28 63
v -63 28 -63
v -63 36 63
v -63 36 -63
v -63 40 63
v -63 40 -63
v -63 44 63
v -63 44 -63
v -63 48 63
v -63 48 -63
v -63 52 63
v -63 52 -63
v -63 56 63
v -63 56 -63
v -63 61 63
v -63 61 -63
v -63 65 63
v -63 65 -63
v -63 69 63
v -63 69 -63
v -63 73 63
v -63 73 -63
v -63 77 63
v -63 77 -63
v -63 81 63
v -63 81 -63
v -63 85 63
v -63 85 -63
v -63 90 63
v -63 90 -63
v -63 94 63
v -63 94 -63
v -63 98 63
v -63 98 -63
v -63 102 63
v -63 102 -63
v -63 106 63
v -63 106 -63
v -63 110 63
v -63 110 -63
v -63 114 63
v -63 114 -63
v -63 118 63
v -63 118 -63
v -63 123 63
v -63 123 -63
v 62 0 62
v 62 0 -62
v 62 2 62
v 62 2 -62
v 62 5 62
v 62 5 -62
v 62 7 62
v 62 7 -62
v 62 12 62
v 62 12 -62
v 62 14 62
v 62 14 -62
v 62 16 62
v 62 16 -62
v 62 19 62
v 62 19 -62
v 62 24 62
v 62 24 -62
v 62 28 62
v 62 28 -62
v 62 36 62
v 62 36 -62
v 62 40 62
v 62 40 -62
v 62 44 62
v 62 44 -62
v 62 48 62
v 62 48 -62
v 62 52 62
v 62 52 -62
v 62 56 62
v 62 56 -62
v 62 61 62
v 62 61 -62
v 62 65 62
v 62 65 -62
v 62 69 62
v 62 69 -62
v 62 73 62
v 62 73 -62
v 62 77 62
v 62 77 -62
v 62 81 62
v 62 81 -62
v 62 85 62
v 62 85 -62
v 62 90 62
v 62 90 -62
v 62 94 62
v 62 94 -62
v 62 98 62
v 62 98 -62
v 62 102 62
v 62 102 -62
v 62 106 62
v 62 106 -62
v 62 110 62
v 62 110 -62
v 62 114 62
v 62 114 -62
v 62 118 62
v 62 118 -62
v 62 122 62
v 62 122 -62
v -62 0 62
v -62 0 -62
v -62 2 62
v -62 2 -62
v -62 5 62
v -62 5 -62
v -62 7 62
v -62 7 -62
v -62 12 62
v -62 12 -62
v -62 14 62
v -62 14 -62
v -62 16 62
v -62 16 -62
v -62 19 62
v -62 19 -62
v -62 24 62
v -62 24 -62
v -62 28 62
v -62 28 -62
v -62 36 62
v -62 36 -62
v -62 40 62
v -62 40 -62
v -62 44 62
v -62 44 -62
v -62 48 62
v -62 48 -62
v -62 52 62
v -62 52 -62
v -62 56 62
v -62 56 -62
v -62 61 62
v -62 61 -62
v -62 65 62
v -62 65 -62
v -62 69 62
v -62 69 -62
v -62 73 62
v -62 73 -62
v -62 77 62
v -62 77 -62
v -62 81 62
v -62 81 -62
v -62 85 62
v -62 85 -62
v -62 90 62
v -62 90 -62
v -62 94 62
v -62 94 -62
v -62 98 62
v -62 98 -62
v -62 102 62
v -62 102 -62
v -62 106 62
v -62 106 -62
v -62 110 62
v -62 110 -62
v -62 114 62
v -62 114 -62
v -62 118 62
v -62 118 -62
v -62 122 62
v -62 122 -62
v 63 0 63
v 63 0 -63
v 63 2 63
v 63 2 -63
v 63 5 63
v 63 5 -63
v 63 7 63
v 63 7 -63
v 63 12 63
v 63 12 -63
v 63 14 63
v 63 14 -63
v 63 16 63
v 63 16 -63
v 63 19 63
v 63 19 -63
v 63 24 63
v 63 24 -63
v 63 28 63
v 63 28 -63
v 63 36 63
v 63 36 -63
v 63 40 63
v 63 40 -63
v 63 44 63
v 63 44 -63
v 63 48 63
v 63 48 -63
v 63 52 63
v 63 52 -63
v 63 56 63
v 63 56 -63
v 63 61 63
v 63 61 -63
v 63 65 63
v 63 65 -63
v 63 69 63
v 63 69 -63
v 63 73 63
v 63 73 -63
v 63 77 63
v 63 77 -63
v 63 81 63
v 63 81 -63
v 63 85 63
v 63 85 -63
v 63 90 63
v 63 90 -63
v 63 94 63
v 63 94 -63
v 63 98 63
v 63 98 -63
v 63 102 63
v 63 102 -63
v 63 106 63
v 63 106 -63
v 63 110 63
v 63 110 -63
v 63 114 63
v 63 114 -63
v 63 118 63
v 63 118 -63
v 63 123 63
v 63 123 -63
v -63 0 63
v -63 2 63
v -63 5 63
v -63 7 63
v -63 12 63
v -63 14 63
v -63 16 63
v -63 19 63
v -63 24 63
v -63 28 63
v -63 36 63
v -63 40 63
v -63 44 63
v -63 48 63
v -63 52 63
v -63 56 63
v -63 61 63
v -63 65 63
v -63 69 63
v -63 73 63
v -63 77 63
v -63 81 63
v -63 85 63
v -63 90 63
v -63 94 63
v -63 98 63
v -63 102 63
v -63 106 63
v -63 110 63
v -63 114 63
v -63 118 63
v -63 123 63
v -62 5 63
v -62 7 63
v 63 0 63
v 63 2 63
v 63 5 63
v 63 7 63
v 63 12 63
v 63 14 63
v 63 16 63
v 63 19 63
v 63 24 63
v 63 28 63
v 63 36 63
v 63 40 63
v 63 44 63
v 63 48 63
v 63 52 63
v 63 56 63
v 63 61 63
v 63 65 63
v 63 69 63
v 63 73 63
v 63 77 63
v 63 81 63
v 63 85 63
v 63 90 63
v 63 94 63
v 63 98 63
v 63 102 63
v 63 106 63
v 63 110 63
v 63 114 63
v 63 118 63
v 63 123 63
v -62 0 -62
v -62 2 -62
v -62 5 -62
v -62 7 -62
v -62 12 -62
v -62 14 -62
v -62 16 -62
v -62 19 -62
v -62 24 -62
v -62 28 -62
v -62 36 -62
v -62 40 -62
v -62 44 -62
v -62 48 -62
v -62 52 -62
v -62 56 -62
v -62 61 -62
v -62 65 -62
v -62 69 -62
v -62 73 -62
v -62 77 -62
v -62 81 -62
v -62 85 -62
v -62 90 -62
v -62 94 -62
v -62 98 -62
v -62 102 -62
v -62 106 -62
v -62 110 -62
v -62 114 -62
v -62 118 -62
v -62 122 -62
v 62 0 -62
v 62 2 -62
v 62 5 -62
v 62 7 -62
v 62 12 -62
v 62 14 -62
v 62 16 -62
v 62 19 -62
v 62 24 -62
v 62 28 -62
v 62 36 -62
v 62 40 -62
v 62 44 -62
v 62 48 -62
v 62 52 -62
v 62 56 -62
v 62 61 -62
v 62 65 -62
v 62 69 -62
v 62 73 -62
v 62 77 -62
v 62 81 -62
v 62 85 -62
v 62 90 -62
v 62 94 -62
v 62 98 -62
v 62 102 -62
v 62 106 -62
v 62 110 -62
v 62 114 -62
v 62 118 -62
v 62 122 -62
v -62 0 62
v -62 2 62
v -62 5 62
v -62 7 62
v -62 12 62
v -62 14 62
v -62 16 62
v -62 19 62
v -62 24 62
v -62 28 62
v -62 36 62
v -62 40 62
v -62 44 62
v -62 48 62
v -62 52 62
v -62 56 62
v -62 61 62
v -62 65 62
v -62 69 62
v -62 73 62
v -62 77 62
v -62 81 62
v -62 85 62
v -62 90 62
v -62 94 62
v -62 98 62
v -62 102 62
v -62 106 62
v -62 110 62
v -62 114 62
v -62 118 62
v -62 122 62
v 62 0 62
v 62 2 62
v 62 5 62
v 62 7 62
v 62 12 62
v 62 14 62
v 62 16 62
v 62 19 62
v 62 24 62
v 62 28 62
v 62 36 62
v 62 40 62
v 62 44 62
v 62 48 62
v 62 52 62
v 62 56 62
v 62 61 62
v 62 65 62
v 62 69 62
v 62 73 62
v 62 77 62
v 62 81 62
v 62 85 62
v 62 90 62
v 62 94 62
v 62 98 62
v 62 102 62
v 62 106 62
v 62 110 62
v 62 114 62
v 62 118 62
v 62 122 62
v -63 0 -63
v -63 2 -63
v -63 5 -63
v -63 7 -63
v -63 12 -63
v -63 14 -63
v -63 16 -63
v -63 19 -63
v -63 24 -63
v -63 28 -63
v -63 36 -63
v -63 40 -63
v -63 44 -63
v -63 48 -63
v -63 52 -63
v -63 56 -63
v -63 61 -63
v -63 65 -63
v -63 69 -63
v -63 73 -63
v -63 77 -63
v -63 81 -63
v -63 85 -63
v -63 90 -63
v -63 94 -63
v -63 98 -63
v -63 102 -63
v -63 106 -63
v -63 110 -63
v -63 114 -63
v -63 118 -63
v -63 123 -63
v -62 5 -63
v -62 7 -63
v 63 0 -63
v 63 2 -63
v 63 5 -63
v 63 7 -63
v 63 12 -63
v 63 14 -63
v 63 16 -63
v 63 19 -63
v 63 24 -63
v 63 28 -63
v 63 36 -63
v 63 40 -63
v 63 44 -63
v 63 48 -63
v 63 52 -63
v 63 56 -63
v 63 61 -63
v 63 65 -63
v 63 69 -63
v 63 73 -63
v 63 77 -63
v 63 81 -63
v 63 85 -63
v 63 90 -63
v 63 94 -63
v 63 98 -63
v 63 102 -63
v 63 106 -63
v 63 110 -63
v 63 114 -63
v 63 118 -63
v 63 123 -63
v -63 0 63
v 63 0 63
v -62 0 62
v 62 0 62
v -62 0 -62
v 62 0 -62
v -63 0 -63
v 63 0 -63
v -62 122 62
v 62 122 62
v -62 122 -62
v 62 122 -62
v -63 123 63
v 63 123 63
v -63 123 -63
v 63 123 -63

# faces
f 3/31/1 2/31/1 1/31/1
f 4/31/1 2/31/1 3/31/1
f 5/30/1 4/30/1 3/30/1
f 6/30/1 4/30/1 5/30/1
f 7/31/1 6/31/1 5/31/1
f 8/31/1 6/31/1 7/31/1
f 9/28/1 8/28/1 7/28/1
f 10/28/1 8/28/1 9/28/1
f 11/27/1 10/27/1 9/27/1
f 12/27/1 10/27/1 11/27/1
f 13/26/1 12/26/1 11/26/1
f 14/26/1 12/26/1 13/26/1
f 15/25/1 14/25/1 13/25/1
f 16/25/1 14/25/1 15/25/1
f 17/24/1 16/24/1 15/24/1
f 18/24/1 16/24/1 17/24/1
f 19/23/1 18/23/1 17/23/1
f 20/23/1 18/23/1 19/23/1
f 21/22/1 20/22/1 19/22/1
f 22/22/1 20/22/1 21/22/1
f 23/21/1 22/21/1 21/21/1
f 24/21/1 22/21/1 23/21/1
f 25/20/1 24/20/1 23/20/1
f 26/20/1 24/20/1 25/20/1
f 27/19/1 26/19/1 25/19/1
f 28/19/1 26/19/1 27/19/1
f 29/18/1 28/18/1 27/18/1
f 30/18/1 28/18/1 29/18/1
f 31/17/1 30/17/1 29/17/1
f 32/17/1 30/17/1 31/17/1
f 33/16/1 32/16/1 31/16/1
f 34/16/1 32/16/1 33/16/1
f 35/15/1 34/15/1 33/15/1
f 36/15/1 34/15/1 35/15/1
f 37/14/1 36/14/1 35/14/1
f 38/14/1 36/14/1 37/14/1
f 39/13/1 38/13/1 37/13/1
f 40/13/1 38/13/1 39/13/1
f 41/12/1 40/12/1 39/12/1
f 42/12/1 40/12/1 41/12/1
f 43/11/1 42/11/1 41/11/1
f 44/11/1 42/11/1 43/11/1
f 45/10/1 44/10/1 43/10/1
f 46/10/1 44/10/1 45/10/1
f 47/9/1 46/9/1 45/9/1
f 48/9/1 46/9/1 47/9/1
f 49/8/1 48/8/1 47/8/1
f 50/8/1 48/8/1 49/8/1
f 51/7/1 50/7/1 49/7/1
f 52/7/1 50/7/1 51/7/1
f 53/6/1 52/6/1 51/6/1
f 54/6/1 52/6/1 53/6/1
f 55/5/1 54/5/1 53/5/1
f 56/5/1 54/5/1 55/5/1
f 57/4/1 56/4/1 55/4/1
f 58/4/1 56/4/1 57/4/1
f 59/3/1 58/3/1 57/3/1
f 60/3/1 58/3/1 59/3/1
f 61/2/1 60/2/1 59/2/1
f 62/2/1 60/2/1 61/2/1
f 63/1/1 62/1/1 61/1/1
f 64/1/1 62/1/1 63/1/1
f 67/31/1 66/31/1 65/31/1
f 68/31/1 66/31/1 67/31/1
f 69/30/1 68/30/1 67/30/1
f 70/30/1 68/30/1 69/30/1
f 71/29/1 70/29/1 69/29/1
f 72/29/1 70/29/1 71/29/1
f 73/28/1 72/28/1 71/28/1
f 74/28/1 72/28/1 73/28/1
f 75/27/1 74/27/1 73/27/1
f 76/27/1 74/27/1 75/27/1
f 77/26/1 76/26/1 75/26/1
f 78/26/1 76/26/1 77/26/1
f 79/25/1 78/25/1 77/25/1
f 80/25/1 78/25/1 79/25/1
f 81/24/1 80/24/1 79/24/1
f 82/24/1 80/24/1 81/24/1
f 83/23/1 82/23/1 81/23/1
f 84/23/1 82/23/1 83/23/1
f 85/22/1 84/22/1 83/22/1
f 86/22/1 84/22/1 85/22/1
f 87/21/1 86/21/1 85/21/1
f 88/21/1 86/21/1 87/21/1
f 89/20/1 88/20/1 87/20/1
f 90/20/1 88/20/1 89/20/1
f 91/19/1 90/19/1 89/19/1
f 92/19/1 90/19/1 91/19/1
f 93/18/1 92/18/1 91/18/1
f 94/18/1 92/18/1 93/18/1
f 95/17/1 94/17/1 93/17/1
f 96/17/1 94/17/1 95/17/1
f 97/16/1 96/16/1 95/16/1
f 98/16/1 96/16/1 97/16/1
f 99/15/1 98/15/1 97/15/1
f 100/15/1 98/15/1 99/15/1
f 101/14/1 100/14/1 99/14/1
f 102/14/1 100/14/1 101/14/1
f 103/13/1 102/13/1 101/13/1
f 104/13/1 102/13/1 103/13/1
f 105/12/1 104/12/1 103/12/1
f 106/12/1 104/12/1 105/12/1
f 107/11/1 106/11/1 105/11/1
f 108/11/1 106/11/1 107/11/1
f 109/10/1 108/10/1 107/10/1
f 110/10/1 108/10/1 109/10/1
f 111/9/1 110/9/1 109/9/1
f 112/9/1 110/9/1 111/9/1
f 113/8/1 112/8/1 111/8/1
f 114/8/1 112/8/1 113/8/1
f 115/7/1 114/7/1 113/7/1
f 116/7/1 114/7/1 115/7/1
f 117/6/1 116/6/1 115/6/1
f 118/6/1 116/6/1 117/6/1
f 119/5/1 118/5/1 117/5/1
f 120/5/1 118/5/1 119/5/1
f 121/4/1 120/4/1 119/4/1
f 122/4/1 120/4/1 121/4/1
f 123/3/1 122/3/1 121/3/1
f 124/3/1 122/3/1 123/3/1
f 125/2/1 124/2/1 123/2/1
f 126/2/1 124/2/1 125/2/1
f 127/1/1 126/1/1 125/1/1
f 128/1/1 126/1/1 127/1/1
f 129/31/2 130/31/2 131/31/2
f 131/31/2 130/31/2 132/31/2
f 131/30/2 132/30/2 133/30/2
f 133/30/2 132/30/2 134/30/2
f 133/31/2 134/31/2 135/31/2
f 135/31/2 134/31/2 136/31/2
f 135/28/2 136/28/2 137/28/2
f 137/28/2 136/28/2 138/28/2
f 137/27/2 138/27/2 139/27/2
f 139/27/2 138/27/2 140/27/2
f 139/26/2 140/26/2 141/26/2
f 141/26/2 140/26/2 142/26/2
f 141/25/2 142/25/2 143/25/2
f 143/25/2 142/25/2 144/25/2
f 143/24/2 144/24/2 145/24/2
f 145/24/2 144/24/2 146/24/2
f 145/23/2 146/23/2 147/23/2
f 147/23/2 146/23/2 148/23/2
f 147/22/2 148/22/2 149/22/2
f 149/22/2 148/22/2 150/22/2
f 149/21/2 150/21/2 151/21/2
f 151/21/2 150/21/2 152/21/2
f 151/20/2 152/20/2 153/20/2
f 153/20/2 152/20/2 154/20/2
f 153/19/2 154/19/2 155/19/2
f 155/19/2 154/19/2 156/19/2
f 155/18/2 156/18/2 157/18/2
f 157/18/2 156/18/2 158/18/2
f 157/17/2 158/17/2 159/17/2
f 159/17/2 158/17/2 160/17/2
f 159/16/2 160/16/2 161/16/2
f 161/16/2 160/16/2 162/16/2
f 161/15/2 162/15/2 163/15/2
f 163/15/2 162/15/2 164/15/2
f 163/14/2 164/14/2 165/14/2
f 165/14/2 164/14/2 166/14/2
f 165/13/2 166/13/2 167/13/2
f 167/13/2 166/13/2 168/13/2
f 167/12/2 168/12/2 169/12/2
f 169/12/2 168/12/2 170/12/2
f 169/11/2 170/11/2 171/11/2
f 171/11/2 170/11/2 172/11/2
f 171/10/2 172/10/2 173/10/2
f 173/10/2 172/10/2 174/10/2
f 173/9/2 174/9/2 175/9/2
f 175/9/2 174/9/2 176/9/2
f 175/8/2 176/8/2 177/8/2
f 177/8/2 176/8/2 178/8/2
f 177/7/2 178/7/2 179/7/2
f 179/7/2 178/7/2 180/7/2
f 179/6/2 180/6/2 181/6/2
f 181/6/2 180/6/2 182/6/2
f 181/5/2 182/5/2 183/5/2
f 183/5/2 182/5/2 184/5/2
f 183/4/2 184/4/2 185/4/2
f 185/4/2 184/4/2 186/4/2
f 185/3/2 186/3/2 187/3/2
f 187/3/2 186/3/2 188/3/2
f 187/2/2 188/2/2 189/2/2
f 189/2/2 188/2/2 190/2/2
f 189/1/2 190/1/2 191/1/2
f 191/1/2 190/1/2 192/1/2
f 193/31/2 194/31/2 195/31/2
f 195/31/2 194/31/2 196/31/2
f 195/30/2 196/30/2 197/30/2
f 197/30/2 196/30/2 198/30/2
f 197/29/2 198/29/2 199/29/2
f 199/29/2 198/29/2 200/29/2
f 199/28/2 200/28/2 201/28/2
f 201/28/2 200/28/2 202/28/2
f 201/27/2 202/27/2 203/27/2
f 203/27/2 202/27/2 204/27/2
f 203/26/2 204/26/2 205/26/2
f 205/26/2 204/26/2 206/26/2
f 205/25/2 206/25/2 207/25/2
f 207/25/2 206/25/2 208/25/2
f 207/24/2 208/24/2 209/24/2
f 209/24/2 208/24/2 210/24/2
f 209/23/2 210/23/2 211/23/2
f 211/23/2 210/23/2 212/23/2
f 211/22/2 212/22/2 213/22/2
f 213/22/2 212/22/2 214/22/2
f 213/21/2 214/21/2 215/21/2
f 215/21/2 214/21/2 216/21/2
f 215/20/2 216/20/2 217/20/2
f 217/20/2 216/20/2 218/20/2
f 217/19/2 218/19/2 219/19/2
f 219/19/2 218/19/2 220/19/2
f 219/18/2 220/18/2 221/18/2
f 221/18/2 220/18/2 222/18/2
f 221/17/2 222/17/2 223/17/2
f 223/17/2 222/17/2 224/17/2
f 223/16/2 224/16/2 225/16/2
f 225/16/2 224/16/2 226/16/2
f 225/15/2 226/15/2 227/15/2
f 227/15/2 226/15/2 228/15/2
f 227/14/2 228/14/2 229/14/2
f 229/14/2 228/14/2 230/14/2
f 229/13/2 230/13/2 231/13/2
f 231/13/2 230/13/2 232/13/2
f 231/12/2 232/12/2 233/12/2
f 233/12/2 232/12/2 234/12/2
f 233/11/2 234/11/2 235/11/2
f 235/11/2 234/11/2 236/11/2
f 235/10/2 236/10/2 237/10/2
f 237/10/2 236/10/2 238/10/2
f 237/9/2 238/9/2 239/9/2
f 239/9/2 238/9/2 240/9/2
f 239/8/2 240/8/2 241/8/2
f 241/8/2 240/8/2 242/8/2
f 241/7/2 242/7/2 243/7/2
f 243/7/2 242/7/2 244/7/2
f 243/6/2 244/6/2 245/6/2
f 245/6/2 244/6/2 246/6/2
f 245/5/2 246/5/2 247/5/2
f 247/5/2 246/5/2 248/5/2
f 247/4/2 248/4/2 249/4/2
f 249/4/2 248/4/2 250/4/2
f 249/3/2 250/3/2 251/3/2
f 251/3/2 250/3/2 252/3/2
f 251/2/2 252/2/2 253/2/2
f 253/2/2 252/2/2 254/2/2
f 253/1/2 254/1/2 255/1/2
f 255/1/2 254/1/2 256/1/2
f 289/30/3 259/30/3 258/30/3
f 289/31/3 260/31/3 259/31/3
f 290/28/3 261/28/3 260/28/3
f 290/31/3 260/31/3 289/31/3
f 291/31/3 258/31/3 257/31/3
f 292/30/3 289/30/3 258/30/3
f 292/31/3 258/31/3 291/31/3
f 293/29/3 290/29/3 289/29/3
f 293/30/3 289/30/3 292/30/3
f 294/28/3 261/28/3 290/28/3
f 294/29/3 290/29/3 293/29/3
f 295/27/3 262/27/3 261/27/3
f 295/28/3 261/28/3 294/28/3
f 296/26/3 263/26/3 262/26/3
f 296/27/3 262/27/3 295/27/3
f 297/25/3 264/25/3 263/25/3
f 297/26/3 263/26/3 296/26/3
f 298/24/3 265/24/3 264/24/3
f 298/25/3 264/25/3 297/25/3
f 299/23/3 266/23/3 265/23/3
f 299/24/3 265/24/3 298/24/3
f 300/22/3 267/22/3 266/22/3
f 300/23/3 266/23/3 299/23/3
f 301/21/3 268/21/3 267/21/3
f 301/22/3 267/22/3 300/22/3
f 302/20/3 269/20/3 268/20/3
f 302/21/3 268/21/3 301/21/3
f 303/19/3 270/19/3 269/19/3
f 303/20/3 269/20/3 302/20/3
f 304/18/3 271/18/3 270/18/3
f 304/19/3 270/19/3 303/19/3
f 305/17/3 272/17/3 271/17/3
f 305/18/3 271/18/3 304/18/3
f 306/16/3 273/16/3 272/16/3
f 306/17/3 272/17/3 305/17/3
f 307/15/3 274/15/3 273/15/3
f 307/16/3 273/16/3 306/16/3
f 308/14/3 275/14/3 274/14/3
f 308/15/3 274/15/3 307/15/3
f 309/13/3 276/13/3 275/13/3
f 309/14/3 275/14/3 308/14/3
f 310/12/3 277/12/3 276/12/3
f 310/13/3 276/13/3 309/13/3
f 311/11/3 278/11/3 277/11/3
f 311/12/3 277/12/3 310/12/3
f 312/10/3 279/10/3 278/10/3
f 312/11/3 278/11/3 311/11/3
f 313/9/3 280/9/3 279/9/3
f 313/10/3 279/10/3 312/10/3
f 314/8/3 281/8/3 280/8/3
f 314/9/3 280/9/3 313/9/3
f 315/7/3 282/7/3 281/7/3
f 315/8/3 281/8/3 314/8/3
f 316/6/3 283/6/3 282/6/3
f 316/7/3 282/7/3 315/7/3
f 317/5/3 284/5/3 283/5/3
f 317/6/3 283/6/3 316/6/3
f 318/4/3 285/4/3 284/4/3
f 318/5/3 284/5/3 317/5/3
f 319/3/3 286/3/3 285/3/3
f 319/4/3 285/4/3 318/4/3
f 320/2/3 287/2/3 286/2/3
f 320/3/3 286/3/3 319/3/3
f 321/1/3 288/1/3 287/1/3
f 321/2/3 287/2/3 320/2/3
f 322/1/3 288/1/3 321/1/3
f 355/31/3 324/31/3 323/31/3
f 356/30/3 325/30/3 324/30/3
f 356/31/3 324/31/3 355/31/3
f 357/29/3 326/29/3 325/29/3
f 357/30/3 325/30/3 356/30/3
f 358/28/3 327/28/3 326/28/3
f 358/29/3 326/29/3 357/29/3
f 359/27/3 328/27/3 327/27/3
f 359/28/3 327/28/3 358/28/3
f 360/26/3 329/26/3 328/26/3
f 360/27/3 328/27/3 359/27/3
f 361/25/3 330/25/3 329/25/3
f 361/26/3 329/26/3 360/26/3
f 362/24/3 331/24/3 330/24/3
f 362/25/3 330/25/3 361/25/3
f 363/23/3 332/23/3 331/23/3
f 363/24/3 331/24/3 362/24/3
f 364/22/3 333/22/3 332/22/3
f 364/23/3 332/23/3 363/23/3
f 365/21/3 334/21/3 333/21/3
f 365/22/3 333/22/3 364/22/3
f 366/20/3 335/20/3 334/20/3
f 366/21/3 334/21/3 365/21/3
f 367/19/3 336/19/3 335/19/3
f 367/20/3 335/20/3 366/20/3
f 368/18/3 337/18/3 336/18/3
f 368/19/3 336/19/3 367/19/3
f 369/17/3 338/17/3 337/17/3
f 369/18/3 337/18/3 368/18/3
f 370/16/3 339/16/3 338/16/3
f 370/17/3 338/17/3 369/17/3
f 371/15/3 340/15/3 339/15/3
f 371/16/3 339/16/3 370/16/3
f 372/14/3 341/14/3 340/14/3
f 372/15/3 340/15/3 371/15/3
f 373/13/3 342/13/3 341/13/3
f 373/14/3 341/14/3 372/14/3
f 374/12/3 343/12/3 342/12/3
f 374/13/3 342/13/3 373/13/3
f 375/11/3 344/11/3 343/11/3
f 375/12/3 343/12/3 374/12/3
f 376/10/3 345/10/3 344/10/3
f 376/11/3 344/11/3 375/11/3
f 377/9/3 346/9/3 345/9/3
f 377/10/3 345/10/3 376/10/3
f 378/8/3 347/8/3 346/8/3
f 378/9/3 346/9/3 377/9/3
f 379/7/3 348/7/3 347/7/3
f 379/8/3 347/8/3 378/8/3
f 380/6/3 349/6/3 348/6/3
f 380/7/3 348/7/3 379/7/3
f 381/5/3 350/5/3 349/5/3
f 381/6/3 349/6/3 380/6/3
f 382/4/3 351/4/3 350/4/3
f 382/5/3 350/5/3 381/5/3
f 383/3/3 352/3/3 351/3/3
f 383/4/3 351/4/3 382/4/3
f 384/2/3 353/2/3 352/2/3
f 384/3/3 352/3/3 383/3/3
f 385/1/3 354/1/3 353/1/3
f 385/2/3 353/2/3 384/2/3
f 386/1/3 354/1/3 385/1/3
f 387/31/4 388/31/4 419/31/4
f 388/30/4 389/30/4 420/30/4
f 419/31/4 388/31/4 420/31/4
f 389/29/4 390/29/4 421/29/4
f 420/30/4 389/30/4 421/30/4
f 390/28/4 391/28/4 422/28/4
f 421/29/4 390/29/4 422/29/4
f 391/27/4 392/27/4 423/27/4
f 422/28/4 391/28/4 423/28/4
f 392/26/4 393/26/4 424/26/4
f 423/27/4 392/27/4 424/27/4
f 393/25/4 394/25/4 425/25/4
f 424/26/4 393/26/4 425/26/4
f 394/24/4 395/24/4 426/24/4
f 425/25/4 394/25/4 426/25/4
f 395/23/4 396/23/4 427/23/4
f 426/24/4 395/24/4 427/24/4
f 396/22/4 397/22/4 428/22/4
f 427/23/4 396/23/4 428/23/4
f 397/21/4 398/21/4 429/21/4
f 428/22/4 397/22/4 429/22/4
f 398/20/4 399/20/4 430/20/4
f 429/21/4 398/21/4 430/21/4
f 399/19/4 400/19/4 431/19/4
f 430/20/4 399/20/4 431/20/4
f 400/18/4 401/18/4 432/18/4
f 431/19/4 400/19/4 432/19/4
f 401/17/4 402/17/4 433/17/4
f 432/18/4 401/18/4 433/18/4
f 402/16/4 403/16/4 434/16/4
f 433/17/4 402/17/4 434/17/4
f 403/15/4 404/15/4 435/15/4
f 434/16/4 403/16/4 435/16/4
f 404/14/4 405/14/4 436/14/4
f 435/15/4 404/15/4 436/15/4
f 405/13/4 406/13/4 437/13/4
f 436/14/4 405/14/4 437/14/4
f 406/12/4 407/12/4 438/12/4
f 437/13/4 406/13/4 438/13/4
f 407/11/4 408/11/4 439/11/4
f 438/12/4 407/12/4 439/12/4
f 408/10/4 409/10/4 440/10/4
f 439/11/4 408/11/4 440/11/4
f 409/9/4 410/9/4 441/9/4
f 440/10/4 409/10/4 441/10/4
f 410/8/4 411/8/4 442/8/4
f 441/9/4 410/9/4 442/9/4
f 411/7/4 412/7/4 443/7/4
f 442/8/4 411/8/4 443/8/4
f 412/6/4 413/6/4 444/6/4
f 443/7/4 412/7/4 444/7/4
f 413/5/4 414/5/4 445/5/4
f 444/6/4 413/6/4 445/6/4
f 414/4/4 415/4/4 446/4/4
f 445/5/4 414/5/4 446/5/4
f 415/3/4 416/3/4 447/3/4
f 446/4/4 415/4/4 447/4/4
f 416/2/4 417/2/4 448/2/4
f 447/3/4 416/3/4 448/3/4
f 417/1/4 418/1/4 449/1/4
f 448/2/4 417/2/4 449/2/4
f 449/1/4 418/1/4 450/1/4
f 452/30/4 453/30/4 483/30/4
f 453/31/4 454/31/4 483/31/4
f 454/28/4 455/28/4 484/28/4
f 483/31/4 454/31/4 484/31/4
f 451/31/4 452/31/4 485/31/4
f 452/30/4 483/30/4 486/30/4
f 485/31/4 452/31/4 486/31/4
f 483/29/4 484/29/4 487/29/4
f 486/30/4 483/30/4 487/30/4
f 484/28/4 455/28/4 488/28/4
f 487/29/4 484/29/4 488/29/4
f 455/27/4 456/27/4 489/27/4
f 488/28/4 455/28/4 489/28/4
f 456/26/4 457/26/4 490/26/4
f 489/27/4 456/27/4 490/27/4
f 457/25/4 458/25/4 491/25/4
f 490/26/4 457/26/4 491/26/4
f 458/24/4 459/24/4 492/24/4
f 491/25/4 458/25/4 492/25/4
f 459/23/4 460/23/4 493/23/4
f 492/24/4 459/24/4 493/24/4
f 460/22/4 461/22/4 494/22/4
f 493/23/4 460/23/4 494/23/4
f 461/21/4 462/21/4 495/21/4
f 494/22/4 461/22/4 495/22/4
f 462/20/4 463/20/4 496/20/4
f 495/21/4 462/21/4 496/21/4
f 463/19/4 464/19/4 497/19/4
f 496/20/4 463/20/4 497/20/4
f 464/18/4 465/18/4 498/18/4
f 497/19/4 464/19/4 498/19/4
f 465/17/4 466/17/4 499/17/4
f 498/18/4 465/18/4 499/18/4
f 466/16/4 467/16/4 500/16/4
f 499/17/4 466/17/4 500/17/4
f 467/15/4 468/15/4 501/15/4
f 500/16/4 467/16/4 501/16/4
f 468/14/4 469/14/4 502/14/4
f 501/15/4 468/15/4 502/15/4
f 469/13/4 470/13/4 503/13/4
f 502/14/4 469/14/4 503/14/4
f 470/12/4 471/12/4 504/12/4
f 503/13/4 470/13/4 504/13/4
f 471/11/4 472/11/4 505/11/4
f 504/12/4 471/12/4 505/12/4
f 472/10/4 473/10/4 506/10/4
f 505/11/4 472/11/4 506/11/4
f 473/9/4 474/9/4 507/9/4
f 506/10/4 473/10/4 507/10/4
f 474/8/4 475/8/4 508/8/4
f 507/9/4 474/9/4 508/9/4
f 475/7/4 476/7/4 509/7/4
f 508/8/4 475/8/4 509/8/4
f 476/6/4 477/6/4 510/6/4
f 509/7/4 476/7/4 510/7/4
f 477/5/4 478/5/4 511/5/4
f 510/6/4 477/6/4 511/6/4
f 478/4/4 479/4/4 512/4/4
f 511/5/4 478/5/4 512/5/4
f 479/3/4 480/3/4 513/3/4
f 512/4/4 479/4/4 513/4/4
f 480/2/4 481/2/4 514/2/4
f 513/3/4 480/3/4 514/3/4
f 481/1/4 482/1/4 515/1/4
f 514/2/4 481/2/4 515/2/4
f 515/1/4 482/1/4 516/1/4
f 519/31/5 518/31/5 517/31/5
f 520/31/5 518/31/5 519/31/5
f 521/31/5 519/31/5 517/31/5
f 522/31/5 518/31/5 520/31/5
f 523/31/5 521/31/5 517/31/5
f 523/31/5 522/31/5 521/31/5
f 524/31/5 518/31/5 522/31/5
f 524/31/5 522/31/5 523/31/5
f 527/1/5 526/1/5 525/1/5
f 528/1/5 526/1/5 527/1/5
f 529/1/6 530/1/6 531/1/6
f 531/1/6 530/1/6 532/1/6
