# MagicaVoxel @ Ephtracy

# group
g weaponsshields-8

# material
mtllib weaponsshields-8.mtl
usemtl palette

# normals
vn -1 0 0
vn 1 0 0
vn 0 0 1
vn 0 0 -1
vn 0 -1 0
vn 0 1 0

# texcoords
vt 0.0878906 0.5
vt 0.0917969 0.5

# verts
v -0.5 0 1.5
v -0.5 0 -1.5
v -0.5 1 1.5
v -0.5 1 0.5
v -0.5 1 -0.5
v -0.5 1 -1.5
v -0.5 6 2.5
v -0.5 6 0.5
v -0.5 6 -0.5
v -0.5 6 -2.5
v -0.5 7 2.5
v -0.5 7 1.5
v -0.5 7 0.5
v -0.5 7 -0.5
v -0.5 7 -1.5
v -0.5 7 -2.5
v -0.5 13 0.5
v -0.5 13 -0.5
v -0.5 21 1.5
v -0.5 21 0.5
v -0.5 21 -0.5
v -0.5 21 -1.5
v -0.5 22 0.5
v -0.5 22 -0.5
v 0.5 0 1.5
v 0.5 0 -1.5
v 0.5 1 1.5
v 0.5 1 0.5
v 0.5 1 -0.5
v 0.5 1 -1.5
v 0.5 6 2.5
v 0.5 6 0.5
v 0.5 6 -0.5
v 0.5 6 -2.5
v 0.5 7 2.5
v 0.5 7 1.5
v 0.5 7 0.5
v 0.5 7 -0.5
v 0.5 7 -1.5
v 0.5 7 -2.5
v 0.5 13 0.5
v 0.5 13 -0.5
v 0.5 21 1.5
v 0.5 21 0.5
v 0.5 21 -0.5
v 0.5 21 -1.5
v 0.5 22 0.5
v 0.5 22 -0.5
v -0.5 6 2.5
v -0.5 7 2.5
v 0.5 6 2.5
v 0.5 7 2.5
v -0.5 0 1.5
v -0.5 1 1.5
v -0.5 7 1.5
v -0.5 21 1.5
v 0.5 0 1.5
v 0.5 1 1.5
v 0.5 7 1.5
v 0.5 21 1.5
v -0.5 1 0.5
v -0.5 6 0.5
v -0.5 21 0.5
v -0.5 22 0.5
v 0.5 1 0.5
v 0.5 6 0.5
v 0.5 21 0.5
v 0.5 22 0.5
v -0.5 1 -0.5
v -0.5 6 -0.5
v -0.5 21 -0.5
v -0.5 22 -0.5
v 0.5 1 -0.5
v 0.5 6 -0.5
v 0.5 21 -0.5
v 0.5 22 -0.5
v -0.5 0 -1.5
v -0.5 1 -1.5
v -0.5 7 -1.5
v -0.5 21 -1.5
v 0.5 0 -1.5
v 0.5 1 -1.5
v 0.5 7 -1.5
v 0.5 21 -1.5
v -0.5 6 -2.5
v -0.5 7 -2.5
v 0.5 6 -2.5
v 0.5 7 -2.5
v -0.5 0 1.5
v 0.5 0 1.5
v -0.5 0 -1.5
v 0.5 0 -1.5
v -0.5 6 2.5
v 0.5 6 2.5
v -0.5 6 0.5
v 0.5 6 0.5
v -0.5 6 -0.5
v 0.5 6 -0.5
v -0.5 6 -2.5
v 0.5 6 -2.5
v -0.5 1 1.5
v 0.5 1 1.5
v -0.5 1 0.5
v 0.5 1 0.5
v -0.5 1 -0.5
v 0.5 1 -0.5
v -0.5 1 -1.5
v 0.5 1 -1.5
v -0.5 7 2.5
v 0.5 7 2.5
v -0.5 7 1.5
v 0.5 7 1.5
v -0.5 7 -1.5
v 0.5 7 -1.5
v -0.5 7 -2.5
v 0.5 7 -2.5
v -0.5 21 1.5
v 0.5 21 1.5
v -0.5 21 0.5
v 0.5 21 0.5
v -0.5 21 -0.5
v 0.5 21 -0.5
v -0.5 21 -1.5
v 0.5 21 -1.5
v -0.5 22 0.5
v 0.5 22 0.5
v -0.5 22 -0.5
v 0.5 22 -0.5

# faces
f 3/2/1 2/2/1 1/2/1
f 4/2/1 2/2/1 3/2/1
f 5/2/1 2/2/1 4/2/1
f 6/2/1 2/2/1 5/2/1
f 8/1/1 5/1/1 4/1/1
f 9/1/1 5/1/1 8/1/1
f 11/2/1 9/2/1 8/2/1
f 11/2/1 10/2/1 9/2/1
f 11/2/1 8/2/1 7/2/1
f 12/2/1 10/2/1 11/2/1
f 13/2/1 10/2/1 12/2/1
f 14/2/1 10/2/1 13/2/1
f 15/2/1 10/2/1 14/2/1
f 16/2/1 10/2/1 15/2/1
f 17/1/1 13/1/1 12/1/1
f 17/2/1 14/2/1 13/2/1
f 18/1/1 15/1/1 14/1/1
f 18/2/1 14/2/1 17/2/1
f 19/1/1 17/1/1 12/1/1
f 19/1/1 18/1/1 17/1/1
f 20/1/1 18/1/1 19/1/1
f 21/1/1 15/1/1 18/1/1
f 21/1/1 18/1/1 20/1/1
f 22/1/1 15/1/1 21/1/1
f 23/1/1 21/1/1 20/1/1
f 24/1/1 21/1/1 23/1/1
f 25/2/2 26/2/2 27/2/2
f 27/2/2 26/2/2 28/2/2
f 28/2/2 26/2/2 29/2/2
f 29/2/2 26/2/2 30/2/2
f 28/1/2 29/1/2 32/1/2
f 32/1/2 29/1/2 33/1/2
f 32/2/2 33/2/2 35/2/2
f 33/2/2 34/2/2 35/2/2
f 31/2/2 32/2/2 35/2/2
f 35/2/2 34/2/2 36/2/2
f 36/2/2 34/2/2 37/2/2
f 37/2/2 34/2/2 38/2/2
f 38/2/2 34/2/2 39/2/2
f 39/2/2 34/2/2 40/2/2
f 36/1/2 37/1/2 41/1/2
f 37/2/2 38/2/2 41/2/2
f 38/1/2 39/1/2 42/1/2
f 41/2/2 38/2/2 42/2/2
f 36/1/2 41/1/2 43/1/2
f 41/1/2 42/1/2 43/1/2
f 43/1/2 42/1/2 44/1/2
f 42/1/2 39/1/2 45/1/2
f 44/1/2 42/1/2 45/1/2
f 45/1/2 39/1/2 46/1/2
f 44/1/2 45/1/2 47/1/2
f 47/1/2 45/1/2 48/1/2
f 51/2/3 50/2/3 49/2/3
f 52/2/3 50/2/3 51/2/3
f 57/2/3 54/2/3 53/2/3
f 58/2/3 54/2/3 57/2/3
f 59/1/3 56/1/3 55/1/3
f 60/1/3 56/1/3 59/1/3
f 65/1/3 62/1/3 61/1/3
f 66/1/3 62/1/3 65/1/3
f 67/1/3 64/1/3 63/1/3
f 68/1/3 64/1/3 67/1/3
f 69/1/4 70/1/4 73/1/4
f 73/1/4 70/1/4 74/1/4
f 71/1/4 72/1/4 75/1/4
f 75/1/4 72/1/4 76/1/4
f 77/2/4 78/2/4 81/2/4
f 81/2/4 78/2/4 82/2/4
f 79/1/4 80/1/4 83/1/4
f 83/1/4 80/1/4 84/1/4
f 85/2/4 86/2/4 87/2/4
f 87/2/4 86/2/4 88/2/4
f 91/2/5 90/2/5 89/2/5
f 92/2/5 90/2/5 91/2/5
f 95/2/5 94/2/5 93/2/5
f 96/2/5 94/2/5 95/2/5
f 99/2/5 98/2/5 97/2/5
f 100/2/5 98/2/5 99/2/5
f 101/2/6 102/2/6 103/2/6
f 103/2/6 102/2/6 104/2/6
f 105/2/6 106/2/6 107/2/6
f 107/2/6 106/2/6 108/2/6
f 109/2/6 110/2/6 111/2/6
f 111/2/6 110/2/6 112/2/6
f 113/2/6 114/2/6 115/2/6
f 115/2/6 114/2/6 116/2/6
f 117/1/6 118/1/6 119/1/6
f 119/1/6 118/1/6 120/1/6
f 121/1/6 122/1/6 123/1/6
f 123/1/6 122/1/6 124/1/6
f 125/1/6 126/1/6 127/1/6
f 127/1/6 126/1/6 128/1/6
