# MagicaVoxel @ Ephtracy

# group
g weaponsshields-10

# material
mtllib weaponsshields-10.mtl
usemtl palette

# normals
vn -1 0 0
vn 1 0 0
vn 0 0 1
vn 0 0 -1
vn 0 -1 0
vn 0 1 0

# texcoords
vt 0.0878906 0.5
vt 0.0917969 0.5
vt 0.119141 0.5

# verts
v -1 0 1
v -1 0 -1
v -1 1 3
v -1 1 1
v -1 1 -1
v -1 1 -3
v -1 2 2
v -1 2 1
v -1 2 -1
v -1 2 -2
v -1 3 3
v -1 3 2
v -1 3 -2
v -1 3 -3
v -1 13 5
v -1 13 1
v -1 13 -1
v -1 13 -5
v -1 14 5
v -1 14 3
v -1 14 2
v -1 14 1
v -1 14 -1
v -1 14 -2
v -1 14 -3
v -1 14 -5
v -1 26 1
v -1 26 -1
v -1 29 3
v -1 29 2
v -1 29 1
v -1 29 -1
v -1 29 -2
v -1 29 -3
v -1 46 2
v -1 46 1
v -1 46 -1
v -1 46 -2
v -1 56 1
v -1 56 -1
v 1 0 1
v 1 0 -1
v 1 1 3
v 1 1 1
v 1 1 -1
v 1 1 -3
v 1 2 2
v 1 2 1
v 1 2 -1
v 1 2 -2
v 1 3 3
v 1 3 2
v 1 3 -2
v 1 3 -3
v 1 13 5
v 1 13 1
v 1 13 -1
v 1 13 -5
v 1 14 5
v 1 14 3
v 1 14 2
v 1 14 1
v 1 14 -1
v 1 14 -2
v 1 14 -3
v 1 14 -5
v 1 26 1
v 1 26 -1
v 1 29 3
v 1 29 2
v 1 29 1
v 1 29 -1
v 1 29 -2
v 1 29 -3
v 1 46 2
v 1 46 1
v 1 46 -1
v 1 46 -2
v 1 56 1
v 1 56 -1
v -1 13 5
v -1 14 5
v 1 13 5
v 1 14 5
v -1 1 3
v -1 3 3
v -1 14 3
v -1 29 3
v 1 1 3
v 1 3 3
v 1 14 3
v 1 29 3
v -1 29 2
v -1 46 2
v 1 29 2
v 1 46 2
v -1 0 1
v -1 1 1
v -1 2 1
v -1 13 1
v -1 46 1
v -1 56 1
v 1 0 1
v 1 1 1
v 1 2 1
v 1 13 1
v 1 46 1
v 1 56 1
v -1 2 -2
v -1 3 -2
v 1 2 -2
v 1 3 -2
v -1 2 2
v -1 3 2
v 1 2 2
v 1 3 2
v -1 0 -1
v -1 1 -1
v -1 2 -1
v -1 13 -1
v -1 46 -1
v -1 56 -1
v 1 0 -1
v 1 1 -1
v 1 2 -1
v 1 13 -1
v 1 46 -1
v 1 56 -1
v -1 29 -2
v -1 46 -2
v 1 29 -2
v 1 46 -2
v -1 1 -3
v -1 3 -3
v -1 14 -3
v -1 29 -3
v 1 1 -3
v 1 3 -3
v 1 14 -3
v 1 29 -3
v -1 13 -5
v -1 14 -5
v 1 13 -5
v 1 14 -5
v -1 0 1
v 1 0 1
v -1 0 -1
v 1 0 -1
v -1 1 3
v 1 1 3
v -1 1 1
v 1 1 1
v -1 1 -1
v 1 1 -1
v -1 1 -3
v 1 1 -3
v -1 13 5
v 1 13 5
v -1 13 1
v 1 13 1
v -1 13 -1
v 1 13 -1
v -1 13 -5
v 1 13 -5
v -1 2 2
v 1 2 2
v -1 2 1
v 1 2 1
v -1 2 -1
v 1 2 -1
v -1 2 -2
v 1 2 -2
v -1 3 3
v 1 3 3
v -1 3 2
v 1 3 2
v -1 3 -2
v 1 3 -2
v -1 3 -3
v 1 3 -3
v -1 14 5
v 1 14 5
v -1 14 3
v 1 14 3
v -1 14 -3
v 1 14 -3
v -1 14 -5
v 1 14 -5
v -1 29 3
v 1 29 3
v -1 29 2
v 1 29 2
v -1 29 -2
v 1 29 -2
v -1 29 -3
v 1 29 -3
v -1 46 2
v 1 46 2
v -1 46 1
v 1 46 1
v -1 46 -1
v 1 46 -1
v -1 46 -2
v 1 46 -2
v -1 56 1
v 1 56 1
v -1 56 -1
v 1 56 -1

# faces
f 4/2/1 2/2/1 1/2/1
f 5/2/1 2/2/1 4/2/1
f 7/2/1 4/2/1 3/2/1
f 7/2/1 6/2/1 5/2/1
f 7/2/1 5/2/1 4/2/1
f 8/2/1 6/2/1 7/2/1
f 9/2/1 6/2/1 8/2/1
f 10/2/1 6/2/1 9/2/1
f 11/2/1 7/2/1 3/2/1
f 12/2/1 7/2/1 11/2/1
f 13/2/1 6/2/1 10/2/1
f 14/2/1 6/2/1 13/2/1
f 16/1/1 9/1/1 8/1/1
f 17/1/1 9/1/1 16/1/1
f 19/2/1 17/2/1 16/2/1
f 19/2/1 18/2/1 17/2/1
f 19/2/1 16/2/1 15/2/1
f 20/2/1 18/2/1 19/2/1
f 21/2/1 18/2/1 20/2/1
f 22/2/1 18/2/1 21/2/1
f 23/2/1 18/2/1 22/2/1
f 24/2/1 18/2/1 23/2/1
f 25/2/1 18/2/1 24/2/1
f 26/2/1 18/2/1 25/2/1
f 27/1/1 22/1/1 21/1/1
f 27/2/1 23/2/1 22/2/1
f 28/1/1 24/1/1 23/1/1
f 28/2/1 23/2/1 27/2/1
f 29/3/1 21/3/1 20/3/1
f 30/1/1 27/1/1 21/1/1
f 30/3/1 21/3/1 29/3/1
f 30/1/1 28/1/1 27/1/1
f 31/1/1 28/1/1 30/1/1
f 32/1/1 24/1/1 28/1/1
f 32/1/1 28/1/1 31/1/1
f 33/3/1 25/3/1 24/3/1
f 33/1/1 24/1/1 32/1/1
f 34/3/1 25/3/1 33/3/1
f 35/3/1 31/3/1 30/3/1
f 36/1/1 32/1/1 31/1/1
f 36/3/1 31/3/1 35/3/1
f 37/3/1 33/3/1 32/3/1
f 37/1/1 32/1/1 36/1/1
f 38/3/1 33/3/1 37/3/1
f 39/3/1 37/3/1 36/3/1
f 40/3/1 37/3/1 39/3/1
f 41/2/2 42/2/2 44/2/2
f 44/2/2 42/2/2 45/2/2
f 43/2/2 44/2/2 47/2/2
f 45/2/2 46/2/2 47/2/2
f 44/2/2 45/2/2 47/2/2
f 47/2/2 46/2/2 48/2/2
f 48/2/2 46/2/2 49/2/2
f 49/2/2 46/2/2 50/2/2
f 43/2/2 47/2/2 51/2/2
f 51/2/2 47/2/2 52/2/2
f 50/2/2 46/2/2 53/2/2
f 53/2/2 46/2/2 54/2/2
f 48/1/2 49/1/2 56/1/2
f 56/1/2 49/1/2 57/1/2
f 56/2/2 57/2/2 59/2/2
f 57/2/2 58/2/2 59/2/2
f 55/2/2 56/2/2 59/2/2
f 59/2/2 58/2/2 60/2/2
f 60/2/2 58/2/2 61/2/2
f 61/2/2 58/2/2 62/2/2
f 62/2/2 58/2/2 63/2/2
f 63/2/2 58/2/2 64/2/2
f 64/2/2 58/2/2 65/2/2
f 65/2/2 58/2/2 66/2/2
f 61/1/2 62/1/2 67/1/2
f 62/2/2 63/2/2 67/2/2
f 63/1/2 64/1/2 68/1/2
f 67/2/2 63/2/2 68/2/2
f 60/3/2 61/3/2 69/3/2
f 61/1/2 67/1/2 70/1/2
f 69/3/2 61/3/2 70/3/2
f 67/1/2 68/1/2 70/1/2
f 70/1/2 68/1/2 71/1/2
f 68/1/2 64/1/2 72/1/2
f 71/1/2 68/1/2 72/1/2
f 64/3/2 65/3/2 73/3/2
f 72/1/2 64/1/2 73/1/2
f 73/3/2 65/3/2 74/3/2
f 70/3/2 71/3/2 75/3/2
f 71/1/2 72/1/2 76/1/2
f 75/3/2 71/3/2 76/3/2
f 72/3/2 73/3/2 77/3/2
f 76/1/2 72/1/2 77/1/2
f 77/3/2 73/3/2 78/3/2
f 76/3/2 77/3/2 79/3/2
f 79/3/2 77/3/2 80/3/2
f 83/2/3 82/2/3 81/2/3
f 84/2/3 82/2/3 83/2/3
f 89/2/3 86/2/3 85/2/3
f 90/2/3 86/2/3 89/2/3
f 91/3/3 88/3/3 87/3/3
f 92/3/3 88/3/3 91/3/3
f 95/3/3 94/3/3 93/3/3
f 96/3/3 94/3/3 95/3/3
f 103/2/3 98/2/3 97/2/3
f 104/2/3 98/2/3 103/2/3
f 105/1/3 100/1/3 99/1/3
f 106/1/3 100/1/3 105/1/3
f 107/3/3 102/3/3 101/3/3
f 108/3/3 102/3/3 107/3/3
f 111/2/3 110/2/3 109/2/3
f 112/2/3 110/2/3 111/2/3
f 113/2/4 114/2/4 115/2/4
f 115/2/4 114/2/4 116/2/4
f 117/2/4 118/2/4 123/2/4
f 123/2/4 118/2/4 124/2/4
f 119/1/4 120/1/4 125/1/4
f 125/1/4 120/1/4 126/1/4
f 121/3/4 122/3/4 127/3/4
f 127/3/4 122/3/4 128/3/4
f 129/3/4 130/3/4 131/3/4
f 131/3/4 130/3/4 132/3/4
f 133/2/4 134/2/4 137/2/4
f 137/2/4 134/2/4 138/2/4
f 135/3/4 136/3/4 139/3/4
f 139/3/4 136/3/4 140/3/4
f 141/2/4 142/2/4 143/2/4
f 143/2/4 142/2/4 144/2/4
f 147/2/5 146/2/5 145/2/5
f 148/2/5 146/2/5 147/2/5
f 151/2/5 150/2/5 149/2/5
f 152/2/5 150/2/5 151/2/5
f 155/2/5 154/2/5 153/2/5
f 156/2/5 154/2/5 155/2/5
f 159/2/5 158/2/5 157/2/5
f 160/2/5 158/2/5 159/2/5
f 163/2/5 162/2/5 161/2/5
f 164/2/5 162/2/5 163/2/5
f 165/2/6 166/2/6 167/2/6
f 167/2/6 166/2/6 168/2/6
f 169/2/6 170/2/6 171/2/6
f 171/2/6 170/2/6 172/2/6
f 173/2/6 174/2/6 175/2/6
f 175/2/6 174/2/6 176/2/6
f 177/2/6 178/2/6 179/2/6
f 179/2/6 178/2/6 180/2/6
f 181/2/6 182/2/6 183/2/6
f 183/2/6 182/2/6 184/2/6
f 185/2/6 186/2/6 187/2/6
f 187/2/6 186/2/6 188/2/6
f 189/3/6 190/3/6 191/3/6
f 191/3/6 190/3/6 192/3/6
f 193/3/6 194/3/6 195/3/6
f 195/3/6 194/3/6 196/3/6
f 197/3/6 198/3/6 199/3/6
f 199/3/6 198/3/6 200/3/6
f 201/3/6 202/3/6 203/3/6
f 203/3/6 202/3/6 204/3/6
f 205/3/6 206/3/6 207/3/6
f 207/3/6 206/3/6 208/3/6
