# MagicaVoxel @ Ephtracy

# group
g weaponsshields-15

# material
mtllib weaponsshields-15.mtl
usemtl palette

# normals
vn -1 0 0
vn 1 0 0
vn 0 0 1
vn 0 0 -1
vn 0 -1 0
vn 0 1 0

# texcoords
vt 0.119141 0.5
vt 0.462891 0.5
vt 0.466797 0.5
vt 0.869141 0.5

# verts
v -2.5 2 -6
v -2.5 2 -7
v -2.5 2 -8
v -2.5 2 -9
v -2.5 3 -6
v -2.5 3 -7
v -2.5 3 -8
v -2.5 3 -9
v -1.5 2 -5
v -1.5 2 -6
v -1.5 2 -7
v -1.5 2 -8
v -1.5 3 -5
v -1.5 3 -6
v -1.5 3 -7
v -1.5 3 -8
v -0.5 0 7
v -0.5 0 6
v -0.5 0 -6
v -0.5 0 -7
v -0.5 0 -8
v -0.5 0 -9
v -0.5 1 8
v -0.5 1 7
v -0.5 1 -5
v -0.5 1 -6
v -0.5 1 -7
v -0.5 1 -8
v -0.5 1 -9
v -0.5 2 9
v -0.5 2 8
v -0.5 2 6
v -0.5 2 -5
v -0.5 2 -9
v -0.5 3 9
v -0.5 3 8
v -0.5 3 6
v -0.5 3 -5
v -0.5 3 -9
v -0.5 4 8
v -0.5 4 7
v -0.5 4 -5
v -0.5 4 -6
v -0.5 4 -7
v -0.5 4 -8
v -0.5 4 -9
v -0.5 5 7
v -0.5 5 6
v -0.5 5 -6
v -0.5 5 -7
v -0.5 5 -8
v -0.5 5 -9
v 0.5 2 -8
v 0.5 2 -9
v 0.5 3 -8
v 0.5 3 -9
v -0.5 2 -8
v -0.5 2 -9
v -0.5 3 -8
v -0.5 3 -9
v 0.5 0 7
v 0.5 0 6
v 0.5 0 -6
v 0.5 0 -7
v 0.5 0 -8
v 0.5 0 -9
v 0.5 1 8
v 0.5 1 7
v 0.5 1 -5
v 0.5 1 -6
v 0.5 1 -7
v 0.5 1 -8
v 0.5 1 -9
v 0.5 2 9
v 0.5 2 8
v 0.5 2 6
v 0.5 2 -5
v 0.5 2 -9
v 0.5 3 9
v 0.5 3 8
v 0.5 3 6
v 0.5 3 -5
v 0.5 3 -9
v 0.5 4 8
v 0.5 4 7
v 0.5 4 -5
v 0.5 4 -6
v 0.5 4 -7
v 0.5 4 -8
v 0.5 4 -9
v 0.5 5 7
v 0.5 5 6
v 0.5 5 -6
v 0.5 5 -7
v 0.5 5 -8
v 0.5 5 -9
v 1.5 2 -5
v 1.5 2 -6
v 1.5 2 -7
v 1.5 2 -8
v 1.5 3 -5
v 1.5 3 -6
v 1.5 3 -7
v 1.5 3 -8
v 2.5 2 -6
v 2.5 2 -7
v 2.5 2 -8
v 2.5 2 -9
v 2.5 3 -6
v 2.5 3 -7
v 2.5 3 -8
v 2.5 3 -9
v -0.5 2 9
v -0.5 3 9
v 0.5 2 9
v 0.5 3 9
v -0.5 1 8
v -0.5 2 8
v -0.5 3 8
v -0.5 4 8
v 0.5 1 8
v 0.5 2 8
v 0.5 3 8
v 0.5 4 8
v -0.5 0 7
v -0.5 1 7
v -0.5 4 7
v -0.5 5 7
v 0.5 0 7
v 0.5 1 7
v 0.5 4 7
v 0.5 5 7
v -1.5 2 -5
v -1.5 3 -5
v -0.5 1 -5
v -0.5 2 -5
v -0.5 3 -5
v -0.5 4 -5
v 0.5 1 -5
v 0.5 2 -5
v 0.5 3 -5
v 0.5 4 -5
v 1.5 2 -5
v 1.5 3 -5
v -2.5 2 -6
v -2.5 3 -6
v -1.5 2 -6
v -1.5 3 -6
v -0.5 0 -6
v -0.5 1 -6
v -0.5 4 -6
v -0.5 5 -6
v 0.5 0 -6
v 0.5 1 -6
v 0.5 4 -6
v 0.5 5 -6
v 1.5 2 -6
v 1.5 3 -6
v 2.5 2 -6
v 2.5 3 -6
v -2.5 2 -8
v -2.5 3 -8
v -1.5 2 -8
v -1.5 3 -8
v -0.5 0 -8
v -0.5 1 -8
v -0.5 4 -8
v -0.5 5 -8
v 0.5 0 -8
v 0.5 1 -8
v 0.5 4 -8
v 0.5 5 -8
v 1.5 2 -8
v 1.5 3 -8
v 2.5 2 -8
v 2.5 3 -8
v -0.5 0 6
v -0.5 2 6
v -0.5 3 6
v -0.5 5 6
v 0.5 0 6
v 0.5 2 6
v 0.5 3 6
v 0.5 5 6
v -2.5 2 -7
v -2.5 3 -7
v -1.5 2 -7
v -1.5 3 -7
v -0.5 0 -7
v -0.5 1 -7
v -0.5 4 -7
v -0.5 5 -7
v 0.5 0 -7
v 0.5 1 -7
v 0.5 4 -7
v 0.5 5 -7
v 1.5 2 -7
v 1.5 3 -7
v 2.5 2 -7
v 2.5 3 -7
v -0.5 2 -8
v -0.5 3 -8
v 0.5 2 -8
v 0.5 3 -8
v -2.5 2 -9
v -2.5 3 -9
v -1.5 2 -9
v -1.5 3 -9
v -0.5 0 -9
v -0.5 1 -9
v -0.5 2 -9
v -0.5 3 -9
v -0.5 4 -9
v -0.5 5 -9
v 0.5 0 -9
v 0.5 1 -9
v 0.5 2 -9
v 0.5 3 -9
v 0.5 4 -9
v 0.5 5 -9
v 1.5 2 -9
v 1.5 3 -9
v 2.5 2 -9
v 2.5 3 -9
v -0.5 0 7
v 0.5 0 7
v -0.5 0 6
v 0.5 0 6
v -0.5 0 -6
v 0.5 0 -6
v -0.5 0 -7
v 0.5 0 -7
v -0.5 0 -8
v 0.5 0 -8
v -0.5 0 -9
v 0.5 0 -9
v -0.5 1 8
v 0.5 1 8
v -0.5 1 7
v 0.5 1 7
v -0.5 1 -5
v 0.5 1 -5
v -0.5 1 -6
v 0.5 1 -6
v -0.5 1 -7
v 0.5 1 -7
v -0.5 1 -8
v 0.5 1 -8
v -0.5 2 9
v 0.5 2 9
v -0.5 2 8
v 0.5 2 8
v -0.5 2 6
v 0.5 2 6
v -1.5 2 -5
v -0.5 2 -5
v 0.5 2 -5
v 1.5 2 -5
v -2.5 2 -6
v -1.5 2 -6
v 1.5 2 -6
v 2.5 2 -6
v -2.5 2 -7
v -1.5 2 -7
v 1.5 2 -7
v 2.5 2 -7
v -2.5 2 -8
v -1.5 2 -8
v 1.5 2 -8
v 2.5 2 -8
v -2.5 2 -9
v -1.5 2 -9
v -0.5 2 -9
v 0.5 2 -9
v 1.5 2 -9
v 2.5 2 -9
v -0.5 3 -8
v 0.5 3 -8
v -0.5 3 -9
v 0.5 3 -9
v -0.5 2 -8
v 0.5 2 -8
v -0.5 2 -9
v 0.5 2 -9
v -0.5 3 9
v 0.5 3 9
v -0.5 3 8
v 0.5 3 8
v -0.5 3 6
v 0.5 3 6
v -1.5 3 -5
v -0.5 3 -5
v 0.5 3 -5
v 1.5 3 -5
v -2.5 3 -6
v -1.5 3 -6
v 1.5 3 -6
v 2.5 3 -6
v -2.5 3 -7
v -1.5 3 -7
v 1.5 3 -7
v 2.5 3 -7
v -2.5 3 -8
v -1.5 3 -8
v 1.5 3 -8
v 2.5 3 -8
v -2.5 3 -9
v -1.5 3 -9
v -0.5 3 -9
v 0.5 3 -9
v 1.5 3 -9
v 2.5 3 -9
v -0.5 4 8
v 0.5 4 8
v -0.5 4 7
v 0.5 4 7
v -0.5 4 -5
v 0.5 4 -5
v -0.5 4 -6
v 0.5 4 -6
v -0.5 4 -7
v 0.5 4 -7
v -0.5 4 -8
v 0.5 4 -8
v -0.5 5 7
v 0.5 5 7
v -0.5 5 6
v 0.5 5 6
v -0.5 5 -6
v 0.5 5 -6
v -0.5 5 -7
v 0.5 5 -7
v -0.5 5 -8
v 0.5 5 -8
v -0.5 5 -9
v 0.5 5 -9

# faces
f 5/3/1 2/3/1 1/3/1
f 6/3/1 2/3/1 5/3/1
f 7/3/1 4/3/1 3/3/1
f 8/3/1 4/3/1 7/3/1
f 13/2/1 10/2/1 9/2/1
f 14/2/1 10/2/1 13/2/1
f 15/2/1 12/2/1 11/2/1
f 16/2/1 12/2/1 15/2/1
f 24/1/1 18/1/1 17/1/1
f 26/3/1 20/3/1 19/3/1
f 27/3/1 20/3/1 26/3/1
f 28/3/1 22/3/1 21/3/1
f 29/3/1 22/3/1 28/3/1
f 31/1/1 24/1/1 23/1/1
f 32/1/1 18/1/1 24/1/1
f 32/1/1 24/1/1 31/1/1
f 33/2/1 27/2/1 26/2/1
f 33/2/1 26/2/1 25/2/1
f 33/2/1 28/2/1 27/2/1
f 33/2/1 29/2/1 28/2/1
f 34/2/1 29/2/1 33/2/1
f 35/1/1 32/1/1 31/1/1
f 35/1/1 31/1/1 30/1/1
f 36/1/1 32/1/1 35/1/1
f 37/4/1 33/4/1 32/4/1
f 37/1/1 32/1/1 36/1/1
f 38/4/1 33/4/1 37/4/1
f 40/1/1 37/1/1 36/1/1
f 41/1/1 37/1/1 40/1/1
f 42/2/1 39/2/1 38/2/1
f 43/2/1 39/2/1 42/2/1
f 44/2/1 39/2/1 43/2/1
f 45/2/1 39/2/1 44/2/1
f 46/2/1 39/2/1 45/2/1
f 47/1/1 37/1/1 41/1/1
f 48/1/1 37/1/1 47/1/1
f 49/3/1 44/3/1 43/3/1
f 50/3/1 44/3/1 49/3/1
f 51/3/1 46/3/1 45/3/1
f 52/3/1 46/3/1 51/3/1
f 55/2/1 54/2/1 53/2/1
f 56/2/1 54/2/1 55/2/1
f 57/2/2 58/2/2 59/2/2
f 59/2/2 58/2/2 60/2/2
f 61/1/2 62/1/2 68/1/2
f 63/3/2 64/3/2 70/3/2
f 70/3/2 64/3/2 71/3/2
f 65/3/2 66/3/2 72/3/2
f 72/3/2 66/3/2 73/3/2
f 67/1/2 68/1/2 75/1/2
f 68/1/2 62/1/2 76/1/2
f 75/1/2 68/1/2 76/1/2
f 70/2/2 71/2/2 77/2/2
f 69/2/2 70/2/2 77/2/2
f 71/2/2 72/2/2 77/2/2
f 72/2/2 73/2/2 77/2/2
f 77/2/2 73/2/2 78/2/2
f 75/1/2 76/1/2 79/1/2
f 74/1/2 75/1/2 79/1/2
f 79/1/2 76/1/2 80/1/2
f 76/4/2 77/4/2 81/4/2
f 80/1/2 76/1/2 81/1/2
f 81/4/2 77/4/2 82/4/2
f 80/1/2 81/1/2 84/1/2
f 84/1/2 81/1/2 85/1/2
f 82/2/2 83/2/2 86/2/2
f 86/2/2 83/2/2 87/2/2
f 87/2/2 83/2/2 88/2/2
f 88/2/2 83/2/2 89/2/2
f 89/2/2 83/2/2 90/2/2
f 85/1/2 81/1/2 91/1/2
f 91/1/2 81/1/2 92/1/2
f 87/3/2 88/3/2 93/3/2
f 93/3/2 88/3/2 94/3/2
f 89/3/2 90/3/2 95/3/2
f 95/3/2 90/3/2 96/3/2
f 97/2/2 98/2/2 101/2/2
f 101/2/2 98/2/2 102/2/2
f 99/2/2 100/2/2 103/2/2
f 103/2/2 100/2/2 104/2/2
f 105/3/2 106/3/2 109/3/2
f 109/3/2 106/3/2 110/3/2
f 107/3/2 108/3/2 111/3/2
f 111/3/2 108/3/2 112/3/2
f 115/1/3 114/1/3 113/1/3
f 116/1/3 114/1/3 115/1/3
f 121/1/3 118/1/3 117/1/3
f 122/1/3 118/1/3 121/1/3
f 123/1/3 120/1/3 119/1/3
f 124/1/3 120/1/3 123/1/3
f 129/1/3 126/1/3 125/1/3
f 130/1/3 126/1/3 129/1/3
f 131/1/3 128/1/3 127/1/3
f 132/1/3 128/1/3 131/1/3
f 136/2/3 134/2/3 133/2/3
f 137/2/3 134/2/3 136/2/3
f 139/2/3 136/2/3 135/2/3
f 140/2/3 136/2/3 139/2/3
f 141/2/3 138/2/3 137/2/3
f 142/2/3 138/2/3 141/2/3
f 143/2/3 141/2/3 140/2/3
f 144/2/3 141/2/3 143/2/3
f 147/3/3 146/3/3 145/3/3
f 148/3/3 146/3/3 147/3/3
f 153/3/3 150/3/3 149/3/3
f 154/3/3 150/3/3 153/3/3
f 155/3/3 152/3/3 151/3/3
f 156/3/3 152/3/3 155/3/3
f 159/3/3 158/3/3 157/3/3
f 160/3/3 158/3/3 159/3/3
f 163/3/3 162/3/3 161/3/3
f 164/3/3 162/3/3 163/3/3
f 169/3/3 166/3/3 165/3/3
f 170/3/3 166/3/3 169/3/3
f 171/3/3 168/3/3 167/3/3
f 172/3/3 168/3/3 171/3/3
f 175/3/3 174/3/3 173/3/3
f 176/3/3 174/3/3 175/3/3
f 177/1/4 178/1/4 181/1/4
f 181/1/4 178/1/4 182/1/4
f 179/1/4 180/1/4 183/1/4
f 183/1/4 180/1/4 184/1/4
f 185/3/4 186/3/4 187/3/4
f 187/3/4 186/3/4 188/3/4
f 189/3/4 190/3/4 193/3/4
f 193/3/4 190/3/4 194/3/4
f 191/3/4 192/3/4 195/3/4
f 195/3/4 192/3/4 196/3/4
f 197/3/4 198/3/4 199/3/4
f 199/3/4 198/3/4 200/3/4
f 201/2/4 202/2/4 203/2/4
f 203/2/4 202/2/4 204/2/4
f 205/3/4 206/3/4 207/3/4
f 207/3/4 206/3/4 208/3/4
f 207/2/4 208/2/4 211/2/4
f 211/2/4 208/2/4 212/2/4
f 209/3/4 210/3/4 215/3/4
f 210/2/4 211/2/4 216/2/4
f 215/3/4 210/3/4 216/3/4
f 216/2/4 211/2/4 217/2/4
f 212/2/4 213/2/4 218/2/4
f 213/3/4 214/3/4 219/3/4
f 218/2/4 213/2/4 219/2/4
f 219/3/4 214/3/4 220/3/4
f 217/2/4 218/2/4 221/2/4
f 221/2/4 218/2/4 222/2/4
f 221/3/4 222/3/4 223/3/4
f 223/3/4 222/3/4 224/3/4
f 227/1/5 226/1/5 225/1/5
f 228/1/5 226/1/5 227/1/5
f 231/3/5 230/3/5 229/3/5
f 232/3/5 230/3/5 231/3/5
f 235/3/5 234/3/5 233/3/5
f 236/3/5 234/3/5 235/3/5
f 239/1/5 238/1/5 237/1/5
f 240/1/5 238/1/5 239/1/5
f 243/2/5 242/2/5 241/2/5
f 244/2/5 242/2/5 243/2/5
f 247/2/5 246/2/5 245/2/5
f 248/2/5 246/2/5 247/2/5
f 251/1/5 250/1/5 249/1/5
f 252/1/5 250/1/5 251/1/5
f 256/4/5 254/4/5 253/4/5
f 257/4/5 254/4/5 256/4/5
f 260/2/5 256/2/5 255/2/5
f 261/2/5 258/2/5 257/2/5
f 263/3/5 260/3/5 259/3/5
f 264/2/5 256/2/5 260/2/5
f 264/3/5 260/3/5 263/3/5
f 265/3/5 262/3/5 261/3/5
f 265/2/5 261/2/5 257/2/5
f 266/3/5 262/3/5 265/3/5
f 268/2/5 256/2/5 264/2/5
f 269/2/5 265/2/5 257/2/5
f 271/3/5 268/3/5 267/3/5
f 272/2/5 256/2/5 268/2/5
f 272/3/5 268/3/5 271/3/5
f 273/2/5 256/2/5 272/2/5
f 274/2/5 269/2/5 257/2/5
f 275/3/5 270/3/5 269/3/5
f 275/2/5 269/2/5 274/2/5
f 276/3/5 270/3/5 275/3/5
f 279/2/5 278/2/5 277/2/5
f 280/2/5 278/2/5 279/2/5
f 281/2/6 282/2/6 283/2/6
f 283/2/6 282/2/6 284/2/6
f 285/1/6 286/1/6 287/1/6
f 287/1/6 286/1/6 288/1/6
f 289/4/6 290/4/6 292/4/6
f 292/4/6 290/4/6 293/4/6
f 291/2/6 292/2/6 296/2/6
f 293/2/6 294/2/6 297/2/6
f 295/3/6 296/3/6 299/3/6
f 296/2/6 292/2/6 300/2/6
f 299/3/6 296/3/6 300/3/6
f 297/3/6 298/3/6 301/3/6
f 293/2/6 297/2/6 301/2/6
f 301/3/6 298/3/6 302/3/6
f 300/2/6 292/2/6 304/2/6
f 293/2/6 301/2/6 305/2/6
f 303/3/6 304/3/6 307/3/6
f 304/2/6 292/2/6 308/2/6
f 307/3/6 304/3/6 308/3/6
f 308/2/6 292/2/6 309/2/6
f 293/2/6 305/2/6 310/2/6
f 305/3/6 306/3/6 311/3/6
f 310/2/6 305/2/6 311/2/6
f 311/3/6 306/3/6 312/3/6
f 313/1/6 314/1/6 315/1/6
f 315/1/6 314/1/6 316/1/6
f 317/2/6 318/2/6 319/2/6
f 319/2/6 318/2/6 320/2/6
f 321/2/6 322/2/6 323/2/6
f 323/2/6 322/2/6 324/2/6
f 325/1/6 326/1/6 327/1/6
f 327/1/6 326/1/6 328/1/6
f 329/3/6 330/3/6 331/3/6
f 331/3/6 330/3/6 332/3/6
f 333/3/6 334/3/6 335/3/6
f 335/3/6 334/3/6 336/3/6
