# MagicaVoxel @ Ephtracy

# group
g weaponsshields-3

# material
mtllib weaponsshields-3.mtl
usemtl palette

# normals
vn -1 0 0
vn 1 0 0
vn 0 0 1
vn 0 0 -1
vn 0 -1 0
vn 0 1 0

# texcoords
vt 0.0332031 0.5
vt 0.0371094 0.5
vt 0.107422 0.5
vt 0.111328 0.5
vt 0.255859 0.5
vt 0.837891 0.5
vt 0.841797 0.5

# verts
v -0.5 0 0.5
v -0.5 0 -0.5
v -0.5 1 1.5
v -0.5 1 0.5
v -0.5 1 -0.5
v -0.5 1 -1.5
v -0.5 2 1.5
v -0.5 2 0.5
v -0.5 2 -0.5
v -0.5 2 -1.5
v -0.5 3 0.5
v -0.5 3 -0.5
v -0.5 4 0.5
v -0.5 4 -0.5
v -0.5 5 0.5
v -0.5 5 -0.5
v -0.5 6 2.5
v -0.5 6 0.5
v -0.5 6 -0.5
v -0.5 6 -2.5
v -0.5 8 2.5
v -0.5 8 1.5
v -0.5 8 0.5
v -0.5 8 -1.5
v -0.5 8 -2.5
v -0.5 19 1.5
v -0.5 19 0.5
v -0.5 20 1.5
v -0.5 20 0.5
v -0.5 23 1.5
v -0.5 23 0.5
v -0.5 23 -0.5
v -0.5 23 -1.5
v -0.5 24 0.5
v -0.5 24 -0.5
v 0.5 0 0.5
v 0.5 0 -0.5
v 0.5 1 1.5
v 0.5 1 0.5
v 0.5 1 -0.5
v 0.5 1 -1.5
v 0.5 2 1.5
v 0.5 2 0.5
v 0.5 2 -0.5
v 0.5 2 -1.5
v 0.5 3 0.5
v 0.5 3 -0.5
v 0.5 4 0.5
v 0.5 4 -0.5
v 0.5 5 0.5
v 0.5 5 -0.5
v 0.5 6 2.5
v 0.5 6 0.5
v 0.5 6 -0.5
v 0.5 6 -2.5
v 0.5 8 2.5
v 0.5 8 1.5
v 0.5 8 0.5
v 0.5 8 -1.5
v 0.5 8 -2.5
v 0.5 19 1.5
v 0.5 19 0.5
v 0.5 20 1.5
v 0.5 20 0.5
v 0.5 23 1.5
v 0.5 23 0.5
v 0.5 23 -0.5
v 0.5 23 -1.5
v 0.5 24 0.5
v 0.5 24 -0.5
v -0.5 6 2.5
v -0.5 8 2.5
v 0.5 6 2.5
v 0.5 8 2.5
v -0.5 1 1.5
v -0.5 2 1.5
v -0.5 8 1.5
v -0.5 19 1.5
v -0.5 20 1.5
v -0.5 23 1.5
v 0.5 1 1.5
v 0.5 2 1.5
v 0.5 8 1.5
v 0.5 19 1.5
v 0.5 20 1.5
v 0.5 23 1.5
v -0.5 0 0.5
v -0.5 1 0.5
v -0.5 2 0.5
v -0.5 3 0.5
v -0.5 4 0.5
v -0.5 5 0.5
v -0.5 6 0.5
v -0.5 19 0.5
v -0.5 20 0.5
v -0.5 23 0.5
v -0.5 24 0.5
v 0.5 0 0.5
v 0.5 1 0.5
v 0.5 2 0.5
v 0.5 3 0.5
v 0.5 4 0.5
v 0.5 5 0.5
v 0.5 6 0.5
v 0.5 19 0.5
v 0.5 20 0.5
v 0.5 23 0.5
v 0.5 24 0.5
v -0.5 0 -0.5
v -0.5 1 -0.5
v -0.5 2 -0.5
v -0.5 3 -0.5
v -0.5 4 -0.5
v -0.5 5 -0.5
v -0.5 6 -0.5
v -0.5 23 -0.5
v -0.5 24 -0.5
v 0.5 0 -0.5
v 0.5 1 -0.5
v 0.5 2 -0.5
v 0.5 3 -0.5
v 0.5 4 -0.5
v 0.5 5 -0.5
v 0.5 6 -0.5
v 0.5 23 -0.5
v 0.5 24 -0.5
v -0.5 1 -1.5
v -0.5 2 -1.5
v -0.5 8 -1.5
v -0.5 23 -1.5
v 0.5 1 -1.5
v 0.5 2 -1.5
v 0.5 8 -1.5
v 0.5 23 -1.5
v -0.5 6 -2.5
v -0.5 8 -2.5
v 0.5 6 -2.5
v 0.5 8 -2.5
v -0.5 0 0.5
v 0.5 0 0.5
v -0.5 0 -0.5
v 0.5 0 -0.5
v -0.5 1 1.5
v 0.5 1 1.5
v -0.5 1 0.5
v 0.5 1 0.5
v -0.5 1 -0.5
v 0.5 1 -0.5
v -0.5 1 -1.5
v 0.5 1 -1.5
v -0.5 6 2.5
v 0.5 6 2.5
v -0.5 6 0.5
v 0.5 6 0.5
v -0.5 6 -0.5
v 0.5 6 -0.5
v -0.5 6 -2.5
v 0.5 6 -2.5
v -0.5 20 1.5
v 0.5 20 1.5
v -0.5 20 0.5
v 0.5 20 0.5
v -0.5 2 1.5
v 0.5 2 1.5
v -0.5 2 0.5
v 0.5 2 0.5
v -0.5 2 -0.5
v 0.5 2 -0.5
v -0.5 2 -1.5
v 0.5 2 -1.5
v -0.5 8 2.5
v 0.5 8 2.5
v -0.5 8 1.5
v 0.5 8 1.5
v -0.5 8 -1.5
v 0.5 8 -1.5
v -0.5 8 -2.5
v 0.5 8 -2.5
v -0.5 19 1.5
v 0.5 19 1.5
v -0.5 19 0.5
v 0.5 19 0.5
v -0.5 23 1.5
v 0.5 23 1.5
v -0.5 23 0.5
v 0.5 23 0.5
v -0.5 23 -0.5
v 0.5 23 -0.5
v -0.5 23 -1.5
v 0.5 23 -1.5
v -0.5 24 0.5
v 0.5 24 0.5
v -0.5 24 -0.5
v 0.5 24 -0.5

# faces
f 4/2/1 2/2/1 1/2/1
f 5/2/1 2/2/1 4/2/1
f 7/2/1 4/2/1 3/2/1
f 8/5/1 5/5/1 4/5/1
f 8/2/1 4/2/1 7/2/1
f 9/2/1 6/2/1 5/2/1
f 9/5/1 5/5/1 8/5/1
f 10/2/1 6/2/1 9/2/1
f 11/2/1 9/2/1 8/2/1
f 12/2/1 9/2/1 11/2/1
f 13/7/1 12/7/1 11/7/1
f 14/7/1 12/7/1 13/7/1
f 15/6/1 14/6/1 13/6/1
f 16/6/1 14/6/1 15/6/1
f 18/7/1 16/7/1 15/7/1
f 19/7/1 16/7/1 18/7/1
f 21/1/1 19/1/1 18/1/1
f 21/1/1 20/1/1 19/1/1
f 21/1/1 18/1/1 17/1/1
f 22/1/1 20/1/1 21/1/1
f 23/1/1 20/1/1 22/1/1
f 24/1/1 20/1/1 23/1/1
f 25/1/1 20/1/1 24/1/1
f 26/3/1 23/3/1 22/3/1
f 27/4/1 24/4/1 23/4/1
f 27/3/1 23/3/1 26/3/1
f 29/4/1 24/4/1 27/4/1
f 30/3/1 29/3/1 28/3/1
f 31/4/1 24/4/1 29/4/1
f 31/3/1 29/3/1 30/3/1
f 32/4/1 24/4/1 31/4/1
f 33/4/1 24/4/1 32/4/1
f 34/4/1 32/4/1 31/4/1
f 35/4/1 32/4/1 34/4/1
f 36/2/2 37/2/2 39/2/2
f 39/2/2 37/2/2 40/2/2
f 38/2/2 39/2/2 42/2/2
f 39/5/2 40/5/2 43/5/2
f 42/2/2 39/2/2 43/2/2
f 40/2/2 41/2/2 44/2/2
f 43/5/2 40/5/2 44/5/2
f 44/2/2 41/2/2 45/2/2
f 43/2/2 44/2/2 46/2/2
f 46/2/2 44/2/2 47/2/2
f 46/7/2 47/7/2 48/7/2
f 48/7/2 47/7/2 49/7/2
f 48/6/2 49/6/2 50/6/2
f 50/6/2 49/6/2 51/6/2
f 50/7/2 51/7/2 53/7/2
f 53/7/2 51/7/2 54/7/2
f 53/1/2 54/1/2 56/1/2
f 54/1/2 55/1/2 56/1/2
f 52/1/2 53/1/2 56/1/2
f 56/1/2 55/1/2 57/1/2
f 57/1/2 55/1/2 58/1/2
f 58/1/2 55/1/2 59/1/2
f 59/1/2 55/1/2 60/1/2
f 57/3/2 58/3/2 61/3/2
f 58/4/2 59/4/2 62/4/2
f 61/3/2 58/3/2 62/3/2
f 62/4/2 59/4/2 64/4/2
f 63/3/2 64/3/2 65/3/2
f 64/4/2 59/4/2 66/4/2
f 65/3/2 64/3/2 66/3/2
f 66/4/2 59/4/2 67/4/2
f 67/4/2 59/4/2 68/4/2
f 66/4/2 67/4/2 69/4/2
f 69/4/2 67/4/2 70/4/2
f 73/1/3 72/1/3 71/1/3
f 74/1/3 72/1/3 73/1/3
f 81/2/3 76/2/3 75/2/3
f 82/2/3 76/2/3 81/2/3
f 83/3/3 78/3/3 77/3/3
f 84/3/3 78/3/3 83/3/3
f 85/3/3 80/3/3 79/3/3
f 86/3/3 80/3/3 85/3/3
f 98/2/3 88/2/3 87/2/3
f 99/2/3 88/2/3 98/2/3
f 100/2/3 90/2/3 89/2/3
f 101/7/3 91/7/3 90/7/3
f 101/2/3 90/2/3 100/2/3
f 102/6/3 92/6/3 91/6/3
f 102/7/3 91/7/3 101/7/3
f 103/7/3 93/7/3 92/7/3
f 103/6/3 92/6/3 102/6/3
f 104/7/3 93/7/3 103/7/3
f 105/4/3 95/4/3 94/4/3
f 106/4/3 95/4/3 105/4/3
f 107/4/3 97/4/3 96/4/3
f 108/4/3 97/4/3 107/4/3
f 109/2/4 110/2/4 118/2/4
f 118/2/4 110/2/4 119/2/4
f 111/2/4 112/2/4 120/2/4
f 112/7/4 113/7/4 121/7/4
f 120/2/4 112/2/4 121/2/4
f 113/6/4 114/6/4 122/6/4
f 121/7/4 113/7/4 122/7/4
f 114/7/4 115/7/4 123/7/4
f 122/6/4 114/6/4 123/6/4
f 123/7/4 115/7/4 124/7/4
f 116/4/4 117/4/4 125/4/4
f 125/4/4 117/4/4 126/4/4
f 127/2/4 128/2/4 131/2/4
f 131/2/4 128/2/4 132/2/4
f 129/4/4 130/4/4 133/4/4
f 133/4/4 130/4/4 134/4/4
f 135/1/4 136/1/4 137/1/4
f 137/1/4 136/1/4 138/1/4
f 141/2/5 140/2/5 139/2/5
f 142/2/5 140/2/5 141/2/5
f 145/2/5 144/2/5 143/2/5
f 146/2/5 144/2/5 145/2/5
f 149/2/5 148/2/5 147/2/5
f 150/2/5 148/2/5 149/2/5
f 153/1/5 152/1/5 151/1/5
f 154/1/5 152/1/5 153/1/5
f 157/1/5 156/1/5 155/1/5
f 158/1/5 156/1/5 157/1/5
f 161/3/5 160/3/5 159/3/5
f 162/3/5 160/3/5 161/3/5
f 163/2/6 164/2/6 165/2/6
f 165/2/6 164/2/6 166/2/6
f 167/2/6 168/2/6 169/2/6
f 169/2/6 168/2/6 170/2/6
f 171/1/6 172/1/6 173/1/6
f 173/1/6 172/1/6 174/1/6
f 175/1/6 176/1/6 177/1/6
f 177/1/6 176/1/6 178/1/6
f 179/3/6 180/3/6 181/3/6
f 181/3/6 180/3/6 182/3/6
f 183/3/6 184/3/6 185/3/6
f 185/3/6 184/3/6 186/3/6
f 187/4/6 188/4/6 189/4/6
f 189/4/6 188/4/6 190/4/6
f 191/4/6 192/4/6 193/4/6
f 193/4/6 192/4/6 194/4/6
