# MagicaVoxel @ Ephtracy

# group
g weaponsshields-16

# material
mtllib weaponsshields-16.mtl
usemtl palette

# normals
vn -1 0 0
vn 1 0 0
vn 0 0 1
vn 0 0 -1
vn 0 -1 0
vn 0 1 0

# texcoords
vt 0.119141 0.5
vt 0.150391 0.5
vt 0.494141 0.5
vt 0.498047 0.5
vt 0.869141 0.5

# verts
v -2.5 2 -6
v -2.5 2 -7
v -2.5 2 -8
v -2.5 2 -9
v -2.5 3 -6
v -2.5 3 -7
v -2.5 3 -8
v -2.5 3 -9
v -1.5 2 -5
v -1.5 2 -6
v -1.5 2 -7
v -1.5 2 -8
v -1.5 3 -5
v -1.5 3 -6
v -1.5 3 -7
v -1.5 3 -8
v -0.5 0 7
v -0.5 0 6
v -0.5 0 -6
v -0.5 0 -7
v -0.5 0 -8
v -0.5 0 -9
v -0.5 1 8
v -0.5 1 7
v -0.5 1 -5
v -0.5 1 -6
v -0.5 1 -7
v -0.5 1 -8
v -0.5 1 -9
v -0.5 2 9
v -0.5 2 8
v -0.5 2 6
v -0.5 2 -5
v -0.5 2 -9
v -0.5 3 9
v -0.5 3 8
v -0.5 3 6
v -0.5 3 -5
v -0.5 3 -9
v -0.5 4 8
v -0.5 4 7
v -0.5 4 -5
v -0.5 4 -6
v -0.5 4 -7
v -0.5 4 -8
v -0.5 4 -9
v -0.5 5 7
v -0.5 5 6
v -0.5 5 -6
v -0.5 5 -7
v -0.5 5 -8
v -0.5 5 -9
v 0.5 2 -8
v 0.5 2 -9
v 0.5 3 -8
v 0.5 3 -9
v -0.5 2 -8
v -0.5 2 -9
v -0.5 3 -8
v -0.5 3 -9
v 0.5 0 7
v 0.5 0 6
v 0.5 0 -6
v 0.5 0 -7
v 0.5 0 -8
v 0.5 0 -9
v 0.5 1 8
v 0.5 1 7
v 0.5 1 -5
v 0.5 1 -6
v 0.5 1 -7
v 0.5 1 -8
v 0.5 1 -9
v 0.5 2 9
v 0.5 2 8
v 0.5 2 6
v 0.5 2 -5
v 0.5 2 -9
v 0.5 3 9
v 0.5 3 8
v 0.5 3 6
v 0.5 3 -5
v 0.5 3 -9
v 0.5 4 8
v 0.5 4 7
v 0.5 4 -5
v 0.5 4 -6
v 0.5 4 -7
v 0.5 4 -8
v 0.5 4 -9
v 0.5 5 7
v 0.5 5 6
v 0.5 5 -6
v 0.5 5 -7
v 0.5 5 -8
v 0.5 5 -9
v 1.5 2 -5
v 1.5 2 -6
v 1.5 2 -7
v 1.5 2 -8
v 1.5 3 -5
v 1.5 3 -6
v 1.5 3 -7
v 1.5 3 -8
v 2.5 2 -6
v 2.5 2 -7
v 2.5 2 -8
v 2.5 2 -9
v 2.5 3 -6
v 2.5 3 -7
v 2.5 3 -8
v 2.5 3 -9
v -0.5 2 9
v -0.5 3 9
v 0.5 2 9
v 0.5 3 9
v -0.5 1 8
v -0.5 2 8
v -0.5 3 8
v -0.5 4 8
v 0.5 1 8
v 0.5 2 8
v 0.5 3 8
v 0.5 4 8
v -0.5 0 7
v -0.5 1 7
v -0.5 4 7
v -0.5 5 7
v 0.5 0 7
v 0.5 1 7
v 0.5 4 7
v 0.5 5 7
v -1.5 2 -5
v -1.5 3 -5
v -0.5 1 -5
v -0.5 2 -5
v -0.5 3 -5
v -0.5 4 -5
v 0.5 1 -5
v 0.5 2 -5
v 0.5 3 -5
v 0.5 4 -5
v 1.5 2 -5
v 1.5 3 -5
v -2.5 2 -6
v -2.5 3 -6
v -1.5 2 -6
v -1.5 3 -6
v -0.5 0 -6
v -0.5 1 -6
v -0.5 4 -6
v -0.5 5 -6
v 0.5 0 -6
v 0.5 1 -6
v 0.5 4 -6
v 0.5 5 -6
v 1.5 2 -6
v 1.5 3 -6
v 2.5 2 -6
v 2.5 3 -6
v -2.5 2 -8
v -2.5 3 -8
v -1.5 2 -8
v -1.5 3 -8
v -0.5 0 -8
v -0.5 1 -8
v -0.5 4 -8
v -0.5 5 -8
v 0.5 0 -8
v 0.5 1 -8
v 0.5 4 -8
v 0.5 5 -8
v 1.5 2 -8
v 1.5 3 -8
v 2.5 2 -8
v 2.5 3 -8
v -0.5 0 6
v -0.5 2 6
v -0.5 3 6
v -0.5 5 6
v 0.5 0 6
v 0.5 2 6
v 0.5 3 6
v 0.5 5 6
v -2.5 2 -7
v -2.5 3 -7
v -1.5 2 -7
v -1.5 3 -7
v -0.5 0 -7
v -0.5 1 -7
v -0.5 4 -7
v -0.5 5 -7
v 0.5 0 -7
v 0.5 1 -7
v 0.5 4 -7
v 0.5 5 -7
v 1.5 2 -7
v 1.5 3 -7
v 2.5 2 -7
v 2.5 3 -7
v -0.5 2 -8
v -0.5 3 -8
v 0.5 2 -8
v 0.5 3 -8
v -2.5 2 -9
v -2.5 3 -9
v -1.5 2 -9
v -1.5 3 -9
v -0.5 0 -9
v -0.5 1 -9
v -0.5 2 -9
v -0.5 3 -9
v -0.5 4 -9
v -0.5 5 -9
v 0.5 0 -9
v 0.5 1 -9
v 0.5 2 -9
v 0.5 3 -9
v 0.5 4 -9
v 0.5 5 -9
v 1.5 2 -9
v 1.5 3 -9
v 2.5 2 -9
v 2.5 3 -9
v -0.5 0 7
v 0.5 0 7
v -0.5 0 6
v 0.5 0 6
v -0.5 0 -6
v 0.5 0 -6
v -0.5 0 -7
v 0.5 0 -7
v -0.5 0 -8
v 0.5 0 -8
v -0.5 0 -9
v 0.5 0 -9
v -0.5 1 8
v 0.5 1 8
v -0.5 1 7
v 0.5 1 7
v -0.5 1 -5
v 0.5 1 -5
v -0.5 1 -6
v 0.5 1 -6
v -0.5 1 -7
v 0.5 1 -7
v -0.5 1 -8
v 0.5 1 -8
v -0.5 2 9
v 0.5 2 9
v -0.5 2 8
v 0.5 2 8
v -0.5 2 6
v 0.5 2 6
v -1.5 2 -5
v -0.5 2 -5
v 0.5 2 -5
v 1.5 2 -5
v -2.5 2 -6
v -1.5 2 -6
v 1.5 2 -6
v 2.5 2 -6
v -2.5 2 -7
v -1.5 2 -7
v 1.5 2 -7
v 2.5 2 -7
v -2.5 2 -8
v -1.5 2 -8
v 1.5 2 -8
v 2.5 2 -8
v -2.5 2 -9
v -1.5 2 -9
v -0.5 2 -9
v 0.5 2 -9
v 1.5 2 -9
v 2.5 2 -9
v -0.5 3 -8
v 0.5 3 -8
v -0.5 3 -9
v 0.5 3 -9
v -0.5 2 -8
v 0.5 2 -8
v -0.5 2 -9
v 0.5 2 -9
v -0.5 3 9
v 0.5 3 9
v -0.5 3 8
v 0.5 3 8
v -0.5 3 6
v 0.5 3 6
v -1.5 3 -5
v -0.5 3 -5
v 0.5 3 -5
v 1.5 3 -5
v -2.5 3 -6
v -1.5 3 -6
v 1.5 3 -6
v 2.5 3 -6
v -2.5 3 -7
v -1.5 3 -7
v 1.5 3 -7
v 2.5 3 -7
v -2.5 3 -8
v -1.5 3 -8
v 1.5 3 -8
v 2.5 3 -8
v -2.5 3 -9
v -1.5 3 -9
v -0.5 3 -9
v 0.5 3 -9
v 1.5 3 -9
v 2.5 3 -9
v -0.5 4 8
v 0.5 4 8
v -0.5 4 7
v 0.5 4 7
v -0.5 4 -5
v 0.5 4 -5
v -0.5 4 -6
v 0.5 4 -6
v -0.5 4 -7
v 0.5 4 -7
v -0.5 4 -8
v 0.5 4 -8
v -0.5 5 7
v 0.5 5 7
v -0.5 5 6
v 0.5 5 6
v -0.5 5 -6
v 0.5 5 -6
v -0.5 5 -7
v 0.5 5 -7
v -0.5 5 -8
v 0.5 5 -8
v -0.5 5 -9
v 0.5 5 -9

# faces
f 5/3/1 2/3/1 1/3/1
f 6/3/1 2/3/1 5/3/1
f 7/3/1 4/3/1 3/3/1
f 8/3/1 4/3/1 7/3/1
f 13/4/1 10/4/1 9/4/1
f 14/4/1 10/4/1 13/4/1
f 15/4/1 12/4/1 11/4/1
f 16/4/1 12/4/1 15/4/1
f 24/1/1 18/1/1 17/1/1
f 26/3/1 20/3/1 19/3/1
f 27/3/1 20/3/1 26/3/1
f 28/3/1 22/3/1 21/3/1
f 29/3/1 22/3/1 28/3/1
f 31/2/1 24/2/1 23/2/1
f 32/1/1 18/1/1 24/1/1
f 33/4/1 27/4/1 26/4/1
f 33/4/1 26/4/1 25/4/1
f 33/4/1 28/4/1 27/4/1
f 33/4/1 29/4/1 28/4/1
f 34/4/1 29/4/1 33/4/1
f 35/2/1 31/2/1 30/2/1
f 36/2/1 24/2/1 31/2/1
f 36/2/1 31/2/1 35/2/1
f 37/1/1 32/1/1 24/1/1
f 37/5/1 33/5/1 32/5/1
f 38/5/1 33/5/1 37/5/1
f 40/2/1 24/2/1 36/2/1
f 41/1/1 37/1/1 24/1/1
f 41/2/1 24/2/1 40/2/1
f 42/4/1 39/4/1 38/4/1
f 43/4/1 39/4/1 42/4/1
f 44/4/1 39/4/1 43/4/1
f 45/4/1 39/4/1 44/4/1
f 46/4/1 39/4/1 45/4/1
f 47/1/1 37/1/1 41/1/1
f 48/1/1 37/1/1 47/1/1
f 49/3/1 44/3/1 43/3/1
f 50/3/1 44/3/1 49/3/1
f 51/3/1 46/3/1 45/3/1
f 52/3/1 46/3/1 51/3/1
f 55/4/1 54/4/1 53/4/1
f 56/4/1 54/4/1 55/4/1
f 57/4/2 58/4/2 59/4/2
f 59/4/2 58/4/2 60/4/2
f 61/1/2 62/1/2 68/1/2
f 63/3/2 64/3/2 70/3/2
f 70/3/2 64/3/2 71/3/2
f 65/3/2 66/3/2 72/3/2
f 72/3/2 66/3/2 73/3/2
f 67/2/2 68/2/2 75/2/2
f 68/1/2 62/1/2 76/1/2
f 70/4/2 71/4/2 77/4/2
f 69/4/2 70/4/2 77/4/2
f 71/4/2 72/4/2 77/4/2
f 72/4/2 73/4/2 77/4/2
f 77/4/2 73/4/2 78/4/2
f 74/2/2 75/2/2 79/2/2
f 75/2/2 68/2/2 80/2/2
f 79/2/2 75/2/2 80/2/2
f 68/1/2 76/1/2 81/1/2
f 76/5/2 77/5/2 81/5/2
f 81/5/2 77/5/2 82/5/2
f 80/2/2 68/2/2 84/2/2
f 68/1/2 81/1/2 85/1/2
f 84/2/2 68/2/2 85/2/2
f 82/4/2 83/4/2 86/4/2
f 86/4/2 83/4/2 87/4/2
f 87/4/2 83/4/2 88/4/2
f 88/4/2 83/4/2 89/4/2
f 89/4/2 83/4/2 90/4/2
f 85/1/2 81/1/2 91/1/2
f 91/1/2 81/1/2 92/1/2
f 87/3/2 88/3/2 93/3/2
f 93/3/2 88/3/2 94/3/2
f 89/3/2 90/3/2 95/3/2
f 95/3/2 90/3/2 96/3/2
f 97/4/2 98/4/2 101/4/2
f 101/4/2 98/4/2 102/4/2
f 99/4/2 100/4/2 103/4/2
f 103/4/2 100/4/2 104/4/2
f 105/3/2 106/3/2 109/3/2
f 109/3/2 106/3/2 110/3/2
f 107/3/2 108/3/2 111/3/2
f 111/3/2 108/3/2 112/3/2
f 115/2/3 114/2/3 113/2/3
f 116/2/3 114/2/3 115/2/3
f 121/2/3 118/2/3 117/2/3
f 122/2/3 118/2/3 121/2/3
f 123/2/3 120/2/3 119/2/3
f 124/2/3 120/2/3 123/2/3
f 129/1/3 126/1/3 125/1/3
f 130/1/3 126/1/3 129/1/3
f 131/1/3 128/1/3 127/1/3
f 132/1/3 128/1/3 131/1/3
f 136/4/3 134/4/3 133/4/3
f 137/4/3 134/4/3 136/4/3
f 139/4/3 136/4/3 135/4/3
f 140/4/3 136/4/3 139/4/3
f 141/4/3 138/4/3 137/4/3
f 142/4/3 138/4/3 141/4/3
f 143/4/3 141/4/3 140/4/3
f 144/4/3 141/4/3 143/4/3
f 147/3/3 146/3/3 145/3/3
f 148/3/3 146/3/3 147/3/3
f 153/3/3 150/3/3 149/3/3
f 154/3/3 150/3/3 153/3/3
f 155/3/3 152/3/3 151/3/3
f 156/3/3 152/3/3 155/3/3
f 159/3/3 158/3/3 157/3/3
f 160/3/3 158/3/3 159/3/3
f 163/3/3 162/3/3 161/3/3
f 164/3/3 162/3/3 163/3/3
f 169/3/3 166/3/3 165/3/3
f 170/3/3 166/3/3 169/3/3
f 171/3/3 168/3/3 167/3/3
f 172/3/3 168/3/3 171/3/3
f 175/3/3 174/3/3 173/3/3
f 176/3/3 174/3/3 175/3/3
f 177/1/4 178/1/4 181/1/4
f 181/1/4 178/1/4 182/1/4
f 179/1/4 180/1/4 183/1/4
f 183/1/4 180/1/4 184/1/4
f 185/3/4 186/3/4 187/3/4
f 187/3/4 186/3/4 188/3/4
f 189/3/4 190/3/4 193/3/4
f 193/3/4 190/3/4 194/3/4
f 191/3/4 192/3/4 195/3/4
f 195/3/4 192/3/4 196/3/4
f 197/3/4 198/3/4 199/3/4
f 199/3/4 198/3/4 200/3/4
f 201/4/4 202/4/4 203/4/4
f 203/4/4 202/4/4 204/4/4
f 205/3/4 206/3/4 207/3/4
f 207/3/4 206/3/4 208/3/4
f 207/4/4 208/4/4 211/4/4
f 211/4/4 208/4/4 212/4/4
f 209/3/4 210/3/4 215/3/4
f 210/4/4 211/4/4 216/4/4
f 215/3/4 210/3/4 216/3/4
f 216/4/4 211/4/4 217/4/4
f 212/4/4 213/4/4 218/4/4
f 213/3/4 214/3/4 219/3/4
f 218/4/4 213/4/4 219/4/4
f 219/3/4 214/3/4 220/3/4
f 217/4/4 218/4/4 221/4/4
f 221/4/4 218/4/4 222/4/4
f 221/3/4 222/3/4 223/3/4
f 223/3/4 222/3/4 224/3/4
f 227/1/5 226/1/5 225/1/5
f 228/1/5 226/1/5 227/1/5
f 231/3/5 230/3/5 229/3/5
f 232/3/5 230/3/5 231/3/5
f 235/3/5 234/3/5 233/3/5
f 236/3/5 234/3/5 235/3/5
f 239/2/5 238/2/5 237/2/5
f 240/2/5 238/2/5 239/2/5
f 243/4/5 242/4/5 241/4/5
f 244/4/5 242/4/5 243/4/5
f 247/4/5 246/4/5 245/4/5
f 248/4/5 246/4/5 247/4/5
f 251/2/5 250/2/5 249/2/5
f 252/2/5 250/2/5 251/2/5
f 256/5/5 254/5/5 253/5/5
f 257/5/5 254/5/5 256/5/5
f 260/4/5 256/4/5 255/4/5
f 261/4/5 258/4/5 257/4/5
f 263/3/5 260/3/5 259/3/5
f 264/4/5 256/4/5 260/4/5
f 264/3/5 260/3/5 263/3/5
f 265/3/5 262/3/5 261/3/5
f 265/4/5 261/4/5 257/4/5
f 266/3/5 262/3/5 265/3/5
f 268/4/5 256/4/5 264/4/5
f 269/4/5 265/4/5 257/4/5
f 271/3/5 268/3/5 267/3/5
f 272/4/5 256/4/5 268/4/5
f 272/3/5 268/3/5 271/3/5
f 273/4/5 256/4/5 272/4/5
f 274/4/5 269/4/5 257/4/5
f 275/3/5 270/3/5 269/3/5
f 275/4/5 269/4/5 274/4/5
f 276/3/5 270/3/5 275/3/5
f 279/4/5 278/4/5 277/4/5
f 280/4/5 278/4/5 279/4/5
f 281/4/6 282/4/6 283/4/6
f 283/4/6 282/4/6 284/4/6
f 285/2/6 286/2/6 287/2/6
f 287/2/6 286/2/6 288/2/6
f 289/5/6 290/5/6 292/5/6
f 292/5/6 290/5/6 293/5/6
f 291/4/6 292/4/6 296/4/6
f 293/4/6 294/4/6 297/4/6
f 295/3/6 296/3/6 299/3/6
f 296/4/6 292/4/6 300/4/6
f 299/3/6 296/3/6 300/3/6
f 297/3/6 298/3/6 301/3/6
f 293/4/6 297/4/6 301/4/6
f 301/3/6 298/3/6 302/3/6
f 300/4/6 292/4/6 304/4/6
f 293/4/6 301/4/6 305/4/6
f 303/3/6 304/3/6 307/3/6
f 304/4/6 292/4/6 308/4/6
f 307/3/6 304/3/6 308/3/6
f 308/4/6 292/4/6 309/4/6
f 293/4/6 305/4/6 310/4/6
f 305/3/6 306/3/6 311/3/6
f 310/4/6 305/4/6 311/4/6
f 311/3/6 306/3/6 312/3/6
f 313/2/6 314/2/6 315/2/6
f 315/2/6 314/2/6 316/2/6
f 317/4/6 318/4/6 319/4/6
f 319/4/6 318/4/6 320/4/6
f 321/4/6 322/4/6 323/4/6
f 323/4/6 322/4/6 324/4/6
f 325/1/6 326/1/6 327/1/6
f 327/1/6 326/1/6 328/1/6
f 329/3/6 330/3/6 331/3/6
f 331/3/6 330/3/6 332/3/6
f 333/3/6 334/3/6 335/3/6
f 335/3/6 334/3/6 336/3/6
