# MagicaVoxel @ Ephtracy

# group
g weaponsshields-11

# material
mtllib weaponsshields-11.mtl
usemtl palette

# normals
vn -1 0 0
vn 1 0 0
vn 0 0 1
vn 0 0 -1
vn 0 -1 0
vn 0 1 0

# texcoords
vt 0.0878906 0.5
vt 0.119141 0.5
vt 0.861328 0.5
vt 0.865234 0.5

# verts
v -10.5 7 1.5
v -10.5 7 0.5
v -10.5 14 1.5
v -10.5 14 0.5
v -9.5 5 1.5
v -9.5 5 0.5
v -9.5 7 1.5
v -9.5 7 0.5
v -9.5 14 1.5
v -9.5 14 0.5
v -9.5 16 1.5
v -9.5 16 0.5
v -8.5 4 1.5
v -8.5 4 0.5
v -8.5 5 1.5
v -8.5 5 0.5
v -8.5 16 1.5
v -8.5 16 0.5
v -8.5 17 1.5
v -8.5 17 0.5
v -7.5 3 1.5
v -7.5 3 0.5
v -7.5 4 1.5
v -7.5 4 0.5
v -7.5 17 1.5
v -7.5 17 0.5
v -7.5 18 1.5
v -7.5 18 0.5
v -6.5 2 1.5
v -6.5 2 0.5
v -6.5 3 1.5
v -6.5 3 0.5
v -6.5 18 1.5
v -6.5 18 0.5
v -6.5 19 1.5
v -6.5 19 0.5
v -5.5 1 1.5
v -5.5 1 0.5
v -5.5 2 1.5
v -5.5 2 0.5
v -5.5 19 1.5
v -5.5 19 0.5
v -5.5 20 1.5
v -5.5 20 0.5
v -3.5 0 1.5
v -3.5 0 0.5
v -3.5 1 1.5
v -3.5 1 0.5
v -3.5 20 1.5
v -3.5 20 0.5
v -3.5 21 1.5
v -3.5 21 0.5
v -1.5 10 2.5
v -1.5 10 1.5
v -1.5 11 2.5
v -1.5 11 1.5
v -0.5 7 0.5
v -0.5 7 -1.5
v -0.5 8 0.5
v -0.5 8 -1.5
v -0.5 8 -2.5
v -0.5 9 2.5
v -0.5 9 1.5
v -0.5 10 2.5
v -0.5 10 1.5
v -0.5 11 2.5
v -0.5 11 1.5
v -0.5 12 2.5
v -0.5 12 1.5
v -0.5 13 0.5
v -0.5 13 -1.5
v -0.5 13 -2.5
v -0.5 14 0.5
v -0.5 14 -1.5
v 0.5 7 0.5
v 0.5 7 -1.5
v 0.5 8 0.5
v 0.5 8 -1.5
v 0.5 8 -2.5
v 0.5 9 2.5
v 0.5 9 1.5
v 0.5 10 2.5
v 0.5 10 1.5
v 0.5 11 2.5
v 0.5 11 1.5
v 0.5 12 2.5
v 0.5 12 1.5
v 0.5 13 0.5
v 0.5 13 -1.5
v 0.5 13 -2.5
v 0.5 14 0.5
v 0.5 14 -1.5
v 1.5 10 2.5
v 1.5 10 1.5
v 1.5 11 2.5
v 1.5 11 1.5
v 3.5 0 1.5
v 3.5 0 0.5
v 3.5 1 1.5
v 3.5 1 0.5
v 3.5 20 1.5
v 3.5 20 0.5
v 3.5 21 1.5
v 3.5 21 0.5
v 5.5 1 1.5
v 5.5 1 0.5
v 5.5 2 1.5
v 5.5 2 0.5
v 5.5 19 1.5
v 5.5 19 0.5
v 5.5 20 1.5
v 5.5 20 0.5
v 6.5 2 1.5
v 6.5 2 0.5
v 6.5 3 1.5
v 6.5 3 0.5
v 6.5 18 1.5
v 6.5 18 0.5
v 6.5 19 1.5
v 6.5 19 0.5
v 7.5 3 1.5
v 7.5 3 0.5
v 7.5 4 1.5
v 7.5 4 0.5
v 7.5 17 1.5
v 7.5 17 0.5
v 7.5 18 1.5
v 7.5 18 0.5
v 8.5 4 1.5
v 8.5 4 0.5
v 8.5 5 1.5
v 8.5 5 0.5
v 8.5 16 1.5
v 8.5 16 0.5
v 8.5 17 1.5
v 8.5 17 0.5
v 9.5 5 1.5
v 9.5 5 0.5
v 9.5 7 1.5
v 9.5 7 0.5
v 9.5 14 1.5
v 9.5 14 0.5
v 9.5 16 1.5
v 9.5 16 0.5
v 10.5 7 1.5
v 10.5 7 0.5
v 10.5 14 1.5
v 10.5 14 0.5
v -1.5 10 2.5
v -1.5 11 2.5
v -0.5 9 2.5
v -0.5 10 2.5
v -0.5 11 2.5
v -0.5 12 2.5
v 0.5 9 2.5
v 0.5 10 2.5
v 0.5 11 2.5
v 0.5 12 2.5
v 1.5 10 2.5
v 1.5 11 2.5
v -10.5 7 1.5
v -10.5 14 1.5
v -9.5 5 1.5
v -9.5 7 1.5
v -9.5 14 1.5
v -9.5 16 1.5
v -8.5 4 1.5
v -8.5 5 1.5
v -8.5 7 1.5
v -8.5 14 1.5
v -8.5 16 1.5
v -8.5 17 1.5
v -7.5 3 1.5
v -7.5 4 1.5
v -7.5 5 1.5
v -7.5 16 1.5
v -7.5 17 1.5
v -7.5 18 1.5
v -6.5 2 1.5
v -6.5 3 1.5
v -6.5 4 1.5
v -6.5 17 1.5
v -6.5 18 1.5
v -6.5 19 1.5
v -5.5 1 1.5
v -5.5 2 1.5
v -5.5 3 1.5
v -5.5 18 1.5
v -5.5 19 1.5
v -5.5 20 1.5
v -3.5 0 1.5
v -3.5 1 1.5
v -3.5 2 1.5
v -3.5 19 1.5
v -3.5 20 1.5
v -3.5 21 1.5
v -2.5 1 1.5
v -2.5 20 1.5
v -1.5 10 1.5
v -1.5 11 1.5
v -0.5 1 1.5
v -0.5 9 1.5
v -0.5 10 1.5
v -0.5 11 1.5
v -0.5 12 1.5
v -0.5 20 1.5
v -0.5 21 1.5
v 0.5 1 1.5
v 0.5 9 1.5
v 0.5 10 1.5
v 0.5 11 1.5
v 0.5 12 1.5
v 0.5 20 1.5
v 0.5 21 1.5
v 1.5 10 1.5
v 1.5 11 1.5
v 1.5 20 1.5
v 1.5 21 1.5
v 2.5 1 1.5
v 2.5 20 1.5
v 2.5 21 1.5
v 3.5 0 1.5
v 3.5 1 1.5
v 3.5 2 1.5
v 3.5 19 1.5
v 3.5 20 1.5
v 3.5 21 1.5
v 5.5 1 1.5
v 5.5 2 1.5
v 5.5 3 1.5
v 5.5 18 1.5
v 5.5 19 1.5
v 5.5 20 1.5
v 6.5 2 1.5
v 6.5 3 1.5
v 6.5 4 1.5
v 6.5 17 1.5
v 6.5 18 1.5
v 6.5 19 1.5
v 7.5 3 1.5
v 7.5 4 1.5
v 7.5 5 1.5
v 7.5 16 1.5
v 7.5 17 1.5
v 7.5 18 1.5
v 8.5 4 1.5
v 8.5 5 1.5
v 8.5 7 1.5
v 8.5 14 1.5
v 8.5 16 1.5
v 8.5 17 1.5
v 9.5 5 1.5
v 9.5 7 1.5
v 9.5 14 1.5
v 9.5 16 1.5
v 10.5 7 1.5
v 10.5 14 1.5
v -0.5 8 -1.5
v -0.5 13 -1.5
v 0.5 8 -1.5
v 0.5 13 -1.5
v -10.5 7 0.5
v -10.5 14 0.5
v -9.5 5 0.5
v -9.5 7 0.5
v -9.5 14 0.5
v -9.5 16 0.5
v -8.5 4 0.5
v -8.5 5 0.5
v -8.5 7 0.5
v -8.5 14 0.5
v -8.5 16 0.5
v -8.5 17 0.5
v -7.5 3 0.5
v -7.5 4 0.5
v -7.5 5 0.5
v -7.5 16 0.5
v -7.5 17 0.5
v -7.5 18 0.5
v -6.5 2 0.5
v -6.5 3 0.5
v -6.5 4 0.5
v -6.5 17 0.5
v -6.5 18 0.5
v -6.5 19 0.5
v -5.5 1 0.5
v -5.5 2 0.5
v -5.5 3 0.5
v -5.5 18 0.5
v -5.5 19 0.5
v -5.5 20 0.5
v -3.5 0 0.5
v -3.5 1 0.5
v -3.5 2 0.5
v -3.5 19 0.5
v -3.5 20 0.5
v -3.5 21 0.5
v -2.5 1 0.5
v -2.5 20 0.5
v -0.5 1 0.5
v -0.5 7 0.5
v -0.5 8 0.5
v -0.5 13 0.5
v -0.5 14 0.5
v -0.5 20 0.5
v -0.5 21 0.5
v 0.5 1 0.5
v 0.5 7 0.5
v 0.5 8 0.5
v 0.5 13 0.5
v 0.5 14 0.5
v 0.5 20 0.5
v 0.5 21 0.5
v 1.5 20 0.5
v 1.5 21 0.5
v 2.5 1 0.5
v 2.5 20 0.5
v 2.5 21 0.5
v 3.5 0 0.5
v 3.5 1 0.5
v 3.5 2 0.5
v 3.5 19 0.5
v 3.5 20 0.5
v 3.5 21 0.5
v 5.5 1 0.5
v 5.5 2 0.5
v 5.5 3 0.5
v 5.5 18 0.5
v 5.5 19 0.5
v 5.5 20 0.5
v 6.5 2 0.5
v 6.5 3 0.5
v 6.5 4 0.5
v 6.5 17 0.5
v 6.5 18 0.5
v 6.5 19 0.5
v 7.5 3 0.5
v 7.5 4 0.5
v 7.5 5 0.5
v 7.5 16 0.5
v 7.5 17 0.5
v 7.5 18 0.5
v 8.5 4 0.5
v 8.5 5 0.5
v 8.5 7 0.5
v 8.5 14 0.5
v 8.5 16 0.5
v 8.5 17 0.5
v 9.5 5 0.5
v 9.5 7 0.5
v 9.5 14 0.5
v 9.5 16 0.5
v 10.5 7 0.5
v 10.5 14 0.5
v -0.5 7 -1.5
v -0.5 8 -1.5
v -0.5 13 -1.5
v -0.5 14 -1.5
v 0.5 7 -1.5
v 0.5 8 -1.5
v 0.5 13 -1.5
v 0.5 14 -1.5
v -0.5 8 -2.5
v -0.5 13 -2.5
v 0.5 8 -2.5
v 0.5 13 -2.5
v -3.5 0 1.5
v 3.5 0 1.5
v -3.5 0 0.5
v 3.5 0 0.5
v -5.5 1 1.5
v -3.5 1 1.5
v 3.5 1 1.5
v 5.5 1 1.5
v -5.5 1 0.5
v -3.5 1 0.5
v 3.5 1 0.5
v 5.5 1 0.5
v -6.5 2 1.5
v -5.5 2 1.5
v 5.5 2 1.5
v 6.5 2 1.5
v -6.5 2 0.5
v -5.5 2 0.5
v 5.5 2 0.5
v 6.5 2 0.5
v -7.5 3 1.5
v -6.5 3 1.5
v 6.5 3 1.5
v 7.5 3 1.5
v -7.5 3 0.5
v -6.5 3 0.5
v 6.5 3 0.5
v 7.5 3 0.5
v -8.5 4 1.5
v -7.5 4 1.5
v 7.5 4 1.5
v 8.5 4 1.5
v -8.5 4 0.5
v -7.5 4 0.5
v 7.5 4 0.5
v 8.5 4 0.5
v -9.5 5 1.5
v -8.5 5 1.5
v 8.5 5 1.5
v 9.5 5 1.5
v -9.5 5 0.5
v -8.5 5 0.5
v 8.5 5 0.5
v 9.5 5 0.5
v -10.5 7 1.5
v -9.5 7 1.5
v 9.5 7 1.5
v 10.5 7 1.5
v -10.5 7 0.5
v -9.5 7 0.5
v -0.5 7 0.5
v 0.5 7 0.5
v 9.5 7 0.5
v 10.5 7 0.5
v -0.5 7 -1.5
v 0.5 7 -1.5
v -0.5 8 -1.5
v 0.5 8 -1.5
v -0.5 8 -2.5
v 0.5 8 -2.5
v -0.5 9 2.5
v 0.5 9 2.5
v -0.5 9 1.5
v 0.5 9 1.5
v -1.5 10 2.5
v -0.5 10 2.5
v 0.5 10 2.5
v 1.5 10 2.5
v -1.5 10 1.5
v -0.5 10 1.5
v 0.5 10 1.5
v 1.5 10 1.5
v -0.5 13 0.5
v 0.5 13 0.5
v -0.5 13 -1.5
v 0.5 13 -1.5
v -0.5 8 0.5
v 0.5 8 0.5
v -0.5 8 -1.5
v 0.5 8 -1.5
v -1.5 11 2.5
v -0.5 11 2.5
v 0.5 11 2.5
v 1.5 11 2.5
v -1.5 11 1.5
v -0.5 11 1.5
v 0.5 11 1.5
v 1.5 11 1.5
v -0.5 12 2.5
v 0.5 12 2.5
v -0.5 12 1.5
v 0.5 12 1.5
v -0.5 13 -1.5
v 0.5 13 -1.5
v -0.5 13 -2.5
v 0.5 13 -2.5
v -10.5 14 1.5
v -9.5 14 1.5
v 9.5 14 1.5
v 10.5 14 1.5
v -10.5 14 0.5
v -9.5 14 0.5
v -0.5 14 0.5
v 0.5 14 0.5
v 9.5 14 0.5
v 10.5 14 0.5
v -0.5 14 -1.5
v 0.5 14 -1.5
v -9.5 16 1.5
v -8.5 16 1.5
v 8.5 16 1.5
v 9.5 16 1.5
v -9.5 16 0.5
v -8.5 16 0.5
v 8.5 16 0.5
v 9.5 16 0.5
v -8.5 17 1.5
v -7.5 17 1.5
v 7.5 17 1.5
v 8.5 17 1.5
v -8.5 17 0.5
v -7.5 17 0.5
v 7.5 17 0.5
v 8.5 17 0.5
v -7.5 18 1.5
v -6.5 18 1.5
v 6.5 18 1.5
v 7.5 18 1.5
v -7.5 18 0.5
v -6.5 18 0.5
v 6.5 18 0.5
v 7.5 18 0.5
v -6.5 19 1.5
v -5.5 19 1.5
v 5.5 19 1.5
v 6.5 19 1.5
v -6.5 19 0.5
v -5.5 19 0.5
v 5.5 19 0.5
v 6.5 19 0.5
v -5.5 20 1.5
v -3.5 20 1.5
v 3.5 20 1.5
v 5.5 20 1.5
v -5.5 20 0.5
v -3.5 20 0.5
v 3.5 20 0.5
v 5.5 20 0.5
v -3.5 21 1.5
v -0.5 21 1.5
v 0.5 21 1.5
v 1.5 21 1.5
v 2.5 21 1.5
v 3.5 21 1.5
v -3.5 21 0.5
v -0.5 21 0.5
v 0.5 21 0.5
v 1.5 21 0.5
v 2.5 21 0.5
v 3.5 21 0.5

# faces
f 3/1/1 2/1/1 1/1/1
f 4/1/1 2/1/1 3/1/1
f 7/1/1 6/1/1 5/1/1
f 8/1/1 6/1/1 7/1/1
f 11/1/1 10/1/1 9/1/1
f 12/1/1 10/1/1 11/1/1
f 15/1/1 14/1/1 13/1/1
f 16/1/1 14/1/1 15/1/1
f 19/1/1 18/1/1 17/1/1
f 20/1/1 18/1/1 19/1/1
f 23/1/1 22/1/1 21/1/1
f 24/1/1 22/1/1 23/1/1
f 27/1/1 26/1/1 25/1/1
f 28/1/1 26/1/1 27/1/1
f 31/1/1 30/1/1 29/1/1
f 32/1/1 30/1/1 31/1/1
f 35/1/1 34/1/1 33/1/1
f 36/1/1 34/1/1 35/1/1
f 39/1/1 38/1/1 37/1/1
f 40/1/1 38/1/1 39/1/1
f 43/1/1 42/1/1 41/1/1
f 44/1/1 42/1/1 43/1/1
f 47/1/1 46/1/1 45/1/1
f 48/1/1 46/1/1 47/1/1
f 51/1/1 50/1/1 49/1/1
f 52/1/1 50/1/1 51/1/1
f 55/1/1 54/1/1 53/1/1
f 56/1/1 54/1/1 55/1/1
f 59/1/1 58/1/1 57/1/1
f 60/1/1 58/1/1 59/1/1
f 64/1/1 63/1/1 62/1/1
f 65/1/1 63/1/1 64/1/1
f 68/1/1 67/1/1 66/1/1
f 69/1/1 67/1/1 68/1/1
f 71/1/1 61/1/1 60/1/1
f 72/1/1 61/1/1 71/1/1
f 73/1/1 71/1/1 70/1/1
f 74/1/1 71/1/1 73/1/1
f 75/1/2 76/1/2 77/1/2
f 77/1/2 76/1/2 78/1/2
f 80/1/2 81/1/2 82/1/2
f 82/1/2 81/1/2 83/1/2
f 84/1/2 85/1/2 86/1/2
f 86/1/2 85/1/2 87/1/2
f 78/1/2 79/1/2 89/1/2
f 89/1/2 79/1/2 90/1/2
f 88/1/2 89/1/2 91/1/2
f 91/1/2 89/1/2 92/1/2
f 93/1/2 94/1/2 95/1/2
f 95/1/2 94/1/2 96/1/2
f 97/1/2 98/1/2 99/1/2
f 99/1/2 98/1/2 100/1/2
f 101/1/2 102/1/2 103/1/2
f 103/1/2 102/1/2 104/1/2
f 105/1/2 106/1/2 107/1/2
f 107/1/2 106/1/2 108/1/2
f 109/1/2 110/1/2 111/1/2
f 111/1/2 110/1/2 112/1/2
f 113/1/2 114/1/2 115/1/2
f 115/1/2 114/1/2 116/1/2
f 117/1/2 118/1/2 119/1/2
f 119/1/2 118/1/2 120/1/2
f 121/1/2 122/1/2 123/1/2
f 123/1/2 122/1/2 124/1/2
f 125/1/2 126/1/2 127/1/2
f 127/1/2 126/1/2 128/1/2
f 129/1/2 130/1/2 131/1/2
f 131/1/2 130/1/2 132/1/2
f 133/1/2 134/1/2 135/1/2
f 135/1/2 134/1/2 136/1/2
f 137/1/2 138/1/2 139/1/2
f 139/1/2 138/1/2 140/1/2
f 141/1/2 142/1/2 143/1/2
f 143/1/2 142/1/2 144/1/2
f 145/1/2 146/1/2 147/1/2
f 147/1/2 146/1/2 148/1/2
f 152/1/3 150/1/3 149/1/3
f 153/1/3 150/1/3 152/1/3
f 155/1/3 152/1/3 151/1/3
f 155/1/3 154/1/3 153/1/3
f 155/1/3 153/1/3 152/1/3
f 156/1/3 154/1/3 155/1/3
f 157/1/3 154/1/3 156/1/3
f 158/1/3 154/1/3 157/1/3
f 159/1/3 157/1/3 156/1/3
f 160/1/3 157/1/3 159/1/3
f 164/1/3 162/1/3 161/1/3
f 165/1/3 162/1/3 164/1/3
f 168/1/3 164/1/3 163/1/3
f 169/4/3 165/4/3 164/4/3
f 169/1/3 164/1/3 168/1/3
f 170/1/3 166/1/3 165/1/3
f 170/4/3 165/4/3 169/4/3
f 171/1/3 166/1/3 170/1/3
f 174/1/3 168/1/3 167/1/3
f 175/3/3 169/3/3 168/3/3
f 175/3/3 170/3/3 169/3/3
f 175/1/3 168/1/3 174/1/3
f 175/3/3 171/3/3 170/3/3
f 176/1/3 172/1/3 171/1/3
f 176/3/3 171/3/3 175/3/3
f 177/1/3 172/1/3 176/1/3
f 180/1/3 174/1/3 173/1/3
f 181/3/3 175/3/3 174/3/3
f 181/3/3 176/3/3 175/3/3
f 181/1/3 174/1/3 180/1/3
f 181/3/3 177/3/3 176/3/3
f 182/1/3 178/1/3 177/1/3
f 182/3/3 177/3/3 181/3/3
f 183/1/3 178/1/3 182/1/3
f 186/1/3 180/1/3 179/1/3
f 187/4/3 181/4/3 180/4/3
f 187/4/3 182/4/3 181/4/3
f 187/1/3 180/1/3 186/1/3
f 187/4/3 183/4/3 182/4/3
f 188/1/3 184/1/3 183/1/3
f 188/4/3 183/4/3 187/4/3
f 189/1/3 184/1/3 188/1/3
f 192/1/3 186/1/3 185/1/3
f 193/3/3 187/3/3 186/3/3
f 193/3/3 188/3/3 187/3/3
f 193/1/3 186/1/3 192/1/3
f 193/3/3 189/3/3 188/3/3
f 194/1/3 190/1/3 189/1/3
f 194/3/3 189/3/3 193/3/3
f 195/1/3 190/1/3 194/1/3
f 197/4/3 193/4/3 192/4/3
f 197/1/3 192/1/3 191/1/3
f 197/4/3 195/4/3 194/4/3
f 197/4/3 194/4/3 193/4/3
f 198/1/3 196/1/3 195/1/3
f 198/4/3 195/4/3 197/4/3
f 199/3/3 198/3/3 197/3/3
f 200/3/3 198/3/3 199/3/3
f 201/1/3 197/1/3 191/1/3
f 201/3/3 199/3/3 197/3/3
f 202/3/3 199/3/3 201/3/3
f 203/3/3 199/3/3 202/3/3
f 204/3/3 198/3/3 200/3/3
f 205/3/3 198/3/3 204/3/3
f 206/1/3 196/1/3 198/1/3
f 206/3/3 198/3/3 205/3/3
f 207/1/3 196/1/3 206/1/3
f 208/1/3 201/1/3 191/1/3
f 208/4/3 202/4/3 201/4/3
f 209/4/3 202/4/3 208/4/3
f 212/4/3 206/4/3 205/4/3
f 213/2/3 207/2/3 206/2/3
f 213/4/3 206/4/3 212/4/3
f 214/2/3 207/2/3 213/2/3
f 215/3/3 210/3/3 209/3/3
f 215/3/3 209/3/3 208/3/3
f 216/3/3 212/3/3 211/3/3
f 216/3/3 213/3/3 212/3/3
f 217/1/3 214/1/3 213/1/3
f 217/3/3 213/3/3 216/3/3
f 218/1/3 214/1/3 217/1/3
f 219/3/3 215/3/3 208/3/3
f 219/1/3 208/1/3 191/1/3
f 219/3/3 216/3/3 215/3/3
f 219/3/3 217/3/3 216/3/3
f 220/2/3 218/2/3 217/2/3
f 220/3/3 217/3/3 219/3/3
f 221/2/3 218/2/3 220/2/3
f 222/1/3 219/1/3 191/1/3
f 223/4/3 220/4/3 219/4/3
f 223/1/3 219/1/3 222/1/3
f 224/4/3 220/4/3 223/4/3
f 225/4/3 220/4/3 224/4/3
f 226/1/3 221/1/3 220/1/3
f 226/4/3 220/4/3 225/4/3
f 227/1/3 221/1/3 226/1/3
f 228/1/3 224/1/3 223/1/3
f 229/3/3 225/3/3 224/3/3
f 229/1/3 224/1/3 228/1/3
f 230/3/3 225/3/3 229/3/3
f 231/3/3 225/3/3 230/3/3
f 232/1/3 226/1/3 225/1/3
f 232/3/3 225/3/3 231/3/3
f 233/1/3 226/1/3 232/1/3
f 234/1/3 230/1/3 229/1/3
f 235/4/3 231/4/3 230/4/3
f 235/1/3 230/1/3 234/1/3
f 236/4/3 231/4/3 235/4/3
f 237/4/3 231/4/3 236/4/3
f 238/1/3 232/1/3 231/1/3
f 238/4/3 231/4/3 237/4/3
f 239/1/3 232/1/3 238/1/3
f 240/1/3 236/1/3 235/1/3
f 241/3/3 237/3/3 236/3/3
f 241/1/3 236/1/3 240/1/3
f 242/3/3 237/3/3 241/3/3
f 243/3/3 237/3/3 242/3/3
f 244/1/3 238/1/3 237/1/3
f 244/3/3 237/3/3 243/3/3
f 245/1/3 238/1/3 244/1/3
f 246/1/3 242/1/3 241/1/3
f 247/3/3 243/3/3 242/3/3
f 247/1/3 242/1/3 246/1/3
f 248/3/3 243/3/3 247/3/3
f 249/3/3 243/3/3 248/3/3
f 250/1/3 244/1/3 243/1/3
f 250/3/3 243/3/3 249/3/3
f 251/1/3 244/1/3 250/1/3
f 252/1/3 248/1/3 247/1/3
f 253/4/3 249/4/3 248/4/3
f 253/1/3 248/1/3 252/1/3
f 254/1/3 250/1/3 249/1/3
f 254/4/3 249/4/3 253/4/3
f 255/1/3 250/1/3 254/1/3
f 256/1/3 254/1/3 253/1/3
f 257/1/3 254/1/3 256/1/3
f 260/1/3 259/1/3 258/1/3
f 261/1/3 259/1/3 260/1/3
f 262/1/4 263/1/4 265/1/4
f 265/1/4 263/1/4 266/1/4
f 264/1/4 265/1/4 269/1/4
f 265/4/4 266/4/4 270/4/4
f 269/1/4 265/1/4 270/1/4
f 266/1/4 267/1/4 271/1/4
f 270/4/4 266/4/4 271/4/4
f 271/1/4 267/1/4 272/1/4
f 268/1/4 269/1/4 275/1/4
f 269/3/4 270/3/4 276/3/4
f 270/3/4 271/3/4 276/3/4
f 275/1/4 269/1/4 276/1/4
f 271/3/4 272/3/4 276/3/4
f 272/1/4 273/1/4 277/1/4
f 276/3/4 272/3/4 277/3/4
f 277/1/4 273/1/4 278/1/4
f 274/1/4 275/1/4 281/1/4
f 275/3/4 276/3/4 282/3/4
f 276/3/4 277/3/4 282/3/4
f 281/1/4 275/1/4 282/1/4
f 277/3/4 278/3/4 282/3/4
f 278/1/4 279/1/4 283/1/4
f 282/3/4 278/3/4 283/3/4
f 283/1/4 279/1/4 284/1/4
f 280/1/4 281/1/4 287/1/4
f 281/4/4 282/4/4 288/4/4
f 282/4/4 283/4/4 288/4/4
f 287/1/4 281/1/4 288/1/4
f 283/4/4 284/4/4 288/4/4
f 284/1/4 285/1/4 289/1/4
f 288/4/4 284/4/4 289/4/4
f 289/1/4 285/1/4 290/1/4
f 286/1/4 287/1/4 293/1/4
f 287/3/4 288/3/4 294/3/4
f 288/3/4 289/3/4 294/3/4
f 293/1/4 287/1/4 294/1/4
f 289/3/4 290/3/4 294/3/4
f 290/1/4 291/1/4 295/1/4
f 294/3/4 290/3/4 295/3/4
f 295/1/4 291/1/4 296/1/4
f 293/4/4 294/4/4 298/4/4
f 292/1/4 293/1/4 298/1/4
f 295/4/4 296/4/4 298/4/4
f 294/4/4 295/4/4 298/4/4
f 296/1/4 297/1/4 299/1/4
f 298/4/4 296/4/4 299/4/4
f 292/1/4 298/1/4 300/1/4
f 298/3/4 299/3/4 300/3/4
f 300/3/4 299/3/4 301/3/4
f 301/3/4 299/3/4 302/3/4
f 302/3/4 299/3/4 303/3/4
f 303/3/4 299/3/4 304/3/4
f 299/1/4 297/1/4 305/1/4
f 304/3/4 299/3/4 305/3/4
f 305/1/4 297/1/4 306/1/4
f 292/1/4 300/1/4 307/1/4
f 300/4/4 301/4/4 307/4/4
f 307/4/4 301/4/4 308/4/4
f 302/4/4 303/4/4 309/4/4
f 309/4/4 303/4/4 310/4/4
f 304/4/4 305/4/4 311/4/4
f 305/2/4 306/2/4 312/2/4
f 311/4/4 305/4/4 312/4/4
f 312/2/4 306/2/4 313/2/4
f 310/3/4 311/3/4 314/3/4
f 309/3/4 310/3/4 314/3/4
f 312/1/4 313/1/4 314/1/4
f 311/3/4 312/3/4 314/3/4
f 307/3/4 308/3/4 314/3/4
f 308/3/4 309/3/4 314/3/4
f 314/1/4 313/1/4 315/1/4
f 292/1/4 307/1/4 316/1/4
f 307/3/4 314/3/4 316/3/4
f 314/2/4 315/2/4 317/2/4
f 316/3/4 314/3/4 317/3/4
f 317/2/4 315/2/4 318/2/4
f 292/1/4 316/1/4 319/1/4
f 316/4/4 317/4/4 320/4/4
f 319/1/4 316/1/4 320/1/4
f 320/4/4 317/4/4 321/4/4
f 321/4/4 317/4/4 322/4/4
f 317/1/4 318/1/4 323/1/4
f 322/4/4 317/4/4 323/4/4
f 323/1/4 318/1/4 324/1/4
f 320/1/4 321/1/4 325/1/4
f 321/3/4 322/3/4 326/3/4
f 325/1/4 321/1/4 326/1/4
f 326/3/4 322/3/4 327/3/4
f 327/3/4 322/3/4 328/3/4
f 322/1/4 323/1/4 329/1/4
f 328/3/4 322/3/4 329/3/4
f 329/1/4 323/1/4 330/1/4
f 326/1/4 327/1/4 331/1/4
f 327/4/4 328/4/4 332/4/4
f 331/1/4 327/1/4 332/1/4
f 332/4/4 328/4/4 333/4/4
f 333/4/4 328/4/4 334/4/4
f 328/1/4 329/1/4 335/1/4
f 334/4/4 328/4/4 335/4/4
f 335/1/4 329/1/4 336/1/4
f 332/1/4 333/1/4 337/1/4
f 333/3/4 334/3/4 338/3/4
f 337/1/4 333/1/4 338/1/4
f 338/3/4 334/3/4 339/3/4
f 339/3/4 334/3/4 340/3/4
f 334/1/4 335/1/4 341/1/4
f 340/3/4 334/3/4 341/3/4
f 341/1/4 335/1/4 342/1/4
f 338/1/4 339/1/4 343/1/4
f 339/3/4 340/3/4 344/3/4
f 343/1/4 339/1/4 344/1/4
f 344/3/4 340/3/4 345/3/4
f 345/3/4 340/3/4 346/3/4
f 340/1/4 341/1/4 347/1/4
f 346/3/4 340/3/4 347/3/4
f 347/1/4 341/1/4 348/1/4
f 344/1/4 345/1/4 349/1/4
f 345/4/4 346/4/4 350/4/4
f 349/1/4 345/1/4 350/1/4
f 346/1/4 347/1/4 351/1/4
f 350/4/4 346/4/4 351/4/4
f 351/1/4 347/1/4 352/1/4
f 350/1/4 351/1/4 353/1/4
f 353/1/4 351/1/4 354/1/4
f 355/1/4 356/1/4 359/1/4
f 359/1/4 356/1/4 360/1/4
f 357/1/4 358/1/4 361/1/4
f 361/1/4 358/1/4 362/1/4
f 363/1/4 364/1/4 365/1/4
f 365/1/4 364/1/4 366/1/4
f 369/1/5 368/1/5 367/1/5
f 370/1/5 368/1/5 369/1/5
f 375/1/5 372/1/5 371/1/5
f 376/1/5 372/1/5 375/1/5
f 377/1/5 374/1/5 373/1/5
f 378/1/5 374/1/5 377/1/5
f 383/1/5 380/1/5 379/1/5
f 384/1/5 380/1/5 383/1/5
f 385/1/5 382/1/5 381/1/5
f 386/1/5 382/1/5 385/1/5
f 391/1/5 388/1/5 387/1/5
f 392/1/5 388/1/5 391/1/5
f 393/1/5 390/1/5 389/1/5
f 394/1/5 390/1/5 393/1/5
f 399/1/5 396/1/5 395/1/5
f 400/1/5 396/1/5 399/1/5
f 401/1/5 398/1/5 397/1/5
f 402/1/5 398/1/5 401/1/5
f 407/1/5 404/1/5 403/1/5
f 408/1/5 404/1/5 407/1/5
f 409/1/5 406/1/5 405/1/5
f 410/1/5 406/1/5 409/1/5
f 415/1/5 412/1/5 411/1/5
f 416/1/5 412/1/5 415/1/5
f 419/1/5 414/1/5 413/1/5
f 420/1/5 414/1/5 419/1/5
f 421/1/5 418/1/5 417/1/5
f 422/1/5 418/1/5 421/1/5
f 425/1/5 424/1/5 423/1/5
f 426/1/5 424/1/5 425/1/5
f 429/1/5 428/1/5 427/1/5
f 430/1/5 428/1/5 429/1/5
f 435/1/5 432/1/5 431/1/5
f 436/1/5 432/1/5 435/1/5
f 437/1/5 434/1/5 433/1/5
f 438/1/5 434/1/5 437/1/5
f 441/1/5 440/1/5 439/1/5
f 442/1/5 440/1/5 441/1/5
f 443/1/6 444/1/6 445/1/6
f 445/1/6 444/1/6 446/1/6
f 447/1/6 448/1/6 451/1/6
f 451/1/6 448/1/6 452/1/6
f 449/1/6 450/1/6 453/1/6
f 453/1/6 450/1/6 454/1/6
f 455/1/6 456/1/6 457/1/6
f 457/1/6 456/1/6 458/1/6
f 459/1/6 460/1/6 461/1/6
f 461/1/6 460/1/6 462/1/6
f 463/1/6 464/1/6 467/1/6
f 467/1/6 464/1/6 468/1/6
f 465/1/6 466/1/6 471/1/6
f 471/1/6 466/1/6 472/1/6
f 469/1/6 470/1/6 473/1/6
f 473/1/6 470/1/6 474/1/6
f 475/1/6 476/1/6 479/1/6
f 479/1/6 476/1/6 480/1/6
f 477/1/6 478/1/6 481/1/6
f 481/1/6 478/1/6 482/1/6
f 483/1/6 484/1/6 487/1/6
f 487/1/6 484/1/6 488/1/6
f 485/1/6 486/1/6 489/1/6
f 489/1/6 486/1/6 490/1/6
f 491/1/6 492/1/6 495/1/6
f 495/1/6 492/1/6 496/1/6
f 493/1/6 494/1/6 497/1/6
f 497/1/6 494/1/6 498/1/6
f 499/1/6 500/1/6 503/1/6
f 503/1/6 500/1/6 504/1/6
f 501/1/6 502/1/6 505/1/6
f 505/1/6 502/1/6 506/1/6
f 507/1/6 508/1/6 511/1/6
f 511/1/6 508/1/6 512/1/6
f 509/1/6 510/1/6 513/1/6
f 513/1/6 510/1/6 514/1/6
f 515/1/6 516/1/6 521/1/6
f 516/2/6 517/2/6 522/2/6
f 521/1/6 516/1/6 522/1/6
f 517/1/6 518/1/6 523/1/6
f 522/2/6 517/2/6 523/2/6
f 518/2/6 519/2/6 524/2/6
f 523/1/6 518/1/6 524/1/6
f 519/1/6 520/1/6 525/1/6
f 524/2/6 519/2/6 525/2/6
f 525/1/6 520/1/6 526/1/6
