# MagicaVoxel @ Ephtracy

# group
g weaponsshields-23

# material
mtllib weaponsshields-23.mtl
usemtl palette

# normals
vn -1 0 0
vn 1 0 0
vn 0 0 1
vn 0 0 -1
vn 0 -1 0
vn 0 1 0

# texcoords
vt 0.810547 0.5
vt 0.861328 0.5
vt 0.865234 0.5
vt 0.869141 0.5

# verts
v -1 0 1
v -1 0 -0
v -1 0 -1
v -1 3 1
v -1 3 -0
v -1 3 -1
v -1 5 1
v -1 5 -0
v -1 11 1
v -1 11 -1
v -1 15 1
v -1 15 -1
v -1 24 -0
v -1 24 -1
v -1 25 -0
v -1 25 -1
v -1 32 1
v -1 32 -1
v -1 36 1
v -1 36 -1
v -1 42 1
v -1 42 -1
v -1 44 -0
v -1 44 -1
v -1 46 1
v -1 46 -0
v -1 47 1
v -1 47 -1
v 1 0 1
v 1 0 -0
v 1 0 -1
v 1 1 1
v 1 1 -0
v 1 2 1
v 1 2 -0
v 1 3 1
v 1 3 -1
v 1 11 1
v 1 11 -1
v 1 15 1
v 1 15 -1
v 1 17 1
v 1 17 -0
v 1 18 1
v 1 18 -0
v 1 24 -0
v 1 24 -1
v 1 27 1
v 1 27 -0
v 1 28 1
v 1 28 -1
v 1 32 1
v 1 32 -1
v 1 36 1
v 1 36 -1
v 1 39 -0
v 1 39 -1
v 1 40 -0
v 1 40 -1
v 1 41 1
v 1 41 -0
v 1 42 1
v 1 42 -0
v 1 46 -0
v 1 46 -1
v 1 47 1
v 1 47 -0
v 1 47 -1
v -1 0 1
v -1 3 1
v -1 5 1
v -1 11 1
v -1 15 1
v -1 32 1
v -1 36 1
v -1 42 1
v -1 46 1
v -1 47 1
v 0 0 1
v 0 1 1
v 0 2 1
v 0 3 1
v 0 5 1
v 0 17 1
v 0 18 1
v 0 27 1
v 0 28 1
v 0 41 1
v 0 42 1
v 0 46 1
v 1 0 1
v 1 1 1
v 1 2 1
v 1 3 1
v 1 11 1
v 1 15 1
v 1 17 1
v 1 18 1
v 1 27 1
v 1 28 1
v 1 32 1
v 1 36 1
v 1 41 1
v 1 42 1
v 1 47 1
v -1 0 -1
v -1 3 -1
v -1 11 -1
v -1 15 -1
v -1 24 -1
v -1 25 -1
v -1 32 -1
v -1 36 -1
v -1 42 -1
v -1 44 -1
v -1 47 -1
v 0 24 -1
v 0 25 -1
v 0 28 -1
v 0 39 -1
v 0 40 -1
v 0 42 -1
v 0 44 -1
v 0 46 -1
v 0 47 -1
v 1 0 -1
v 1 3 -1
v 1 11 -1
v 1 15 -1
v 1 24 -1
v 1 28 -1
v 1 32 -1
v 1 36 -1
v 1 39 -1
v 1 40 -1
v 1 46 -1
v 1 47 -1
v -1 0 1
v 0 0 1
v 1 0 1
v -1 0 -0
v 0 0 -0
v 1 0 -0
v -1 0 -1
v 1 0 -1
v -1 47 1
v 1 47 1
v 0 47 -0
v 1 47 -0
v -1 47 -1
v 0 47 -1
v 1 47 -1

# faces
f 4/2/1 2/2/1 1/2/1
f 5/1/1 3/1/1 2/1/1
f 5/2/1 2/2/1 4/2/1
f 6/1/1 3/1/1 5/1/1
f 7/1/1 5/1/1 4/1/1
f 8/2/1 6/2/1 5/2/1
f 8/1/1 5/1/1 7/1/1
f 9/2/1 8/2/1 7/2/1
f 10/2/1 6/2/1 8/2/1
f 10/2/1 8/2/1 9/2/1
f 11/3/1 10/3/1 9/3/1
f 12/3/1 10/3/1 11/3/1
f 13/2/1 12/2/1 11/2/1
f 14/2/1 12/2/1 13/2/1
f 15/2/1 13/2/1 11/2/1
f 15/4/1 14/4/1 13/4/1
f 16/4/1 14/4/1 15/4/1
f 17/2/1 15/2/1 11/2/1
f 17/2/1 16/2/1 15/2/1
f 18/2/1 16/2/1 17/2/1
f 19/3/1 18/3/1 17/3/1
f 20/3/1 18/3/1 19/3/1
f 21/2/1 20/2/1 19/2/1
f 22/2/1 20/2/1 21/2/1
f 23/1/1 22/1/1 21/1/1
f 24/1/1 22/1/1 23/1/1
f 25/1/1 23/1/1 21/1/1
f 26/2/1 24/2/1 23/2/1
f 26/1/1 23/1/1 25/1/1
f 27/2/1 26/2/1 25/2/1
f 28/2/1 24/2/1 26/2/1
f 28/2/1 26/2/1 27/2/1
f 29/4/2 30/4/2 32/4/2
f 30/1/2 31/1/2 33/1/2
f 32/4/2 30/4/2 33/4/2
f 32/2/2 33/2/2 34/2/2
f 33/1/2 31/1/2 35/1/2
f 34/2/2 33/2/2 35/2/2
f 34/1/2 35/1/2 36/1/2
f 35/1/2 31/1/2 37/1/2
f 36/1/2 35/1/2 37/1/2
f 36/2/2 37/2/2 38/2/2
f 38/2/2 37/2/2 39/2/2
f 38/3/2 39/3/2 40/3/2
f 40/3/2 39/3/2 41/3/2
f 40/2/2 41/2/2 42/2/2
f 42/2/2 41/2/2 43/2/2
f 42/4/2 43/4/2 44/4/2
f 43/2/2 41/2/2 45/2/2
f 44/4/2 43/4/2 45/4/2
f 44/2/2 45/2/2 46/2/2
f 45/2/2 41/2/2 46/2/2
f 46/2/2 41/2/2 47/2/2
f 44/2/2 46/2/2 48/2/2
f 46/1/2 47/1/2 49/1/2
f 48/2/2 46/2/2 49/2/2
f 48/1/2 49/1/2 50/1/2
f 49/1/2 47/1/2 51/1/2
f 50/1/2 49/1/2 51/1/2
f 50/2/2 51/2/2 52/2/2
f 52/2/2 51/2/2 53/2/2
f 52/3/2 53/3/2 54/3/2
f 54/3/2 53/3/2 55/3/2
f 54/2/2 55/2/2 56/2/2
f 56/2/2 55/2/2 57/2/2
f 54/2/2 56/2/2 58/2/2
f 56/1/2 57/1/2 58/1/2
f 58/1/2 57/1/2 59/1/2
f 54/2/2 58/2/2 60/2/2
f 58/2/2 59/2/2 60/2/2
f 60/2/2 59/2/2 61/2/2
f 60/1/2 61/1/2 62/1/2
f 61/2/2 59/2/2 63/2/2
f 62/1/2 61/1/2 63/1/2
f 62/2/2 63/2/2 64/2/2
f 63/2/2 59/2/2 64/2/2
f 64/2/2 59/2/2 65/2/2
f 62/2/2 64/2/2 66/2/2
f 64/4/2 65/4/2 67/4/2
f 66/2/2 64/2/2 67/2/2
f 67/4/2 65/4/2 68/4/2
f 79/2/3 70/2/3 69/2/3
f 80/2/3 70/2/3 79/2/3
f 81/2/3 70/2/3 80/2/3
f 82/1/3 71/1/3 70/1/3
f 82/2/3 70/2/3 81/2/3
f 83/2/3 72/2/3 71/2/3
f 83/1/3 71/1/3 82/1/3
f 84/2/3 74/2/3 73/2/3
f 85/2/3 74/2/3 84/2/3
f 86/2/3 74/2/3 85/2/3
f 87/2/3 74/2/3 86/2/3
f 88/2/3 76/2/3 75/2/3
f 89/1/3 77/1/3 76/1/3
f 89/2/3 76/2/3 88/2/3
f 90/2/3 78/2/3 77/2/3
f 90/1/3 77/1/3 89/1/3
f 91/4/3 80/4/3 79/4/3
f 92/2/3 81/2/3 80/2/3
f 92/4/3 80/4/3 91/4/3
f 93/1/3 82/1/3 81/1/3
f 93/2/3 81/2/3 92/2/3
f 94/2/3 83/2/3 82/2/3
f 94/1/3 82/1/3 93/1/3
f 95/3/3 73/3/3 72/3/3
f 95/2/3 83/2/3 94/2/3
f 95/2/3 72/2/3 83/2/3
f 96/2/3 84/2/3 73/2/3
f 96/3/3 73/3/3 95/3/3
f 97/4/3 85/4/3 84/4/3
f 97/2/3 84/2/3 96/2/3
f 98/2/3 86/2/3 85/2/3
f 98/4/3 85/4/3 97/4/3
f 99/1/3 87/1/3 86/1/3
f 99/2/3 86/2/3 98/2/3
f 100/2/3 74/2/3 87/2/3
f 100/1/3 87/1/3 99/1/3
f 101/3/3 75/3/3 74/3/3
f 101/2/3 74/2/3 100/2/3
f 102/2/3 88/2/3 75/2/3
f 102/3/3 75/3/3 101/3/3
f 103/1/3 89/1/3 88/1/3
f 103/2/3 88/2/3 102/2/3
f 104/2/3 90/2/3 89/2/3
f 104/1/3 89/1/3 103/1/3
f 105/2/3 78/2/3 90/2/3
f 105/2/3 90/2/3 104/2/3
f 109/2/4 110/2/4 117/2/4
f 110/4/4 111/4/4 117/4/4
f 111/2/4 112/2/4 118/2/4
f 117/4/4 111/4/4 118/4/4
f 118/2/4 112/2/4 119/2/4
f 113/2/4 114/2/4 120/2/4
f 120/2/4 114/2/4 121/2/4
f 114/1/4 115/1/4 122/1/4
f 121/2/4 114/2/4 122/2/4
f 115/2/4 116/2/4 123/2/4
f 122/1/4 115/1/4 123/1/4
f 123/2/4 116/2/4 124/2/4
f 124/2/4 116/2/4 125/2/4
f 106/1/4 107/1/4 126/1/4
f 107/2/4 108/2/4 127/2/4
f 126/1/4 107/1/4 127/1/4
f 108/3/4 109/3/4 128/3/4
f 127/2/4 108/2/4 128/2/4
f 109/2/4 117/2/4 129/2/4
f 128/3/4 109/3/4 129/3/4
f 117/1/4 118/1/4 130/1/4
f 129/2/4 117/2/4 130/2/4
f 118/1/4 119/1/4 130/1/4
f 119/2/4 112/2/4 131/2/4
f 130/1/4 119/1/4 131/1/4
f 112/3/4 113/3/4 132/3/4
f 131/2/4 112/2/4 132/2/4
f 113/2/4 120/2/4 133/2/4
f 132/3/4 113/3/4 133/3/4
f 120/1/4 121/1/4 134/1/4
f 133/2/4 120/2/4 134/2/4
f 121/2/4 122/2/4 135/2/4
f 134/1/4 121/1/4 135/1/4
f 122/2/4 123/2/4 135/2/4
f 123/2/4 124/2/4 135/2/4
f 124/4/4 125/4/4 136/4/4
f 135/2/4 124/2/4 136/2/4
f 136/4/4 125/4/4 137/4/4
f 141/2/5 139/2/5 138/2/5
f 142/4/5 140/4/5 139/4/5
f 142/2/5 139/2/5 141/2/5
f 143/4/5 140/4/5 142/4/5
f 144/1/5 142/1/5 141/1/5
f 144/1/5 143/1/5 142/1/5
f 145/1/5 143/1/5 144/1/5
f 146/2/6 147/2/6 148/2/6
f 148/2/6 147/2/6 149/2/6
f 146/2/6 148/2/6 150/2/6
f 148/4/6 149/4/6 151/4/6
f 150/2/6 148/2/6 151/2/6
f 151/4/6 149/4/6 152/4/6
