# MagicaVoxel @ Ephtracy

# group
g weaponsshields-7

# material
mtllib weaponsshields-7.mtl
usemtl palette

# normals
vn -1 0 0
vn 1 0 0
vn 0 0 1
vn 0 0 -1
vn 0 -1 0
vn 0 1 0

# texcoords
vt 0.0878906 0.5
vt 0.119141 0.5
vt 0.861328 0.5
vt 0.865234 0.5

# verts
v -10.5 7 1.5
v -10.5 7 0.5
v -10.5 10 2.5
v -10.5 10 1.5
v -10.5 11 2.5
v -10.5 11 1.5
v -10.5 14 1.5
v -10.5 14 0.5
v -9.5 5 1.5
v -9.5 5 0.5
v -9.5 7 1.5
v -9.5 7 0.5
v -9.5 14 1.5
v -9.5 14 0.5
v -9.5 16 1.5
v -9.5 16 0.5
v -8.5 4 1.5
v -8.5 4 0.5
v -8.5 5 1.5
v -8.5 5 0.5
v -8.5 16 1.5
v -8.5 16 0.5
v -8.5 17 1.5
v -8.5 17 0.5
v -7.5 3 1.5
v -7.5 3 0.5
v -7.5 4 1.5
v -7.5 4 0.5
v -7.5 17 1.5
v -7.5 17 0.5
v -7.5 18 1.5
v -7.5 18 0.5
v -6.5 2 1.5
v -6.5 2 0.5
v -6.5 3 1.5
v -6.5 3 0.5
v -6.5 18 1.5
v -6.5 18 0.5
v -6.5 19 1.5
v -6.5 19 0.5
v -5.5 1 1.5
v -5.5 1 0.5
v -5.5 2 1.5
v -5.5 2 0.5
v -5.5 19 1.5
v -5.5 19 0.5
v -5.5 20 1.5
v -5.5 20 0.5
v -3.5 0 1.5
v -3.5 0 0.5
v -3.5 1 1.5
v -3.5 1 0.5
v -3.5 20 1.5
v -3.5 20 0.5
v -3.5 21 1.5
v -3.5 21 0.5
v -2.5 9 2.5
v -2.5 9 1.5
v -2.5 10 2.5
v -2.5 10 1.5
v -2.5 11 2.5
v -2.5 11 1.5
v -2.5 12 2.5
v -2.5 12 1.5
v -1.5 8 2.5
v -1.5 8 1.5
v -1.5 9 2.5
v -1.5 9 1.5
v -1.5 12 2.5
v -1.5 12 1.5
v -1.5 13 2.5
v -1.5 13 1.5
v -0.5 0 2.5
v -0.5 0 1.5
v -0.5 1 1.5
v -0.5 7 0.5
v -0.5 7 -2.5
v -0.5 8 2.5
v -0.5 8 1.5
v -0.5 8 0.5
v -0.5 8 -1.5
v -0.5 13 2.5
v -0.5 13 1.5
v -0.5 13 0.5
v -0.5 13 -1.5
v -0.5 14 0.5
v -0.5 14 -2.5
v -0.5 20 1.5
v -0.5 21 2.5
v -0.5 21 1.5
v 0.5 0 2.5
v 0.5 0 1.5
v 0.5 1 1.5
v 0.5 7 0.5
v 0.5 7 -2.5
v 0.5 8 2.5
v 0.5 8 1.5
v 0.5 8 0.5
v 0.5 8 -1.5
v 0.5 13 2.5
v 0.5 13 1.5
v 0.5 13 0.5
v 0.5 13 -1.5
v 0.5 14 0.5
v 0.5 14 -2.5
v 0.5 20 1.5
v 0.5 21 2.5
v 0.5 21 1.5
v 1.5 8 2.5
v 1.5 8 1.5
v 1.5 9 2.5
v 1.5 9 1.5
v 1.5 12 2.5
v 1.5 12 1.5
v 1.5 13 2.5
v 1.5 13 1.5
v 2.5 9 2.5
v 2.5 9 1.5
v 2.5 10 2.5
v 2.5 10 1.5
v 2.5 11 2.5
v 2.5 11 1.5
v 2.5 12 2.5
v 2.5 12 1.5
v 3.5 0 1.5
v 3.5 0 0.5
v 3.5 1 1.5
v 3.5 1 0.5
v 3.5 20 1.5
v 3.5 20 0.5
v 3.5 21 1.5
v 3.5 21 0.5
v 5.5 1 1.5
v 5.5 1 0.5
v 5.5 2 1.5
v 5.5 2 0.5
v 5.5 19 1.5
v 5.5 19 0.5
v 5.5 20 1.5
v 5.5 20 0.5
v 6.5 2 1.5
v 6.5 2 0.5
v 6.5 3 1.5
v 6.5 3 0.5
v 6.5 18 1.5
v 6.5 18 0.5
v 6.5 19 1.5
v 6.5 19 0.5
v 7.5 3 1.5
v 7.5 3 0.5
v 7.5 4 1.5
v 7.5 4 0.5
v 7.5 17 1.5
v 7.5 17 0.5
v 7.5 18 1.5
v 7.5 18 0.5
v 8.5 4 1.5
v 8.5 4 0.5
v 8.5 5 1.5
v 8.5 5 0.5
v 8.5 16 1.5
v 8.5 16 0.5
v 8.5 17 1.5
v 8.5 17 0.5
v 9.5 5 1.5
v 9.5 5 0.5
v 9.5 7 1.5
v 9.5 7 0.5
v 9.5 14 1.5
v 9.5 14 0.5
v 9.5 16 1.5
v 9.5 16 0.5
v 10.5 7 1.5
v 10.5 7 0.5
v 10.5 10 2.5
v 10.5 10 1.5
v 10.5 11 2.5
v 10.5 11 1.5
v 10.5 14 1.5
v 10.5 14 0.5
v -10.5 10 2.5
v -10.5 11 2.5
v -2.5 9 2.5
v -2.5 10 2.5
v -2.5 11 2.5
v -2.5 12 2.5
v -1.5 8 2.5
v -1.5 9 2.5
v -1.5 12 2.5
v -1.5 13 2.5
v -0.5 0 2.5
v -0.5 8 2.5
v -0.5 10 2.5
v -0.5 13 2.5
v -0.5 21 2.5
v 0.5 0 2.5
v 0.5 8 2.5
v 0.5 11 2.5
v 0.5 13 2.5
v 0.5 21 2.5
v 1.5 8 2.5
v 1.5 9 2.5
v 1.5 12 2.5
v 1.5 13 2.5
v 2.5 9 2.5
v 2.5 10 2.5
v 2.5 11 2.5
v 2.5 12 2.5
v 10.5 10 2.5
v 10.5 11 2.5
v -10.5 7 1.5
v -10.5 10 1.5
v -10.5 11 1.5
v -10.5 14 1.5
v -9.5 5 1.5
v -9.5 7 1.5
v -9.5 10 1.5
v -9.5 11 1.5
v -9.5 14 1.5
v -9.5 16 1.5
v -8.5 4 1.5
v -8.5 5 1.5
v -8.5 7 1.5
v -8.5 10 1.5
v -8.5 11 1.5
v -8.5 14 1.5
v -8.5 16 1.5
v -8.5 17 1.5
v -7.5 3 1.5
v -7.5 4 1.5
v -7.5 5 1.5
v -7.5 16 1.5
v -7.5 17 1.5
v -7.5 18 1.5
v -6.5 2 1.5
v -6.5 3 1.5
v -6.5 4 1.5
v -6.5 10 1.5
v -6.5 11 1.5
v -6.5 17 1.5
v -6.5 18 1.5
v -6.5 19 1.5
v -5.5 1 1.5
v -5.5 2 1.5
v -5.5 3 1.5
v -5.5 10 1.5
v -5.5 11 1.5
v -5.5 18 1.5
v -5.5 19 1.5
v -5.5 20 1.5
v -3.5 0 1.5
v -3.5 1 1.5
v -3.5 2 1.5
v -3.5 10 1.5
v -3.5 11 1.5
v -3.5 19 1.5
v -3.5 20 1.5
v -3.5 21 1.5
v -2.5 1 1.5
v -2.5 9 1.5
v -2.5 10 1.5
v -2.5 11 1.5
v -2.5 12 1.5
v -2.5 20 1.5
v -1.5 8 1.5
v -1.5 9 1.5
v -1.5 12 1.5
v -1.5 13 1.5
v -0.5 0 1.5
v -0.5 1 1.5
v -0.5 8 1.5
v -0.5 13 1.5
v -0.5 20 1.5
v -0.5 21 1.5
v 0.5 0 1.5
v 0.5 1 1.5
v 0.5 8 1.5
v 0.5 13 1.5
v 0.5 20 1.5
v 0.5 21 1.5
v 1.5 8 1.5
v 1.5 9 1.5
v 1.5 12 1.5
v 1.5 13 1.5
v 1.5 20 1.5
v 1.5 21 1.5
v 2.5 1 1.5
v 2.5 9 1.5
v 2.5 10 1.5
v 2.5 11 1.5
v 2.5 12 1.5
v 2.5 20 1.5
v 2.5 21 1.5
v 3.5 0 1.5
v 3.5 1 1.5
v 3.5 2 1.5
v 3.5 10 1.5
v 3.5 11 1.5
v 3.5 19 1.5
v 3.5 20 1.5
v 3.5 21 1.5
v 5.5 1 1.5
v 5.5 2 1.5
v 5.5 3 1.5
v 5.5 10 1.5
v 5.5 11 1.5
v 5.5 18 1.5
v 5.5 19 1.5
v 5.5 20 1.5
v 6.5 2 1.5
v 6.5 3 1.5
v 6.5 4 1.5
v 6.5 10 1.5
v 6.5 11 1.5
v 6.5 17 1.5
v 6.5 18 1.5
v 6.5 19 1.5
v 7.5 3 1.5
v 7.5 4 1.5
v 7.5 5 1.5
v 7.5 16 1.5
v 7.5 17 1.5
v 7.5 18 1.5
v 8.5 4 1.5
v 8.5 5 1.5
v 8.5 7 1.5
v 8.5 10 1.5
v 8.5 11 1.5
v 8.5 14 1.5
v 8.5 16 1.5
v 8.5 17 1.5
v 9.5 5 1.5
v 9.5 7 1.5
v 9.5 10 1.5
v 9.5 11 1.5
v 9.5 14 1.5
v 9.5 16 1.5
v 10.5 7 1.5
v 10.5 10 1.5
v 10.5 11 1.5
v 10.5 14 1.5
v -0.5 8 -1.5
v -0.5 13 -1.5
v 0.5 8 -1.5
v 0.5 13 -1.5
v -10.5 7 0.5
v -10.5 14 0.5
v -9.5 5 0.5
v -9.5 7 0.5
v -9.5 10 0.5
v -9.5 11 0.5
v -9.5 14 0.5
v -9.5 16 0.5
v -8.5 4 0.5
v -8.5 5 0.5
v -8.5 7 0.5
v -8.5 10 0.5
v -8.5 11 0.5
v -8.5 14 0.5
v -8.5 16 0.5
v -8.5 17 0.5
v -7.5 3 0.5
v -7.5 4 0.5
v -7.5 5 0.5
v -7.5 16 0.5
v -7.5 17 0.5
v -7.5 18 0.5
v -6.5 2 0.5
v -6.5 3 0.5
v -6.5 4 0.5
v -6.5 17 0.5
v -6.5 18 0.5
v -6.5 19 0.5
v -5.5 1 0.5
v -5.5 2 0.5
v -5.5 3 0.5
v -5.5 18 0.5
v -5.5 19 0.5
v -5.5 20 0.5
v -3.5 0 0.5
v -3.5 1 0.5
v -3.5 2 0.5
v -3.5 19 0.5
v -3.5 20 0.5
v -3.5 21 0.5
v -2.5 1 0.5
v -2.5 20 0.5
v -0.5 1 0.5
v -0.5 7 0.5
v -0.5 8 0.5
v -0.5 13 0.5
v -0.5 14 0.5
v -0.5 20 0.5
v -0.5 21 0.5
v 0.5 1 0.5
v 0.5 7 0.5
v 0.5 8 0.5
v 0.5 13 0.5
v 0.5 14 0.5
v 0.5 20 0.5
v 0.5 21 0.5
v 1.5 20 0.5
v 1.5 21 0.5
v 2.5 1 0.5
v 2.5 20 0.5
v 2.5 21 0.5
v 3.5 0 0.5
v 3.5 1 0.5
v 3.5 2 0.5
v 3.5 19 0.5
v 3.5 20 0.5
v 3.5 21 0.5
v 5.5 1 0.5
v 5.5 2 0.5
v 5.5 3 0.5
v 5.5 18 0.5
v 5.5 19 0.5
v 5.5 20 0.5
v 6.5 2 0.5
v 6.5 3 0.5
v 6.5 4 0.5
v 6.5 17 0.5
v 6.5 18 0.5
v 6.5 19 0.5
v 7.5 3 0.5
v 7.5 4 0.5
v 7.5 5 0.5
v 7.5 16 0.5
v 7.5 17 0.5
v 7.5 18 0.5
v 8.5 4 0.5
v 8.5 5 0.5
v 8.5 7 0.5
v 8.5 10 0.5
v 8.5 11 0.5
v 8.5 14 0.5
v 8.5 16 0.5
v 8.5 17 0.5
v 9.5 5 0.5
v 9.5 7 0.5
v 9.5 10 0.5
v 9.5 11 0.5
v 9.5 14 0.5
v 9.5 16 0.5
v 10.5 7 0.5
v 10.5 14 0.5
v -0.5 7 -2.5
v -0.5 14 -2.5
v 0.5 7 -2.5
v 0.5 14 -2.5
v -0.5 0 2.5
v 0.5 0 2.5
v -3.5 0 1.5
v -0.5 0 1.5
v 0.5 0 1.5
v 3.5 0 1.5
v -3.5 0 0.5
v 3.5 0 0.5
v -5.5 1 1.5
v -3.5 1 1.5
v 3.5 1 1.5
v 5.5 1 1.5
v -5.5 1 0.5
v -3.5 1 0.5
v 3.5 1 0.5
v 5.5 1 0.5
v -6.5 2 1.5
v -5.5 2 1.5
v 5.5 2 1.5
v 6.5 2 1.5
v -6.5 2 0.5
v -5.5 2 0.5
v 5.5 2 0.5
v 6.5 2 0.5
v -7.5 3 1.5
v -6.5 3 1.5
v 6.5 3 1.5
v 7.5 3 1.5
v -7.5 3 0.5
v -6.5 3 0.5
v 6.5 3 0.5
v 7.5 3 0.5
v -8.5 4 1.5
v -7.5 4 1.5
v 7.5 4 1.5
v 8.5 4 1.5
v -8.5 4 0.5
v -7.5 4 0.5
v 7.5 4 0.5
v 8.5 4 0.5
v -9.5 5 1.5
v -8.5 5 1.5
v 8.5 5 1.5
v 9.5 5 1.5
v -9.5 5 0.5
v -8.5 5 0.5
v 8.5 5 0.5
v 9.5 5 0.5
v -10.5 7 1.5
v -9.5 7 1.5
v 9.5 7 1.5
v 10.5 7 1.5
v -10.5 7 0.5
v -9.5 7 0.5
v -0.5 7 0.5
v 0.5 7 0.5
v 9.5 7 0.5
v 10.5 7 0.5
v -0.5 7 -2.5
v 0.5 7 -2.5
v -1.5 8 2.5
v -0.5 8 2.5
v 0.5 8 2.5
v 1.5 8 2.5
v -1.5 8 1.5
v -0.5 8 1.5
v 0.5 8 1.5
v 1.5 8 1.5
v -2.5 9 2.5
v -1.5 9 2.5
v 1.5 9 2.5
v 2.5 9 2.5
v -2.5 9 1.5
v -1.5 9 1.5
v 1.5 9 1.5
v 2.5 9 1.5
v -10.5 10 2.5
v -2.5 10 2.5
v 2.5 10 2.5
v 10.5 10 2.5
v -10.5 10 1.5
v -9.5 10 1.5
v -8.5 10 1.5
v -6.5 10 1.5
v -5.5 10 1.5
v -3.5 10 1.5
v -2.5 10 1.5
v 2.5 10 1.5
v 3.5 10 1.5
v 5.5 10 1.5
v 6.5 10 1.5
v 8.5 10 1.5
v 9.5 10 1.5
v 10.5 10 1.5
v -0.5 13 0.5
v 0.5 13 0.5
v -0.5 13 -1.5
v 0.5 13 -1.5
v -0.5 8 0.5
v 0.5 8 0.5
v -0.5 8 -1.5
v 0.5 8 -1.5
v -10.5 11 2.5
v -2.5 11 2.5
v 2.5 11 2.5
v 10.5 11 2.5
v -10.5 11 1.5
v -9.5 11 1.5
v -8.5 11 1.5
v -6.5 11 1.5
v -5.5 11 1.5
v -3.5 11 1.5
v -2.5 11 1.5
v 2.5 11 1.5
v 3.5 11 1.5
v 5.5 11 1.5
v 6.5 11 1.5
v 8.5 11 1.5
v 9.5 11 1.5
v 10.5 11 1.5
v -2.5 12 2.5
v -1.5 12 2.5
v 1.5 12 2.5
v 2.5 12 2.5
v -2.5 12 1.5
v -1.5 12 1.5
v 1.5 12 1.5
v 2.5 12 1.5
v -1.5 13 2.5
v -0.5 13 2.5
v 0.5 13 2.5
v 1.5 13 2.5
v -1.5 13 1.5
v -0.5 13 1.5
v 0.5 13 1.5
v 1.5 13 1.5
v -10.5 14 1.5
v -9.5 14 1.5
v 9.5 14 1.5
v 10.5 14 1.5
v -10.5 14 0.5
v -9.5 14 0.5
v -0.5 14 0.5
v 0.5 14 0.5
v 9.5 14 0.5
v 10.5 14 0.5
v -0.5 14 -2.5
v 0.5 14 -2.5
v -9.5 16 1.5
v -8.5 16 1.5
v 8.5 16 1.5
v 9.5 16 1.5
v -9.5 16 0.5
v -8.5 16 0.5
v 8.5 16 0.5
v 9.5 16 0.5
v -8.5 17 1.5
v -7.5 17 1.5
v 7.5 17 1.5
v 8.5 17 1.5
v -8.5 17 0.5
v -7.5 17 0.5
v 7.5 17 0.5
v 8.5 17 0.5
v -7.5 18 1.5
v -6.5 18 1.5
v 6.5 18 1.5
v 7.5 18 1.5
v -7.5 18 0.5
v -6.5 18 0.5
v 6.5 18 0.5
v 7.5 18 0.5
v -6.5 19 1.5
v -5.5 19 1.5
v 5.5 19 1.5
v 6.5 19 1.5
v -6.5 19 0.5
v -5.5 19 0.5
v 5.5 19 0.5
v 6.5 19 0.5
v -5.5 20 1.5
v -3.5 20 1.5
v 3.5 20 1.5
v 5.5 20 1.5
v -5.5 20 0.5
v -3.5 20 0.5
v 3.5 20 0.5
v 5.5 20 0.5
v -0.5 21 2.5
v 0.5 21 2.5
v -3.5 21 1.5
v -0.5 21 1.5
v 0.5 21 1.5
v 1.5 21 1.5
v 2.5 21 1.5
v 3.5 21 1.5
v -3.5 21 0.5
v -0.5 21 0.5
v 0.5 21 0.5
v 1.5 21 0.5
v 2.5 21 0.5
v 3.5 21 0.5

# faces
f 4/1/1 2/1/1 1/1/1
f 5/1/1 4/1/1 3/1/1
f 6/1/1 2/1/1 4/1/1
f 6/1/1 4/1/1 5/1/1
f 7/1/1 2/1/1 6/1/1
f 8/1/1 2/1/1 7/1/1
f 11/1/1 10/1/1 9/1/1
f 12/1/1 10/1/1 11/1/1
f 15/1/1 14/1/1 13/1/1
f 16/1/1 14/1/1 15/1/1
f 19/1/1 18/1/1 17/1/1
f 20/1/1 18/1/1 19/1/1
f 23/1/1 22/1/1 21/1/1
f 24/1/1 22/1/1 23/1/1
f 27/1/1 26/1/1 25/1/1
f 28/1/1 26/1/1 27/1/1
f 31/1/1 30/1/1 29/1/1
f 32/1/1 30/1/1 31/1/1
f 35/1/1 34/1/1 33/1/1
f 36/1/1 34/1/1 35/1/1
f 39/1/1 38/1/1 37/1/1
f 40/1/1 38/1/1 39/1/1
f 43/1/1 42/1/1 41/1/1
f 44/1/1 42/1/1 43/1/1
f 47/1/1 46/1/1 45/1/1
f 48/1/1 46/1/1 47/1/1
f 51/1/1 50/1/1 49/1/1
f 52/1/1 50/1/1 51/1/1
f 55/1/1 54/1/1 53/1/1
f 56/1/1 54/1/1 55/1/1
f 59/2/1 58/2/1 57/2/1
f 60/2/1 58/2/1 59/2/1
f 63/1/1 62/1/1 61/1/1
f 64/1/1 62/1/1 63/1/1
f 67/2/1 66/2/1 65/2/1
f 68/2/1 66/2/1 67/2/1
f 71/1/1 70/1/1 69/1/1
f 72/1/1 70/1/1 71/1/1
f 75/1/1 74/1/1 73/1/1
f 78/1/1 75/1/1 73/1/1
f 79/1/1 75/1/1 78/1/1
f 80/1/1 77/1/1 76/1/1
f 81/1/1 77/1/1 80/1/1
f 85/1/1 77/1/1 81/1/1
f 86/1/1 85/1/1 84/1/1
f 87/1/1 77/1/1 85/1/1
f 87/1/1 85/1/1 86/1/1
f 88/1/1 83/1/1 82/1/1
f 89/1/1 88/1/1 82/1/1
f 90/1/1 88/1/1 89/1/1
f 91/1/2 92/1/2 93/1/2
f 91/1/2 93/1/2 96/1/2
f 96/1/2 93/1/2 97/1/2
f 94/1/2 95/1/2 98/1/2
f 98/1/2 95/1/2 99/1/2
f 99/1/2 95/1/2 103/1/2
f 102/1/2 103/1/2 104/1/2
f 103/1/2 95/1/2 105/1/2
f 104/1/2 103/1/2 105/1/2
f 100/1/2 101/1/2 106/1/2
f 100/1/2 106/1/2 107/1/2
f 107/1/2 106/1/2 108/1/2
f 109/1/2 110/1/2 111/1/2
f 111/1/2 110/1/2 112/1/2
f 113/2/2 114/2/2 115/2/2
f 115/2/2 114/2/2 116/2/2
f 117/1/2 118/1/2 119/1/2
f 119/1/2 118/1/2 120/1/2
f 121/2/2 122/2/2 123/2/2
f 123/2/2 122/2/2 124/2/2
f 125/1/2 126/1/2 127/1/2
f 127/1/2 126/1/2 128/1/2
f 129/1/2 130/1/2 131/1/2
f 131/1/2 130/1/2 132/1/2
f 133/1/2 134/1/2 135/1/2
f 135/1/2 134/1/2 136/1/2
f 137/1/2 138/1/2 139/1/2
f 139/1/2 138/1/2 140/1/2
f 141/1/2 142/1/2 143/1/2
f 143/1/2 142/1/2 144/1/2
f 145/1/2 146/1/2 147/1/2
f 147/1/2 146/1/2 148/1/2
f 149/1/2 150/1/2 151/1/2
f 151/1/2 150/1/2 152/1/2
f 153/1/2 154/1/2 155/1/2
f 155/1/2 154/1/2 156/1/2
f 157/1/2 158/1/2 159/1/2
f 159/1/2 158/1/2 160/1/2
f 161/1/2 162/1/2 163/1/2
f 163/1/2 162/1/2 164/1/2
f 165/1/2 166/1/2 167/1/2
f 167/1/2 166/1/2 168/1/2
f 169/1/2 170/1/2 171/1/2
f 171/1/2 170/1/2 172/1/2
f 173/1/2 174/1/2 176/1/2
f 175/1/2 176/1/2 177/1/2
f 176/1/2 174/1/2 178/1/2
f 177/1/2 176/1/2 178/1/2
f 178/1/2 174/1/2 179/1/2
f 179/1/2 174/1/2 180/1/2
f 184/1/3 182/1/3 181/1/3
f 185/1/3 182/1/3 184/1/3
f 188/2/3 184/2/3 183/2/3
f 189/1/3 186/1/3 185/1/3
f 189/1/3 185/1/3 184/1/3
f 192/2/3 188/2/3 187/2/3
f 193/1/3 190/1/3 189/1/3
f 193/2/3 184/2/3 188/2/3
f 193/2/3 188/2/3 192/2/3
f 193/1/3 189/1/3 184/1/3
f 194/1/3 190/1/3 193/1/3
f 196/1/3 192/1/3 191/1/3
f 196/1/3 195/1/3 194/1/3
f 196/1/3 194/1/3 193/1/3
f 196/1/3 193/1/3 192/1/3
f 197/1/3 195/1/3 196/1/3
f 198/1/3 195/1/3 197/1/3
f 199/1/3 195/1/3 198/1/3
f 200/1/3 195/1/3 199/1/3
f 201/1/3 198/1/3 197/1/3
f 202/1/3 198/1/3 201/1/3
f 203/2/3 199/2/3 198/2/3
f 204/2/3 199/2/3 203/2/3
f 205/1/3 198/1/3 202/1/3
f 206/1/3 198/1/3 205/1/3
f 207/2/3 203/2/3 198/2/3
f 207/1/3 198/1/3 206/1/3
f 208/2/3 203/2/3 207/2/3
f 209/1/3 207/1/3 206/1/3
f 210/1/3 207/1/3 209/1/3
f 216/1/3 212/1/3 211/1/3
f 217/1/3 212/1/3 216/1/3
f 218/1/3 214/1/3 213/1/3
f 219/1/3 214/1/3 218/1/3
f 222/1/3 216/1/3 215/1/3
f 223/4/3 217/4/3 216/4/3
f 223/1/3 216/1/3 222/1/3
f 224/4/3 217/4/3 223/4/3
f 225/4/3 219/4/3 218/4/3
f 226/1/3 220/1/3 219/1/3
f 226/4/3 219/4/3 225/4/3
f 227/1/3 220/1/3 226/1/3
f 230/1/3 222/1/3 221/1/3
f 231/3/3 224/3/3 223/3/3
f 231/3/3 223/3/3 222/3/3
f 231/1/3 222/1/3 230/1/3
f 232/1/3 228/1/3 227/1/3
f 232/3/3 226/3/3 225/3/3
f 232/3/3 227/3/3 226/3/3
f 233/1/3 228/1/3 232/1/3
f 236/1/3 230/1/3 229/1/3
f 237/3/3 231/3/3 230/3/3
f 237/1/3 230/1/3 236/1/3
f 238/3/3 224/3/3 231/3/3
f 238/3/3 231/3/3 237/3/3
f 239/3/3 232/3/3 225/3/3
f 239/3/3 233/3/3 232/3/3
f 240/1/3 234/1/3 233/1/3
f 240/3/3 233/3/3 239/3/3
f 241/1/3 234/1/3 240/1/3
f 244/1/3 236/1/3 235/1/3
f 245/4/3 237/4/3 236/4/3
f 245/4/3 238/4/3 237/4/3
f 245/1/3 236/1/3 244/1/3
f 246/4/3 238/4/3 245/4/3
f 247/4/3 240/4/3 239/4/3
f 247/4/3 241/4/3 240/4/3
f 248/1/3 242/1/3 241/1/3
f 248/4/3 241/4/3 247/4/3
f 249/1/3 242/1/3 248/1/3
f 252/1/3 244/1/3 243/1/3
f 253/3/3 246/3/3 245/3/3
f 253/3/3 245/3/3 244/3/3
f 253/1/3 244/1/3 252/1/3
f 254/3/3 246/3/3 253/3/3
f 255/3/3 248/3/3 247/3/3
f 255/3/3 249/3/3 248/3/3
f 256/1/3 250/1/3 249/1/3
f 256/3/3 249/3/3 255/3/3
f 257/1/3 250/1/3 256/1/3
f 259/1/3 252/1/3 251/1/3
f 259/4/3 254/4/3 253/4/3
f 259/4/3 253/4/3 252/4/3
f 260/4/3 254/4/3 259/4/3
f 261/4/3 254/4/3 260/4/3
f 262/4/3 257/4/3 256/4/3
f 262/4/3 256/4/3 255/4/3
f 263/4/3 257/4/3 262/4/3
f 264/1/3 258/1/3 257/1/3
f 264/4/3 257/4/3 263/4/3
f 265/3/3 260/3/3 259/3/3
f 266/3/3 260/3/3 265/3/3
f 267/3/3 264/3/3 263/3/3
f 268/3/3 264/3/3 267/3/3
f 269/1/3 259/1/3 251/1/3
f 270/3/3 265/3/3 259/3/3
f 270/1/3 259/1/3 269/1/3
f 271/3/3 265/3/3 270/3/3
f 272/3/3 264/3/3 268/3/3
f 273/1/3 258/1/3 264/1/3
f 273/3/3 264/3/3 272/3/3
f 274/1/3 258/1/3 273/1/3
f 281/3/3 277/3/3 276/3/3
f 284/3/3 279/3/3 278/3/3
f 285/1/3 280/1/3 279/1/3
f 285/3/3 279/3/3 284/3/3
f 286/1/3 280/1/3 285/1/3
f 287/1/3 276/1/3 275/1/3
f 287/3/3 282/3/3 281/3/3
f 287/3/3 281/3/3 276/3/3
f 288/3/3 282/3/3 287/3/3
f 291/3/3 284/3/3 283/3/3
f 291/3/3 285/3/3 284/3/3
f 292/2/3 286/2/3 285/2/3
f 292/3/3 285/3/3 291/3/3
f 293/2/3 286/2/3 292/2/3
f 294/1/3 287/1/3 275/1/3
f 295/4/3 289/4/3 288/4/3
f 295/1/3 287/1/3 294/1/3
f 295/4/3 288/4/3 287/4/3
f 296/4/3 289/4/3 295/4/3
f 297/4/3 289/4/3 296/4/3
f 298/4/3 291/4/3 290/4/3
f 298/4/3 292/4/3 291/4/3
f 299/4/3 292/4/3 298/4/3
f 300/1/3 293/1/3 292/1/3
f 300/4/3 292/4/3 299/4/3
f 301/1/3 293/1/3 300/1/3
f 302/1/3 296/1/3 295/1/3
f 303/3/3 297/3/3 296/3/3
f 303/1/3 296/1/3 302/1/3
f 304/3/3 297/3/3 303/3/3
f 305/3/3 297/3/3 304/3/3
f 306/3/3 299/3/3 298/3/3
f 307/3/3 299/3/3 306/3/3
f 308/1/3 300/1/3 299/1/3
f 308/3/3 299/3/3 307/3/3
f 309/1/3 300/1/3 308/1/3
f 310/1/3 304/1/3 303/1/3
f 311/4/3 305/4/3 304/4/3
f 311/1/3 304/1/3 310/1/3
f 312/4/3 305/4/3 311/4/3
f 313/4/3 305/4/3 312/4/3
f 314/4/3 307/4/3 306/4/3
f 315/4/3 307/4/3 314/4/3
f 316/1/3 308/1/3 307/1/3
f 316/4/3 307/4/3 315/4/3
f 317/1/3 308/1/3 316/1/3
f 318/1/3 312/1/3 311/1/3
f 319/3/3 313/3/3 312/3/3
f 319/1/3 312/1/3 318/1/3
f 320/3/3 313/3/3 319/3/3
f 321/3/3 315/3/3 314/3/3
f 322/1/3 316/1/3 315/1/3
f 322/3/3 315/3/3 321/3/3
f 323/1/3 316/1/3 322/1/3
f 324/1/3 320/1/3 319/1/3
f 325/3/3 313/3/3 320/3/3
f 325/1/3 320/1/3 324/1/3
f 326/3/3 313/3/3 325/3/3
f 327/3/3 313/3/3 326/3/3
f 328/3/3 321/3/3 314/3/3
f 329/3/3 321/3/3 328/3/3
f 330/1/3 322/1/3 321/1/3
f 330/3/3 321/3/3 329/3/3
f 331/1/3 322/1/3 330/1/3
f 332/1/3 326/1/3 325/1/3
f 333/4/3 327/4/3 326/4/3
f 333/1/3 326/1/3 332/1/3
f 334/4/3 327/4/3 333/4/3
f 335/4/3 329/4/3 328/4/3
f 336/1/3 330/1/3 329/1/3
f 336/4/3 329/4/3 335/4/3
f 337/1/3 330/1/3 336/1/3
f 338/1/3 334/1/3 333/1/3
f 339/1/3 334/1/3 338/1/3
f 340/1/3 336/1/3 335/1/3
f 341/1/3 336/1/3 340/1/3
f 344/1/3 343/1/3 342/1/3
f 345/1/3 343/1/3 344/1/3
f 346/1/4 347/1/4 349/1/4
f 349/1/4 347/1/4 350/1/4
f 350/1/4 347/1/4 351/1/4
f 351/1/4 347/1/4 352/1/4
f 348/1/4 349/1/4 355/1/4
f 349/4/4 350/4/4 356/4/4
f 355/1/4 349/1/4 356/1/4
f 350/1/4 351/1/4 357/1/4
f 356/4/4 350/4/4 357/4/4
f 351/4/4 352/4/4 358/4/4
f 357/1/4 351/1/4 358/1/4
f 352/1/4 353/1/4 359/1/4
f 358/4/4 352/4/4 359/4/4
f 359/1/4 353/1/4 360/1/4
f 354/1/4 355/1/4 363/1/4
f 357/3/4 358/3/4 364/3/4
f 355/3/4 356/3/4 364/3/4
f 363/1/4 355/1/4 364/1/4
f 356/3/4 357/3/4 364/3/4
f 359/3/4 360/3/4 364/3/4
f 358/3/4 359/3/4 364/3/4
f 360/1/4 361/1/4 365/1/4
f 364/3/4 360/3/4 365/3/4
f 365/1/4 361/1/4 366/1/4
f 362/1/4 363/1/4 369/1/4
f 363/3/4 364/3/4 370/3/4
f 364/3/4 365/3/4 370/3/4
f 369/1/4 363/1/4 370/1/4
f 365/3/4 366/3/4 370/3/4
f 366/1/4 367/1/4 371/1/4
f 370/3/4 366/3/4 371/3/4
f 371/1/4 367/1/4 372/1/4
f 368/1/4 369/1/4 375/1/4
f 369/4/4 370/4/4 376/4/4
f 370/4/4 371/4/4 376/4/4
f 375/1/4 369/1/4 376/1/4
f 371/4/4 372/4/4 376/4/4
f 372/1/4 373/1/4 377/1/4
f 376/4/4 372/4/4 377/4/4
f 377/1/4 373/1/4 378/1/4
f 374/1/4 375/1/4 381/1/4
f 375/3/4 376/3/4 382/3/4
f 376/3/4 377/3/4 382/3/4
f 381/1/4 375/1/4 382/1/4
f 377/3/4 378/3/4 382/3/4
f 378/1/4 379/1/4 383/1/4
f 382/3/4 378/3/4 383/3/4
f 383/1/4 379/1/4 384/1/4
f 381/4/4 382/4/4 386/4/4
f 380/1/4 381/1/4 386/1/4
f 383/4/4 384/4/4 386/4/4
f 382/4/4 383/4/4 386/4/4
f 384/1/4 385/1/4 387/1/4
f 386/4/4 384/4/4 387/4/4
f 380/1/4 386/1/4 388/1/4
f 386/3/4 387/3/4 388/3/4
f 388/3/4 387/3/4 389/3/4
f 389/3/4 387/3/4 390/3/4
f 390/3/4 387/3/4 391/3/4
f 391/3/4 387/3/4 392/3/4
f 387/1/4 385/1/4 393/1/4
f 392/3/4 387/3/4 393/3/4
f 393/1/4 385/1/4 394/1/4
f 380/1/4 388/1/4 395/1/4
f 388/4/4 389/4/4 395/4/4
f 395/4/4 389/4/4 396/4/4
f 390/4/4 391/4/4 397/4/4
f 397/4/4 391/4/4 398/4/4
f 392/4/4 393/4/4 399/4/4
f 393/2/4 394/2/4 400/2/4
f 399/4/4 393/4/4 400/4/4
f 400/2/4 394/2/4 401/2/4
f 398/3/4 399/3/4 402/3/4
f 397/3/4 398/3/4 402/3/4
f 400/1/4 401/1/4 402/1/4
f 399/3/4 400/3/4 402/3/4
f 395/3/4 396/3/4 402/3/4
f 396/3/4 397/3/4 402/3/4
f 402/1/4 401/1/4 403/1/4
f 380/1/4 395/1/4 404/1/4
f 395/3/4 402/3/4 404/3/4
f 402/2/4 403/2/4 405/2/4
f 404/3/4 402/3/4 405/3/4
f 405/2/4 403/2/4 406/2/4
f 380/1/4 404/1/4 407/1/4
f 404/4/4 405/4/4 408/4/4
f 407/1/4 404/1/4 408/1/4
f 408/4/4 405/4/4 409/4/4
f 409/4/4 405/4/4 410/4/4
f 405/1/4 406/1/4 411/1/4
f 410/4/4 405/4/4 411/4/4
f 411/1/4 406/1/4 412/1/4
f 408/1/4 409/1/4 413/1/4
f 409/3/4 410/3/4 414/3/4
f 413/1/4 409/1/4 414/1/4
f 414/3/4 410/3/4 415/3/4
f 415/3/4 410/3/4 416/3/4
f 410/1/4 411/1/4 417/1/4
f 416/3/4 410/3/4 417/3/4
f 417/1/4 411/1/4 418/1/4
f 414/1/4 415/1/4 419/1/4
f 415/4/4 416/4/4 420/4/4
f 419/1/4 415/1/4 420/1/4
f 420/4/4 416/4/4 421/4/4
f 421/4/4 416/4/4 422/4/4
f 416/1/4 417/1/4 423/1/4
f 422/4/4 416/4/4 423/4/4
f 423/1/4 417/1/4 424/1/4
f 420/1/4 421/1/4 425/1/4
f 421/3/4 422/3/4 426/3/4
f 425/1/4 421/1/4 426/1/4
f 426/3/4 422/3/4 427/3/4
f 427/3/4 422/3/4 428/3/4
f 422/1/4 423/1/4 429/1/4
f 428/3/4 422/3/4 429/3/4
f 429/1/4 423/1/4 430/1/4
f 426/1/4 427/1/4 431/1/4
f 427/3/4 428/3/4 432/3/4
f 431/1/4 427/1/4 432/1/4
f 432/3/4 428/3/4 433/3/4
f 433/3/4 428/3/4 434/3/4
f 434/3/4 428/3/4 435/3/4
f 435/3/4 428/3/4 436/3/4
f 428/1/4 429/1/4 437/1/4
f 436/3/4 428/3/4 437/3/4
f 437/1/4 429/1/4 438/1/4
f 432/1/4 433/1/4 439/1/4
f 433/4/4 434/4/4 440/4/4
f 439/1/4 433/1/4 440/1/4
f 434/1/4 435/1/4 441/1/4
f 440/4/4 434/4/4 441/4/4
f 435/4/4 436/4/4 442/4/4
f 441/1/4 435/1/4 442/1/4
f 436/1/4 437/1/4 443/1/4
f 442/4/4 436/4/4 443/4/4
f 443/1/4 437/1/4 444/1/4
f 440/1/4 441/1/4 445/1/4
f 441/1/4 442/1/4 445/1/4
f 442/1/4 443/1/4 445/1/4
f 445/1/4 443/1/4 446/1/4
f 447/1/4 448/1/4 449/1/4
f 449/1/4 448/1/4 450/1/4
f 454/1/5 452/1/5 451/1/5
f 455/1/5 452/1/5 454/1/5
f 457/1/5 454/1/5 453/1/5
f 457/1/5 456/1/5 455/1/5
f 457/1/5 455/1/5 454/1/5
f 458/1/5 456/1/5 457/1/5
f 463/1/5 460/1/5 459/1/5
f 464/1/5 460/1/5 463/1/5
f 465/1/5 462/1/5 461/1/5
f 466/1/5 462/1/5 465/1/5
f 471/1/5 468/1/5 467/1/5
f 472/1/5 468/1/5 471/1/5
f 473/1/5 470/1/5 469/1/5
f 474/1/5 470/1/5 473/1/5
f 479/1/5 476/1/5 475/1/5
f 480/1/5 476/1/5 479/1/5
f 481/1/5 478/1/5 477/1/5
f 482/1/5 478/1/5 481/1/5
f 487/1/5 484/1/5 483/1/5
f 488/1/5 484/1/5 487/1/5
f 489/1/5 486/1/5 485/1/5
f 490/1/5 486/1/5 489/1/5
f 495/1/5 492/1/5 491/1/5
f 496/1/5 492/1/5 495/1/5
f 497/1/5 494/1/5 493/1/5
f 498/1/5 494/1/5 497/1/5
f 503/1/5 500/1/5 499/1/5
f 504/1/5 500/1/5 503/1/5
f 507/1/5 502/1/5 501/1/5
f 508/1/5 502/1/5 507/1/5
f 509/1/5 506/1/5 505/1/5
f 510/1/5 506/1/5 509/1/5
f 515/2/5 512/2/5 511/2/5
f 516/2/5 512/2/5 515/2/5
f 517/1/5 514/1/5 513/1/5
f 518/1/5 514/1/5 517/1/5
f 523/2/5 520/2/5 519/2/5
f 524/2/5 520/2/5 523/2/5
f 525/1/5 522/1/5 521/1/5
f 526/1/5 522/1/5 525/1/5
f 531/1/5 528/1/5 527/1/5
f 532/1/5 528/1/5 531/1/5
f 533/1/5 528/1/5 532/1/5
f 534/1/5 528/1/5 533/1/5
f 535/1/5 528/1/5 534/1/5
f 536/1/5 528/1/5 535/1/5
f 537/1/5 528/1/5 536/1/5
f 538/1/5 530/1/5 529/1/5
f 539/1/5 530/1/5 538/1/5
f 540/1/5 530/1/5 539/1/5
f 541/1/5 530/1/5 540/1/5
f 542/1/5 530/1/5 541/1/5
f 543/1/5 530/1/5 542/1/5
f 544/1/5 530/1/5 543/1/5
f 547/1/5 546/1/5 545/1/5
f 548/1/5 546/1/5 547/1/5
f 549/1/6 550/1/6 551/1/6
f 551/1/6 550/1/6 552/1/6
f 553/1/6 554/1/6 557/1/6
f 557/1/6 554/1/6 558/1/6
f 558/1/6 554/1/6 559/1/6
f 559/1/6 554/1/6 560/1/6
f 560/1/6 554/1/6 561/1/6
f 561/1/6 554/1/6 562/1/6
f 562/1/6 554/1/6 563/1/6
f 555/1/6 556/1/6 564/1/6
f 564/1/6 556/1/6 565/1/6
f 565/1/6 556/1/6 566/1/6
f 566/1/6 556/1/6 567/1/6
f 567/1/6 556/1/6 568/1/6
f 568/1/6 556/1/6 569/1/6
f 569/1/6 556/1/6 570/1/6
f 571/1/6 572/1/6 575/1/6
f 575/1/6 572/1/6 576/1/6
f 573/2/6 574/2/6 577/2/6
f 577/2/6 574/2/6 578/2/6
f 579/1/6 580/1/6 583/1/6
f 583/1/6 580/1/6 584/1/6
f 581/2/6 582/2/6 585/2/6
f 585/2/6 582/2/6 586/2/6
f 587/1/6 588/1/6 591/1/6
f 591/1/6 588/1/6 592/1/6
f 589/1/6 590/1/6 595/1/6
f 595/1/6 590/1/6 596/1/6
f 593/1/6 594/1/6 597/1/6
f 597/1/6 594/1/6 598/1/6
f 599/1/6 600/1/6 603/1/6
f 603/1/6 600/1/6 604/1/6
f 601/1/6 602/1/6 605/1/6
f 605/1/6 602/1/6 606/1/6
f 607/1/6 608/1/6 611/1/6
f 611/1/6 608/1/6 612/1/6
f 609/1/6 610/1/6 613/1/6
f 613/1/6 610/1/6 614/1/6
f 615/1/6 616/1/6 619/1/6
f 619/1/6 616/1/6 620/1/6
f 617/1/6 618/1/6 621/1/6
f 621/1/6 618/1/6 622/1/6
f 623/1/6 624/1/6 627/1/6
f 627/1/6 624/1/6 628/1/6
f 625/1/6 626/1/6 629/1/6
f 629/1/6 626/1/6 630/1/6
f 631/1/6 632/1/6 635/1/6
f 635/1/6 632/1/6 636/1/6
f 633/1/6 634/1/6 637/1/6
f 637/1/6 634/1/6 638/1/6
f 639/1/6 640/1/6 642/1/6
f 642/1/6 640/1/6 643/1/6
f 641/1/6 642/1/6 647/1/6
f 642/2/6 643/2/6 648/2/6
f 647/1/6 642/1/6 648/1/6
f 643/1/6 644/1/6 649/1/6
f 648/2/6 643/2/6 649/2/6
f 644/2/6 645/2/6 650/2/6
f 649/1/6 644/1/6 650/1/6
f 645/1/6 646/1/6 651/1/6
f 650/2/6 645/2/6 651/2/6
f 651/1/6 646/1/6 652/1/6
