# MagicaVoxel @ Ephtracy

# group
g weaponsshields-1

# material
mtllib weaponsshields-1.mtl
usemtl palette

# normals
vn -1 0 0
vn 1 0 0
vn 0 0 1
vn 0 0 -1
vn 0 -1 0
vn 0 1 0

# texcoords
vt 0.119141 0.5
vt 0.123047 0.5
vt 0.279297 0.5

# verts
v -0.5 0 1.5
v -0.5 0 -0.5
v -0.5 0 -1.5
v -0.5 1 1.5
v -0.5 1 0.5
v -0.5 1 -0.5
v -0.5 1 -1.5
v -0.5 4 1.5
v -0.5 4 0.5
v -0.5 4 -0.5
v -0.5 4 -1.5
v -0.5 5 2.5
v -0.5 5 1.5
v -0.5 5 -1.5
v -0.5 5 -2.5
v -0.5 8 2.5
v -0.5 8 1.5
v -0.5 8 -1.5
v -0.5 8 -2.5
v -0.5 9 1.5
v -0.5 9 -0.5
v -0.5 25 0.5
v -0.5 25 -0.5
v -0.5 26 1.5
v -0.5 26 0.5
v -0.5 26 -0.5
v -0.5 26 -1.5
v -0.5 27 0.5
v -0.5 27 -0.5
v 0.5 0 1.5
v 0.5 0 -0.5
v 0.5 0 -1.5
v 0.5 1 1.5
v 0.5 1 0.5
v 0.5 1 -0.5
v 0.5 1 -1.5
v 0.5 4 1.5
v 0.5 4 0.5
v 0.5 4 -0.5
v 0.5 4 -1.5
v 0.5 5 2.5
v 0.5 5 1.5
v 0.5 5 -1.5
v 0.5 5 -2.5
v 0.5 8 2.5
v 0.5 8 1.5
v 0.5 8 -1.5
v 0.5 8 -2.5
v 0.5 9 1.5
v 0.5 9 -0.5
v 0.5 25 0.5
v 0.5 25 -0.5
v 0.5 26 1.5
v 0.5 26 0.5
v 0.5 26 -0.5
v 0.5 26 -1.5
v 0.5 27 0.5
v 0.5 27 -0.5
v -0.5 5 2.5
v -0.5 8 2.5
v 0.5 5 2.5
v 0.5 8 2.5
v -0.5 0 1.5
v -0.5 1 1.5
v -0.5 4 1.5
v -0.5 5 1.5
v -0.5 8 1.5
v -0.5 9 1.5
v -0.5 26 1.5
v 0.5 0 1.5
v 0.5 1 1.5
v 0.5 4 1.5
v 0.5 5 1.5
v 0.5 8 1.5
v 0.5 9 1.5
v 0.5 26 1.5
v -0.5 1 0.5
v -0.5 4 0.5
v -0.5 26 0.5
v -0.5 27 0.5
v 0.5 1 0.5
v 0.5 4 0.5
v 0.5 26 0.5
v 0.5 27 0.5
v -0.5 1 -0.5
v -0.5 4 -0.5
v -0.5 26 -0.5
v -0.5 27 -0.5
v 0.5 1 -0.5
v 0.5 4 -0.5
v 0.5 26 -0.5
v 0.5 27 -0.5
v -0.5 0 -1.5
v -0.5 1 -1.5
v -0.5 4 -1.5
v -0.5 5 -1.5
v -0.5 8 -1.5
v -0.5 26 -1.5
v 0.5 0 -1.5
v 0.5 1 -1.5
v 0.5 4 -1.5
v 0.5 5 -1.5
v 0.5 8 -1.5
v 0.5 26 -1.5
v -0.5 5 -2.5
v -0.5 8 -2.5
v 0.5 5 -2.5
v 0.5 8 -2.5
v -0.5 0 1.5
v 0.5 0 1.5
v -0.5 0 -0.5
v 0.5 0 -0.5
v -0.5 0 -1.5
v 0.5 0 -1.5
v -0.5 4 1.5
v 0.5 4 1.5
v -0.5 4 0.5
v 0.5 4 0.5
v -0.5 4 -0.5
v 0.5 4 -0.5
v -0.5 4 -1.5
v 0.5 4 -1.5
v -0.5 5 2.5
v 0.5 5 2.5
v -0.5 5 1.5
v 0.5 5 1.5
v -0.5 5 -1.5
v 0.5 5 -1.5
v -0.5 5 -2.5
v 0.5 5 -2.5
v -0.5 1 1.5
v 0.5 1 1.5
v -0.5 1 0.5
v 0.5 1 0.5
v -0.5 1 -0.5
v 0.5 1 -0.5
v -0.5 1 -1.5
v 0.5 1 -1.5
v -0.5 8 2.5
v 0.5 8 2.5
v -0.5 8 1.5
v 0.5 8 1.5
v -0.5 8 -1.5
v 0.5 8 -1.5
v -0.5 8 -2.5
v 0.5 8 -2.5
v -0.5 26 1.5
v 0.5 26 1.5
v -0.5 26 0.5
v 0.5 26 0.5
v -0.5 26 -0.5
v 0.5 26 -0.5
v -0.5 26 -1.5
v 0.5 26 -1.5
v -0.5 27 0.5
v 0.5 27 0.5
v -0.5 27 -0.5
v 0.5 27 -0.5

# faces
f 4/1/1 2/1/1 1/1/1
f 5/1/1 2/1/1 4/1/1
f 6/2/1 3/2/1 2/2/1
f 6/1/1 2/1/1 5/1/1
f 7/2/1 3/2/1 6/2/1
f 9/1/1 6/1/1 5/1/1
f 10/1/1 6/1/1 9/1/1
f 13/2/1 9/2/1 8/2/1
f 13/2/1 11/2/1 10/2/1
f 13/2/1 10/2/1 9/2/1
f 14/2/1 11/2/1 13/2/1
f 16/2/1 13/2/1 12/2/1
f 17/3/1 14/3/1 13/3/1
f 17/2/1 13/2/1 16/2/1
f 18/2/1 15/2/1 14/2/1
f 18/3/1 14/3/1 17/3/1
f 19/2/1 15/2/1 18/2/1
f 20/2/1 18/2/1 17/2/1
f 21/2/1 18/2/1 20/2/1
f 22/1/1 21/1/1 20/1/1
f 23/2/1 18/2/1 21/2/1
f 23/1/1 21/1/1 22/1/1
f 24/1/1 22/1/1 20/1/1
f 25/2/1 23/2/1 22/2/1
f 25/1/1 22/1/1 24/1/1
f 26/2/1 18/2/1 23/2/1
f 26/2/1 23/2/1 25/2/1
f 27/2/1 18/2/1 26/2/1
f 28/2/1 26/2/1 25/2/1
f 29/2/1 26/2/1 28/2/1
f 30/1/2 31/1/2 33/1/2
f 33/1/2 31/1/2 34/1/2
f 31/2/2 32/2/2 35/2/2
f 34/1/2 31/1/2 35/1/2
f 35/2/2 32/2/2 36/2/2
f 34/1/2 35/1/2 38/1/2
f 38/1/2 35/1/2 39/1/2
f 37/2/2 38/2/2 42/2/2
f 39/2/2 40/2/2 42/2/2
f 38/2/2 39/2/2 42/2/2
f 42/2/2 40/2/2 43/2/2
f 41/2/2 42/2/2 45/2/2
f 42/3/2 43/3/2 46/3/2
f 45/2/2 42/2/2 46/2/2
f 43/2/2 44/2/2 47/2/2
f 46/3/2 43/3/2 47/3/2
f 47/2/2 44/2/2 48/2/2
f 46/2/2 47/2/2 49/2/2
f 49/2/2 47/2/2 50/2/2
f 49/1/2 50/1/2 51/1/2
f 50/2/2 47/2/2 52/2/2
f 51/1/2 50/1/2 52/1/2
f 49/1/2 51/1/2 53/1/2
f 51/2/2 52/2/2 54/2/2
f 53/1/2 51/1/2 54/1/2
f 52/2/2 47/2/2 55/2/2
f 54/2/2 52/2/2 55/2/2
f 55/2/2 47/2/2 56/2/2
f 54/2/2 55/2/2 57/2/2
f 57/2/2 55/2/2 58/2/2
f 61/2/3 60/2/3 59/2/3
f 62/2/3 60/2/3 61/2/3
f 70/1/3 64/1/3 63/1/3
f 71/1/3 64/1/3 70/1/3
f 72/2/3 66/2/3 65/2/3
f 73/2/3 66/2/3 72/2/3
f 74/2/3 68/2/3 67/2/3
f 75/1/3 69/1/3 68/1/3
f 75/2/3 68/2/3 74/2/3
f 76/1/3 69/1/3 75/1/3
f 81/1/3 78/1/3 77/1/3
f 82/1/3 78/1/3 81/1/3
f 83/2/3 80/2/3 79/2/3
f 84/2/3 80/2/3 83/2/3
f 85/1/4 86/1/4 89/1/4
f 89/1/4 86/1/4 90/1/4
f 87/2/4 88/2/4 91/2/4
f 91/2/4 88/2/4 92/2/4
f 93/2/4 94/2/4 99/2/4
f 99/2/4 94/2/4 100/2/4
f 95/2/4 96/2/4 101/2/4
f 101/2/4 96/2/4 102/2/4
f 97/2/4 98/2/4 103/2/4
f 103/2/4 98/2/4 104/2/4
f 105/2/4 106/2/4 107/2/4
f 107/2/4 106/2/4 108/2/4
f 111/1/5 110/1/5 109/1/5
f 112/1/5 110/1/5 111/1/5
f 113/2/5 112/2/5 111/2/5
f 114/2/5 112/2/5 113/2/5
f 117/2/5 116/2/5 115/2/5
f 118/2/5 116/2/5 117/2/5
f 121/2/5 120/2/5 119/2/5
f 122/2/5 120/2/5 121/2/5
f 125/2/5 124/2/5 123/2/5
f 126/2/5 124/2/5 125/2/5
f 129/2/5 128/2/5 127/2/5
f 130/2/5 128/2/5 129/2/5
f 131/1/6 132/1/6 133/1/6
f 133/1/6 132/1/6 134/1/6
f 135/2/6 136/2/6 137/2/6
f 137/2/6 136/2/6 138/2/6
f 139/2/6 140/2/6 141/2/6
f 141/2/6 140/2/6 142/2/6
f 143/2/6 144/2/6 145/2/6
f 145/2/6 144/2/6 146/2/6
f 147/1/6 148/1/6 149/1/6
f 149/1/6 148/1/6 150/1/6
f 151/2/6 152/2/6 153/2/6
f 153/2/6 152/2/6 154/2/6
f 155/2/6 156/2/6 157/2/6
f 157/2/6 156/2/6 158/2/6
