# MagicaVoxel @ Ephtracy

# group
g weaponsshields-4

# material
mtllib weaponsshields-4.mtl
usemtl palette

# normals
vn -1 0 0
vn 1 0 0
vn 0 0 1
vn 0 0 -1
vn 0 -1 0
vn 0 1 0

# texcoords
vt 0.376953 0.5
vt 0.380859 0.5
vt 0.384766 0.5

# verts
v -0.5 0 1.5
v -0.5 0 0.5
v -0.5 0 -0.5
v -0.5 0 -2.5
v -0.5 1 1.5
v -0.5 1 0.5
v -0.5 1 -0.5
v -0.5 1 -1.5
v -0.5 1 -2.5
v -0.5 2 0.5
v -0.5 2 -0.5
v -0.5 2 -1.5
v -0.5 3 0.5
v -0.5 3 -0.5
v -0.5 3 -1.5
v -0.5 4 0.5
v -0.5 4 -0.5
v -0.5 4 -1.5
v -0.5 5 1.5
v -0.5 5 0.5
v -0.5 5 -0.5
v -0.5 5 -1.5
v -0.5 5 -2.5
v -0.5 6 2.5
v -0.5 6 1.5
v -0.5 6 0.5
v -0.5 6 -0.5
v -0.5 7 1.5
v -0.5 7 0.5
v -0.5 7 -0.5
v -0.5 7 -1.5
v -0.5 7 -2.5
v -0.5 8 2.5
v -0.5 8 1.5
v -0.5 21 -1.5
v -0.5 21 -2.5
v -0.5 22 0.5
v -0.5 22 -0.5
v -0.5 22 -1.5
v -0.5 24 -0.5
v -0.5 24 -1.5
v -0.5 24 -2.5
v -0.5 25 -1.5
v -0.5 25 -2.5
v 0.5 0 1.5
v 0.5 0 0.5
v 0.5 0 -0.5
v 0.5 0 -2.5
v 0.5 1 1.5
v 0.5 1 0.5
v 0.5 1 -0.5
v 0.5 1 -1.5
v 0.5 1 -2.5
v 0.5 2 0.5
v 0.5 2 -0.5
v 0.5 2 -1.5
v 0.5 3 0.5
v 0.5 3 -0.5
v 0.5 3 -1.5
v 0.5 4 0.5
v 0.5 4 -0.5
v 0.5 4 -1.5
v 0.5 5 1.5
v 0.5 5 0.5
v 0.5 5 -0.5
v 0.5 5 -1.5
v 0.5 5 -2.5
v 0.5 6 2.5
v 0.5 6 1.5
v 0.5 6 0.5
v 0.5 6 -0.5
v 0.5 7 1.5
v 0.5 7 0.5
v 0.5 7 -0.5
v 0.5 7 -1.5
v 0.5 7 -2.5
v 0.5 8 2.5
v 0.5 8 1.5
v 0.5 21 -1.5
v 0.5 21 -2.5
v 0.5 22 0.5
v 0.5 22 -0.5
v 0.5 22 -1.5
v 0.5 24 -0.5
v 0.5 24 -1.5
v 0.5 24 -2.5
v 0.5 25 -1.5
v 0.5 25 -2.5
v -0.5 6 2.5
v -0.5 8 2.5
v 0.5 6 2.5
v 0.5 8 2.5
v -0.5 0 1.5
v -0.5 1 1.5
v -0.5 5 1.5
v -0.5 6 1.5
v 0.5 0 1.5
v 0.5 1 1.5
v 0.5 5 1.5
v 0.5 6 1.5
v -0.5 1 0.5
v -0.5 2 0.5
v -0.5 3 0.5
v -0.5 4 0.5
v -0.5 5 0.5
v -0.5 7 0.5
v -0.5 22 0.5
v 0.5 1 0.5
v 0.5 2 0.5
v 0.5 3 0.5
v 0.5 4 0.5
v 0.5 5 0.5
v 0.5 7 0.5
v 0.5 22 0.5
v -0.5 0 -0.5
v -0.5 1 -0.5
v -0.5 22 -0.5
v -0.5 24 -0.5
v 0.5 0 -0.5
v 0.5 1 -0.5
v 0.5 22 -0.5
v 0.5 24 -0.5
v -0.5 24 -1.5
v -0.5 25 -1.5
v 0.5 24 -1.5
v 0.5 25 -1.5
v -0.5 7 1.5
v -0.5 8 1.5
v 0.5 7 1.5
v 0.5 8 1.5
v -0.5 0 0.5
v -0.5 1 0.5
v 0.5 0 0.5
v 0.5 1 0.5
v -0.5 1 -1.5
v -0.5 2 -1.5
v -0.5 3 -1.5
v -0.5 4 -1.5
v -0.5 5 -1.5
v -0.5 7 -1.5
v -0.5 21 -1.5
v 0.5 1 -1.5
v 0.5 2 -1.5
v 0.5 3 -1.5
v 0.5 4 -1.5
v 0.5 5 -1.5
v 0.5 7 -1.5
v 0.5 21 -1.5
v -0.5 0 -2.5
v -0.5 1 -2.5
v -0.5 5 -2.5
v -0.5 7 -2.5
v -0.5 21 -2.5
v -0.5 24 -2.5
v -0.5 25 -2.5
v 0.5 0 -2.5
v 0.5 1 -2.5
v 0.5 5 -2.5
v 0.5 7 -2.5
v 0.5 21 -2.5
v 0.5 24 -2.5
v 0.5 25 -2.5
v -0.5 0 1.5
v 0.5 0 1.5
v -0.5 0 0.5
v 0.5 0 0.5
v -0.5 0 -0.5
v 0.5 0 -0.5
v -0.5 0 -2.5
v 0.5 0 -2.5
v -0.5 1 0.5
v 0.5 1 0.5
v -0.5 1 -0.5
v 0.5 1 -0.5
v -0.5 5 1.5
v 0.5 5 1.5
v -0.5 5 0.5
v 0.5 5 0.5
v -0.5 5 -1.5
v 0.5 5 -1.5
v -0.5 5 -2.5
v 0.5 5 -2.5
v -0.5 6 2.5
v 0.5 6 2.5
v -0.5 6 1.5
v 0.5 6 1.5
v -0.5 21 -1.5
v 0.5 21 -1.5
v -0.5 21 -2.5
v 0.5 21 -2.5
v -0.5 1 1.5
v 0.5 1 1.5
v -0.5 1 0.5
v 0.5 1 0.5
v -0.5 1 -1.5
v 0.5 1 -1.5
v -0.5 1 -2.5
v 0.5 1 -2.5
v -0.5 7 1.5
v 0.5 7 1.5
v -0.5 7 0.5
v 0.5 7 0.5
v -0.5 7 -1.5
v 0.5 7 -1.5
v -0.5 7 -2.5
v 0.5 7 -2.5
v -0.5 8 2.5
v 0.5 8 2.5
v -0.5 8 1.5
v 0.5 8 1.5
v -0.5 22 0.5
v 0.5 22 0.5
v -0.5 22 -0.5
v 0.5 22 -0.5
v -0.5 24 -0.5
v 0.5 24 -0.5
v -0.5 24 -1.5
v 0.5 24 -1.5
v -0.5 25 -1.5
v 0.5 25 -1.5
v -0.5 25 -2.5
v 0.5 25 -2.5

# faces
f 5/3/1 2/3/1 1/3/1
f 6/3/1 2/3/1 5/3/1
f 7/3/1 4/3/1 3/3/1
f 8/3/1 4/3/1 7/3/1
f 9/3/1 4/3/1 8/3/1
f 10/2/1 7/2/1 6/2/1
f 11/3/1 8/3/1 7/3/1
f 11/2/1 7/2/1 10/2/1
f 12/3/1 8/3/1 11/3/1
f 13/3/1 11/3/1 10/3/1
f 14/2/1 12/2/1 11/2/1
f 14/3/1 11/3/1 13/3/1
f 15/2/1 12/2/1 14/2/1
f 16/2/1 14/2/1 13/2/1
f 17/3/1 15/3/1 14/3/1
f 17/2/1 14/2/1 16/2/1
f 18/3/1 15/3/1 17/3/1
f 20/3/1 17/3/1 16/3/1
f 21/2/1 18/2/1 17/2/1
f 21/3/1 17/3/1 20/3/1
f 22/2/1 18/2/1 21/2/1
f 25/3/1 20/3/1 19/3/1
f 26/2/1 21/2/1 20/2/1
f 26/3/1 20/3/1 25/3/1
f 27/3/1 22/3/1 21/3/1
f 27/2/1 21/2/1 26/2/1
f 27/3/1 23/3/1 22/3/1
f 28/3/1 26/3/1 25/3/1
f 28/3/1 25/3/1 24/3/1
f 28/3/1 27/3/1 26/3/1
f 29/3/1 27/3/1 28/3/1
f 30/3/1 23/3/1 27/3/1
f 30/3/1 27/3/1 29/3/1
f 31/3/1 23/3/1 30/3/1
f 32/3/1 23/3/1 31/3/1
f 33/3/1 28/3/1 24/3/1
f 34/3/1 28/3/1 33/3/1
f 35/2/1 31/2/1 30/2/1
f 37/1/1 30/1/1 29/1/1
f 38/2/1 36/2/1 35/2/1
f 38/1/1 30/1/1 37/1/1
f 38/2/1 35/2/1 30/2/1
f 39/2/1 36/2/1 38/2/1
f 40/1/1 39/1/1 38/1/1
f 41/2/1 36/2/1 39/2/1
f 41/1/1 39/1/1 40/1/1
f 42/2/1 36/2/1 41/2/1
f 43/1/1 42/1/1 41/1/1
f 44/1/1 42/1/1 43/1/1
f 45/3/2 46/3/2 49/3/2
f 49/3/2 46/3/2 50/3/2
f 47/3/2 48/3/2 51/3/2
f 51/3/2 48/3/2 52/3/2
f 52/3/2 48/3/2 53/3/2
f 50/2/2 51/2/2 54/2/2
f 51/3/2 52/3/2 55/3/2
f 54/2/2 51/2/2 55/2/2
f 55/3/2 52/3/2 56/3/2
f 54/3/2 55/3/2 57/3/2
f 55/2/2 56/2/2 58/2/2
f 57/3/2 55/3/2 58/3/2
f 58/2/2 56/2/2 59/2/2
f 57/2/2 58/2/2 60/2/2
f 58/3/2 59/3/2 61/3/2
f 60/2/2 58/2/2 61/2/2
f 61/3/2 59/3/2 62/3/2
f 60/3/2 61/3/2 64/3/2
f 61/2/2 62/2/2 65/2/2
f 64/3/2 61/3/2 65/3/2
f 65/2/2 62/2/2 66/2/2
f 63/3/2 64/3/2 69/3/2
f 64/2/2 65/2/2 70/2/2
f 69/3/2 64/3/2 70/3/2
f 65/3/2 66/3/2 71/3/2
f 70/2/2 65/2/2 71/2/2
f 66/3/2 67/3/2 71/3/2
f 69/3/2 70/3/2 72/3/2
f 68/3/2 69/3/2 72/3/2
f 70/3/2 71/3/2 72/3/2
f 72/3/2 71/3/2 73/3/2
f 71/3/2 67/3/2 74/3/2
f 73/3/2 71/3/2 74/3/2
f 74/3/2 67/3/2 75/3/2
f 75/3/2 67/3/2 76/3/2
f 68/3/2 72/3/2 77/3/2
f 77/3/2 72/3/2 78/3/2
f 74/2/2 75/2/2 79/2/2
f 73/1/2 74/1/2 81/1/2
f 79/2/2 80/2/2 82/2/2
f 81/1/2 74/1/2 82/1/2
f 74/2/2 79/2/2 82/2/2
f 82/2/2 80/2/2 83/2/2
f 82/1/2 83/1/2 84/1/2
f 83/2/2 80/2/2 85/2/2
f 84/1/2 83/1/2 85/1/2
f 85/2/2 80/2/2 86/2/2
f 85/1/2 86/1/2 87/1/2
f 87/1/2 86/1/2 88/1/2
f 91/3/3 90/3/3 89/3/3
f 92/3/3 90/3/3 91/3/3
f 97/3/3 94/3/3 93/3/3
f 98/3/3 94/3/3 97/3/3
f 99/3/3 96/3/3 95/3/3
f 100/3/3 96/3/3 99/3/3
f 108/2/3 102/2/3 101/2/3
f 109/3/3 103/3/3 102/3/3
f 109/2/3 102/2/3 108/2/3
f 110/2/3 104/2/3 103/2/3
f 110/3/3 103/3/3 109/3/3
f 111/3/3 105/3/3 104/3/3
f 111/2/3 104/2/3 110/2/3
f 112/3/3 105/3/3 111/3/3
f 113/1/3 107/1/3 106/1/3
f 114/1/3 107/1/3 113/1/3
f 119/3/3 116/3/3 115/3/3
f 120/3/3 116/3/3 119/3/3
f 121/1/3 118/1/3 117/1/3
f 122/1/3 118/1/3 121/1/3
f 125/1/3 124/1/3 123/1/3
f 126/1/3 124/1/3 125/1/3
f 127/3/4 128/3/4 129/3/4
f 129/3/4 128/3/4 130/3/4
f 131/3/4 132/3/4 133/3/4
f 133/3/4 132/3/4 134/3/4
f 135/3/4 136/3/4 142/3/4
f 136/2/4 137/2/4 143/2/4
f 142/3/4 136/3/4 143/3/4
f 137/3/4 138/3/4 144/3/4
f 143/2/4 137/2/4 144/2/4
f 138/2/4 139/2/4 145/2/4
f 144/3/4 138/3/4 145/3/4
f 145/2/4 139/2/4 146/2/4
f 140/2/4 141/2/4 147/2/4
f 147/2/4 141/2/4 148/2/4
f 149/3/4 150/3/4 156/3/4
f 156/3/4 150/3/4 157/3/4
f 151/3/4 152/3/4 158/3/4
f 158/3/4 152/3/4 159/3/4
f 153/2/4 154/2/4 160/2/4
f 154/1/4 155/1/4 161/1/4
f 160/2/4 154/2/4 161/2/4
f 161/1/4 155/1/4 162/1/4
f 165/3/5 164/3/5 163/3/5
f 166/3/5 164/3/5 165/3/5
f 169/3/5 168/3/5 167/3/5
f 170/3/5 168/3/5 169/3/5
f 173/2/5 172/2/5 171/2/5
f 174/2/5 172/2/5 173/2/5
f 177/3/5 176/3/5 175/3/5
f 178/3/5 176/3/5 177/3/5
f 181/3/5 180/3/5 179/3/5
f 182/3/5 180/3/5 181/3/5
f 185/3/5 184/3/5 183/3/5
f 186/3/5 184/3/5 185/3/5
f 189/2/5 188/2/5 187/2/5
f 190/2/5 188/2/5 189/2/5
f 191/3/6 192/3/6 193/3/6
f 193/3/6 192/3/6 194/3/6
f 195/3/6 196/3/6 197/3/6
f 197/3/6 196/3/6 198/3/6
f 199/3/6 200/3/6 201/3/6
f 201/3/6 200/3/6 202/3/6
f 203/3/6 204/3/6 205/3/6
f 205/3/6 204/3/6 206/3/6
f 207/3/6 208/3/6 209/3/6
f 209/3/6 208/3/6 210/3/6
f 211/1/6 212/1/6 213/1/6
f 213/1/6 212/1/6 214/1/6
f 215/1/6 216/1/6 217/1/6
f 217/1/6 216/1/6 218/1/6
f 219/1/6 220/1/6 221/1/6
f 221/1/6 220/1/6 222/1/6
