# MagicaVoxel @ Ephtracy

# group
g weaponsshields-5

# material
mtllib weaponsshields-5.mtl
usemtl palette

# normals
vn -1 0 0
vn 1 0 0
vn 0 0 1
vn 0 0 -1
vn 0 -1 0
vn 0 1 0

# texcoords
vt 0.0878906 0.5
vt 0.123047 0.5
vt 0.861328 0.5
vt 0.865234 0.5

# verts
v -0.5 0 0.5
v -0.5 0 -0.5
v -0.5 1 0.5
v -0.5 1 -0.5
v -0.5 1 -1.5
v -0.5 2 -0.5
v -0.5 2 -1.5
v -0.5 3 1.5
v -0.5 3 0.5
v -0.5 3 -0.5
v -0.5 3 -1.5
v -0.5 4 -0.5
v -0.5 4 -1.5
v -0.5 5 3.5
v -0.5 5 1.5
v -0.5 5 0.5
v -0.5 5 -0.5
v -0.5 5 -1.5
v -0.5 6 3.5
v -0.5 6 2.5
v -0.5 6 1.5
v -0.5 6 -1.5
v -0.5 6 -2.5
v -0.5 6 -3.5
v -0.5 7 3.5
v -0.5 7 2.5
v -0.5 7 1.5
v -0.5 7 0.5
v -0.5 7 -1.5
v -0.5 7 -2.5
v -0.5 8 3.5
v -0.5 8 1.5
v -0.5 8 0.5
v -0.5 8 -0.5
v -0.5 8 -2.5
v -0.5 8 -3.5
v -0.5 21 1.5
v -0.5 21 0.5
v -0.5 21 -0.5
v -0.5 21 -1.5
v -0.5 22 0.5
v -0.5 22 -0.5
v 0.5 0 0.5
v 0.5 0 -0.5
v 0.5 1 0.5
v 0.5 1 -0.5
v 0.5 1 -1.5
v 0.5 2 -0.5
v 0.5 2 -1.5
v 0.5 3 1.5
v 0.5 3 0.5
v 0.5 3 -0.5
v 0.5 3 -1.5
v 0.5 4 -0.5
v 0.5 4 -1.5
v 0.5 5 3.5
v 0.5 5 1.5
v 0.5 5 0.5
v 0.5 5 -0.5
v 0.5 5 -1.5
v 0.5 6 3.5
v 0.5 6 2.5
v 0.5 6 1.5
v 0.5 6 -1.5
v 0.5 6 -2.5
v 0.5 6 -3.5
v 0.5 7 3.5
v 0.5 7 2.5
v 0.5 7 1.5
v 0.5 7 0.5
v 0.5 7 -1.5
v 0.5 7 -2.5
v 0.5 8 3.5
v 0.5 8 1.5
v 0.5 8 0.5
v 0.5 8 -0.5
v 0.5 8 -2.5
v 0.5 8 -3.5
v 0.5 21 1.5
v 0.5 21 0.5
v 0.5 21 -0.5
v 0.5 21 -1.5
v 0.5 22 0.5
v 0.5 22 -0.5
v -0.5 5 3.5
v -0.5 6 3.5
v -0.5 7 3.5
v -0.5 8 3.5
v 0.5 5 3.5
v 0.5 6 3.5
v 0.5 7 3.5
v 0.5 8 3.5
v -0.5 6 2.5
v -0.5 7 2.5
v 0.5 6 2.5
v 0.5 7 2.5
v -0.5 3 1.5
v -0.5 5 1.5
v -0.5 8 1.5
v -0.5 21 1.5
v 0.5 3 1.5
v 0.5 5 1.5
v 0.5 8 1.5
v 0.5 21 1.5
v -0.5 0 0.5
v -0.5 1 0.5
v -0.5 3 0.5
v -0.5 21 0.5
v -0.5 22 0.5
v 0.5 0 0.5
v 0.5 1 0.5
v 0.5 3 0.5
v 0.5 21 0.5
v 0.5 22 0.5
v -0.5 7 -2.5
v -0.5 8 -2.5
v 0.5 7 -2.5
v 0.5 8 -2.5
v -0.5 0 -0.5
v -0.5 1 -0.5
v -0.5 2 -0.5
v -0.5 3 -0.5
v -0.5 21 -0.5
v -0.5 22 -0.5
v 0.5 0 -0.5
v 0.5 1 -0.5
v 0.5 2 -0.5
v 0.5 3 -0.5
v 0.5 21 -0.5
v 0.5 22 -0.5
v -0.5 1 -1.5
v -0.5 2 -1.5
v -0.5 3 -1.5
v -0.5 4 -1.5
v -0.5 5 -1.5
v -0.5 6 -1.5
v -0.5 7 -1.5
v -0.5 21 -1.5
v 0.5 1 -1.5
v 0.5 2 -1.5
v 0.5 3 -1.5
v 0.5 4 -1.5
v 0.5 5 -1.5
v 0.5 6 -1.5
v 0.5 7 -1.5
v 0.5 21 -1.5
v -0.5 6 -3.5
v -0.5 8 -3.5
v 0.5 6 -3.5
v 0.5 8 -3.5
v -0.5 0 0.5
v 0.5 0 0.5
v -0.5 0 -0.5
v 0.5 0 -0.5
v -0.5 1 -0.5
v 0.5 1 -0.5
v -0.5 1 -1.5
v 0.5 1 -1.5
v -0.5 3 1.5
v 0.5 3 1.5
v -0.5 3 0.5
v 0.5 3 0.5
v -0.5 3 -0.5
v 0.5 3 -0.5
v -0.5 3 -1.5
v 0.5 3 -1.5
v -0.5 5 3.5
v 0.5 5 3.5
v -0.5 5 1.5
v 0.5 5 1.5
v -0.5 6 -1.5
v 0.5 6 -1.5
v -0.5 6 -2.5
v 0.5 6 -2.5
v -0.5 6 -3.5
v 0.5 6 -3.5
v -0.5 7 3.5
v 0.5 7 3.5
v -0.5 7 2.5
v 0.5 7 2.5
v -0.5 2 -0.5
v 0.5 2 -0.5
v -0.5 2 -1.5
v 0.5 2 -1.5
v -0.5 6 3.5
v 0.5 6 3.5
v -0.5 6 2.5
v 0.5 6 2.5
v -0.5 7 -1.5
v 0.5 7 -1.5
v -0.5 7 -2.5
v 0.5 7 -2.5
v -0.5 8 3.5
v 0.5 8 3.5
v -0.5 8 1.5
v 0.5 8 1.5
v -0.5 8 -2.5
v 0.5 8 -2.5
v -0.5 8 -3.5
v 0.5 8 -3.5
v -0.5 21 1.5
v 0.5 21 1.5
v -0.5 21 0.5
v 0.5 21 0.5
v -0.5 21 -0.5
v 0.5 21 -0.5
v -0.5 21 -1.5
v 0.5 21 -1.5
v -0.5 22 0.5
v 0.5 22 0.5
v -0.5 22 -0.5
v 0.5 22 -0.5

# faces
f 3/3/1 2/3/1 1/3/1
f 4/3/1 2/3/1 3/3/1
f 6/4/1 4/4/1 3/4/1
f 6/3/1 5/3/1 4/3/1
f 7/3/1 5/3/1 6/3/1
f 9/4/1 6/4/1 3/4/1
f 10/4/1 6/4/1 9/4/1
f 12/4/1 10/4/1 9/4/1
f 12/4/1 11/4/1 10/4/1
f 13/4/1 11/4/1 12/4/1
f 15/3/1 9/3/1 8/3/1
f 16/4/1 12/4/1 9/4/1
f 16/3/1 9/3/1 15/3/1
f 17/3/1 13/3/1 12/3/1
f 17/4/1 12/4/1 16/4/1
f 18/3/1 13/3/1 17/3/1
f 19/4/1 15/4/1 14/4/1
f 19/4/1 16/4/1 15/4/1
f 19/4/1 18/4/1 17/4/1
f 19/4/1 17/4/1 16/4/1
f 20/4/1 18/4/1 19/4/1
f 21/4/1 18/4/1 20/4/1
f 22/4/1 18/4/1 21/4/1
f 26/3/1 21/3/1 20/3/1
f 27/4/1 22/4/1 21/4/1
f 27/4/1 23/4/1 22/4/1
f 27/3/1 21/3/1 26/3/1
f 28/4/1 23/4/1 27/4/1
f 29/4/1 23/4/1 28/4/1
f 30/3/1 24/3/1 23/3/1
f 30/4/1 23/4/1 29/4/1
f 31/4/1 26/4/1 25/4/1
f 31/4/1 27/4/1 26/4/1
f 31/4/1 28/4/1 27/4/1
f 32/4/1 28/4/1 31/4/1
f 33/1/1 29/1/1 28/1/1
f 33/4/1 28/4/1 32/4/1
f 34/1/1 29/1/1 33/1/1
f 35/3/1 24/3/1 30/3/1
f 36/3/1 24/3/1 35/3/1
f 37/1/1 33/1/1 32/1/1
f 38/2/1 34/2/1 33/2/1
f 38/1/1 33/1/1 37/1/1
f 39/1/1 29/1/1 34/1/1
f 39/2/1 34/2/1 38/2/1
f 40/1/1 29/1/1 39/1/1
f 41/2/1 39/2/1 38/2/1
f 42/2/1 39/2/1 41/2/1
f 43/3/2 44/3/2 45/3/2
f 45/3/2 44/3/2 46/3/2
f 45/4/2 46/4/2 48/4/2
f 46/3/2 47/3/2 48/3/2
f 48/3/2 47/3/2 49/3/2
f 45/4/2 48/4/2 51/4/2
f 51/4/2 48/4/2 52/4/2
f 51/4/2 52/4/2 54/4/2
f 52/4/2 53/4/2 54/4/2
f 54/4/2 53/4/2 55/4/2
f 50/3/2 51/3/2 57/3/2
f 51/4/2 54/4/2 58/4/2
f 57/3/2 51/3/2 58/3/2
f 54/3/2 55/3/2 59/3/2
f 58/4/2 54/4/2 59/4/2
f 59/3/2 55/3/2 60/3/2
f 56/4/2 57/4/2 61/4/2
f 57/4/2 58/4/2 61/4/2
f 59/4/2 60/4/2 61/4/2
f 58/4/2 59/4/2 61/4/2
f 61/4/2 60/4/2 62/4/2
f 62/4/2 60/4/2 63/4/2
f 63/4/2 60/4/2 64/4/2
f 62/3/2 63/3/2 68/3/2
f 63/4/2 64/4/2 69/4/2
f 64/4/2 65/4/2 69/4/2
f 68/3/2 63/3/2 69/3/2
f 69/4/2 65/4/2 70/4/2
f 70/4/2 65/4/2 71/4/2
f 65/3/2 66/3/2 72/3/2
f 71/4/2 65/4/2 72/4/2
f 67/4/2 68/4/2 73/4/2
f 68/4/2 69/4/2 73/4/2
f 69/4/2 70/4/2 73/4/2
f 73/4/2 70/4/2 74/4/2
f 70/1/2 71/1/2 75/1/2
f 74/4/2 70/4/2 75/4/2
f 75/1/2 71/1/2 76/1/2
f 72/3/2 66/3/2 77/3/2
f 77/3/2 66/3/2 78/3/2
f 74/1/2 75/1/2 79/1/2
f 75/2/2 76/2/2 80/2/2
f 79/1/2 75/1/2 80/1/2
f 76/1/2 71/1/2 81/1/2
f 80/2/2 76/2/2 81/2/2
f 81/1/2 71/1/2 82/1/2
f 80/2/2 81/2/2 83/2/2
f 83/2/2 81/2/2 84/2/2
f 89/4/3 86/4/3 85/4/3
f 90/4/3 86/4/3 89/4/3
f 91/4/3 88/4/3 87/4/3
f 92/4/3 88/4/3 91/4/3
f 95/3/3 94/3/3 93/3/3
f 96/3/3 94/3/3 95/3/3
f 101/3/3 98/3/3 97/3/3
f 102/3/3 98/3/3 101/3/3
f 103/1/3 100/1/3 99/1/3
f 104/1/3 100/1/3 103/1/3
f 110/3/3 106/3/3 105/3/3
f 111/4/3 107/4/3 106/4/3
f 111/3/3 106/3/3 110/3/3
f 112/4/3 107/4/3 111/4/3
f 113/2/3 109/2/3 108/2/3
f 114/2/3 109/2/3 113/2/3
f 117/3/3 116/3/3 115/3/3
f 118/3/3 116/3/3 117/3/3
f 119/3/4 120/3/4 125/3/4
f 125/3/4 120/3/4 126/3/4
f 121/4/4 122/4/4 127/4/4
f 127/4/4 122/4/4 128/4/4
f 123/2/4 124/2/4 129/2/4
f 129/2/4 124/2/4 130/2/4
f 131/3/4 132/3/4 139/3/4
f 139/3/4 132/3/4 140/3/4
f 133/4/4 134/4/4 141/4/4
f 134/3/4 135/3/4 142/3/4
f 141/4/4 134/4/4 142/4/4
f 135/4/4 136/4/4 143/4/4
f 142/3/4 135/3/4 143/3/4
f 143/4/4 136/4/4 144/4/4
f 137/1/4 138/1/4 145/1/4
f 145/1/4 138/1/4 146/1/4
f 147/3/4 148/3/4 149/3/4
f 149/3/4 148/3/4 150/3/4
f 153/3/5 152/3/5 151/3/5
f 154/3/5 152/3/5 153/3/5
f 157/3/5 156/3/5 155/3/5
f 158/3/5 156/3/5 157/3/5
f 161/3/5 160/3/5 159/3/5
f 162/3/5 160/3/5 161/3/5
f 165/4/5 164/4/5 163/4/5
f 166/4/5 164/4/5 165/4/5
f 169/4/5 168/4/5 167/4/5
f 170/4/5 168/4/5 169/4/5
f 173/4/5 172/4/5 171/4/5
f 174/4/5 172/4/5 173/4/5
f 175/3/5 174/3/5 173/3/5
f 176/3/5 174/3/5 175/3/5
f 179/4/5 178/4/5 177/4/5
f 180/4/5 178/4/5 179/4/5
f 181/3/6 182/3/6 183/3/6
f 183/3/6 182/3/6 184/3/6
f 185/4/6 186/4/6 187/4/6
f 187/4/6 186/4/6 188/4/6
f 189/4/6 190/4/6 191/4/6
f 191/4/6 190/4/6 192/4/6
f 193/4/6 194/4/6 195/4/6
f 195/4/6 194/4/6 196/4/6
f 197/3/6 198/3/6 199/3/6
f 199/3/6 198/3/6 200/3/6
f 201/1/6 202/1/6 203/1/6
f 203/1/6 202/1/6 204/1/6
f 205/1/6 206/1/6 207/1/6
f 207/1/6 206/1/6 208/1/6
f 209/2/6 210/2/6 211/2/6
f 211/2/6 210/2/6 212/2/6
