# MagicaVoxel @ Ephtracy

# group
g weaponsshields-21

# material
mtllib weaponsshields-21.mtl
usemtl palette

# normals
vn -1 0 0
vn 1 0 0
vn 0 0 1
vn 0 0 -1
vn 0 -1 0
vn 0 1 0

# texcoords
vt 0.0566406 0.5
vt 0.123047 0.5

# verts
v -10.5 4 1.5
v -10.5 4 0.5
v -10.5 11 2.5
v -10.5 11 1.5
v -10.5 14 2.5
v -10.5 14 1.5
v -10.5 20 1.5
v -10.5 20 0.5
v -9.5 3 1.5
v -9.5 3 0.5
v -9.5 4 1.5
v -9.5 4 0.5
v -9.5 20 1.5
v -9.5 20 0.5
v -9.5 21 1.5
v -9.5 21 0.5
v -8.5 2 1.5
v -8.5 2 0.5
v -8.5 3 1.5
v -8.5 3 0.5
v -7.5 1 1.5
v -7.5 1 0.5
v -7.5 2 1.5
v -7.5 2 0.5
v -4.5 0 1.5
v -4.5 0 0.5
v -4.5 1 1.5
v -4.5 1 0.5
v -1.5 0 2.5
v -1.5 0 1.5
v -1.5 1 2.5
v -1.5 1 1.5
v -1.5 20 2.5
v -1.5 20 1.5
v -1.5 21 2.5
v -1.5 21 1.5
v -0.5 1 2.5
v -0.5 1 1.5
v -0.5 7 0.5
v -0.5 7 -2.5
v -0.5 8 0.5
v -0.5 8 -1.5
v -0.5 12 2.5
v -0.5 12 1.5
v -0.5 13 2.5
v -0.5 13 1.5
v -0.5 13 0.5
v -0.5 13 -1.5
v -0.5 14 0.5
v -0.5 14 -2.5
v -0.5 20 2.5
v -0.5 20 1.5
v 9.5 11 2.5
v 9.5 11 1.5
v 9.5 12 2.5
v 9.5 12 1.5
v 9.5 13 2.5
v 9.5 13 1.5
v 9.5 14 2.5
v 9.5 14 1.5
v -9.5 11 2.5
v -9.5 11 1.5
v -9.5 12 2.5
v -9.5 12 1.5
v -9.5 13 2.5
v -9.5 13 1.5
v -9.5 14 2.5
v -9.5 14 1.5
v 0.5 1 2.5
v 0.5 1 1.5
v 0.5 7 0.5
v 0.5 7 -2.5
v 0.5 8 0.5
v 0.5 8 -1.5
v 0.5 12 2.5
v 0.5 12 1.5
v 0.5 13 2.5
v 0.5 13 1.5
v 0.5 13 0.5
v 0.5 13 -1.5
v 0.5 14 0.5
v 0.5 14 -2.5
v 0.5 20 2.5
v 0.5 20 1.5
v 1.5 0 2.5
v 1.5 0 1.5
v 1.5 1 2.5
v 1.5 1 1.5
v 1.5 20 2.5
v 1.5 20 1.5
v 1.5 21 2.5
v 1.5 21 1.5
v 4.5 0 1.5
v 4.5 0 0.5
v 4.5 1 1.5
v 4.5 1 0.5
v 7.5 1 1.5
v 7.5 1 0.5
v 7.5 2 1.5
v 7.5 2 0.5
v 8.5 2 1.5
v 8.5 2 0.5
v 8.5 3 1.5
v 8.5 3 0.5
v 9.5 3 1.5
v 9.5 3 0.5
v 9.5 4 1.5
v 9.5 4 0.5
v 9.5 20 1.5
v 9.5 20 0.5
v 9.5 21 1.5
v 9.5 21 0.5
v 10.5 4 1.5
v 10.5 4 0.5
v 10.5 11 2.5
v 10.5 11 1.5
v 10.5 14 2.5
v 10.5 14 1.5
v 10.5 20 1.5
v 10.5 20 0.5
v -10.5 11 2.5
v -10.5 14 2.5
v -9.5 11 2.5
v -9.5 12 2.5
v -9.5 13 2.5
v -9.5 14 2.5
v -1.5 0 2.5
v -1.5 1 2.5
v -1.5 20 2.5
v -1.5 21 2.5
v -0.5 1 2.5
v -0.5 12 2.5
v -0.5 13 2.5
v -0.5 20 2.5
v 0.5 1 2.5
v 0.5 12 2.5
v 0.5 13 2.5
v 0.5 20 2.5
v 1.5 0 2.5
v 1.5 1 2.5
v 1.5 20 2.5
v 1.5 21 2.5
v 9.5 11 2.5
v 9.5 12 2.5
v 9.5 13 2.5
v 9.5 14 2.5
v 10.5 11 2.5
v 10.5 14 2.5
v -10.5 4 1.5
v -10.5 11 1.5
v -10.5 14 1.5
v -10.5 20 1.5
v -9.5 3 1.5
v -9.5 4 1.5
v -9.5 7 1.5
v -9.5 11 1.5
v -9.5 12 1.5
v -9.5 13 1.5
v -9.5 14 1.5
v -9.5 19 1.5
v -9.5 20 1.5
v -9.5 21 1.5
v -8.5 2 1.5
v -8.5 3 1.5
v -8.5 5 1.5
v -8.5 7 1.5
v -8.5 19 1.5
v -8.5 20 1.5
v -7.5 1 1.5
v -7.5 2 1.5
v -7.5 4 1.5
v -7.5 5 1.5
v -6.5 3 1.5
v -6.5 4 1.5
v -5.5 2 1.5
v -5.5 3 1.5
v -4.5 0 1.5
v -4.5 1 1.5
v -3.5 1 1.5
v -3.5 2 1.5
v -1.5 0 1.5
v -1.5 1 1.5
v -1.5 20 1.5
v -1.5 21 1.5
v -0.5 1 1.5
v -0.5 12 1.5
v -0.5 13 1.5
v -0.5 20 1.5
v 0.5 1 1.5
v 0.5 12 1.5
v 0.5 13 1.5
v 0.5 20 1.5
v 1.5 0 1.5
v 1.5 1 1.5
v 1.5 20 1.5
v 1.5 21 1.5
v 3.5 1 1.5
v 3.5 2 1.5
v 4.5 0 1.5
v 4.5 1 1.5
v 5.5 2 1.5
v 5.5 3 1.5
v 6.5 3 1.5
v 6.5 4 1.5
v 7.5 1 1.5
v 7.5 2 1.5
v 7.5 4 1.5
v 7.5 5 1.5
v 8.5 2 1.5
v 8.5 3 1.5
v 8.5 5 1.5
v 8.5 7 1.5
v 8.5 19 1.5
v 8.5 20 1.5
v 9.5 3 1.5
v 9.5 4 1.5
v 9.5 7 1.5
v 9.5 11 1.5
v 9.5 12 1.5
v 9.5 13 1.5
v 9.5 14 1.5
v 9.5 19 1.5
v 9.5 20 1.5
v 9.5 21 1.5
v 10.5 4 1.5
v 10.5 11 1.5
v 10.5 14 1.5
v 10.5 20 1.5
v -0.5 8 -1.5
v -0.5 13 -1.5
v 0.5 8 -1.5
v 0.5 13 -1.5
v -10.5 4 0.5
v -10.5 20 0.5
v -9.5 3 0.5
v -9.5 4 0.5
v -9.5 7 0.5
v -9.5 19 0.5
v -9.5 20 0.5
v -9.5 21 0.5
v -8.5 2 0.5
v -8.5 3 0.5
v -8.5 5 0.5
v -8.5 7 0.5
v -8.5 19 0.5
v -8.5 20 0.5
v -7.5 1 0.5
v -7.5 2 0.5
v -7.5 4 0.5
v -7.5 5 0.5
v -6.5 3 0.5
v -6.5 4 0.5
v -5.5 2 0.5
v -5.5 3 0.5
v -4.5 0 0.5
v -4.5 1 0.5
v -3.5 1 0.5
v -3.5 2 0.5
v -0.5 7 0.5
v -0.5 8 0.5
v -0.5 13 0.5
v -0.5 14 0.5
v 0.5 7 0.5
v 0.5 8 0.5
v 0.5 13 0.5
v 0.5 14 0.5
v 3.5 1 0.5
v 3.5 2 0.5
v 4.5 0 0.5
v 4.5 1 0.5
v 5.5 2 0.5
v 5.5 3 0.5
v 6.5 3 0.5
v 6.5 4 0.5
v 7.5 1 0.5
v 7.5 2 0.5
v 7.5 4 0.5
v 7.5 5 0.5
v 8.5 2 0.5
v 8.5 3 0.5
v 8.5 5 0.5
v 8.5 7 0.5
v 8.5 19 0.5
v 8.5 20 0.5
v 9.5 3 0.5
v 9.5 4 0.5
v 9.5 7 0.5
v 9.5 19 0.5
v 9.5 20 0.5
v 9.5 21 0.5
v 10.5 4 0.5
v 10.5 20 0.5
v -0.5 7 -2.5
v -0.5 14 -2.5
v 0.5 7 -2.5
v 0.5 14 -2.5
v -1.5 0 2.5
v 1.5 0 2.5
v -4.5 0 1.5
v -1.5 0 1.5
v 1.5 0 1.5
v 4.5 0 1.5
v -4.5 0 0.5
v 4.5 0 0.5
v -7.5 1 1.5
v -4.5 1 1.5
v 4.5 1 1.5
v 7.5 1 1.5
v -7.5 1 0.5
v -4.5 1 0.5
v 4.5 1 0.5
v 7.5 1 0.5
v -8.5 2 1.5
v -7.5 2 1.5
v 7.5 2 1.5
v 8.5 2 1.5
v -8.5 2 0.5
v -7.5 2 0.5
v 7.5 2 0.5
v 8.5 2 0.5
v -9.5 3 1.5
v -8.5 3 1.5
v 8.5 3 1.5
v 9.5 3 1.5
v -9.5 3 0.5
v -8.5 3 0.5
v 8.5 3 0.5
v 9.5 3 0.5
v -10.5 4 1.5
v -9.5 4 1.5
v 9.5 4 1.5
v 10.5 4 1.5
v -10.5 4 0.5
v -9.5 4 0.5
v 9.5 4 0.5
v 10.5 4 0.5
v -0.5 7 0.5
v 0.5 7 0.5
v -0.5 7 -2.5
v 0.5 7 -2.5
v -10.5 11 2.5
v -9.5 11 2.5
v 9.5 11 2.5
v 10.5 11 2.5
v -10.5 11 1.5
v -9.5 11 1.5
v 9.5 11 1.5
v 10.5 11 1.5
v -9.5 12 2.5
v -0.5 12 2.5
v 0.5 12 2.5
v 9.5 12 2.5
v -9.5 12 1.5
v -0.5 12 1.5
v 0.5 12 1.5
v 9.5 12 1.5
v -0.5 13 0.5
v 0.5 13 0.5
v -0.5 13 -1.5
v 0.5 13 -1.5
v -1.5 20 2.5
v -0.5 20 2.5
v 0.5 20 2.5
v 1.5 20 2.5
v -1.5 20 1.5
v -0.5 20 1.5
v 0.5 20 1.5
v 1.5 20 1.5
v -1.5 1 2.5
v -0.5 1 2.5
v 0.5 1 2.5
v 1.5 1 2.5
v -1.5 1 1.5
v -0.5 1 1.5
v 0.5 1 1.5
v 1.5 1 1.5
v -0.5 8 0.5
v 0.5 8 0.5
v -0.5 8 -1.5
v 0.5 8 -1.5
v -9.5 13 2.5
v -0.5 13 2.5
v 0.5 13 2.5
v 9.5 13 2.5
v -9.5 13 1.5
v -0.5 13 1.5
v 0.5 13 1.5
v 9.5 13 1.5
v -10.5 14 2.5
v -9.5 14 2.5
v 9.5 14 2.5
v 10.5 14 2.5
v -10.5 14 1.5
v -9.5 14 1.5
v 9.5 14 1.5
v 10.5 14 1.5
v -0.5 14 0.5
v 0.5 14 0.5
v -0.5 14 -2.5
v 0.5 14 -2.5
v -10.5 20 1.5
v -9.5 20 1.5
v 9.5 20 1.5
v 10.5 20 1.5
v -10.5 20 0.5
v -9.5 20 0.5
v 9.5 20 0.5
v 10.5 20 0.5
v -1.5 21 2.5
v 1.5 21 2.5
v -9.5 21 1.5
v -1.5 21 1.5
v 1.5 21 1.5
v 9.5 21 1.5
v -9.5 21 0.5
v 9.5 21 0.5

# faces
f 4/2/1 2/2/1 1/2/1
f 5/2/1 4/2/1 3/2/1
f 6/2/1 2/2/1 4/2/1
f 6/2/1 4/2/1 5/2/1
f 7/2/1 2/2/1 6/2/1
f 8/2/1 2/2/1 7/2/1
f 11/2/1 10/2/1 9/2/1
f 12/2/1 10/2/1 11/2/1
f 15/2/1 14/2/1 13/2/1
f 16/2/1 14/2/1 15/2/1
f 19/2/1 18/2/1 17/2/1
f 20/2/1 18/2/1 19/2/1
f 23/2/1 22/2/1 21/2/1
f 24/2/1 22/2/1 23/2/1
f 27/2/1 26/2/1 25/2/1
f 28/2/1 26/2/1 27/2/1
f 31/2/1 30/2/1 29/2/1
f 32/2/1 30/2/1 31/2/1
f 35/2/1 34/2/1 33/2/1
f 36/2/1 34/2/1 35/2/1
f 41/2/1 40/2/1 39/2/1
f 42/2/1 40/2/1 41/2/1
f 43/2/1 38/2/1 37/2/1
f 44/2/1 38/2/1 43/2/1
f 48/2/1 40/2/1 42/2/1
f 49/2/1 48/2/1 47/2/1
f 50/2/1 40/2/1 48/2/1
f 50/2/1 48/2/1 49/2/1
f 51/2/1 46/2/1 45/2/1
f 52/2/1 46/2/1 51/2/1
f 55/2/1 54/2/1 53/2/1
f 56/2/1 54/2/1 55/2/1
f 59/2/1 58/2/1 57/2/1
f 60/2/1 58/2/1 59/2/1
f 61/2/2 62/2/2 63/2/2
f 63/2/2 62/2/2 64/2/2
f 65/2/2 66/2/2 67/2/2
f 67/2/2 66/2/2 68/2/2
f 71/2/2 72/2/2 73/2/2
f 73/2/2 72/2/2 74/2/2
f 69/2/2 70/2/2 75/2/2
f 75/2/2 70/2/2 76/2/2
f 74/2/2 72/2/2 80/2/2
f 79/2/2 80/2/2 81/2/2
f 80/2/2 72/2/2 82/2/2
f 81/2/2 80/2/2 82/2/2
f 77/2/2 78/2/2 83/2/2
f 83/2/2 78/2/2 84/2/2
f 85/2/2 86/2/2 87/2/2
f 87/2/2 86/2/2 88/2/2
f 89/2/2 90/2/2 91/2/2
f 91/2/2 90/2/2 92/2/2
f 93/2/2 94/2/2 95/2/2
f 95/2/2 94/2/2 96/2/2
f 97/2/2 98/2/2 99/2/2
f 99/2/2 98/2/2 100/2/2
f 101/2/2 102/2/2 103/2/2
f 103/2/2 102/2/2 104/2/2
f 105/2/2 106/2/2 107/2/2
f 107/2/2 106/2/2 108/2/2
f 109/2/2 110/2/2 111/2/2
f 111/2/2 110/2/2 112/2/2
f 113/2/2 114/2/2 116/2/2
f 115/2/2 116/2/2 117/2/2
f 116/2/2 114/2/2 118/2/2
f 117/2/2 116/2/2 118/2/2
f 118/2/2 114/2/2 119/2/2
f 119/2/2 114/2/2 120/2/2
f 123/2/3 122/2/3 121/2/3
f 124/2/3 122/2/3 123/2/3
f 125/2/3 122/2/3 124/2/3
f 126/2/3 122/2/3 125/2/3
f 131/2/3 128/2/3 127/2/3
f 132/2/3 125/2/3 124/2/3
f 133/2/3 125/2/3 132/2/3
f 134/2/3 130/2/3 129/2/3
f 135/2/3 133/2/3 132/2/3
f 135/2/3 134/2/3 133/2/3
f 135/2/3 131/2/3 127/2/3
f 135/2/3 132/2/3 131/2/3
f 136/2/3 134/2/3 135/2/3
f 137/2/3 134/2/3 136/2/3
f 138/2/3 130/2/3 134/2/3
f 138/2/3 134/2/3 137/2/3
f 139/2/3 135/2/3 127/2/3
f 140/2/3 135/2/3 139/2/3
f 141/2/3 130/2/3 138/2/3
f 142/2/3 130/2/3 141/2/3
f 144/2/3 137/2/3 136/2/3
f 145/2/3 137/2/3 144/2/3
f 147/2/3 144/2/3 143/2/3
f 147/2/3 146/2/3 145/2/3
f 147/2/3 145/2/3 144/2/3
f 148/2/3 146/2/3 147/2/3
f 154/2/3 150/2/3 149/2/3
f 155/2/3 150/2/3 154/2/3
f 156/2/3 150/2/3 155/2/3
f 159/2/3 152/2/3 151/2/3
f 160/2/3 152/2/3 159/2/3
f 161/2/3 152/2/3 160/2/3
f 164/2/3 154/2/3 153/2/3
f 164/2/3 155/2/3 154/2/3
f 165/2/3 155/2/3 164/2/3
f 166/1/3 157/1/3 156/1/3
f 166/2/3 155/2/3 165/2/3
f 166/1/3 156/1/3 155/1/3
f 167/2/3 162/2/3 161/2/3
f 167/2/3 161/2/3 160/2/3
f 167/1/3 159/1/3 158/1/3
f 167/1/3 160/1/3 159/1/3
f 168/2/3 162/2/3 167/2/3
f 170/2/3 165/2/3 164/2/3
f 170/2/3 164/2/3 163/2/3
f 171/2/3 165/2/3 170/2/3
f 172/1/3 166/1/3 165/1/3
f 172/2/3 165/2/3 171/2/3
f 173/2/3 171/2/3 170/2/3
f 173/2/3 170/2/3 169/2/3
f 174/1/3 172/1/3 171/1/3
f 174/2/3 171/2/3 173/2/3
f 175/2/3 173/2/3 169/2/3
f 176/1/3 174/1/3 173/1/3
f 176/2/3 173/2/3 175/2/3
f 178/2/3 175/2/3 169/2/3
f 179/2/3 175/2/3 178/2/3
f 179/2/3 178/2/3 177/2/3
f 180/1/3 176/1/3 175/1/3
f 180/2/3 175/2/3 179/2/3
f 181/2/3 179/2/3 177/2/3
f 182/1/3 180/1/3 179/1/3
f 182/2/3 179/2/3 181/2/3
f 183/2/3 162/2/3 168/2/3
f 183/1/3 168/1/3 167/1/3
f 184/2/3 162/2/3 183/2/3
f 185/1/3 180/1/3 182/1/3
f 186/1/3 157/1/3 166/1/3
f 186/1/3 180/1/3 185/1/3
f 186/1/3 166/1/3 172/1/3
f 186/1/3 172/1/3 174/1/3
f 186/1/3 174/1/3 176/1/3
f 186/1/3 176/1/3 180/1/3
f 187/1/3 183/1/3 167/1/3
f 187/1/3 167/1/3 158/1/3
f 188/1/3 183/1/3 187/1/3
f 194/1/3 190/1/3 189/1/3
f 195/1/3 192/1/3 191/1/3
f 197/2/3 194/2/3 193/2/3
f 197/1/3 190/1/3 194/1/3
f 198/1/3 190/1/3 197/1/3
f 199/2/3 197/2/3 193/2/3
f 199/2/3 198/2/3 197/2/3
f 200/2/3 198/2/3 199/2/3
f 201/1/3 190/1/3 198/1/3
f 201/2/3 198/2/3 200/2/3
f 202/1/3 190/1/3 201/1/3
f 203/2/3 202/2/3 201/2/3
f 203/1/3 190/1/3 202/1/3
f 204/1/3 190/1/3 203/1/3
f 205/2/3 201/2/3 200/2/3
f 205/2/3 203/2/3 201/2/3
f 205/2/3 204/2/3 203/2/3
f 206/2/3 204/2/3 205/2/3
f 207/1/3 190/1/3 204/1/3
f 207/2/3 204/2/3 206/2/3
f 208/1/3 190/1/3 207/1/3
f 209/2/3 207/2/3 206/2/3
f 209/2/3 208/2/3 207/2/3
f 210/2/3 208/2/3 209/2/3
f 211/1/3 190/1/3 208/1/3
f 211/2/3 208/2/3 210/2/3
f 212/1/3 190/1/3 211/1/3
f 213/1/3 195/1/3 191/1/3
f 214/2/3 196/2/3 195/2/3
f 214/1/3 195/1/3 213/1/3
f 215/2/3 211/2/3 210/2/3
f 215/2/3 212/2/3 211/2/3
f 216/2/3 212/2/3 215/2/3
f 217/1/3 190/1/3 212/1/3
f 217/2/3 212/2/3 216/2/3
f 218/1/3 190/1/3 217/1/3
f 219/1/3 190/1/3 218/1/3
f 220/1/3 213/1/3 191/1/3
f 221/1/3 213/1/3 220/1/3
f 222/2/3 214/2/3 213/2/3
f 222/1/3 213/1/3 221/1/3
f 223/2/3 196/2/3 214/2/3
f 223/2/3 214/2/3 222/2/3
f 224/2/3 196/2/3 223/2/3
f 225/2/3 217/2/3 216/2/3
f 225/2/3 218/2/3 217/2/3
f 226/2/3 218/2/3 225/2/3
f 227/2/3 223/2/3 222/2/3
f 227/2/3 222/2/3 221/2/3
f 228/2/3 223/2/3 227/2/3
f 231/2/3 230/2/3 229/2/3
f 232/2/3 230/2/3 231/2/3
f 233/2/4 234/2/4 236/2/4
f 236/2/4 234/2/4 237/2/4
f 237/2/4 234/2/4 238/2/4
f 238/2/4 234/2/4 239/2/4
f 235/2/4 236/2/4 242/2/4
f 236/2/4 237/2/4 242/2/4
f 242/2/4 237/2/4 243/2/4
f 237/1/4 238/1/4 244/1/4
f 243/2/4 237/2/4 244/2/4
f 239/2/4 240/2/4 245/2/4
f 244/1/4 238/1/4 245/1/4
f 238/2/4 239/2/4 245/2/4
f 245/2/4 240/2/4 246/2/4
f 241/2/4 242/2/4 248/2/4
f 242/2/4 243/2/4 248/2/4
f 248/2/4 243/2/4 249/2/4
f 243/1/4 244/1/4 250/1/4
f 249/2/4 243/2/4 250/2/4
f 245/1/4 246/1/4 250/1/4
f 244/1/4 245/1/4 250/1/4
f 248/2/4 249/2/4 251/2/4
f 247/2/4 248/2/4 251/2/4
f 249/1/4 250/1/4 252/1/4
f 251/2/4 249/2/4 252/2/4
f 247/2/4 251/2/4 253/2/4
f 251/1/4 252/1/4 254/1/4
f 253/2/4 251/2/4 254/2/4
f 247/2/4 253/2/4 256/2/4
f 256/2/4 253/2/4 257/2/4
f 255/2/4 256/2/4 257/2/4
f 253/1/4 254/1/4 258/1/4
f 257/2/4 253/2/4 258/2/4
f 250/1/4 246/1/4 259/1/4
f 258/1/4 254/1/4 259/1/4
f 257/1/4 258/1/4 259/1/4
f 252/1/4 250/1/4 259/1/4
f 254/1/4 252/1/4 259/1/4
f 259/1/4 246/1/4 260/1/4
f 260/1/4 246/1/4 261/1/4
f 261/1/4 246/1/4 262/1/4
f 257/1/4 259/1/4 263/1/4
f 260/1/4 261/1/4 264/1/4
f 264/1/4 261/1/4 265/1/4
f 262/1/4 246/1/4 266/1/4
f 255/2/4 257/2/4 267/2/4
f 265/1/4 266/1/4 267/1/4
f 264/1/4 265/1/4 267/1/4
f 257/1/4 263/1/4 267/1/4
f 263/1/4 264/1/4 267/1/4
f 267/1/4 266/1/4 268/1/4
f 255/2/4 267/2/4 269/2/4
f 267/2/4 268/2/4 269/2/4
f 269/2/4 268/2/4 270/2/4
f 268/1/4 266/1/4 271/1/4
f 270/2/4 268/2/4 271/2/4
f 271/1/4 266/1/4 272/1/4
f 271/2/4 272/2/4 273/2/4
f 272/1/4 266/1/4 273/1/4
f 273/1/4 266/1/4 274/1/4
f 270/2/4 271/2/4 275/2/4
f 271/2/4 273/2/4 275/2/4
f 273/2/4 274/2/4 275/2/4
f 275/2/4 274/2/4 276/2/4
f 274/1/4 266/1/4 277/1/4
f 276/2/4 274/2/4 277/2/4
f 277/1/4 266/1/4 278/1/4
f 276/2/4 277/2/4 279/2/4
f 277/2/4 278/2/4 279/2/4
f 279/2/4 278/2/4 280/2/4
f 278/1/4 266/1/4 281/1/4
f 280/2/4 278/2/4 281/2/4
f 281/1/4 266/1/4 282/1/4
f 266/1/4 246/1/4 283/1/4
f 282/1/4 266/1/4 283/1/4
f 246/2/4 240/2/4 284/2/4
f 283/1/4 246/1/4 284/1/4
f 281/2/4 282/2/4 285/2/4
f 280/2/4 281/2/4 285/2/4
f 285/2/4 282/2/4 286/2/4
f 282/1/4 283/1/4 287/1/4
f 286/2/4 282/2/4 287/2/4
f 283/2/4 284/2/4 288/2/4
f 287/1/4 283/1/4 288/1/4
f 284/2/4 240/2/4 289/2/4
f 288/2/4 284/2/4 289/2/4
f 289/2/4 240/2/4 290/2/4
f 287/2/4 288/2/4 291/2/4
f 288/2/4 289/2/4 291/2/4
f 286/2/4 287/2/4 291/2/4
f 291/2/4 289/2/4 292/2/4
f 293/2/4 294/2/4 295/2/4
f 295/2/4 294/2/4 296/2/4
f 300/2/5 298/2/5 297/2/5
f 301/2/5 298/2/5 300/2/5
f 303/2/5 300/2/5 299/2/5
f 303/2/5 302/2/5 301/2/5
f 303/2/5 301/2/5 300/2/5
f 304/2/5 302/2/5 303/2/5
f 309/2/5 306/2/5 305/2/5
f 310/2/5 306/2/5 309/2/5
f 311/2/5 308/2/5 307/2/5
f 312/2/5 308/2/5 311/2/5
f 317/2/5 314/2/5 313/2/5
f 318/2/5 314/2/5 317/2/5
f 319/2/5 316/2/5 315/2/5
f 320/2/5 316/2/5 319/2/5
f 325/2/5 322/2/5 321/2/5
f 326/2/5 322/2/5 325/2/5
f 327/2/5 324/2/5 323/2/5
f 328/2/5 324/2/5 327/2/5
f 333/2/5 330/2/5 329/2/5
f 334/2/5 330/2/5 333/2/5
f 335/2/5 332/2/5 331/2/5
f 336/2/5 332/2/5 335/2/5
f 339/2/5 338/2/5 337/2/5
f 340/2/5 338/2/5 339/2/5
f 345/2/5 342/2/5 341/2/5
f 346/2/5 342/2/5 345/2/5
f 347/2/5 344/2/5 343/2/5
f 348/2/5 344/2/5 347/2/5
f 353/2/5 350/2/5 349/2/5
f 354/2/5 350/2/5 353/2/5
f 355/2/5 352/2/5 351/2/5
f 356/2/5 352/2/5 355/2/5
f 359/2/5 358/2/5 357/2/5
f 360/2/5 358/2/5 359/2/5
f 365/2/5 362/2/5 361/2/5
f 366/2/5 362/2/5 365/2/5
f 367/2/5 364/2/5 363/2/5
f 368/2/5 364/2/5 367/2/5
f 369/2/6 370/2/6 373/2/6
f 373/2/6 370/2/6 374/2/6
f 371/2/6 372/2/6 375/2/6
f 375/2/6 372/2/6 376/2/6
f 377/2/6 378/2/6 379/2/6
f 379/2/6 378/2/6 380/2/6
f 381/2/6 382/2/6 385/2/6
f 385/2/6 382/2/6 386/2/6
f 383/2/6 384/2/6 387/2/6
f 387/2/6 384/2/6 388/2/6
f 389/2/6 390/2/6 393/2/6
f 393/2/6 390/2/6 394/2/6
f 391/2/6 392/2/6 395/2/6
f 395/2/6 392/2/6 396/2/6
f 397/2/6 398/2/6 399/2/6
f 399/2/6 398/2/6 400/2/6
f 401/2/6 402/2/6 405/2/6
f 405/2/6 402/2/6 406/2/6
f 403/2/6 404/2/6 407/2/6
f 407/2/6 404/2/6 408/2/6
f 409/2/6 410/2/6 412/2/6
f 412/2/6 410/2/6 413/2/6
f 411/2/6 412/2/6 415/2/6
f 413/2/6 414/2/6 415/2/6
f 412/2/6 413/2/6 415/2/6
f 415/2/6 414/2/6 416/2/6
