# MagicaVoxel @ Ephtracy

# group
g weaponsshields-9

# material
mtllib weaponsshields-9.mtl
usemtl palette

# normals
vn -1 0 0
vn 1 0 0
vn 0 0 1
vn 0 0 -1
vn 0 -1 0
vn 0 1 0

# texcoords
vt 0.0878906 0.5
vt 0.0917969 0.5
vt 0.869141 0.5

# verts
v -1.5 0 0.5
v -1.5 0 -0.5
v -1.5 1 0.5
v -1.5 1 -0.5
v -1.5 6 1.5
v -1.5 6 -1.5
v -1.5 7 1.5
v -1.5 7 -1.5
v -0.5 0 1.5
v -0.5 0 0.5
v -0.5 0 -0.5
v -0.5 0 -1.5
v -0.5 1 1.5
v -0.5 1 0.5
v -0.5 1 -0.5
v -0.5 1 -1.5
v -0.5 2 0.5
v -0.5 2 -0.5
v -0.5 3 0.5
v -0.5 3 -0.5
v -0.5 4 0.5
v -0.5 4 -0.5
v -0.5 5 0.5
v -0.5 5 -0.5
v -0.5 6 2.5
v -0.5 6 1.5
v -0.5 6 0.5
v -0.5 6 -0.5
v -0.5 6 -1.5
v -0.5 6 -2.5
v -0.5 7 2.5
v -0.5 7 1.5
v -0.5 7 0.5
v -0.5 7 -0.5
v -0.5 7 -1.5
v -0.5 7 -2.5
v -0.5 22 0.5
v -0.5 22 -0.5
v 0.5 0 1.5
v 0.5 0 0.5
v 0.5 0 -0.5
v 0.5 0 -1.5
v 0.5 1 1.5
v 0.5 1 0.5
v 0.5 1 -0.5
v 0.5 1 -1.5
v 0.5 2 0.5
v 0.5 2 -0.5
v 0.5 3 0.5
v 0.5 3 -0.5
v 0.5 4 0.5
v 0.5 4 -0.5
v 0.5 5 0.5
v 0.5 5 -0.5
v 0.5 6 2.5
v 0.5 6 1.5
v 0.5 6 0.5
v 0.5 6 -0.5
v 0.5 6 -1.5
v 0.5 6 -2.5
v 0.5 7 2.5
v 0.5 7 1.5
v 0.5 7 0.5
v 0.5 7 -0.5
v 0.5 7 -1.5
v 0.5 7 -2.5
v 0.5 22 0.5
v 0.5 22 -0.5
v 1.5 0 0.5
v 1.5 0 -0.5
v 1.5 1 0.5
v 1.5 1 -0.5
v 1.5 6 1.5
v 1.5 6 -1.5
v 1.5 7 1.5
v 1.5 7 -1.5
v -0.5 6 2.5
v -0.5 7 2.5
v 0.5 6 2.5
v 0.5 7 2.5
v -1.5 6 1.5
v -1.5 7 1.5
v -0.5 0 1.5
v -0.5 1 1.5
v -0.5 6 1.5
v -0.5 7 1.5
v 0.5 0 1.5
v 0.5 1 1.5
v 0.5 6 1.5
v 0.5 7 1.5
v 1.5 6 1.5
v 1.5 7 1.5
v -1.5 0 0.5
v -1.5 1 0.5
v -0.5 0 0.5
v -0.5 1 0.5
v -0.5 2 0.5
v -0.5 3 0.5
v -0.5 4 0.5
v -0.5 5 0.5
v -0.5 6 0.5
v -0.5 7 0.5
v -0.5 22 0.5
v 0.5 0 0.5
v 0.5 1 0.5
v 0.5 2 0.5
v 0.5 3 0.5
v 0.5 4 0.5
v 0.5 5 0.5
v 0.5 6 0.5
v 0.5 7 0.5
v 0.5 22 0.5
v 1.5 0 0.5
v 1.5 1 0.5
v -1.5 0 -0.5
v -1.5 1 -0.5
v -0.5 0 -0.5
v -0.5 1 -0.5
v -0.5 2 -0.5
v -0.5 3 -0.5
v -0.5 4 -0.5
v -0.5 5 -0.5
v -0.5 6 -0.5
v -0.5 7 -0.5
v -0.5 22 -0.5
v 0.5 0 -0.5
v 0.5 1 -0.5
v 0.5 2 -0.5
v 0.5 3 -0.5
v 0.5 4 -0.5
v 0.5 5 -0.5
v 0.5 6 -0.5
v 0.5 7 -0.5
v 0.5 22 -0.5
v 1.5 0 -0.5
v 1.5 1 -0.5
v -1.5 6 -1.5
v -1.5 7 -1.5
v -0.5 0 -1.5
v -0.5 1 -1.5
v -0.5 6 -1.5
v -0.5 7 -1.5
v 0.5 0 -1.5
v 0.5 1 -1.5
v 0.5 6 -1.5
v 0.5 7 -1.5
v 1.5 6 -1.5
v 1.5 7 -1.5
v -0.5 6 -2.5
v -0.5 7 -2.5
v 0.5 6 -2.5
v 0.5 7 -2.5
v -0.5 0 1.5
v 0.5 0 1.5
v -1.5 0 0.5
v -0.5 0 0.5
v 0.5 0 0.5
v 1.5 0 0.5
v -1.5 0 -0.5
v -0.5 0 -0.5
v 0.5 0 -0.5
v 1.5 0 -0.5
v -0.5 0 -1.5
v 0.5 0 -1.5
v -0.5 6 2.5
v 0.5 6 2.5
v -1.5 6 1.5
v -0.5 6 1.5
v 0.5 6 1.5
v 1.5 6 1.5
v -0.5 6 0.5
v 0.5 6 0.5
v -0.5 6 -0.5
v 0.5 6 -0.5
v -1.5 6 -1.5
v -0.5 6 -1.5
v 0.5 6 -1.5
v 1.5 6 -1.5
v -0.5 6 -2.5
v 0.5 6 -2.5
v -0.5 1 1.5
v 0.5 1 1.5
v -1.5 1 0.5
v -0.5 1 0.5
v 0.5 1 0.5
v 1.5 1 0.5
v -1.5 1 -0.5
v -0.5 1 -0.5
v 0.5 1 -0.5
v 1.5 1 -0.5
v -0.5 1 -1.5
v 0.5 1 -1.5
v -0.5 7 2.5
v 0.5 7 2.5
v -1.5 7 1.5
v -0.5 7 1.5
v 0.5 7 1.5
v 1.5 7 1.5
v -0.5 7 0.5
v 0.5 7 0.5
v -0.5 7 -0.5
v 0.5 7 -0.5
v -1.5 7 -1.5
v -0.5 7 -1.5
v 0.5 7 -1.5
v 1.5 7 -1.5
v -0.5 7 -2.5
v 0.5 7 -2.5
v -0.5 22 0.5
v 0.5 22 0.5
v -0.5 22 -0.5
v 0.5 22 -0.5

# faces
f 3/2/1 2/2/1 1/2/1
f 4/2/1 2/2/1 3/2/1
f 7/2/1 6/2/1 5/2/1
f 8/2/1 6/2/1 7/2/1
f 13/2/1 10/2/1 9/2/1
f 14/2/1 10/2/1 13/2/1
f 15/2/1 12/2/1 11/2/1
f 16/2/1 12/2/1 15/2/1
f 17/3/1 15/3/1 14/3/1
f 18/3/1 15/3/1 17/3/1
f 19/1/1 18/1/1 17/1/1
f 20/1/1 18/1/1 19/1/1
f 21/3/1 20/3/1 19/3/1
f 22/3/1 20/3/1 21/3/1
f 23/1/1 22/1/1 21/1/1
f 24/1/1 22/1/1 23/1/1
f 27/3/1 24/3/1 23/3/1
f 28/3/1 24/3/1 27/3/1
f 31/2/1 26/2/1 25/2/1
f 32/2/1 26/2/1 31/2/1
f 35/2/1 30/2/1 29/2/1
f 36/2/1 30/2/1 35/2/1
f 37/1/1 34/1/1 33/1/1
f 38/1/1 34/1/1 37/1/1
f 39/2/2 40/2/2 43/2/2
f 43/2/2 40/2/2 44/2/2
f 41/2/2 42/2/2 45/2/2
f 45/2/2 42/2/2 46/2/2
f 44/3/2 45/3/2 47/3/2
f 47/3/2 45/3/2 48/3/2
f 47/1/2 48/1/2 49/1/2
f 49/1/2 48/1/2 50/1/2
f 49/3/2 50/3/2 51/3/2
f 51/3/2 50/3/2 52/3/2
f 51/1/2 52/1/2 53/1/2
f 53/1/2 52/1/2 54/1/2
f 53/3/2 54/3/2 57/3/2
f 57/3/2 54/3/2 58/3/2
f 55/2/2 56/2/2 61/2/2
f 61/2/2 56/2/2 62/2/2
f 59/2/2 60/2/2 65/2/2
f 65/2/2 60/2/2 66/2/2
f 63/1/2 64/1/2 67/1/2
f 67/1/2 64/1/2 68/1/2
f 69/2/2 70/2/2 71/2/2
f 71/2/2 70/2/2 72/2/2
f 73/2/2 74/2/2 75/2/2
f 75/2/2 74/2/2 76/2/2
f 79/2/3 78/2/3 77/2/3
f 80/2/3 78/2/3 79/2/3
f 85/2/3 82/2/3 81/2/3
f 86/2/3 82/2/3 85/2/3
f 87/2/3 84/2/3 83/2/3
f 88/2/3 84/2/3 87/2/3
f 91/2/3 90/2/3 89/2/3
f 92/2/3 90/2/3 91/2/3
f 95/2/3 94/2/3 93/2/3
f 96/2/3 94/2/3 95/2/3
f 105/3/3 97/3/3 96/3/3
f 106/1/3 98/1/3 97/1/3
f 106/3/3 97/3/3 105/3/3
f 107/3/3 99/3/3 98/3/3
f 107/1/3 98/1/3 106/1/3
f 108/1/3 100/1/3 99/1/3
f 108/3/3 99/3/3 107/3/3
f 109/3/3 101/3/3 100/3/3
f 109/1/3 100/1/3 108/1/3
f 110/3/3 101/3/3 109/3/3
f 111/1/3 103/1/3 102/1/3
f 112/1/3 103/1/3 111/1/3
f 113/2/3 105/2/3 104/2/3
f 114/2/3 105/2/3 113/2/3
f 115/2/4 116/2/4 117/2/4
f 117/2/4 116/2/4 118/2/4
f 118/3/4 119/3/4 127/3/4
f 119/1/4 120/1/4 128/1/4
f 127/3/4 119/3/4 128/3/4
f 120/3/4 121/3/4 129/3/4
f 128/1/4 120/1/4 129/1/4
f 121/1/4 122/1/4 130/1/4
f 129/3/4 121/3/4 130/3/4
f 122/3/4 123/3/4 131/3/4
f 130/1/4 122/1/4 131/1/4
f 131/3/4 123/3/4 132/3/4
f 124/1/4 125/1/4 133/1/4
f 133/1/4 125/1/4 134/1/4
f 126/2/4 127/2/4 135/2/4
f 135/2/4 127/2/4 136/2/4
f 137/2/4 138/2/4 141/2/4
f 141/2/4 138/2/4 142/2/4
f 139/2/4 140/2/4 143/2/4
f 143/2/4 140/2/4 144/2/4
f 145/2/4 146/2/4 147/2/4
f 147/2/4 146/2/4 148/2/4
f 149/2/4 150/2/4 151/2/4
f 151/2/4 150/2/4 152/2/4
f 156/2/5 154/2/5 153/2/5
f 157/2/5 154/2/5 156/2/5
f 159/2/5 156/2/5 155/2/5
f 159/2/5 158/2/5 157/2/5
f 159/2/5 157/2/5 156/2/5
f 160/2/5 158/2/5 159/2/5
f 161/2/5 158/2/5 160/2/5
f 162/2/5 158/2/5 161/2/5
f 163/2/5 161/2/5 160/2/5
f 164/2/5 161/2/5 163/2/5
f 168/2/5 166/2/5 165/2/5
f 169/2/5 166/2/5 168/2/5
f 171/2/5 168/2/5 167/2/5
f 171/2/5 170/2/5 169/2/5
f 171/2/5 169/2/5 168/2/5
f 172/2/5 170/2/5 171/2/5
f 173/2/5 171/2/5 167/2/5
f 174/2/5 170/2/5 172/2/5
f 175/2/5 173/2/5 167/2/5
f 175/2/5 174/2/5 173/2/5
f 176/2/5 174/2/5 175/2/5
f 177/2/5 170/2/5 174/2/5
f 177/2/5 174/2/5 176/2/5
f 178/2/5 170/2/5 177/2/5
f 179/2/5 177/2/5 176/2/5
f 180/2/5 177/2/5 179/2/5
f 181/2/6 182/2/6 184/2/6
f 184/2/6 182/2/6 185/2/6
f 183/2/6 184/2/6 187/2/6
f 187/2/6 184/2/6 188/2/6
f 185/2/6 186/2/6 189/2/6
f 189/2/6 186/2/6 190/2/6
f 188/2/6 189/2/6 191/2/6
f 191/2/6 189/2/6 192/2/6
f 193/2/6 194/2/6 196/2/6
f 196/2/6 194/2/6 197/2/6
f 195/2/6 196/2/6 199/2/6
f 197/2/6 198/2/6 199/2/6
f 196/2/6 197/2/6 199/2/6
f 199/2/6 198/2/6 200/2/6
f 195/2/6 199/2/6 201/2/6
f 200/2/6 198/2/6 202/2/6
f 195/2/6 201/2/6 203/2/6
f 201/2/6 202/2/6 203/2/6
f 203/2/6 202/2/6 204/2/6
f 202/2/6 198/2/6 205/2/6
f 204/2/6 202/2/6 205/2/6
f 205/2/6 198/2/6 206/2/6
f 204/2/6 205/2/6 207/2/6
f 207/2/6 205/2/6 208/2/6
f 209/1/6 210/1/6 211/1/6
f 211/1/6 210/1/6 212/1/6
